<?xml version="1.0" encoding="UTF-8"?>
<svg width="130px" height="41px" viewBox="0 0 130 41" version="1.1" xmlns="http://www.w3.org/2000/svg" xmlns:xlink="http://www.w3.org/1999/xlink">
    <!-- Generator: Sketch 59.1 (86144) - https://sketch.com -->
    <title>APK</title>
    <desc>Created with Sketch.</desc>
    <g id="页面-1" stroke="none" stroke-width="1" fill="none" fill-rule="evenodd">
        <g id="第一屏" transform="translate(-808.000000, -703.000000)">
            <g id="APK" transform="translate(808.000000, 703.984638)">
                <rect id="Rectangle备份-2" stroke="#F2F2F2" x="0.5" y="0.5" width="129" height="39" rx="2"></rect>
                <path d="M42.8300781,16 L42.8300781,8.890625 L45.0664062,8.890625 C45.9941453,8.890625 46.7403943,9.17626667 47.3051758,9.74755859 C47.8699573,10.3188505 48.1523438,11.0569616 48.1523438,11.9619141 L48.1523438,12.9335938 C48.1523438,13.8418014 47.8699573,14.5799125 47.3051758,15.1479492 C46.7403943,15.7159859 45.9941453,16 45.0664062,16 L42.8300781,16 Z M43.7919922,9.64746094 L43.7919922,15.2480469 L45.0664062,15.2480469 C45.7239616,15.2480469 46.2423484,15.0315777 46.621582,14.5986328 C47.0008157,14.1656879 47.1904297,13.6106805 47.1904297,12.9335938 L47.1904297,11.9521484 C47.1904297,11.2815722 47.0008157,10.7298199 46.621582,10.296875 C46.2423484,9.86393013 45.7239616,9.64746094 45.0664062,9.64746094 L43.7919922,9.64746094 Z M49.2460938,13.3095703 C49.2460938,12.5283164 49.4576802,11.8846054 49.8808594,11.378418 C50.3040386,10.8722305 50.8785771,10.6191406 51.6044922,10.6191406 C52.3369177,10.6191406 52.9155252,10.8714167 53.340332,11.3759766 C53.7651388,11.8805364 53.9775391,12.5250612 53.9775391,13.3095703 L53.9775391,13.4169922 C53.9775391,14.2047565 53.7659526,14.8492813 53.3427734,15.3505859 C52.9195942,15.8518905 52.3434281,16.1025391 51.6142578,16.1025391 C50.8850875,16.1025391 50.3081076,15.8510767 49.8833008,15.3481445 C49.458494,14.8452123 49.2460938,14.2015013 49.2460938,13.4169922 L49.2460938,13.3095703 Z M50.2080078,13.4169922 C50.2080078,13.9768908 50.3260079,14.4391258 50.5620117,14.8037109 C50.7980155,15.1682961 51.1487607,15.3505859 51.6142578,15.3505859 C52.0732445,15.3505859 52.4215483,15.1682961 52.6591797,14.8037109 C52.8968111,14.4391258 53.015625,13.9768908 53.015625,13.4169922 L53.015625,13.3095703 C53.015625,12.7561821 52.8959973,12.2955748 52.6567383,11.9277344 C52.4174793,11.559894 52.0667341,11.3759766 51.6044922,11.3759766 C51.1455055,11.3759766 50.7980155,11.559894 50.5620117,11.9277344 C50.3260079,12.2955748 50.2080078,12.7561821 50.2080078,13.3095703 L50.2080078,13.4169922 Z M56.5068359,14.0761719 L56.6289062,14.7548828 L56.6582031,14.7548828 L56.7851562,14.0761719 L57.8398438,10.7167969 L58.6113281,10.7167969 L59.6708984,14.0761719 L59.8076172,14.8330078 L59.8369141,14.8330078 L59.9931641,14.0761719 L60.7744141,10.7167969 L61.7802734,10.7167969 L60.2470703,16 L59.4707031,16 L58.4257812,12.7822266 L58.2255859,11.9423828 L58.1962891,11.9423828 L58.0107422,12.7822266 L56.9853516,16 L56.2089844,16 L54.6757812,10.7167969 L55.6767578,10.7167969 L56.5068359,14.0761719 Z M63.5820312,10.7167969 L63.6503906,11.5029297 C63.8261728,11.2229804 64.0467109,11.0056974 64.3120117,10.8510742 C64.5773125,10.696451 64.8792301,10.6191406 65.2177734,10.6191406 C65.7874377,10.6191406 66.2285141,10.7859684 66.5410156,11.1196289 C66.8535172,11.4532894 67.0097656,11.968421 67.0097656,12.6650391 L67.0097656,16 L66.0478516,16 L66.0478516,12.6845703 C66.0478516,12.2190732 65.9558928,11.8886729 65.7719727,11.6933594 C65.5880525,11.4980459 65.3072936,11.4003906 64.9296875,11.4003906 C64.6334621,11.4003906 64.3819997,11.4597976 64.175293,11.5786133 C63.9685862,11.697429 63.8050136,11.8642567 63.6845703,12.0791016 L63.6845703,16 L62.7226562,16 L62.7226562,10.7167969 L63.5820312,10.7167969 Z M69.4462891,16 L68.484375,16 L68.484375,8.3828125 L69.4462891,8.3828125 L69.4462891,16 Z M70.7011719,13.3095703 C70.7011719,12.5283164 70.9127583,11.8846054 71.3359375,11.378418 C71.7591167,10.8722305 72.3336552,10.6191406 73.0595703,10.6191406 C73.7919958,10.6191406 74.3706033,10.8714167 74.7954102,11.3759766 C75.220217,11.8805364 75.4326172,12.5250612 75.4326172,13.3095703 L75.4326172,13.4169922 C75.4326172,14.2047565 75.2210308,14.8492813 74.7978516,15.3505859 C74.3746724,15.8518905 73.7985063,16.1025391 73.0693359,16.1025391 C72.3401656,16.1025391 71.7631857,15.8510767 71.3383789,15.3481445 C70.9135721,14.8452123 70.7011719,14.2015013 70.7011719,13.4169922 L70.7011719,13.3095703 Z M71.6630859,13.4169922 C71.6630859,13.9768908 71.7810861,14.4391258 72.0170898,14.8037109 C72.2530936,15.1682961 72.6038388,15.3505859 73.0693359,15.3505859 C73.5283226,15.3505859 73.8766264,15.1682961 74.1142578,14.8037109 C74.3518892,14.4391258 74.4707031,13.9768908 74.4707031,13.4169922 L74.4707031,13.3095703 C74.4707031,12.7561821 74.3510754,12.2955748 74.1118164,11.9277344 C73.8725574,11.559894 73.5218122,11.3759766 73.0595703,11.3759766 C72.6005836,11.3759766 72.2530936,11.559894 72.0170898,11.9277344 C71.7810861,12.2955748 71.6630859,12.7561821 71.6630859,13.3095703 L71.6630859,13.4169922 Z M80.8476562,16 L79.8564453,16 L79.8011068,15.7059463 C79.7935113,15.6610968 79.7867296,15.618327 79.7807617,15.5776367 C79.762858,15.4555658 79.7522787,15.3326829 79.7490234,15.2089844 C79.5699861,15.4628919 79.3364272,15.6752921 79.0483398,15.8461914 C78.7602525,16.0170907 78.450197,16.1025391 78.1181641,16.1025391 C77.5680311,16.1025391 77.1489272,15.9617527 76.8608398,15.6801758 C76.5727525,15.3985989 76.4287109,15.0104191 76.4287109,14.515625 C76.4287109,14.0110652 76.6329732,13.6163751 77.0415039,13.331543 C77.4500346,13.0467108 78.0042283,12.9042969 78.7041016,12.9042969 L79.7490234,12.9042969 L79.7490234,12.3818359 C79.7490234,12.0725896 79.6546233,11.8276376 79.4658203,11.6469727 C79.2770173,11.4663077 79.0100929,11.3759766 78.6650391,11.3759766 C78.3525375,11.3759766 78.1002614,11.4541008 77.9082031,11.6103516 C77.7161449,11.7666023 77.6201172,11.953775 77.6201172,12.171875 L76.7070312,12.1816406 L76.6972656,12.1523438 C76.6744791,11.7682272 76.8543275,11.4166683 77.2368164,11.0976562 C77.6193053,10.7786442 78.1132782,10.6191406 78.71875,10.6191406 C79.3177113,10.6191406 79.7994773,10.7713201 80.1640625,11.0756836 C80.5286477,11.3800471 80.7109375,11.818682 80.7109375,12.3916016 L80.7109375,14.9355469 C80.7109375,15.1243499 80.720703,15.3066397 80.7402344,15.4824219 C80.7597657,15.658204 80.7955727,15.8307283 80.8476562,16 Z M78.2597656,15.296875 C78.6080747,15.296875 78.9221991,15.2073577 79.2021484,15.0283203 C79.4820978,14.849283 79.6643876,14.6442069 79.7490234,14.4130859 L79.7490234,13.5537109 L78.6699219,13.5537109 C78.2825501,13.5537109 77.9724947,13.6513662 77.7397461,13.8466797 C77.5069975,14.0419932 77.390625,14.2714831 77.390625,14.5351562 C77.390625,14.7695324 77.4638665,14.9550774 77.6103516,15.0917969 C77.7568367,15.2285163 77.9733059,15.296875 78.2597656,15.296875 Z M81.8876953,13.4560547 C81.8876953,12.6064411 82.0691714,11.9212266 82.4321289,11.4003906 C82.7950865,10.8795547 83.3037077,10.6191406 83.9580078,10.6191406 C84.2672542,10.6191406 84.5415027,10.6761062 84.7807617,10.7900391 C85.0200207,10.9039719 85.224283,11.0699859 85.3935547,11.2880859 L85.3935547,8.3828125 L86.3554688,8.3828125 L86.3554688,16 L85.6181641,16 L85.4716797,15.3310547 C85.2991528,15.5849622 85.0859388,15.7770176 84.8320312,15.9072266 C84.5781237,16.0374355 84.2835303,16.1025391 83.9482422,16.1025391 C83.3037077,16.1025391 82.7991555,15.8689802 82.4345703,15.4018555 C82.0699852,14.9347307 81.8876953,14.3203163 81.8876953,13.5585938 L81.8876953,13.4560547 Z M82.8496094,13.5585938 C82.8496094,14.0924506 82.9586578,14.5196924 83.1767578,14.840332 C83.3948579,15.1609717 83.7333961,15.3212891 84.1923828,15.3212891 C84.4788426,15.3212891 84.7197256,15.2561855 84.9150391,15.1259766 C85.1103525,14.9957676 85.2698562,14.8134777 85.3935547,14.5791016 L85.3935547,12.1132812 C85.2698562,11.8951812 85.1095387,11.7218431 84.9125977,11.5932617 C84.7156566,11.4646803 84.4788425,11.4003906 84.2021484,11.4003906 C83.7399065,11.4003906 83.3989269,11.5908184 83.1791992,11.9716797 C82.9594716,12.352541 82.8496094,12.8473277 82.8496094,13.4560547 L82.8496094,13.5585938 Z M90.6767578,16 L90.6767578,11.4296875 L89.8515625,11.4296875 L89.8515625,10.7167969 L90.6767578,10.7167969 L90.6767578,10.0478516 C90.6767578,9.48469771 90.8240545,9.04931794 91.1186523,8.74169922 C91.4132502,8.43408049 91.8242161,8.28027344 92.3515625,8.28027344 C92.4622401,8.28027344 92.5737299,8.28922517 92.6860352,8.30712891 C92.7983404,8.32503264 92.9228509,8.35026025 93.0595703,8.3828125 L92.9423828,9.11523438 C92.8837888,9.10221348 92.8129887,9.09082036 92.7299805,9.08105469 C92.6469722,9.07128901 92.5598963,9.06640625 92.46875,9.06640625 C92.1888007,9.06640625 91.9804694,9.15022703 91.84375,9.31787109 C91.7070306,9.48551516 91.6386719,9.72883955 91.6386719,10.0478516 L91.6386719,10.7167969 L92.5957031,10.7167969 L92.5957031,11.4296875 L91.6386719,11.4296875 L91.6386719,16 L90.6767578,16 Z M96.0673828,11.5664062 L95.5742188,11.5371094 C95.3203112,11.5371094 95.1062834,11.5973301 94.9321289,11.7177734 C94.7579744,11.8382167 94.6236984,12.0074859 94.5292969,12.2255859 L94.5292969,16 L93.5673828,16 L93.5673828,10.7167969 L94.4267578,10.7167969 L94.5195312,11.4882812 C94.6692716,11.2148424 94.8540028,11.0016284 95.0737305,10.8486328 C95.2934581,10.6956373 95.546548,10.6191406 95.8330078,10.6191406 C95.9046228,10.6191406 95.9729814,10.6248372 96.0380859,10.6362305 C96.1031904,10.6476238 96.1569008,10.6598307 96.1992188,10.6728516 L96.0673828,11.5664062 Z M96.84375,13.3095703 C96.84375,12.5283164 97.0553364,11.8846054 97.4785156,11.378418 C97.9016948,10.8722305 98.4762333,10.6191406 99.2021484,10.6191406 C99.934574,10.6191406 100.513181,10.8714167 100.937988,11.3759766 C101.362795,11.8805364 101.575195,12.5250612 101.575195,13.3095703 L101.575195,13.4169922 C101.575195,14.2047565 101.363609,14.8492813 100.94043,15.3505859 C100.51725,15.8518905 99.9410844,16.1025391 99.2119141,16.1025391 C98.4827437,16.1025391 97.9057638,15.8510767 97.480957,15.3481445 C97.0561502,14.8452123 96.84375,14.2015013 96.84375,13.4169922 L96.84375,13.3095703 Z M97.8056641,13.4169922 C97.8056641,13.9768908 97.9236642,14.4391258 98.159668,14.8037109 C98.3956718,15.1682961 98.7464169,15.3505859 99.2119141,15.3505859 C99.6709007,15.3505859 100.019205,15.1682961 100.256836,14.8037109 C100.494467,14.4391258 100.613281,13.9768908 100.613281,13.4169922 L100.613281,13.3095703 C100.613281,12.7561821 100.493654,12.2955748 100.254395,11.9277344 C100.015136,11.559894 99.6643903,11.3759766 99.2021484,11.3759766 C98.7431618,11.3759766 98.3956718,11.559894 98.159668,11.9277344 C97.9236642,12.2955748 97.8056641,12.7561821 97.8056641,13.3095703 L97.8056641,13.4169922 Z M103.611328,10.7167969 L103.679688,11.4101562 C103.852214,11.159504 104.071125,10.9650072 104.336426,10.8266602 C104.601727,10.6883131 104.910154,10.6191406 105.261719,10.6191406 C105.613283,10.6191406 105.915201,10.70052 106.16748,10.8632812 C106.41976,11.0260425 106.609374,11.2701807 106.736328,11.5957031 C106.9056,11.2929672 107.126138,11.0545256 107.397949,10.8803711 C107.66976,10.7062166 107.987954,10.6191406 108.352539,10.6191406 C108.889651,10.6191406 109.314452,10.8038719 109.626953,11.1733398 C109.939455,11.5428078 110.095703,12.0986291 110.095703,12.8408203 L110.095703,16 L109.133789,16 L109.133789,12.8310547 C109.133789,12.3102188 109.044272,11.9415701 108.865234,11.7250977 C108.686197,11.5086252 108.419273,11.4003906 108.064453,11.4003906 C107.735675,11.4003906 107.469565,11.5143218 107.266113,11.7421875 C107.062662,11.9700532 106.943034,12.2581363 106.907227,12.6064453 L106.907227,16 L105.94043,16 L105.94043,12.8310547 C105.94043,12.3362605 105.848471,11.9741222 105.664551,11.7446289 C105.480631,11.5151356 105.216148,11.4003906 104.871094,11.4003906 C104.578124,11.4003906 104.337241,11.4606114 104.148438,11.5810547 C103.959634,11.701498 103.814779,11.8707671 103.713867,12.0888672 L103.713867,16 L102.751953,16 L102.751953,10.7167969 L103.611328,10.7167969 Z" id="Downloadfrom" fill="#000000" fill-rule="nonzero"></path>
                <path d="M48.2275391,28.6757812 L44.7001953,28.6757812 L43.9345703,31 L42.21875,31 L45.6914062,21.046875 L47.2705078,21.046875 L50.7021484,31 L48.9863281,31 L48.2275391,28.6757812 Z M45.1582031,27.2880859 L47.7763672,27.2880859 L46.4980469,23.3642578 L46.4570312,23.3642578 L45.1582031,27.2880859 Z M58.2421875,27.5478516 C58.2421875,28.6233778 57.9892603,29.4915332 57.4833984,30.1523438 C56.9775365,30.8131543 56.273442,31.1435547 55.3710938,31.1435547 C54.9518208,31.1435547 54.5804053,31.0683601 54.2568359,30.9179688 C53.9332666,30.7675774 53.6552746,30.5465509 53.4228516,30.2548828 L53.4228516,33.84375 L51.7617188,33.84375 L51.7617188,23.6035156 L53.1630859,23.6035156 L53.3271484,24.5332031 C53.5641288,24.1868472 53.850096,23.922527 54.1850586,23.7402344 C54.5200212,23.5579418 54.9085264,23.4667969 55.3505859,23.4667969 C56.2620488,23.4667969 56.9718399,23.8279586 57.4799805,24.550293 C57.988121,25.2726273 58.2421875,26.2239524 58.2421875,27.4042969 L58.2421875,27.5478516 Z M56.5878906,27.4042969 C56.5878906,26.6477827 56.4454767,26.0291365 56.1606445,25.5483398 C55.8758124,25.0675432 55.4508492,24.8271484 54.8857422,24.8271484 C54.5393863,24.8271484 54.2454439,24.9012037 54.0039062,25.0493164 C53.7623686,25.1974291 53.5686856,25.4036445 53.4228516,25.6679688 L53.4228516,29.0107422 C53.5686856,29.2705091 53.7623686,29.4698886 54.0039062,29.6088867 C54.2454439,29.7478848 54.5439435,29.8173828 54.8994141,29.8173828 C55.4645211,29.8173828 55.8872056,29.6088888 56.1674805,29.1918945 C56.4477553,28.7749003 56.5878906,28.2268914 56.5878906,27.5478516 L56.5878906,27.4042969 Z M61.9677734,27.7666016 L61.3525391,27.7666016 L61.3525391,31 L59.6982422,31 L59.6982422,20.3359375 L61.3525391,20.3359375 L61.3525391,26.4335938 L61.9199219,26.4335938 L63.9228516,23.6035156 L65.8710938,23.6035156 L63.3349609,27.0078125 L66.1513672,31 L64.2167969,31 L61.9677734,27.7666016 Z M76.3505859,26.7548828 L72.3378906,26.7548828 L72.3378906,31 L70.6767578,31 L70.6767578,21.046875 L77.0478516,21.046875 L77.0478516,22.3798828 L72.3378906,22.3798828 L72.3378906,25.421875 L76.3505859,25.421875 L76.3505859,26.7548828 Z M80.0283203,31 L78.3671875,31 L78.3671875,23.6035156 L80.0283203,23.6035156 L80.0283203,31 Z M80.0283203,21.7919922 L78.3671875,21.7919922 L78.3671875,20.3359375 L80.0283203,20.3359375 L80.0283203,21.7919922 Z M83.6582031,31 L81.9970703,31 L81.9970703,20.3359375 L83.6582031,20.3359375 L83.6582031,31 Z M88.6552734,31.1435547 C87.5751899,31.1435547 86.7309601,30.8029005 86.1225586,30.121582 C85.5141571,29.4402635 85.2099609,28.5572971 85.2099609,27.4726562 L85.2099609,27.1992188 C85.2099609,26.1145779 85.5141571,25.2202184 86.1225586,24.5161133 C86.7309601,23.8120082 87.5159457,23.4622396 88.4775391,23.4667098 C89.4710336,23.4667098 90.2229792,23.7732717 90.7333984,24.3862305 C91.2438177,24.9991893 91.4990234,25.8183542 91.4990234,26.84375 L91.4990234,27.7392578 L86.9257812,27.7392578 L86.9121094,27.7734375 C86.9303386,28.3795603 87.0898422,28.8717429 87.390625,29.25 C87.6914078,29.6282571 88.1448537,29.8173828 88.7509766,29.8173828 C89.2021507,29.8173828 89.5929345,29.7626959 89.9233398,29.6533203 C90.2537451,29.5439448 90.5602199,29.3867198 90.8427734,29.1816406 L91.3828125,30.2685547 C91.100259,30.5146497 90.7265648,30.7220044 90.2617188,30.890625 C89.7968727,31.0592456 89.2613963,31.1435547 88.6552734,31.1435547 Z" id="ApkFile" fill="#000000" fill-rule="nonzero"></path>
                <path d="M88.4775391,24.7998047 C88.9560571,24.7998047 89.3058257,24.9467759 89.5268555,25.2407227 C89.7478852,25.5346694 89.8583984,25.9186174 89.8583984,26.3925781 L89.8583984,26.5224609 L86.9667969,26.5224609 L86.953125,26.4882812 C87.0169274,25.9869767 87.1787096,25.5802424 87.4384766,25.2680664 C87.6982435,24.9558904 88.0445942,24.7998047 88.4775391,24.7998047 Z" id="路径" fill="#FFFFFF" fill-rule="nonzero"></path>
                <path d="M24.0407951,12.5960293 L24.9811854,11.2328146 C25.0213122,11.1746878 25.006561,11.0943463 24.9483463,11.0543073 L24.9249244,11.0379976 C24.8665341,10.9977829 24.7863683,11.012622 24.7461537,11.0708585 L23.7788293,12.4730585 C23.147139,12.1991951 22.4423073,12.0463049 21.6985341,12.0463049 C20.9928244,12.0463049 20.3217756,12.1840927 19.7152854,12.4321634 L18.7910293,11.0924585 C18.7509024,11.0340683 18.6704732,11.0194927 18.6123244,11.0596195 L18.5889244,11.0757317 C18.5306878,11.1158585 18.5158707,11.1963756 18.5559098,11.2545244 L19.4496537,12.5499756 C18.0444244,13.2213756 17.0344927,14.5015927 16.8288756,16.0132195 L26.5681049,16.0132195 C26.367361,14.5353756 25.3973146,13.2786683 24.0407951,12.5960293 Z M19.6478951,14.5487439 C19.3799366,14.5487439 19.1625756,14.3314707 19.1625756,14.0634244 C19.1625756,13.795378 19.3799366,13.5780829 19.6478951,13.5780829 C19.9158537,13.5780829 20.1331268,13.795378 20.1331268,14.0634244 C20.1331268,14.3314707 19.9158537,14.5487439 19.6478951,14.5487439 Z M23.8371537,14.5487439 C23.5691073,14.5487439 23.3518122,14.3314707 23.3518122,14.0634244 C23.3518122,13.795378 23.5691073,13.5780829 23.8371537,13.5780829 C24.1051122,13.5780829 24.3222976,13.795378 24.3222976,14.0634244 C24.3222976,14.3314707 24.1051122,14.5487439 23.8371537,14.5487439 Z M14.9682463,16.7192585 L15.1833902,16.7192585 C15.7158829,16.7192585 16.1514829,17.2768634 16.1514829,17.9584707 L16.1514829,21.9343854 C16.1514829,22.616322 15.7158829,23.1737732 15.1833902,23.1737732 L14.9682463,23.1737732 C14.4356,23.1737732 14,22.616322 14,21.9343854 L14,17.9584707 C14,17.2768634 14.4356,16.7192585 14.9682463,16.7192585 Z M28.2809805,16.7428341 L28.4962122,16.7428341 C29.0287049,16.7428341 29.4642829,17.3003732 29.4642829,17.9820463 L29.4642829,21.9581366 C29.4642829,22.6397439 29.0287049,23.1975244 28.4962122,23.1975244 L28.2809805,23.1975244 C27.7484878,23.1975244 27.3127341,22.6397439 27.3127341,21.9581366 L27.3127341,17.9820463 C27.3127341,17.3003732 27.7484878,16.7428341 28.2809805,16.7428341 Z M20.8645634,25.4939951 L20.8645634,27.7350829 C20.8645634,28.4164268 20.4290512,28.9741195 19.8963829,28.9741195 L19.6811732,28.9741195 C19.1485927,28.9741195 18.7130805,28.4164268 18.7130805,27.7350829 L18.7130805,25.4939951 L17.8226073,25.4939951 C17.2779317,25.4939951 16.8323878,25.0484512 16.8323878,24.503622 L16.8323878,16.6582122 L26.6424537,16.6582122 L26.6424537,24.503622 C26.6424537,25.0484512 26.1969098,25.4939951 25.6522341,25.4939951 L24.8354073,25.4939951 L24.8354073,27.7612268 C24.8354073,28.4427463 24.3997415,28.9780707 23.8673366,28.9780707 L23.6521049,28.9780707 C23.1195244,28.9780707 22.6840122,28.4427463 22.6840122,27.7612268 L22.6840122,25.4939951 L20.8645634,25.4939951 Z" id="Fill-1" fill="#000000"></path>
            </g>
        </g>
    </g>
</svg>