<?xml version="1.0" encoding="UTF-8"?>
<svg width="130px" height="41px" viewBox="0 0 130 41" version="1.1" xmlns="http://www.w3.org/2000/svg" xmlns:xlink="http://www.w3.org/1999/xlink">
    <!-- Generator: Sketch 59.1 (86144) - https://sketch.com -->
    <title>IOS</title>
    <desc>Created with Sketch.</desc>
    <g id="页面-1" stroke="none" stroke-width="1" fill="none" fill-rule="evenodd">
        <g id="第一屏" transform="translate(-808.000000, -803.000000)">
            <g id="IOS" transform="translate(808.000000, 803.984638)">
                <rect id="Rectangle备份-2" stroke="#F2F2F2" x="0.5" y="0.5" width="129" height="39" rx="2"></rect>
                <path d="M42.8300781,16 L42.8300781,8.890625 L45.0664062,8.890625 C45.9941453,8.890625 46.7403943,9.17626667 47.3051758,9.74755859 C47.8699573,10.3188505 48.1523438,11.0569616 48.1523438,11.9619141 L48.1523438,12.9335938 C48.1523438,13.8418014 47.8699573,14.5799125 47.3051758,15.1479492 C46.7403943,15.7159859 45.9941453,16 45.0664062,16 L42.8300781,16 Z M43.7919922,9.64746094 L43.7919922,15.2480469 L45.0664062,15.2480469 C45.7239616,15.2480469 46.2423484,15.0315777 46.621582,14.5986328 C47.0008157,14.1656879 47.1904297,13.6106805 47.1904297,12.9335938 L47.1904297,11.9521484 C47.1904297,11.2815722 47.0008157,10.7298199 46.621582,10.296875 C46.2423484,9.86393013 45.7239616,9.64746094 45.0664062,9.64746094 L43.7919922,9.64746094 Z M49.2460938,13.3095703 C49.2460938,12.5283164 49.4576802,11.8846054 49.8808594,11.378418 C50.3040386,10.8722305 50.8785771,10.6191406 51.6044922,10.6191406 C52.3369177,10.6191406 52.9155252,10.8714167 53.340332,11.3759766 C53.7651388,11.8805364 53.9775391,12.5250612 53.9775391,13.3095703 L53.9775391,13.4169922 C53.9775391,14.2047565 53.7659526,14.8492813 53.3427734,15.3505859 C52.9195942,15.8518905 52.3434281,16.1025391 51.6142578,16.1025391 C50.8850875,16.1025391 50.3081076,15.8510767 49.8833008,15.3481445 C49.458494,14.8452123 49.2460938,14.2015013 49.2460938,13.4169922 L49.2460938,13.3095703 Z M50.2080078,13.4169922 C50.2080078,13.9768908 50.3260079,14.4391258 50.5620117,14.8037109 C50.7980155,15.1682961 51.1487607,15.3505859 51.6142578,15.3505859 C52.0732445,15.3505859 52.4215483,15.1682961 52.6591797,14.8037109 C52.8968111,14.4391258 53.015625,13.9768908 53.015625,13.4169922 L53.015625,13.3095703 C53.015625,12.7561821 52.8959973,12.2955748 52.6567383,11.9277344 C52.4174793,11.559894 52.0667341,11.3759766 51.6044922,11.3759766 C51.1455055,11.3759766 50.7980155,11.559894 50.5620117,11.9277344 C50.3260079,12.2955748 50.2080078,12.7561821 50.2080078,13.3095703 L50.2080078,13.4169922 Z M56.5068359,14.0761719 L56.6289062,14.7548828 L56.6582031,14.7548828 L56.7851562,14.0761719 L57.8398438,10.7167969 L58.6113281,10.7167969 L59.6708984,14.0761719 L59.8076172,14.8330078 L59.8369141,14.8330078 L59.9931641,14.0761719 L60.7744141,10.7167969 L61.7802734,10.7167969 L60.2470703,16 L59.4707031,16 L58.4257812,12.7822266 L58.2255859,11.9423828 L58.1962891,11.9423828 L58.0107422,12.7822266 L56.9853516,16 L56.2089844,16 L54.6757812,10.7167969 L55.6767578,10.7167969 L56.5068359,14.0761719 Z M63.5820312,10.7167969 L63.6503906,11.5029297 C63.8261728,11.2229804 64.0467109,11.0056974 64.3120117,10.8510742 C64.5773125,10.696451 64.8792301,10.6191406 65.2177734,10.6191406 C65.7874377,10.6191406 66.2285141,10.7859684 66.5410156,11.1196289 C66.8535172,11.4532894 67.0097656,11.968421 67.0097656,12.6650391 L67.0097656,16 L66.0478516,16 L66.0478516,12.6845703 C66.0478516,12.2190732 65.9558928,11.8886729 65.7719727,11.6933594 C65.5880525,11.4980459 65.3072936,11.4003906 64.9296875,11.4003906 C64.6334621,11.4003906 64.3819997,11.4597976 64.175293,11.5786133 C63.9685862,11.697429 63.8050136,11.8642567 63.6845703,12.0791016 L63.6845703,16 L62.7226562,16 L62.7226562,10.7167969 L63.5820312,10.7167969 Z M69.4462891,16 L68.484375,16 L68.484375,8.3828125 L69.4462891,8.3828125 L69.4462891,16 Z M70.7011719,13.3095703 C70.7011719,12.5283164 70.9127583,11.8846054 71.3359375,11.378418 C71.7591167,10.8722305 72.3336552,10.6191406 73.0595703,10.6191406 C73.7919958,10.6191406 74.3706033,10.8714167 74.7954102,11.3759766 C75.220217,11.8805364 75.4326172,12.5250612 75.4326172,13.3095703 L75.4326172,13.4169922 C75.4326172,14.2047565 75.2210308,14.8492813 74.7978516,15.3505859 C74.3746724,15.8518905 73.7985062,16.1025391 73.0693359,16.1025391 C72.3401656,16.1025391 71.7631857,15.8510767 71.3383789,15.3481445 C70.9135721,14.8452123 70.7011719,14.2015013 70.7011719,13.4169922 L70.7011719,13.3095703 Z M71.6630859,13.4169922 C71.6630859,13.9768908 71.7810861,14.4391258 72.0170898,14.8037109 C72.2530936,15.1682961 72.6038388,15.3505859 73.0693359,15.3505859 C73.5283226,15.3505859 73.8766264,15.1682961 74.1142578,14.8037109 C74.3518892,14.4391258 74.4707031,13.9768908 74.4707031,13.4169922 L74.4707031,13.3095703 C74.4707031,12.7561821 74.3510754,12.2955748 74.1118164,11.9277344 C73.8725574,11.559894 73.5218122,11.3759766 73.0595703,11.3759766 C72.6005836,11.3759766 72.2530936,11.559894 72.0170898,11.9277344 C71.7810861,12.2955748 71.6630859,12.7561821 71.6630859,13.3095703 L71.6630859,13.4169922 Z M80.8476562,16 L79.8564453,16 L79.8011068,15.7059463 C79.7935113,15.6610968 79.7867296,15.618327 79.7807617,15.5776367 C79.762858,15.4555658 79.7522787,15.3326829 79.7490234,15.2089844 C79.5699861,15.4628919 79.3364272,15.6752921 79.0483398,15.8461914 C78.7602525,16.0170907 78.450197,16.1025391 78.1181641,16.1025391 C77.5680311,16.1025391 77.1489272,15.9617527 76.8608398,15.6801758 C76.5727525,15.3985989 76.4287109,15.0104191 76.4287109,14.515625 C76.4287109,14.0110652 76.6329732,13.6163751 77.0415039,13.331543 C77.4500346,13.0467108 78.0042283,12.9042969 78.7041016,12.9042969 L79.7490234,12.9042969 L79.7490234,12.3818359 C79.7490234,12.0725896 79.6546233,11.8276376 79.4658203,11.6469727 C79.2770173,11.4663077 79.0100929,11.3759766 78.6650391,11.3759766 C78.3525375,11.3759766 78.1002614,11.4541008 77.9082031,11.6103516 C77.7161449,11.7666023 77.6201172,11.953775 77.6201172,12.171875 L76.7070312,12.1816406 L76.6972656,12.1523438 C76.6744791,11.7682272 76.8543275,11.4166683 77.2368164,11.0976562 C77.6193053,10.7786442 78.1132782,10.6191406 78.71875,10.6191406 C79.3177113,10.6191406 79.7994773,10.7713201 80.1640625,11.0756836 C80.5286477,11.3800471 80.7109375,11.818682 80.7109375,12.3916016 L80.7109375,14.9355469 C80.7109375,15.1243499 80.720703,15.3066397 80.7402344,15.4824219 C80.7597657,15.658204 80.7955727,15.8307283 80.8476562,16 Z M78.2597656,15.296875 C78.6080747,15.296875 78.9221991,15.2073577 79.2021484,15.0283203 C79.4820978,14.849283 79.6643876,14.6442069 79.7490234,14.4130859 L79.7490234,13.5537109 L78.6699219,13.5537109 C78.2825501,13.5537109 77.9724947,13.6513662 77.7397461,13.8466797 C77.5069975,14.0419932 77.390625,14.2714831 77.390625,14.5351562 C77.390625,14.7695324 77.4638665,14.9550774 77.6103516,15.0917969 C77.7568367,15.2285163 77.9733059,15.296875 78.2597656,15.296875 Z M81.8876953,13.4560547 C81.8876953,12.6064411 82.0691714,11.9212266 82.4321289,11.4003906 C82.7950865,10.8795547 83.3037077,10.6191406 83.9580078,10.6191406 C84.2672542,10.6191406 84.5415027,10.6761062 84.7807617,10.7900391 C85.0200207,10.9039719 85.224283,11.0699859 85.3935547,11.2880859 L85.3935547,8.3828125 L86.3554688,8.3828125 L86.3554688,16 L85.6181641,16 L85.4716797,15.3310547 C85.2991528,15.5849622 85.0859388,15.7770176 84.8320312,15.9072266 C84.5781237,16.0374355 84.2835303,16.1025391 83.9482422,16.1025391 C83.3037077,16.1025391 82.7991555,15.8689802 82.4345703,15.4018555 C82.0699852,14.9347307 81.8876953,14.3203163 81.8876953,13.5585938 L81.8876953,13.4560547 Z M82.8496094,13.5585938 C82.8496094,14.0924506 82.9586578,14.5196924 83.1767578,14.840332 C83.3948579,15.1609717 83.7333961,15.3212891 84.1923828,15.3212891 C84.4788426,15.3212891 84.7197256,15.2561855 84.9150391,15.1259766 C85.1103525,14.9957676 85.2698562,14.8134777 85.3935547,14.5791016 L85.3935547,12.1132812 C85.2698562,11.8951812 85.1095387,11.7218431 84.9125977,11.5932617 C84.7156566,11.4646803 84.4788425,11.4003906 84.2021484,11.4003906 C83.7399065,11.4003906 83.3989269,11.5908184 83.1791992,11.9716797 C82.9594716,12.352541 82.8496094,12.8473277 82.8496094,13.4560547 L82.8496094,13.5585938 Z M90.6767578,16 L90.6767578,11.4296875 L89.8515625,11.4296875 L89.8515625,10.7167969 L90.6767578,10.7167969 L90.6767578,10.0478516 C90.6767578,9.48469771 90.8240545,9.04931794 91.1186523,8.74169922 C91.4132502,8.43408049 91.8242161,8.28027344 92.3515625,8.28027344 C92.4622401,8.28027344 92.5737299,8.28922517 92.6860352,8.30712891 L92.9269204,8.35270177 C92.9697806,8.36192485 93.0139972,8.37196175 93.0595703,8.3828125 L92.9423828,9.11523438 L92.8089194,9.09136285 C92.7839628,9.08774596 92.7576499,9.08430991 92.7299805,9.08105469 C92.6469722,9.07128901 92.5598963,9.06640625 92.46875,9.06640625 C92.1888007,9.06640625 91.9804694,9.15022703 91.84375,9.31787109 C91.7070306,9.48551516 91.6386719,9.72883955 91.6386719,10.0478516 L91.6386719,10.7167969 L92.5957031,10.7167969 L92.5957031,11.4296875 L91.6386719,11.4296875 L91.6386719,16 L90.6767578,16 Z M96.0673828,11.5664062 L95.5742188,11.5371094 C95.3203112,11.5371094 95.1062834,11.5973301 94.9321289,11.7177734 C94.7579744,11.8382167 94.6236984,12.0074859 94.5292969,12.2255859 L94.5292969,16 L93.5673828,16 L93.5673828,10.7167969 L94.4267578,10.7167969 L94.5195312,11.4882812 C94.6692716,11.2148424 94.8540028,11.0016284 95.0737305,10.8486328 C95.2934581,10.6956373 95.546548,10.6191406 95.8330078,10.6191406 C95.9046228,10.6191406 95.9729814,10.6248372 96.0380859,10.6362305 L96.1531033,10.660102 C96.169741,10.6642614 96.1851128,10.6685113 96.1992188,10.6728516 L96.0673828,11.5664062 Z M96.84375,13.3095703 C96.84375,12.5283164 97.0553364,11.8846054 97.4785156,11.378418 C97.9016948,10.8722305 98.4762333,10.6191406 99.2021484,10.6191406 C99.934574,10.6191406 100.513181,10.8714167 100.937988,11.3759766 C101.362795,11.8805364 101.575195,12.5250612 101.575195,13.3095703 L101.575195,13.4169922 C101.575195,14.2047565 101.363609,14.8492813 100.94043,15.3505859 C100.51725,15.8518905 99.9410844,16.1025391 99.2119141,16.1025391 C98.4827438,16.1025391 97.9057638,15.8510767 97.480957,15.3481445 C97.0561502,14.8452123 96.84375,14.2015013 96.84375,13.4169922 L96.84375,13.3095703 Z M97.8056641,13.4169922 C97.8056641,13.9768908 97.9236642,14.4391258 98.159668,14.8037109 C98.3956718,15.1682961 98.7464169,15.3505859 99.2119141,15.3505859 C99.6709007,15.3505859 100.019205,15.1682961 100.256836,14.8037109 C100.494467,14.4391258 100.613281,13.9768908 100.613281,13.4169922 L100.613281,13.3095703 C100.613281,12.7561821 100.493654,12.2955748 100.254395,11.9277344 C100.015136,11.559894 99.6643903,11.3759766 99.2021484,11.3759766 C98.7431618,11.3759766 98.3956718,11.559894 98.159668,11.9277344 C97.9236642,12.2955748 97.8056641,12.7561821 97.8056641,13.3095703 L97.8056641,13.4169922 Z M103.611328,10.7167969 L103.679688,11.4101562 C103.852214,11.159504 104.071125,10.9650072 104.336426,10.8266602 C104.601727,10.6883131 104.910154,10.6191406 105.261719,10.6191406 C105.613283,10.6191406 105.915201,10.70052 106.16748,10.8632812 C106.41976,11.0260425 106.609374,11.2701807 106.736328,11.5957031 C106.9056,11.2929672 107.126138,11.0545256 107.397949,10.8803711 C107.66976,10.7062166 107.987954,10.6191406 108.352539,10.6191406 C108.889651,10.6191406 109.314452,10.8038719 109.626953,11.1733398 C109.939455,11.5428078 110.095703,12.0986291 110.095703,12.8408203 L110.095703,16 L109.133789,16 L109.133789,12.8310547 C109.133789,12.3102187 109.044272,11.9415701 108.865234,11.7250977 C108.686197,11.5086252 108.419273,11.4003906 108.064453,11.4003906 C107.735675,11.4003906 107.469565,11.5143218 107.266113,11.7421875 C107.062662,11.9700532 106.943034,12.2581363 106.907227,12.6064453 L106.907227,16 L105.94043,16 L105.94043,12.8310547 C105.94043,12.3362605 105.848471,11.9741222 105.664551,11.7446289 C105.480631,11.5151356 105.216148,11.4003906 104.871094,11.4003906 C104.578124,11.4003906 104.337241,11.4606114 104.148438,11.5810547 C103.959634,11.701498 103.814779,11.8707671 103.713867,12.0888672 L103.713867,16 L102.751953,16 L102.751953,10.7167969 L103.611328,10.7167969 Z" id="Downloadfrom" fill="#000000" fill-rule="nonzero"></path>
                <path d="M48.2275391,28.6757812 L44.7001953,28.6757812 L43.9345703,31 L42.21875,31 L45.6914062,21.046875 L47.2705078,21.046875 L50.7021484,31 L48.9863281,31 L48.2275391,28.6757812 Z M45.1582031,27.2880859 L47.7763672,27.2880859 L46.4980469,23.3642578 L46.4570312,23.3642578 L45.1582031,27.2880859 Z M58.2421875,27.5478516 C58.2421875,28.6233778 57.9892603,29.4915332 57.4833984,30.1523438 C56.9775365,30.8131543 56.273442,31.1435547 55.3710938,31.1435547 C54.9518208,31.1435547 54.5804053,31.0683601 54.2568359,30.9179688 C53.9332666,30.7675774 53.6552746,30.5465509 53.4228516,30.2548828 L53.4228516,33.84375 L51.7617188,33.84375 L51.7617188,23.6035156 L53.1630859,23.6035156 L53.3271484,24.5332031 C53.5641288,24.1868472 53.850096,23.922527 54.1850586,23.7402344 C54.5200212,23.5579418 54.9085264,23.4667969 55.3505859,23.4667969 C56.2620488,23.4667969 56.9718399,23.8279586 57.4799805,24.550293 C57.988121,25.2726273 58.2421875,26.2239524 58.2421875,27.4042969 L58.2421875,27.5478516 Z M56.5878906,27.4042969 C56.5878906,26.6477827 56.4454767,26.0291365 56.1606445,25.5483398 C55.8758124,25.0675432 55.4508492,24.8271484 54.8857422,24.8271484 C54.5393863,24.8271484 54.2454439,24.9012037 54.0039062,25.0493164 C53.7623686,25.1974291 53.5686856,25.4036445 53.4228516,25.6679688 L53.4228516,29.0107422 C53.5686856,29.2705091 53.7623686,29.4698886 54.0039062,29.6088867 C54.2454439,29.7478848 54.5439435,29.8173828 54.8994141,29.8173828 C55.4645211,29.8173828 55.8872056,29.6088888 56.1674805,29.1918945 C56.4477553,28.7749003 56.5878906,28.2268914 56.5878906,27.5478516 L56.5878906,27.4042969 Z M66.171875,27.5478516 C66.171875,28.6233778 65.9189478,29.4915332 65.4130859,30.1523438 C64.907224,30.8131543 64.2031295,31.1435547 63.3007812,31.1435547 C62.8815083,31.1435547 62.5100928,31.0683601 62.1865234,30.9179688 C61.8629541,30.7675774 61.5849621,30.5465509 61.3525391,30.2548828 L61.3525391,33.84375 L59.6914062,33.84375 L59.6914062,23.6035156 L61.0927734,23.6035156 L61.2568359,24.5332031 C61.4938163,24.1868472 61.7797835,23.922527 62.1147461,23.7402344 C62.4497087,23.5579418 62.8382139,23.4667969 63.2802734,23.4667969 C64.1917363,23.4667969 64.9015274,23.8279586 65.409668,24.550293 C65.9178085,25.2726273 66.171875,26.2239524 66.171875,27.4042969 L66.171875,27.5478516 Z M64.5175781,27.4042969 C64.5175781,26.6477827 64.3751642,26.0291365 64.090332,25.5483398 C63.8054999,25.0675432 63.3805367,24.8271484 62.8154297,24.8271484 C62.4690738,24.8271484 62.1751314,24.9012037 61.9335938,25.0493164 C61.6920561,25.1974291 61.4983731,25.4036445 61.3525391,25.6679688 L61.3525391,29.0107422 C61.4983731,29.2705091 61.6920561,29.4698886 61.9335938,29.6088867 C62.1751314,29.7478848 62.473631,29.8173828 62.8291016,29.8173828 C63.3942086,29.8173828 63.8168931,29.6088888 64.097168,29.1918945 C64.3774428,28.7749003 64.5175781,28.2268914 64.5175781,27.5478516 L64.5175781,27.4042969 Z M76.5214844,28.4433594 C76.5214844,28.0286438 76.3745132,27.6891289 76.0805664,27.4248047 C75.8192804,27.1898498 75.3788587,26.9765028 74.7592903,26.7847586 L74.5185547,26.7138672 C73.4475858,26.4176417 72.6215849,26.0291365 72.0405273,25.5483398 C71.4594698,25.0675432 71.1689453,24.4397825 71.1689453,23.6650391 C71.1689453,22.8629517 71.4879525,22.202151 72.1259766,21.6826172 C72.7640006,21.1630833 73.5843049,20.9033203 74.5869141,20.9033203 C75.6624403,20.9033203 76.5226205,21.1915661 77.1674805,21.7680664 C77.8123405,22.3445667 78.1233725,23.0566364 78.1005859,23.9042969 L78.0869141,23.9453125 L76.4873047,23.9453125 C76.4873047,23.4212213 76.31299,23.0042333 75.9643555,22.6943359 C75.6157209,22.3844386 75.1520211,22.2294922 74.5732422,22.2294922 C74.0126925,22.2294922 73.5808934,22.3616523 73.277832,22.6259766 C72.9747706,22.8903008 72.8232422,23.2320943 72.8232422,23.6513672 C72.8232422,24.0341816 72.9895817,24.3497709 73.3222656,24.5981445 C73.6179847,24.8189211 74.0865376,25.0297926 74.727936,25.2307639 L74.9765625,25.3056641 C76.0201875,25.5973322 76.815427,25.9949519 77.3623047,26.4985352 C77.9091824,27.0021184 78.1826172,27.6458294 78.1826172,28.4296875 C78.1826172,29.2545614 77.8590527,29.9130835 77.2119141,30.4052734 C76.5647754,30.8974634 75.714849,31.1435547 74.6621094,31.1435547 C73.6503856,31.1435547 72.7685584,30.8746772 72.0166016,30.3369141 C71.2646447,29.799151 70.900065,29.0403695 70.9228516,28.0605469 L70.9365234,28.0195312 L72.5361328,28.0195312 C72.5361328,28.6165394 72.7423482,29.0665675 73.1547852,29.3696289 C73.5672221,29.6726903 74.0696585,29.8242188 74.6621094,29.8242188 C75.2500029,29.8242188 75.7068669,29.7000338 76.0327148,29.4516602 C76.3585628,29.2032865 76.5214844,28.8671896 76.5214844,28.4433594 Z M81.8398438,21.8056641 L81.8398438,23.6035156 L83.1660156,23.6035156 L83.1660156,24.8339844 L81.8398438,24.8339844 L81.8398438,28.921875 C81.8398438,29.2272151 81.9059238,29.4448236 82.0380859,29.574707 C82.1702481,29.7045905 82.345702,29.7695312 82.5644531,29.7695312 C82.6555994,29.7695312 82.7444657,29.7615561 82.8310547,29.7456055 C82.9176437,29.7296549 82.9996741,29.7080079 83.0771484,29.6806641 L83.2548828,30.8974609 C83.1136061,30.9749353 82.9461273,31.0353188 82.7524414,31.0786133 C82.5587555,31.1219078 82.3570974,31.1435547 82.1474609,31.1435547 C81.5367808,31.1435547 81.0571306,30.9646828 80.7084961,30.6069336 C80.3598615,30.2491844 80.1855469,29.6875038 80.1855469,28.921875 L80.1855469,24.8339844 L79.0576172,24.8339844 L79.0576172,23.6035156 L80.1855469,23.6035156 L80.1855469,21.8056641 L81.8398438,21.8056641 Z M84.1982422,27.2333984 C84.1982422,26.1305283 84.5001597,25.2270543 85.1040039,24.5229492 C85.7078481,23.8188441 86.5338489,23.4667969 87.5820312,23.4667969 C88.6438855,23.4667969 89.4767222,23.8188441 90.0805664,24.5229492 C90.6844106,25.2270543 90.9863281,26.1305283 90.9863281,27.2333984 L90.9863281,27.3769531 C90.9863281,28.4889379 90.6844106,29.3946905 90.0805664,30.0942383 C89.4767222,30.793786 88.6484428,31.1435547 87.5957031,31.1435547 C86.5384062,31.1435547 85.7078481,30.7926467 85.1040039,30.0908203 C84.5001597,29.3889939 84.1982422,28.4843805 84.1982422,27.3769531 L84.1982422,27.2333984 Z M85.859375,27.3769531 C85.859375,28.1015661 86.0006496,28.6894509 86.2832031,29.140625 C86.5657566,29.5917991 87.0032522,29.8173828 87.5957031,29.8173828 C88.1744821,29.8173828 88.6085598,29.5906598 88.8979492,29.137207 C89.1873387,28.6837542 89.3320312,28.0970088 89.3320312,27.3769531 L89.3320312,27.2333984 C89.3320312,26.5270147 89.1873387,25.9448265 88.8979492,25.4868164 C88.6085598,25.0288063 88.1699248,24.7998047 87.5820312,24.7998047 C87.0032523,24.7998047 86.5714532,25.0288063 86.2866211,25.4868164 C86.0017889,25.9448265 85.859375,26.5270147 85.859375,27.2333984 L85.859375,27.3769531 Z M96.1201172,25.1005859 L95.4091797,25.0732422 C95.0856104,25.0732422 94.8155935,25.1416009 94.5991211,25.2783203 C94.3826487,25.4150397 94.2151699,25.6087227 94.0966797,25.859375 L94.0966797,31 L92.4355469,31 L92.4355469,23.6035156 L93.953125,23.6035156 L94.0625,24.6767578 C94.2493499,24.2985007 94.4897446,24.0022797 94.7836914,23.7880859 C95.0776382,23.5738922 95.4160137,23.4667969 95.7988281,23.4667969 C95.899089,23.4667969 95.9925126,23.4747721 96.0791016,23.4907227 C96.1656905,23.5066733 96.2454423,23.5260416 96.3183594,23.5488281 L96.1201172,25.1005859 Z M100.488281,31.1435547 C99.4081977,31.1435547 98.5639679,30.8029005 97.9555664,30.121582 C97.3471649,29.4402635 97.0429688,28.5572971 97.0429688,27.4726562 L97.0429688,27.1992188 C97.0429688,26.1145779 97.3471649,25.2202184 97.9555664,24.5161133 C98.5639679,23.8120082 99.3489535,23.4622396 100.310547,23.4667098 C101.304041,23.4667098 102.055987,23.7732717 102.566406,24.3862305 C103.076825,24.9991893 103.332031,25.8183542 103.332031,26.84375 L103.332031,27.7392578 L98.7587891,27.7392578 L98.7451172,27.7734375 C98.7633464,28.3795603 98.9228501,28.8717429 99.2236328,29.25 C99.5244156,29.6282571 99.9778616,29.8173828 100.583984,29.8173828 C101.035159,29.8173828 101.425942,29.7626959 101.756348,29.6533203 C102.086753,29.5439448 102.393228,29.3867198 102.675781,29.1816406 L103.21582,30.2685547 C102.933267,30.5146497 102.559573,30.7220044 102.094727,30.890625 C101.62988,31.0592456 101.094404,31.1435547 100.488281,31.1435547 Z" id="AppStore" fill="#000000" fill-rule="nonzero"></path>
                <path d="M100.310547,24.7998047 C100.789065,24.7998047 101.138834,24.9467759 101.359863,25.2407227 C101.580893,25.5346694 101.691406,25.9186174 101.691406,26.3925781 L101.691406,26.5224609 L98.7998047,26.5224609 L98.7861328,26.4882812 C98.8499352,25.9869767 99.0117175,25.5802424 99.2714844,25.2680664 C99.5312513,24.9558904 99.877602,24.7998047 100.310547,24.7998047 Z" id="路径" fill="#FFFFFF" fill-rule="nonzero"></path>
                <path d="M25.032432,15.2369355 L25.3020795,15.2511721 C25.904836,15.2674012 27.6222793,15.4737433 28.7287091,16.9853732 C28.6395342,17.0356063 26.6842911,18.1113675 26.7057591,20.3216239 C26.7297042,22.972386 29.1828407,23.8479876 29.21174,23.8572614 C29.1977032,23.9190867 28.8277924,25.1215898 27.9087951,26.3426406 C27.1408998,27.4176289 26.3350226,28.46866 25.0576741,28.4872076 C23.8158305,28.5142562 23.3980294,27.8032646 21.9737075,27.8032646 C20.5361745,27.8032646 20.0911255,28.46866 18.9004749,28.5142562 C17.6834021,28.5567611 16.7528451,27.366623 15.9568762,26.3016813 C14.3665898,24.1269745 13.128049,20.1716974 14.7885194,17.4807489 C15.5935709,16.1607776 17.060829,15.3114518 18.6288216,15.2882673 C19.8475458,15.2650828 20.9787464,16.0587657 21.7276507,16.0587657 C22.4625183,16.0587657 23.860418,15.1097466 25.3020795,15.2511721 Z M25.316942,11.0153625 C25.438319,12.0509372 25.0007013,13.0702827 24.3599628,13.8206879 C23.6919765,14.5587281 22.6218772,15.1228844 21.5806772,15.0502397 C21.4444377,14.0548515 21.9720561,12.9953194 22.5624272,12.3492445 C23.2304136,11.6150684 24.3896878,11.0532305 25.316942,11.0153625 Z" id="Combined-Shape备份-2" fill="#000000"></path>
            </g>
        </g>
    </g>
</svg>