<?xml version="1.0" encoding="UTF-8"?>
<svg width="130px" height="41px" viewBox="0 0 130 41" version="1.1" xmlns="http://www.w3.org/2000/svg" xmlns:xlink="http://www.w3.org/1999/xlink">
    <!-- Generator: Sketch 59.1 (86144) - https://sketch.com -->
    <title>PLAY</title>
    <desc>Created with Sketch.</desc>
    <g id="页面-1" stroke="none" stroke-width="1" fill="none" fill-rule="evenodd">
        <g id="第一屏" transform="translate(-808.000000, -751.000000)">
            <g id="PLAY" transform="translate(808.000000, 751.984638)">
                <rect id="Rectangle备份-2" stroke="#F2F2F2" x="0.5" y="0.5" width="129" height="39" rx="2"></rect>
                <path d="M42.8300781,16 L42.8300781,8.890625 L45.0664062,8.890625 C45.9941453,8.890625 46.7403943,9.17626667 47.3051758,9.74755859 C47.8699573,10.3188505 48.1523438,11.0569616 48.1523438,11.9619141 L48.1523438,12.9335938 C48.1523438,13.8418014 47.8699573,14.5799125 47.3051758,15.1479492 C46.7403943,15.7159859 45.9941453,16 45.0664062,16 L42.8300781,16 Z M43.7919922,9.64746094 L43.7919922,15.2480469 L45.0664062,15.2480469 C45.7239616,15.2480469 46.2423484,15.0315777 46.621582,14.5986328 C47.0008157,14.1656879 47.1904297,13.6106805 47.1904297,12.9335938 L47.1904297,11.9521484 C47.1904297,11.2815722 47.0008157,10.7298199 46.621582,10.296875 C46.2423484,9.86393013 45.7239616,9.64746094 45.0664062,9.64746094 L43.7919922,9.64746094 Z M49.2460938,13.3095703 C49.2460938,12.5283164 49.4576802,11.8846054 49.8808594,11.378418 C50.3040386,10.8722305 50.8785771,10.6191406 51.6044922,10.6191406 C52.3369177,10.6191406 52.9155252,10.8714167 53.340332,11.3759766 C53.7651388,11.8805364 53.9775391,12.5250612 53.9775391,13.3095703 L53.9775391,13.4169922 C53.9775391,14.2047565 53.7659526,14.8492813 53.3427734,15.3505859 C52.9195942,15.8518905 52.3434281,16.1025391 51.6142578,16.1025391 C50.8850875,16.1025391 50.3081076,15.8510767 49.8833008,15.3481445 C49.458494,14.8452123 49.2460938,14.2015013 49.2460938,13.4169922 L49.2460938,13.3095703 Z M50.2080078,13.4169922 C50.2080078,13.9768908 50.3260079,14.4391258 50.5620117,14.8037109 C50.7980155,15.1682961 51.1487607,15.3505859 51.6142578,15.3505859 C52.0732445,15.3505859 52.4215483,15.1682961 52.6591797,14.8037109 C52.8968111,14.4391258 53.015625,13.9768908 53.015625,13.4169922 L53.015625,13.3095703 C53.015625,12.7561821 52.8959973,12.2955748 52.6567383,11.9277344 C52.4174793,11.559894 52.0667341,11.3759766 51.6044922,11.3759766 C51.1455055,11.3759766 50.7980155,11.559894 50.5620117,11.9277344 C50.3260079,12.2955748 50.2080078,12.7561821 50.2080078,13.3095703 L50.2080078,13.4169922 Z M56.5068359,14.0761719 L56.6289062,14.7548828 L56.6582031,14.7548828 L56.7851562,14.0761719 L57.8398438,10.7167969 L58.6113281,10.7167969 L59.6708984,14.0761719 L59.8076172,14.8330078 L59.8369141,14.8330078 L59.9931641,14.0761719 L60.7744141,10.7167969 L61.7802734,10.7167969 L60.2470703,16 L59.4707031,16 L58.4257812,12.7822266 L58.2255859,11.9423828 L58.1962891,11.9423828 L58.0107422,12.7822266 L56.9853516,16 L56.2089844,16 L54.6757812,10.7167969 L55.6767578,10.7167969 L56.5068359,14.0761719 Z M63.5820312,10.7167969 L63.6503906,11.5029297 C63.8261728,11.2229804 64.0467109,11.0056974 64.3120117,10.8510742 C64.5773125,10.696451 64.8792301,10.6191406 65.2177734,10.6191406 C65.7874377,10.6191406 66.2285141,10.7859684 66.5410156,11.1196289 C66.8535172,11.4532894 67.0097656,11.968421 67.0097656,12.6650391 L67.0097656,16 L66.0478516,16 L66.0478516,12.6845703 C66.0478516,12.2190732 65.9558928,11.8886729 65.7719727,11.6933594 C65.5880525,11.4980459 65.3072936,11.4003906 64.9296875,11.4003906 C64.6334621,11.4003906 64.3819997,11.4597976 64.175293,11.5786133 C63.9685862,11.697429 63.8050136,11.8642567 63.6845703,12.0791016 L63.6845703,16 L62.7226562,16 L62.7226562,10.7167969 L63.5820312,10.7167969 Z M69.4462891,16 L68.484375,16 L68.484375,8.3828125 L69.4462891,8.3828125 L69.4462891,16 Z M70.7011719,13.3095703 C70.7011719,12.5283164 70.9127583,11.8846054 71.3359375,11.378418 C71.7591167,10.8722305 72.3336552,10.6191406 73.0595703,10.6191406 C73.7919958,10.6191406 74.3706033,10.8714167 74.7954102,11.3759766 C75.220217,11.8805364 75.4326172,12.5250612 75.4326172,13.3095703 L75.4326172,13.4169922 C75.4326172,14.2047565 75.2210308,14.8492813 74.7978516,15.3505859 C74.3746724,15.8518905 73.7985062,16.1025391 73.0693359,16.1025391 C72.3401656,16.1025391 71.7631857,15.8510767 71.3383789,15.3481445 C70.9135721,14.8452123 70.7011719,14.2015013 70.7011719,13.4169922 L70.7011719,13.3095703 Z M71.6630859,13.4169922 C71.6630859,13.9768908 71.7810861,14.4391258 72.0170898,14.8037109 C72.2530936,15.1682961 72.6038388,15.3505859 73.0693359,15.3505859 C73.5283226,15.3505859 73.8766264,15.1682961 74.1142578,14.8037109 C74.3518892,14.4391258 74.4707031,13.9768908 74.4707031,13.4169922 L74.4707031,13.3095703 C74.4707031,12.7561821 74.3510754,12.2955748 74.1118164,11.9277344 C73.8725574,11.559894 73.5218122,11.3759766 73.0595703,11.3759766 C72.6005836,11.3759766 72.2530936,11.559894 72.0170898,11.9277344 C71.7810861,12.2955748 71.6630859,12.7561821 71.6630859,13.3095703 L71.6630859,13.4169922 Z M80.8476562,16 L79.8564453,16 L79.8011068,15.7059463 C79.7935113,15.6610968 79.7867296,15.618327 79.7807617,15.5776367 C79.762858,15.4555658 79.7522787,15.3326829 79.7490234,15.2089844 C79.5699861,15.4628919 79.3364272,15.6752921 79.0483398,15.8461914 C78.7602525,16.0170907 78.450197,16.1025391 78.1181641,16.1025391 C77.5680311,16.1025391 77.1489272,15.9617527 76.8608398,15.6801758 C76.5727525,15.3985989 76.4287109,15.0104191 76.4287109,14.515625 C76.4287109,14.0110652 76.6329732,13.6163751 77.0415039,13.331543 C77.4500346,13.0467108 78.0042283,12.9042969 78.7041016,12.9042969 L79.7490234,12.9042969 L79.7490234,12.3818359 C79.7490234,12.0725896 79.6546233,11.8276376 79.4658203,11.6469727 C79.2770173,11.4663077 79.0100929,11.3759766 78.6650391,11.3759766 C78.3525375,11.3759766 78.1002614,11.4541008 77.9082031,11.6103516 C77.7161449,11.7666023 77.6201172,11.953775 77.6201172,12.171875 L76.7070312,12.1816406 L76.6972656,12.1523438 C76.6744791,11.7682272 76.8543275,11.4166683 77.2368164,11.0976562 C77.6193053,10.7786442 78.1132782,10.6191406 78.71875,10.6191406 C79.3177113,10.6191406 79.7994773,10.7713201 80.1640625,11.0756836 C80.5286477,11.3800471 80.7109375,11.818682 80.7109375,12.3916016 L80.7109375,14.9355469 C80.7109375,15.1243499 80.720703,15.3066397 80.7402344,15.4824219 C80.7597657,15.658204 80.7955727,15.8307283 80.8476562,16 Z M78.2597656,15.296875 C78.6080747,15.296875 78.9221991,15.2073577 79.2021484,15.0283203 C79.4820978,14.849283 79.6643876,14.6442069 79.7490234,14.4130859 L79.7490234,13.5537109 L78.6699219,13.5537109 C78.2825501,13.5537109 77.9724947,13.6513662 77.7397461,13.8466797 C77.5069975,14.0419932 77.390625,14.2714831 77.390625,14.5351562 C77.390625,14.7695324 77.4638665,14.9550774 77.6103516,15.0917969 C77.7568367,15.2285163 77.9733059,15.296875 78.2597656,15.296875 Z M81.8876953,13.4560547 C81.8876953,12.6064411 82.0691714,11.9212266 82.4321289,11.4003906 C82.7950865,10.8795547 83.3037077,10.6191406 83.9580078,10.6191406 C84.2672542,10.6191406 84.5415027,10.6761062 84.7807617,10.7900391 C85.0200207,10.9039719 85.224283,11.0699859 85.3935547,11.2880859 L85.3935547,8.3828125 L86.3554688,8.3828125 L86.3554688,16 L85.6181641,16 L85.4716797,15.3310547 C85.2991528,15.5849622 85.0859388,15.7770176 84.8320312,15.9072266 C84.5781237,16.0374355 84.2835303,16.1025391 83.9482422,16.1025391 C83.3037077,16.1025391 82.7991555,15.8689802 82.4345703,15.4018555 C82.0699852,14.9347307 81.8876953,14.3203163 81.8876953,13.5585938 L81.8876953,13.4560547 Z M82.8496094,13.5585938 C82.8496094,14.0924506 82.9586578,14.5196924 83.1767578,14.840332 C83.3948579,15.1609717 83.7333961,15.3212891 84.1923828,15.3212891 C84.4788426,15.3212891 84.7197256,15.2561855 84.9150391,15.1259766 C85.1103525,14.9957676 85.2698562,14.8134777 85.3935547,14.5791016 L85.3935547,12.1132812 C85.2698562,11.8951812 85.1095387,11.7218431 84.9125977,11.5932617 C84.7156566,11.4646803 84.4788425,11.4003906 84.2021484,11.4003906 C83.7399065,11.4003906 83.3989269,11.5908184 83.1791992,11.9716797 C82.9594716,12.352541 82.8496094,12.8473277 82.8496094,13.4560547 L82.8496094,13.5585938 Z M90.6767578,16 L90.6767578,11.4296875 L89.8515625,11.4296875 L89.8515625,10.7167969 L90.6767578,10.7167969 L90.6767578,10.0478516 C90.6767578,9.48469771 90.8240545,9.04931794 91.1186523,8.74169922 C91.4132502,8.43408049 91.8242161,8.28027344 92.3515625,8.28027344 C92.4622401,8.28027344 92.5737299,8.28922517 92.6860352,8.30712891 L92.9269204,8.35270177 C92.9697806,8.36192485 93.0139972,8.37196175 93.0595703,8.3828125 L92.9423828,9.11523438 L92.8089194,9.09136285 C92.7839628,9.08774596 92.7576499,9.08430991 92.7299805,9.08105469 C92.6469722,9.07128901 92.5598963,9.06640625 92.46875,9.06640625 C92.1888007,9.06640625 91.9804694,9.15022703 91.84375,9.31787109 C91.7070306,9.48551516 91.6386719,9.72883955 91.6386719,10.0478516 L91.6386719,10.7167969 L92.5957031,10.7167969 L92.5957031,11.4296875 L91.6386719,11.4296875 L91.6386719,16 L90.6767578,16 Z M96.0673828,11.5664062 L95.5742188,11.5371094 C95.3203112,11.5371094 95.1062834,11.5973301 94.9321289,11.7177734 C94.7579744,11.8382167 94.6236984,12.0074859 94.5292969,12.2255859 L94.5292969,16 L93.5673828,16 L93.5673828,10.7167969 L94.4267578,10.7167969 L94.5195312,11.4882812 C94.6692716,11.2148424 94.8540028,11.0016284 95.0737305,10.8486328 C95.2934581,10.6956373 95.546548,10.6191406 95.8330078,10.6191406 C95.9046228,10.6191406 95.9729814,10.6248372 96.0380859,10.6362305 L96.1531033,10.660102 C96.169741,10.6642614 96.1851128,10.6685113 96.1992188,10.6728516 L96.0673828,11.5664062 Z M96.84375,13.3095703 C96.84375,12.5283164 97.0553364,11.8846054 97.4785156,11.378418 C97.9016948,10.8722305 98.4762333,10.6191406 99.2021484,10.6191406 C99.934574,10.6191406 100.513181,10.8714167 100.937988,11.3759766 C101.362795,11.8805364 101.575195,12.5250612 101.575195,13.3095703 L101.575195,13.4169922 C101.575195,14.2047565 101.363609,14.8492813 100.94043,15.3505859 C100.51725,15.8518905 99.9410844,16.1025391 99.2119141,16.1025391 C98.4827438,16.1025391 97.9057638,15.8510767 97.480957,15.3481445 C97.0561502,14.8452123 96.84375,14.2015013 96.84375,13.4169922 L96.84375,13.3095703 Z M97.8056641,13.4169922 C97.8056641,13.9768908 97.9236642,14.4391258 98.159668,14.8037109 C98.3956718,15.1682961 98.7464169,15.3505859 99.2119141,15.3505859 C99.6709007,15.3505859 100.019205,15.1682961 100.256836,14.8037109 C100.494467,14.4391258 100.613281,13.9768908 100.613281,13.4169922 L100.613281,13.3095703 C100.613281,12.7561821 100.493654,12.2955748 100.254395,11.9277344 C100.015136,11.559894 99.6643903,11.3759766 99.2021484,11.3759766 C98.7431618,11.3759766 98.3956718,11.559894 98.159668,11.9277344 C97.9236642,12.2955748 97.8056641,12.7561821 97.8056641,13.3095703 L97.8056641,13.4169922 Z M103.611328,10.7167969 L103.679688,11.4101562 C103.852214,11.159504 104.071125,10.9650072 104.336426,10.8266602 C104.601727,10.6883131 104.910154,10.6191406 105.261719,10.6191406 C105.613283,10.6191406 105.915201,10.70052 106.16748,10.8632812 C106.41976,11.0260425 106.609374,11.2701807 106.736328,11.5957031 C106.9056,11.2929672 107.126138,11.0545256 107.397949,10.8803711 C107.66976,10.7062166 107.987954,10.6191406 108.352539,10.6191406 C108.889651,10.6191406 109.314452,10.8038719 109.626953,11.1733398 C109.939455,11.5428078 110.095703,12.0986291 110.095703,12.8408203 L110.095703,16 L109.133789,16 L109.133789,12.8310547 C109.133789,12.3102187 109.044272,11.9415701 108.865234,11.7250977 C108.686197,11.5086252 108.419273,11.4003906 108.064453,11.4003906 C107.735675,11.4003906 107.469565,11.5143218 107.266113,11.7421875 C107.062662,11.9700532 106.943034,12.2581363 106.907227,12.6064453 L106.907227,16 L105.94043,16 L105.94043,12.8310547 C105.94043,12.3362605 105.848471,11.9741222 105.664551,11.7446289 C105.480631,11.5151356 105.216148,11.4003906 104.871094,11.4003906 C104.578124,11.4003906 104.337241,11.4606114 104.148438,11.5810547 C103.959634,11.701498 103.814779,11.8707671 103.713867,12.0888672 L103.713867,16 L102.751953,16 L102.751953,10.7167969 L103.611328,10.7167969 Z" id="Downloadfrom" fill="#000000" fill-rule="nonzero"></path>
                <path d="M50.421875,29.6533203 C50.1484361,30.040692 49.7120798,30.3859034 49.112793,30.6889648 C48.5135061,30.9920263 47.7399136,31.1435547 46.7919922,31.1435547 C45.6162051,31.1435547 44.6489296,30.764164 43.8901367,30.0053711 C43.1313439,29.2465782 42.7519531,28.265631 42.7519531,27.0625 L42.7519531,24.984375 C42.7519531,23.781244 43.1188114,22.8002968 43.8525391,22.0415039 C44.5862667,21.282711 45.5296166,20.9033203 46.6826172,20.9033203 C47.8401751,20.9033203 48.7425098,21.1949841 49.3896484,21.7783203 C50.0367871,22.3616566 50.3512371,23.1227167 50.3330078,24.0615234 L50.3125,24.1025391 L48.7333984,24.1025391 C48.7333984,23.5419894 48.5590838,23.090822 48.2104492,22.7490234 C47.8618147,22.4072249 47.3616569,22.2363281 46.7099609,22.2363281 C46.0218065,22.2363281 45.4669617,22.4938125 45.0454102,23.0087891 C44.6238586,23.5237656 44.4130859,24.1777304 44.4130859,24.9707031 L44.4130859,27.0625 C44.4130859,27.8645873 44.6329731,28.5242487 45.0727539,29.0415039 C45.5125348,29.5587591 46.0856084,29.8173828 46.7919922,29.8173828 C47.325198,29.8173828 47.7467432,29.7569993 48.0566406,29.6362305 C48.366538,29.5154616 48.6012362,29.3684904 48.7607422,29.1953125 L48.7607422,27.1376953 L46.6757812,27.1376953 L46.6757812,25.8935547 L50.421875,25.8935547 L50.421875,29.6533203 Z M51.9736328,27.2333984 C51.9736328,26.1305283 52.2755504,25.2270543 52.8793945,24.5229492 C53.4832387,23.8188441 54.3092396,23.4667969 55.3574219,23.4667969 C56.4192761,23.4667969 57.2521129,23.8188441 57.855957,24.5229492 C58.4598012,25.2270543 58.7617188,26.1305283 58.7617188,27.2333984 L58.7617188,27.3769531 C58.7617188,28.4889379 58.4598012,29.3946905 57.855957,30.0942383 C57.2521129,30.793786 56.4238334,31.1435547 55.3710938,31.1435547 C54.3137968,31.1435547 53.4832387,30.7926467 52.8793945,30.0908203 C52.2755504,29.3889939 51.9736328,28.4843805 51.9736328,27.3769531 L51.9736328,27.2333984 Z M53.6347656,27.3769531 C53.6347656,28.1015661 53.7760403,28.6894509 54.0585938,29.140625 C54.3411472,29.5917991 54.7786429,29.8173828 55.3710938,29.8173828 C55.9498727,29.8173828 56.3839504,29.5906598 56.6733398,29.137207 C56.9627293,28.6837542 57.1074219,28.0970088 57.1074219,27.3769531 L57.1074219,27.2333984 C57.1074219,26.5270147 56.9627293,25.9448265 56.6733398,25.4868164 C56.3839504,25.0288063 55.9453154,24.7998047 55.3574219,24.7998047 C54.7786429,24.7998047 54.3468439,25.0288063 54.0620117,25.4868164 C53.7771796,25.9448265 53.6347656,26.5270147 53.6347656,27.2333984 L53.6347656,27.3769531 Z M59.9033203,27.2333984 C59.9033203,26.1305283 60.2052379,25.2270543 60.809082,24.5229492 C61.4129262,23.8188441 62.2389271,23.4667969 63.2871094,23.4667969 C64.3489636,23.4667969 65.1818004,23.8188441 65.7856445,24.5229492 C66.3894887,25.2270543 66.6914062,26.1305283 66.6914062,27.2333984 L66.6914062,27.3769531 C66.6914062,28.4889379 66.3894887,29.3946905 65.7856445,30.0942383 C65.1818004,30.793786 64.3535209,31.1435547 63.3007812,31.1435547 C62.2434843,31.1435547 61.4129262,30.7926467 60.809082,30.0908203 C60.2052379,29.3889939 59.9033203,28.4843805 59.9033203,27.3769531 L59.9033203,27.2333984 Z M61.5644531,27.3769531 C61.5644531,28.1015661 61.7057278,28.6894509 61.9882812,29.140625 C62.2708347,29.5917991 62.7083304,29.8173828 63.3007812,29.8173828 C63.8795602,29.8173828 64.3136379,29.5906598 64.6030273,29.137207 C64.8924168,28.6837542 65.0371094,28.0970088 65.0371094,27.3769531 L65.0371094,27.2333984 C65.0371094,26.5270147 64.8924168,25.9448265 64.6030273,25.4868164 C64.3136379,25.0288063 63.8750029,24.7998047 63.2871094,24.7998047 C62.7083304,24.7998047 62.2765314,25.0288063 61.9916992,25.4868164 C61.7068671,25.9448265 61.5644531,26.5270147 61.5644531,27.2333984 L61.5644531,27.3769531 Z M67.8808594,27.4042969 C67.8808594,26.2239524 68.1337865,25.2726273 68.6396484,24.550293 C69.1455103,23.8279586 69.8564407,23.4667969 70.7724609,23.4667969 C71.2145204,23.4667969 71.6030257,23.5613597 71.9379883,23.7504883 C72.2729509,23.9396168 72.5566395,24.2119123 72.7890625,24.5673828 L72.953125,23.6035156 L74.3339844,23.6035156 L74.3339844,31 C74.3339844,31.9524787 74.040042,32.688474 73.4521484,33.2080078 C72.8642549,33.7275417 72.0302788,33.9873047 70.9501953,33.9873047 C70.5901675,33.9873047 70.2016622,33.9360357 69.784668,33.8334961 C69.3676737,33.7309565 68.9905616,33.5953784 68.6533203,33.4267578 L68.9199219,32.1210938 C69.2024754,32.2623705 69.5180647,32.3728837 69.8666992,32.4526367 C70.2153338,32.5323897 70.5719383,32.5722656 70.9365234,32.5722656 C71.5380889,32.5722656 71.9778632,32.4435234 72.2558594,32.1860352 C72.5338556,31.9285469 72.6728516,31.5332058 72.6728516,31 L72.6728516,30.2412109 C72.4404285,30.5374364 72.1658544,30.7618807 71.8491211,30.9145508 C71.5323877,31.0672208 71.1689474,31.1435547 70.7587891,31.1435547 C69.8518835,31.1435547 69.1455103,30.8131543 68.6396484,30.1523438 C68.1337865,29.4915332 67.8808594,28.6233778 67.8808594,27.5478516 L67.8808594,27.4042969 Z M69.5351562,27.5478516 C69.5351562,28.2314487 69.6673164,28.7760396 69.9316406,29.1816406 C70.1959649,29.5872416 70.6129529,29.7900391 71.1826172,29.7900391 C71.5380877,29.7900391 71.8377266,29.7159838 72.081543,29.5678711 C72.3253593,29.4197584 72.5224602,29.2067071 72.6728516,28.9287109 L72.6728516,25.6884766 C72.5179029,25.419595 72.3185234,25.2088224 72.074707,25.0561523 C71.8308907,24.9034823 71.5380876,24.8271484 71.1962891,24.8271484 C70.6266248,24.8271484 70.2073581,25.0652645 69.9384766,25.5415039 C69.669595,26.0177433 69.5351562,26.638668 69.5351562,27.4042969 L69.5351562,27.5478516 Z M77.8408203,31 L76.1796875,31 L76.1796875,20.3359375 L77.8408203,20.3359375 L77.8408203,31 Z M82.8378906,31.1435547 C81.7578071,31.1435547 80.9135773,30.8029005 80.3051758,30.121582 C79.6967743,29.4402635 79.3925781,28.5572971 79.3925781,27.4726562 L79.3925781,27.1992188 C79.3925781,26.1145779 79.6967743,25.2202184 80.3051758,24.5161133 C80.9135773,23.8120082 81.6985629,23.4622396 82.6601562,23.4667098 C83.6536508,23.4667098 84.4055964,23.7732717 84.9160156,24.3862305 C85.4264348,24.9991893 85.6816406,25.8183542 85.6816406,26.84375 L85.6816406,27.7392578 L81.1083984,27.7392578 L81.0947266,27.7734375 C81.1129558,28.3795603 81.2724594,28.8717429 81.5732422,29.25 C81.8740249,29.6282571 82.3274709,29.8173828 82.9335938,29.8173828 C83.3847679,29.8173828 83.7755517,29.7626959 84.105957,29.6533203 C84.4363623,29.5439448 84.7428371,29.3867198 85.0253906,29.1816406 L85.5654297,30.2685547 C85.2828762,30.5146497 84.909182,30.7220044 84.4443359,30.890625 C83.9794899,31.0592456 83.4440134,31.1435547 82.8378906,31.1435547 Z M82.6601562,24.7998047 C82.2272114,24.7998047 81.8808607,24.9558904 81.6210938,25.2680664 C81.3613268,25.5802424 81.1995446,25.9869767 81.1357422,26.4882812 L81.1494141,26.5224609 L84.0410156,26.5224609 L84.0410156,26.3925781 C84.0410156,25.9186174 83.9305024,25.5346694 83.7094727,25.2407227 C83.4884429,24.9467759 83.1386743,24.7998047 82.6601562,24.7998047 Z M92.3466797,27.2265625 L92.3466797,31 L90.6855469,31 L90.6855469,21.046875 L94.5,21.046875 C95.5983128,21.046875 96.458493,21.3305636 97.0805664,21.8979492 C97.7026398,22.4653349 98.0136719,23.2115839 98.0136719,24.1367188 C98.0136719,25.0709682 97.7026398,25.8194959 97.0805664,26.3823242 C96.458493,26.9451526 95.5983128,27.2265625 94.5,27.2265625 L92.3466797,27.2265625 Z M92.3466797,25.8935547 L94.5,25.8935547 C95.1152375,25.8935547 95.5777979,25.7294938 95.8876953,25.4013672 C96.1975927,25.0732405 96.3525391,24.6562525 96.3525391,24.1503906 C96.3525391,23.6445287 96.1975927,23.2229835 95.8876953,22.8857422 C95.5777979,22.5485009 95.1152375,22.3798828 94.5,22.3798828 L92.3466797,22.3798828 L92.3466797,25.8935547 Z M101.199219,31 L99.5380859,31 L99.5380859,20.3359375 L101.199219,20.3359375 L101.199219,31 Z M107.515625,31 C107.45638,30.8131501 107.40739,30.6308603 107.368652,30.453125 C107.329915,30.2753897 107.303711,30.0976571 107.290039,29.9199219 C107.066731,30.2662778 106.768231,30.5568022 106.394531,30.7915039 C106.020831,31.0262056 105.603843,31.1435547 105.143555,31.1435547 C104.373369,31.1435547 103.782066,30.9453145 103.369629,30.5488281 C102.957192,30.1523418 102.750977,29.6077509 102.750977,28.9150391 C102.750977,28.1995407 103.033526,27.6424174 103.598633,27.2436523 C104.16374,26.8448873 104.958979,26.6455078 105.984375,26.6455078 L107.276367,26.6455078 L107.276367,25.9960938 C107.276367,25.608722 107.163575,25.3056652 106.937988,25.0869141 C106.712401,24.868163 106.385419,24.7587891 105.957031,24.7587891 C105.578774,24.7587891 105.277996,24.8487947 105.054688,25.0288086 C104.831379,25.2088225 104.719727,25.4423814 104.719727,25.7294922 L103.120117,25.7363281 L103.113281,25.6953125 C103.08138,25.1119762 103.342282,24.5947288 103.895996,24.1435547 C104.44971,23.6923806 105.170894,23.4667969 106.05957,23.4667969 C106.920903,23.4667969 107.615883,23.6855447 108.144531,24.1230469 C108.67318,24.5605491 108.9375,25.189449 108.9375,26.0097656 L108.9375,29.2978516 C108.9375,29.6031916 108.958008,29.8959947 108.999023,30.1762695 C109.040039,30.4565444 109.106119,30.7311184 109.197266,31 L107.515625,31 Z M105.485352,29.8105469 C105.900067,29.8105469 106.274901,29.7057302 106.609863,29.4960938 C106.944826,29.2864573 107.166992,29.0472019 107.276367,28.7783203 L107.276367,27.6845703 L105.957031,27.6845703 C105.473956,27.6845703 105.095704,27.804198 104.822266,28.043457 C104.548827,28.282716 104.412109,28.564126 104.412109,28.8876953 C104.412109,29.1702488 104.504394,29.3946932 104.688965,29.5610352 C104.873536,29.7273771 105.138996,29.8105469 105.485352,29.8105469 Z M113.12793,28.0332031 L113.291992,28.7714844 L113.333008,28.7714844 L114.953125,23.6035156 L116.771484,23.6035156 L113.708984,32.1210938 C113.51302,32.6360703 113.237306,33.0758445 112.881836,33.4404297 C112.526365,33.8050148 112.02279,33.9873047 111.371094,33.9873047 C111.234374,33.9873047 111.087403,33.9736329 110.930176,33.9462891 C110.772948,33.9189452 110.62142,33.8870445 110.475586,33.8505859 L110.660156,32.5654297 L110.913086,32.5859375 C111.022461,32.5950521 111.104492,32.5996094 111.15918,32.5996094 C111.459962,32.5996094 111.700357,32.4970713 111.880371,32.2919922 C112.060385,32.086913 112.207356,31.8499362 112.321289,31.5810547 L112.594727,30.9111328 L109.908203,23.6035156 L111.719727,23.6035156 L113.12793,28.0332031 Z" id="GooglePlay" fill="#000000" fill-rule="nonzero"></path>
                <path d="M22.5066315,20.7168575 L24.9596423,23.1824464 L17.3174845,27.3206351 C16.4526983,27.7883114 15.9139086,28.0153625 15.2902164,28.0153625 L15.2902164,28.0153625 L15.2191812,28.0153625 L22.5066315,20.7168575 Z M14.3118949,12.5397381 L21.7979392,20.0225793 L14.3118949,27.491065 C14.1274806,27.193213 14,26.711357 14,26.0170788 L14,26.0170788 L14,14.0134313 C14,13.3192313 14.1274806,12.8372775 14.3118949,12.5397381 L14.3118949,12.5397381 Z M25.8808153,17.3438846 L27.4971063,18.222499 C28.0924977,18.5485736 29.0000183,19.1437501 29.0000183,20.0225793 C29.0000183,20.88676 28.0924977,21.481917 27.4971063,21.8080112 L27.4971063,21.8080112 L25.8808153,22.6868404 L23.2154019,20.0225793 L25.8808153,17.3438846 Z M15.2902164,12.0153625 C15.9139867,12.0153625 16.4526983,12.242101 17.3174845,12.7096407 L17.3174845,12.7096407 L24.9596423,16.8479074 L22.5066315,19.3136526 L15.2191812,12.0153625 Z" id="形状结合" fill="#000000"></path>
            </g>
        </g>
    </g>
</svg>