<?xml version="1.0" encoding="UTF-8"?>
<svg width="126px" height="40px" viewBox="0 0 126 40" version="1.1" xmlns="http://www.w3.org/2000/svg" xmlns:xlink="http://www.w3.org/1999/xlink">
    <!-- Generator: Sketch 57.1 (83088) - https://sketch.com -->
    <title>APK normal</title>
    <desc>Created with Sketch.</desc>
    <g id="页面-1" stroke="none" stroke-width="1" fill="none" fill-rule="evenodd">
        <g id="第一屏" transform="translate(-602.000000, -772.000000)">
            <g id="APK-normal" transform="translate(602.000000, 771.015362)">
                <rect id="Rectangle备份-2" stroke="#F2F2F2" x="0.5" y="1.48463752" width="125" height="39" rx="2"></rect>
                <path d="M42.8300781,16.9846375 L42.8300781,9.87526252 L45.0664062,9.87526252 C45.9941453,9.87526252 46.7403943,10.1609042 47.3051758,10.7321961 C47.8699573,11.303488 48.1523438,12.0415991 48.1523438,12.9465516 L48.1523438,13.9182313 C48.1523438,14.8264389 47.8699573,15.56455 47.3051758,16.1325867 C46.7403943,16.7006234 45.9941453,16.9846375 45.0664062,16.9846375 L42.8300781,16.9846375 Z M43.7919922,10.6320985 L43.7919922,16.2326844 L45.0664062,16.2326844 C45.7239616,16.2326844 46.2423484,16.0162152 46.621582,15.5832703 C47.0008157,15.1503255 47.1904297,14.595318 47.1904297,13.9182313 L47.1904297,12.936786 C47.1904297,12.2662097 47.0008157,11.7144574 46.621582,11.2815125 C46.2423484,10.8485676 45.7239616,10.6320985 45.0664062,10.6320985 L43.7919922,10.6320985 Z M49.2460938,14.2942078 C49.2460938,13.5129539 49.4576802,12.8692429 49.8808594,12.3630555 C50.3040386,11.8568681 50.8785771,11.6037781 51.6044922,11.6037781 C52.3369177,11.6037781 52.9155252,11.8560543 53.340332,12.3606141 C53.7651388,12.8651739 53.9775391,13.5096987 53.9775391,14.2942078 L53.9775391,14.4016297 C53.9775391,15.1893941 53.7659526,15.8339189 53.3427734,16.3352235 C52.9195942,16.836528 52.3434281,17.0871766 51.6142578,17.0871766 C50.8850875,17.0871766 50.3081076,16.8357143 49.8833008,16.332782 C49.458494,15.8298498 49.2460938,15.1861388 49.2460938,14.4016297 L49.2460938,14.2942078 Z M50.2080078,14.4016297 C50.2080078,14.9615283 50.3260079,15.4237633 50.5620117,15.7883485 C50.7980155,16.1529336 51.1487607,16.3352235 51.6142578,16.3352235 C52.0732445,16.3352235 52.4215483,16.1529336 52.6591797,15.7883485 C52.8968111,15.4237633 53.015625,14.9615283 53.015625,14.4016297 L53.015625,14.2942078 C53.015625,13.7408196 52.8959973,13.2802123 52.6567383,12.9123719 C52.4174793,12.5445315 52.0667341,12.3606141 51.6044922,12.3606141 C51.1455055,12.3606141 50.7980155,12.5445315 50.5620117,12.9123719 C50.3260079,13.2802123 50.2080078,13.7408196 50.2080078,14.2942078 L50.2080078,14.4016297 Z M56.5068359,15.0608094 L56.6289062,15.7395203 L56.6582031,15.7395203 L56.7851562,15.0608094 L57.8398438,11.7014344 L58.6113281,11.7014344 L59.6708984,15.0608094 L59.8076172,15.8176453 L59.8369141,15.8176453 L59.9931641,15.0608094 L60.7744141,11.7014344 L61.7802734,11.7014344 L60.2470703,16.9846375 L59.4707031,16.9846375 L58.4257812,13.7668641 L58.2255859,12.9270203 L58.1962891,12.9270203 L58.0107422,13.7668641 L56.9853516,16.9846375 L56.2089844,16.9846375 L54.6757812,11.7014344 L55.6767578,11.7014344 L56.5068359,15.0608094 Z M63.5820312,11.7014344 L63.6503906,12.4875672 C63.8261728,12.2076179 64.0467109,11.9903349 64.3120117,11.8357117 C64.5773125,11.6810886 64.8792301,11.6037781 65.2177734,11.6037781 C65.7874377,11.6037781 66.2285141,11.7706059 66.5410156,12.1042664 C66.8535172,12.4379269 67.0097656,12.9530585 67.0097656,13.6496766 L67.0097656,16.9846375 L66.0478516,16.9846375 L66.0478516,13.6692078 C66.0478516,13.2037107 65.9558928,12.8733104 65.7719727,12.6779969 C65.5880525,12.4826834 65.3072936,12.3850281 64.9296875,12.3850281 C64.6334621,12.3850281 64.3819997,12.4444351 64.175293,12.5632508 C63.9685862,12.6820665 63.8050136,12.8488943 63.6845703,13.0637391 L63.6845703,16.9846375 L62.7226562,16.9846375 L62.7226562,11.7014344 L63.5820312,11.7014344 Z M69.4462891,16.9846375 L68.484375,16.9846375 L68.484375,9.36745002 L69.4462891,9.36745002 L69.4462891,16.9846375 Z M70.7011719,14.2942078 C70.7011719,13.5129539 70.9127583,12.8692429 71.3359375,12.3630555 C71.7591167,11.8568681 72.3336552,11.6037781 73.0595703,11.6037781 C73.7919958,11.6037781 74.3706033,11.8560543 74.7954102,12.3606141 C75.220217,12.8651739 75.4326172,13.5096987 75.4326172,14.2942078 L75.4326172,14.4016297 C75.4326172,15.1893941 75.2210308,15.8339189 74.7978516,16.3352235 C74.3746724,16.836528 73.7985063,17.0871766 73.0693359,17.0871766 C72.3401656,17.0871766 71.7631857,16.8357143 71.3383789,16.332782 C70.9135721,15.8298498 70.7011719,15.1861388 70.7011719,14.4016297 L70.7011719,14.2942078 Z M71.6630859,14.4016297 C71.6630859,14.9615283 71.7810861,15.4237633 72.0170898,15.7883485 C72.2530936,16.1529336 72.6038388,16.3352235 73.0693359,16.3352235 C73.5283226,16.3352235 73.8766264,16.1529336 74.1142578,15.7883485 C74.3518892,15.4237633 74.4707031,14.9615283 74.4707031,14.4016297 L74.4707031,14.2942078 C74.4707031,13.7408196 74.3510754,13.2802123 74.1118164,12.9123719 C73.8725574,12.5445315 73.5218122,12.3606141 73.0595703,12.3606141 C72.6005836,12.3606141 72.2530936,12.5445315 72.0170898,12.9123719 C71.7810861,13.2802123 71.6630859,13.7408196 71.6630859,14.2942078 L71.6630859,14.4016297 Z M79.8564453,16.9846375 C79.8238931,16.8251315 79.7986655,16.6843452 79.7807617,16.5622742 C79.762858,16.4402033 79.7522787,16.3173204 79.7490234,16.1936219 C79.5699861,16.4475294 79.3364272,16.6599296 79.0483398,16.8308289 C78.7602525,17.0017282 78.450197,17.0871766 78.1181641,17.0871766 C77.5680311,17.0871766 77.1489272,16.9463902 76.8608398,16.6648133 C76.5727525,16.3832364 76.4287109,15.9950567 76.4287109,15.5002625 C76.4287109,14.9957027 76.6329732,14.6010126 77.0415039,14.3161805 C77.4500346,14.0313483 78.0042283,13.8889344 78.7041016,13.8889344 L79.7490234,13.8889344 L79.7490234,13.3664735 C79.7490234,13.0572271 79.6546233,12.8122751 79.4658203,12.6316102 C79.2770173,12.4509452 79.0100929,12.3606141 78.6650391,12.3606141 C78.3525375,12.3606141 78.1002614,12.4387383 77.9082031,12.5949891 C77.7161449,12.7512399 77.6201172,12.9384125 77.6201172,13.1565125 L76.7070312,13.1662781 L76.6972656,13.1369813 C76.6744791,12.7528648 76.8543275,12.4013058 77.2368164,12.0822938 C77.6193053,11.7632818 78.1132782,11.6037781 78.71875,11.6037781 C79.3177113,11.6037781 79.7994773,11.7559576 80.1640625,12.0603211 C80.5286477,12.3646846 80.7109375,12.8033195 80.7109375,13.3762391 L80.7109375,15.9201844 C80.7109375,16.1089874 80.720703,16.2912773 80.7402344,16.4670594 C80.7597657,16.6428415 80.7955727,16.8153658 80.8476562,16.9846375 L79.8564453,16.9846375 Z M78.2597656,16.2815125 C78.6080747,16.2815125 78.9221991,16.1919952 79.2021484,16.0129578 C79.4820978,15.8339205 79.6643876,15.6288444 79.7490234,15.3977235 L79.7490234,14.5383485 L78.6699219,14.5383485 C78.2825501,14.5383485 77.9724947,14.6360037 77.7397461,14.8313172 C77.5069975,15.0266307 77.390625,15.2561206 77.390625,15.5197938 C77.390625,15.7541699 77.4638665,15.939715 77.6103516,16.0764344 C77.7568367,16.2131538 77.9733059,16.2815125 78.2597656,16.2815125 Z M81.8876953,14.4406922 C81.8876953,13.5910786 82.0691714,12.9058641 82.4321289,12.3850281 C82.7950865,11.8641922 83.3037077,11.6037781 83.9580078,11.6037781 C84.2672542,11.6037781 84.5415027,11.6607437 84.7807617,11.7746766 C85.0200207,11.8886094 85.224283,12.0546234 85.3935547,12.2727235 L85.3935547,9.36745002 L86.3554688,9.36745002 L86.3554688,16.9846375 L85.6181641,16.9846375 L85.4716797,16.3156922 C85.2991528,16.5695997 85.0859388,16.7616551 84.8320312,16.8918641 C84.5781237,17.0220731 84.2835303,17.0871766 83.9482422,17.0871766 C83.3037077,17.0871766 82.7991555,16.8536177 82.4345703,16.386493 C82.0699852,15.9193683 81.8876953,15.3049538 81.8876953,14.5432313 L81.8876953,14.4406922 Z M82.8496094,14.5432313 C82.8496094,15.0770881 82.9586578,15.5043299 83.1767578,15.8249695 C83.3948579,16.1456092 83.7333961,16.3059266 84.1923828,16.3059266 C84.4788426,16.3059266 84.7197256,16.2408231 84.9150391,16.1106141 C85.1103525,15.9804051 85.2698562,15.7981153 85.3935547,15.5637391 L85.3935547,13.0979188 C85.2698562,12.8798187 85.1095387,12.7064806 84.9125977,12.5778992 C84.7156566,12.4493179 84.4788425,12.3850281 84.2021484,12.3850281 C83.7399065,12.3850281 83.3989269,12.5754559 83.1791992,12.9563172 C82.9594716,13.3371785 82.8496094,13.8319652 82.8496094,14.4406922 L82.8496094,14.5432313 Z" id="Download" fill="#000000" fill-rule="nonzero"></path>
                <path d="M48.2275391,29.6604188 L44.7001953,29.6604188 L43.9345703,31.9846375 L42.21875,31.9846375 L45.6914062,22.0315125 L47.2705078,22.0315125 L50.7021484,31.9846375 L48.9863281,31.9846375 L48.2275391,29.6604188 Z M45.1582031,28.2727235 L47.7763672,28.2727235 L46.4980469,24.3488953 L46.4570312,24.3488953 L45.1582031,28.2727235 Z M58.2421875,28.5324891 C58.2421875,29.6080153 57.9892603,30.4761707 57.4833984,31.1369813 C56.9775365,31.7977919 56.273442,32.1281922 55.3710938,32.1281922 C54.9518208,32.1281922 54.5804053,32.0529976 54.2568359,31.9026063 C53.9332666,31.7522149 53.6552746,31.5311885 53.4228516,31.2395203 L53.4228516,34.8283875 L51.7617188,34.8283875 L51.7617188,24.5881531 L53.1630859,24.5881531 L53.3271484,25.5178406 C53.5641288,25.1714847 53.850096,24.9071645 54.1850586,24.7248719 C54.5200212,24.5425793 54.9085264,24.4514344 55.3505859,24.4514344 C56.2620488,24.4514344 56.9718399,24.8125961 57.4799805,25.5349305 C57.988121,26.2572648 58.2421875,27.20859 58.2421875,28.3889344 L58.2421875,28.5324891 Z M56.5878906,28.3889344 C56.5878906,27.6324202 56.4454767,27.013774 56.1606445,26.5329774 C55.8758124,26.0521807 55.4508492,25.811786 54.8857422,25.811786 C54.5393863,25.811786 54.2454439,25.8858412 54.0039062,26.0339539 C53.7623686,26.1820666 53.5686856,26.388282 53.4228516,26.6526063 L53.4228516,29.9953797 C53.5686856,30.2551466 53.7623686,30.4545261 54.0039062,30.5935242 C54.2454439,30.7325223 54.5439435,30.8020203 54.8994141,30.8020203 C55.4645211,30.8020203 55.8872056,30.5935263 56.1674805,30.176532 C56.4477553,29.7595378 56.5878906,29.2115289 56.5878906,28.5324891 L56.5878906,28.3889344 Z M61.9677734,28.7512391 L61.3525391,28.7512391 L61.3525391,31.9846375 L59.6982422,31.9846375 L59.6982422,21.320575 L61.3525391,21.320575 L61.3525391,27.4182313 L61.9199219,27.4182313 L63.9228516,24.5881531 L65.8710938,24.5881531 L63.3349609,27.99245 L66.1513672,31.9846375 L64.2167969,31.9846375 L61.9677734,28.7512391 Z M76.3505859,27.7395203 L72.3378906,27.7395203 L72.3378906,31.9846375 L70.6767578,31.9846375 L70.6767578,22.0315125 L77.0478516,22.0315125 L77.0478516,23.3645203 L72.3378906,23.3645203 L72.3378906,26.4065125 L76.3505859,26.4065125 L76.3505859,27.7395203 Z M80.0283203,31.9846375 L78.3671875,31.9846375 L78.3671875,24.5881531 L80.0283203,24.5881531 L80.0283203,31.9846375 Z M80.0283203,22.7766297 L78.3671875,22.7766297 L78.3671875,21.320575 L80.0283203,21.320575 L80.0283203,22.7766297 Z M83.6582031,31.9846375 L81.9970703,31.9846375 L81.9970703,21.320575 L83.6582031,21.320575 L83.6582031,31.9846375 Z M88.6552734,32.1281922 C87.5751899,32.1281922 86.7309601,31.7875381 86.1225586,31.1062195 C85.5141571,30.424901 85.2099609,29.5419346 85.2099609,28.4572938 L85.2099609,28.1838563 C85.2099609,27.0992154 85.5141571,26.2048559 86.1225586,25.5007508 C86.7309601,24.7966457 87.5159457,24.4468771 88.4775391,24.4513473 C89.4710336,24.4513473 90.2229792,24.7579092 90.7333984,25.370868 C91.2438177,25.9838268 91.4990234,26.8029918 91.4990234,27.8283875 L91.4990234,28.7238953 L86.9257812,28.7238953 L86.9121094,28.758075 C86.9303386,29.3641978 87.0898422,29.8563804 87.390625,30.2346375 C87.6914078,30.6128946 88.1448537,30.8020203 88.7509766,30.8020203 C89.2021507,30.8020203 89.5929345,30.7473334 89.9233398,30.6379578 C90.2537451,30.5285823 90.5602199,30.3713573 90.8427734,30.1662781 L91.3828125,31.2531922 C91.100259,31.4992872 90.7265648,31.7066419 90.2617188,31.8752625 C89.7968727,32.0438832 89.2613963,32.1281922 88.6552734,32.1281922 Z M88.4775391,25.7844422 C88.0445942,25.7844422 87.6982435,25.9405279 87.4384766,26.2527039 C87.1787096,26.56488 87.0169274,26.9716142 86.953125,27.4729188 L86.9667969,27.5070985 L89.8583984,27.5070985 L89.8583984,27.3772156 C89.8583984,26.9032549 89.7478852,26.519307 89.5268555,26.2253602 C89.3058257,25.9314134 88.9560571,25.7844422 88.4775391,25.7844422 Z" id="ApkFile" fill="#000000" fill-rule="nonzero"></path>
                <path d="M24.0407951,13.5806668 L24.9811854,12.2174522 C25.0213122,12.1593253 25.006561,12.0789839 24.9483463,12.0389448 L24.9249244,12.0226351 C24.8665341,11.9824204 24.7863683,11.9972595 24.7461537,12.0554961 L23.7788293,13.4576961 C23.147139,13.1838326 22.4423073,13.0309424 21.6985341,13.0309424 C20.9928244,13.0309424 20.3217756,13.1687302 19.7152854,13.4168009 L18.7910293,12.0770961 C18.7509024,12.0187058 18.6704732,12.0041302 18.6123244,12.044257 L18.5889244,12.0603692 C18.5306878,12.1004961 18.5158707,12.1810131 18.5559098,12.2391619 L19.4496537,13.5346131 C18.0444244,14.2060131 17.0344927,15.4862302 16.8288756,16.997857 L26.5681049,16.997857 C26.367361,15.5200131 25.3973146,14.2633058 24.0407951,13.5806668 Z M19.6478951,15.5333814 C19.3799366,15.5333814 19.1625756,15.3161083 19.1625756,15.0480619 C19.1625756,14.7800156 19.3799366,14.5627204 19.6478951,14.5627204 C19.9158537,14.5627204 20.1331268,14.7800156 20.1331268,15.0480619 C20.1331268,15.3161083 19.9158537,15.5333814 19.6478951,15.5333814 Z M23.8371537,15.5333814 C23.5691073,15.5333814 23.3518122,15.3161083 23.3518122,15.0480619 C23.3518122,14.7800156 23.5691073,14.5627204 23.8371537,14.5627204 C24.1051122,14.5627204 24.3222976,14.7800156 24.3222976,15.0480619 C24.3222976,15.3161083 24.1051122,15.5333814 23.8371537,15.5333814 Z M14.9682463,17.7038961 L15.1833902,17.7038961 C15.7158829,17.7038961 16.1514829,18.2615009 16.1514829,18.9431083 L16.1514829,22.9190229 C16.1514829,23.6009595 15.7158829,24.1584107 15.1833902,24.1584107 L14.9682463,24.1584107 C14.4356,24.1584107 14,23.6009595 14,22.9190229 L14,18.9431083 C14,18.2615009 14.4356,17.7038961 14.9682463,17.7038961 Z M28.2809805,17.7274717 L28.4962122,17.7274717 C29.0287049,17.7274717 29.4642829,18.2850107 29.4642829,18.9666839 L29.4642829,22.9427741 C29.4642829,23.6243814 29.0287049,24.1821619 28.4962122,24.1821619 L28.2809805,24.1821619 C27.7484878,24.1821619 27.3127341,23.6243814 27.3127341,22.9427741 L27.3127341,18.9666839 C27.3127341,18.2850107 27.7484878,17.7274717 28.2809805,17.7274717 Z M20.8645634,26.4786326 L20.8645634,28.7197204 C20.8645634,29.4010643 20.4290512,29.958757 19.8963829,29.958757 L19.6811732,29.958757 C19.1485927,29.958757 18.7130805,29.4010643 18.7130805,28.7197204 L18.7130805,26.4786326 L17.8226073,26.4786326 C17.2779317,26.4786326 16.8323878,26.0330887 16.8323878,25.4882595 L16.8323878,17.6428497 L26.6424537,17.6428497 L26.6424537,25.4882595 C26.6424537,26.0330887 26.1969098,26.4786326 25.6522341,26.4786326 L24.8354073,26.4786326 L24.8354073,28.7458643 C24.8354073,29.4273839 24.3997415,29.9627083 23.8673366,29.9627083 L23.6521049,29.9627083 C23.1195244,29.9627083 22.6840122,29.4273839 22.6840122,28.7458643 L22.6840122,26.4786326 L20.8645634,26.4786326 Z" id="Fill-1" fill="#000000"></path>
            </g>
        </g>
    </g>
</svg>