<?xml version="1.0" encoding="UTF-8"?>
<svg width="126px" height="126px" viewBox="0 0 126 126" version="1.1" xmlns="http://www.w3.org/2000/svg" xmlns:xlink="http://www.w3.org/1999/xlink">
    <!-- Generator: Sketch 59.1 (86144) - https://sketch.com -->
    <title>形状结合</title>
    <desc>Created with Sketch.</desc>
    <g id="页面-1" stroke="none" stroke-width="1" fill="none" fill-rule="evenodd">
        <g id="Splash" transform="translate(-312.000000, -719.000000)" fill="#000000" stroke="#000000" stroke-width="1">
            <path d="M375,722 C408.084146,722 435,748.915854 435,782 C435,815.084146 408.084146,842 375,842 C341.915854,842 315,815.084146 315,782 C315,748.915854 341.915854,722 375,722 Z M375,732.97561 C347.967805,732.97561 325.97561,754.967805 325.97561,782 C325.97561,809.032195 347.967805,831.02439 375,831.02439 C402.032195,831.02439 424.02439,809.032195 424.02439,782 C424.02439,754.967805 402.032195,732.97561 375,732.97561 Z M403.170732,776.329268 C406.302805,776.329268 408.841463,778.867927 408.841463,782 C408.841463,785.132073 406.302805,787.670732 403.170732,787.670732 L380.487805,787.670732 C377.355732,787.670732 374.817073,785.132073 374.817073,782 C374.817073,778.867927 377.355732,776.329268 380.487805,776.329268 L403.170732,776.329268 Z" id="形状结合"></path>
        </g>
    </g>
</svg>