<?xml version="1.0" encoding="UTF-8"?>
<svg width="350px" height="350px" viewBox="0 0 350 350" version="1.1" xmlns="http://www.w3.org/2000/svg" xmlns:xlink="http://www.w3.org/1999/xlink">
    <!-- Generator: Sketch 57.1 (83088) - https://sketch.com -->
    <title>画板</title>
    <desc>Created with Sketch.</desc>
    <defs>
        <polygon id="path-1" points="0.324496607 0.0457881987 35.9637041 0.0457881987 35.9637041 36.0525902 0.324496607 36.0525902"></polygon>
    </defs>
    <g id="画板" stroke="none" stroke-width="1" fill="none" fill-rule="evenodd">
        <g id="编组-9备份" transform="translate(12.000000, 23.000000)">
            <path d="M195.66715,150.660029 C195.66715,168.575191 181.144234,183.098835 163.228344,183.098835 C145.313183,183.098835 130.789539,168.575191 130.789539,150.660029 C130.789539,132.74414 145.313183,118.221224 163.228344,118.221224 C181.144234,118.221224 195.66715,132.74414 195.66715,150.660029" id="Fill-1" fill="#646464"></path>
            <path d="M163.228636,151.998809 C159.343052,151.998809 151.586436,153.948878 151.586436,157.819909 L151.586436,159.275184 C151.586436,160.075585 152.24131,160.730459 153.041711,160.730459 L173.41556,160.730459 C174.215961,160.730459 174.870835,160.075585 174.870835,159.275184 L174.870835,157.819909 C174.870835,153.948878 167.11422,151.998809 163.228636,151.998809 M163.228636,152.231653 C166.444793,152.231653 169.049735,149.626711 169.049735,146.410554 C169.049735,143.194396 166.444793,140.589454 163.228636,140.589454 C160.012478,140.589454 157.407536,143.194396 157.407536,146.410554 C157.407536,149.626711 160.012478,152.231653 163.228636,152.231653" id="Fill-3" fill="#FFFFFF"></path>
            <path d="M165.834014,58.4028759 C141.760857,58.4028759 119.128421,67.7777569 102.106798,84.79938 C85.0844473,101.821731 75.710294,124.453438 75.710294,148.526596 C75.710294,172.599754 85.0844473,195.232189 102.106798,212.253812 C119.128421,229.276163 141.760857,238.651044 165.834014,238.651044 C189.907172,238.651044 212.539607,229.276163 229.56123,212.253812 C246.583581,195.232189 255.957734,172.599754 255.957734,148.526596 C255.957734,124.453438 246.583581,101.821731 229.56123,84.79938 C212.539607,67.7777569 189.907172,58.4028759 165.834014,58.4028759 M165.834014,238.856965 C141.705556,238.856965 119.022186,229.460983 101.960543,212.400067 C84.8996274,195.339152 75.5036449,172.655054 75.5036449,148.526596 C75.5036449,124.398866 84.8996274,101.714768 101.960543,84.6538525 C119.022186,67.592937 141.705556,58.1969545 165.834014,58.1969545 C189.962472,58.1969545 212.645842,67.592937 229.707486,84.6538525 C246.768401,101.714768 256.164384,124.398866 256.164384,148.526596 C256.164384,172.655054 246.768401,195.339152 229.707486,212.400067 C212.645842,229.460983 189.962472,238.856965 165.834014,238.856965" id="Fill-5" stroke="#F3F3F3"></path>
            <path d="M165.834014,28.2059214 C149.590963,28.2059214 133.833246,31.3871524 118.999629,37.6615702 C104.67172,43.7213349 91.8041793,52.3969563 80.7542768,63.4468588 C69.7043744,74.4974888 61.028753,87.3650296 54.9682606,101.692939 C48.6945704,116.525828 45.5133395,132.283545 45.5133395,148.526596 C45.5133395,164.770375 48.6945704,180.527364 54.9682606,195.360981 C61.028753,209.68889 69.7043744,222.556431 80.7542768,233.607061 C91.8041793,244.656964 104.67172,253.332585 118.999629,259.39235 C133.833246,265.666768 149.590963,268.847999 165.834014,268.847999 C182.077065,268.847999 197.834782,265.666768 212.668399,259.39235 C226.996308,253.332585 239.863849,244.656964 250.913752,233.607061 C261.963654,222.556431 270.639275,209.68889 276.699768,195.360981 C282.973458,180.527364 286.154689,164.770375 286.154689,148.526596 C286.154689,132.283545 282.973458,116.525828 276.699768,101.692939 C270.639275,87.3650296 261.963654,74.4974888 250.913752,63.4468588 C239.863849,52.3969563 226.996308,43.7213349 212.668399,37.6615702 C197.834782,31.3871524 182.077065,28.2059214 165.834014,28.2059214 M165.834014,269.05392 C149.563313,269.05392 133.778674,265.867596 118.918861,259.582263 C104.56694,253.512311 91.6775703,244.82141 80.6087493,233.752589 C69.5392007,222.68304 60.8490265,209.79367 54.7783472,195.441749 C48.4937425,180.582664 45.3066904,164.798025 45.3066904,148.526596 C45.3066904,132.255895 48.4937425,116.471256 54.7783472,101.612171 C60.8490265,87.2602498 69.5392007,74.3701523 80.6087493,63.3013313 C91.6775703,52.2325103 104.56694,43.5416085 118.918861,37.4716568 C133.778674,31.1863244 149.563313,28 165.834014,28 C182.104715,28 197.889355,31.1863244 212.749167,37.4716568 C227.101088,43.5416085 239.990458,52.2325103 251.059279,63.3013313 C262.128828,74.3701523 270.819002,87.2602498 276.889681,101.612171 C283.174286,116.471256 286.361338,132.255895 286.361338,148.526596 C286.361338,164.798025 283.174286,180.582664 276.889681,195.441749 C270.819002,209.79367 262.128828,222.68304 251.059279,233.752589 C239.990458,244.82141 227.101088,253.512311 212.749167,259.582263 C197.889355,265.867596 182.104715,269.05392 165.834014,269.05392" id="Fill-7" stroke="#F8F8F8"></path>
            <path d="M165.5,0 C145.452796,0 126.004593,3.92626929 107.696915,11.670144 C90.0133831,19.1490942 74.1322404,29.8565299 60.4944303,43.4942988 C46.8566202,57.1329656 36.1491521,73.0140604 28.6692812,90.697539 C20.9262812,109.004263 17,128.452408 17,148.499551 C17,168.547592 20.9262812,187.994838 28.6692812,206.302461 C36.1491521,223.98594 46.8566202,239.867034 60.4944303,253.505701 C74.1322404,267.14347 90.0133831,277.850906 107.696915,285.329856 C126.004593,293.073731 145.452796,297 165.5,297 C185.547204,297 204.995407,293.073731 223.303085,285.329856 C240.986617,277.850906 256.86776,267.14347 270.50557,253.505701 C284.14338,239.867034 294.850848,223.98594 302.330719,206.302461 C310.073719,187.994838 314,168.547592 314,148.499551 C314,128.452408 310.073719,109.004263 302.330719,90.697539 C294.850848,73.0140604 284.14338,57.1329656 270.50557,43.4942988 C256.86776,29.8565299 240.986617,19.1490942 223.303085,11.670144 C204.995407,3.92626929 185.547204,0 165.5,0" id="Fill-7" stroke="#FAFAFA"></path>
            <g id="编组-6" transform="translate(0.000000, 149.768563)">
                <path d="M36.006802,18.003401 C36.006802,27.9466794 27.9466794,36.006802 18.003401,36.006802 C8.06012264,36.006802 1.42108547e-13,27.9466794 1.42108547e-13,18.003401 C1.42108547e-13,8.06102281 8.06012264,1.13686838e-13 18.003401,1.13686838e-13 C27.9466794,1.13686838e-13 36.006802,8.06102281 36.006802,18.003401" id="Fill-11" fill="#FAFAFA"></path>
                <path d="M18.003401,14.7560376 C17.4236915,14.7560376 17.0375186,14.3689644 17.0375186,13.7892549 C17.0375186,13.2095454 17.4236915,12.8233725 18.003401,12.8233725 C18.5831105,12.8233725 18.9701837,13.2095454 18.9701837,13.7892549 C18.9701837,14.3689644 18.5831105,14.7560376 18.003401,14.7560376 M25.1543519,12.9196907 L18.389574,10.0211431 C18.0997192,9.92392473 17.9070828,9.92392473 17.6172281,10.0211431 L10.8524501,12.9196907 C10.465377,13.0160089 10.2727406,13.403082 10.2727406,13.7892549 L10.2727406,15.72192 C10.2727406,16.3016295 10.6589136,16.6887027 11.2386231,16.6887027 L24.768179,16.6887027 C25.3478885,16.6887027 25.7340614,16.3016295 25.7340614,15.72192 L25.7340614,13.7892549 C25.7340614,13.403082 25.541425,13.0160089 25.1543519,12.9196907 M24.768179,23.4534806 L24.768179,17.6545851 L22.8355139,17.6545851 L22.8355139,23.4534806 L20.9028488,23.4534806 L20.9028488,17.6545851 L18.9701837,17.6545851 L18.9701837,23.4534806 L17.0375186,23.4534806 L17.0375186,17.6545851 L15.1039533,17.6545851 L15.1039533,23.4534806 L13.1712882,23.4534806 L13.1712882,17.6545851 L11.2386231,17.6545851 L11.2386231,23.4534806 L10.2727406,23.4534806 L10.2727406,25.3861457 L25.7340614,25.3861457 L25.7340614,23.4534806 L24.768179,23.4534806" id="Fill-13" fill="#000000" opacity="0.6"></path>
            </g>
            <g id="编组-4" transform="translate(260.062701, 33.814915)">
                <path d="M36.006802,18.003401 C36.006802,27.9466794 27.9457792,36.006802 18.003401,36.006802 C8.06012264,36.006802 -1.13686838e-13,27.9466794 -1.13686838e-13,18.003401 C-1.13686838e-13,8.06102281 8.06012264,1.13686838e-13 18.003401,1.13686838e-13 C27.9457792,1.13686838e-13 36.006802,8.06102281 36.006802,18.003401" id="Fill-15" fill="#FAFAFA"></path>
                <path d="M18.093058,17.2055803 C17.2117915,17.2055803 16.4961563,16.5079485 16.4961563,15.6455856 C16.4961563,14.7832227 17.2117915,14.0846907 18.093058,14.0846907 C18.9770249,14.0846907 19.6899672,14.7832227 19.6899672,15.6455856 C19.6926601,16.5079485 18.9770249,17.2055803 18.093058,17.2055803 L18.093058,17.2055803 Z M21.9565878,18.3424951 L21.9565878,13.747127 L18.3946149,11.132133 L18.3946149,9.78817908 L21.5641137,9.78817908 L21.5641137,8.08145667 L17.9526314,8.08145667 L17.9526314,11.1348335 L14.3447499,13.8839528 L14.3447499,18.3388944 L9.90151049,18.3388944 L9.90151049,25.9030233 L16.4538483,25.9030233 L16.4538483,22.9990748 C16.4538483,22.1367118 17.1694835,21.4381799 18.05075,21.4381799 C18.9527204,21.4381799 19.6809579,22.1520147 19.6809579,23.032381 L19.6809579,25.9057238 L26.1045714,25.9057238 L26.1045714,18.3424951 L21.9565878,18.3424951 Z" id="Fill-17" fill="#000000" opacity="0.6"></path>
            </g>
            <g id="编组-2" transform="translate(87.261785, 264.713398)">
                <path d="M36.006802,18.003401 C36.006802,27.9466794 27.9457792,36.006802 18.003401,36.006802 C8.06012264,36.006802 8.52651283e-14,27.9466794 8.52651283e-14,18.003401 C8.52651283e-14,8.06012264 8.06012264,-3.41060513e-13 18.003401,-3.41060513e-13 C27.9457792,-3.41060513e-13 36.006802,8.06012264 36.006802,18.003401" id="Fill-19" fill="#FAFAFA"></path>
                <path d="M12.6164234,16.4764426 C13.3671652,17.1830761 13.9900829,17.8438009 14.6922155,18.4064072 C15.2260163,18.8339879 15.356541,19.263369 15.1900095,19.9204932 C14.9766692,20.7585515 14.8875524,21.6281158 14.7282223,22.5885972 C15.441157,22.2303295 16.076677,21.9980857 16.6104779,21.6218146 C17.6087665,20.9187818 18.5215389,20.925083 19.5180271,21.6254153 C20.057229,22.0043868 20.6981501,22.2384311 21.3993826,22.5912977 C21.2076463,21.4525826 21.0609186,20.4515935 20.8601807,19.4614064 C20.7908676,19.1193418 20.8754836,18.9204042 21.1194297,18.6998626 C21.777454,18.1075507 22.4138742,17.490034 23.0565956,16.8797187 C23.1754181,16.7662973 23.2825383,16.637573 23.4436687,16.46294 C22.4201754,16.314412 21.5110036,16.1469803 20.5955307,16.0623643 C19.9600106,16.0038533 19.5819392,15.748205 19.3163891,15.1513922 C18.9554209,14.340339 18.4828316,13.5787952 18.013843,12.7146319 C17.4935447,13.7183215 17.0191551,14.6112902 16.5690701,15.5159611 C16.4232425,15.806716 16.2495097,15.9498431 15.9065449,15.9912509 C14.8506454,16.1199752 13.8010472,16.2982089 12.6164234,16.4764426 M18.3496064,27.7294684 L17.6843808,27.7294684 C17.606066,27.6844599 17.5331522,27.6277492 17.4503365,27.5962432 C11.3480838,25.2666031 9.42171985,19.3857922 9.83669825,14.2386198 C9.84840046,14.0882914 10.0536392,13.8488462 10.1949659,13.8290424 C11.4786084,13.6499086 11.9502975,13.2511333 12.1843417,11.9944959 C12.2428528,11.6758357 12.3823792,11.5273076 12.6722339,11.4246882 C14.2898395,10.8503797 15.896643,10.2499663 17.5187495,9.69276106 C17.7897006,9.60004354 18.1443676,9.60094371 18.4171192,9.69006055 C20.0644304,10.2283622 21.6973388,10.8125726 23.3419495,11.3616763 C23.6858145,11.4768981 23.8298417,11.6686343 23.8910533,12.0206008 C24.0872903,13.1359115 24.7165092,13.7183215 25.821918,13.8020373 C26.1513803,13.8272421 26.2386967,13.9640679 26.2224937,14.2476215 C26.1495799,15.5537683 26.1954886,16.8806189 25.9803479,18.1642614 C25.3439277,21.946776 23.5021798,24.9632458 20.0689312,26.8689058 C19.5090254,27.1794645 18.9230147,27.4441145 18.3496064,27.7294684" id="Fill-21" fill="#000000" opacity="0.6"></path>
            </g>
            <g id="编组-8" transform="translate(157.000000, 40.027814)">
                <path d="M36.006802,18.003401 C36.006802,27.9466794 27.9457792,36.006802 18.003401,36.006802 C8.06012264,36.006802 -1.13686838e-13,27.9466794 -1.13686838e-13,18.003401 C-1.13686838e-13,8.06102281 8.06012264,1.13686838e-13 18.003401,1.13686838e-13 C27.9457792,1.13686838e-13 36.006802,8.06102281 36.006802,18.003401" id="Fill-23" fill="#FAFAFA"></path>
                <path d="M18.0007905,19.1765926 C15.552328,19.1765926 13.567453,17.1944182 13.567453,14.7486562 C13.567453,14.6433363 13.5755546,14.5407169 13.5827559,14.4371973 L13.5836561,14.4371973 C13.5980588,14.1221378 13.858208,13.8709904 14.1777683,13.8709904 C14.4964285,13.8709904 14.7565777,14.1221378 14.7718806,14.4371973 L14.7826826,14.4371973 C14.7727807,14.5461179 14.7502765,14.652338 14.7502765,14.7648592 C14.7502765,16.5507966 16.2004504,18.0000704 17.9899885,18.0000704 C19.7795265,18.0000704 21.2288003,16.5507966 21.2288003,14.7648592 C21.2288003,14.6973465 21.221599,14.6316341 21.2125973,14.5668218 C21.2080964,14.5434174 21.2053959,14.520013 21.2035956,14.4957084 C21.2008951,14.4759046 21.1981945,14.4570011 21.1963942,14.4371973 L21.2017952,14.4371973 C21.2089966,14.1068349 21.4790476,13.8412848 21.8112104,13.8412848 C22.1478739,13.8412848 22.4215256,14.1140363 22.4215256,14.4506999 L22.4215256,14.4588014 C22.4278268,14.5551196 22.4350282,14.6505376 22.4350282,14.7486562 C22.4350282,17.1944182 20.4501532,19.1765926 18.0007905,19.1765926 L18.0007905,19.1765926 Z M24.8312809,12.1210598 C24.8312809,11.471137 24.3037812,10.9436374 23.6529583,10.9436374 L12.3540238,10.9436374 C11.7032008,10.9436374 11.174801,11.471137 11.174801,12.1210598 L10.6401,23.8862824 C10.6401,24.5362051 11.1675997,25.0628046 11.8184226,25.0628046 L24.1885595,25.0628046 C24.8393824,25.0628046 25.3668821,24.5362051 25.3668821,23.8862824 L24.8312809,12.1210598 Z" id="Fill-25" fill="#000000" opacity="0.6"></path>
            </g>
            <g id="编组-5" transform="translate(208.000000, 195.027814)">
                <path d="M36.006802,18.003401 C36.006802,27.9466794 27.9466794,36.006802 18.003401,36.006802 C8.06012264,36.006802 -1.13686838e-13,27.9466794 -1.13686838e-13,18.003401 C-1.13686838e-13,8.06102281 8.06012264,-2.84217094e-13 18.003401,-2.84217094e-13 C27.9466794,-2.84217094e-13 36.006802,8.06102281 36.006802,18.003401" id="Fill-27" fill="#FAFAFA"></path>
                <path d="M22.6229837,19.42702 C23.4070318,19.42702 24.0470527,18.7878992 24.0470527,18.0029509 C24.0470527,17.2189028 23.4070318,16.5797821 22.6229837,16.5797821 C21.8389356,16.5797821 21.1998149,17.2189028 21.1998149,18.0029509 C21.1998149,18.7878992 21.8389356,19.42702 22.6229837,19.42702 M18.003311,19.42702 C18.7873591,19.42702 19.4264799,18.7878992 19.4264799,18.0029509 C19.4264799,17.2189028 18.7873591,16.5797821 18.003311,16.5797821 C17.2192629,16.5797821 16.5801422,17.2189028 16.5801422,18.0029509 C16.5801422,18.7878992 17.2192629,19.42702 18.003311,19.42702 M13.3836383,19.42702 C14.1676864,19.42702 14.8068072,18.7878992 14.8068072,18.0029509 C14.8068072,17.2189028 14.1676864,16.5797821 13.3836383,16.5797821 C12.5995902,16.5797821 11.968571,17.2189028 11.968571,18.0029509 C11.968571,18.7878992 12.5995902,19.42702 13.3836383,19.42702 M18.003311,26.5266611 C13.2990223,26.5266611 9.47960079,22.70904 9.47960079,18.0029509 C9.47960079,13.2986622 13.2990223,9.48014089 18.003311,9.48014089 C22.7084999,9.48014089 26.5270212,13.2986622 26.5270212,18.0029509 C26.5270212,22.70904 22.7084999,26.5266611 18.003311,26.5266611" id="Fill-29" fill="#000000" opacity="0.6"></path>
            </g>
            <g id="编组-3" transform="translate(289.000000, 172.027814)">
                <g id="编组">
                    <mask id="mask-2" fill="white">
                        <use xlink:href="#path-1"></use>
                    </mask>
                    <g id="Clip-32"></g>
                    <path d="M35.9638823,18.0491892 C35.9638823,27.9924676 27.9860058,36.0525902 18.1441895,36.0525902 C8.30326408,36.0525902 0.324496607,27.9924676 0.324496607,18.0491892 C0.324496607,8.106811 8.30326408,0.0457881987 18.1441895,0.0457881987 C27.9860058,0.0457881987 35.9638823,8.106811 35.9638823,18.0491892" id="Fill-31" fill="#FAFAFA" mask="url(#mask-2)"></path>
                </g>
                <path d="M14.996608,8.63341048 C15.1418385,8.64871338 15.2906329,8.65231406 15.4314085,8.6811195 C15.8635361,8.76843599 15.9873829,8.67301797 16.2840808,8.44707528 C17.1055687,7.81335557 17.4441428,7.63602207 18.3876956,8.44797545 C18.7770558,8.78283871 19.1432505,9.14560724 19.5067723,9.5074756 C19.7018979,9.70191233 19.8159439,9.65960434 20.0618557,9.52007798 C20.7692975,9.12040248 21.0918339,8.8944598 21.6299887,8.62530895 C21.9284685,8.4767809 22.071917,8.65231406 22.0514244,8.96287272 C21.9988563,9.78652832 21.7422527,10.4904613 21.4321901,11.3438225 C21.319926,11.6651832 21.1844963,11.9766421 21.027683,12.278199 C20.7550417,12.796697 20.452107,13.0109374 19.9896859,13.0757497 C18.8741732,13.2323793 17.7488596,13.2863895 16.6315648,13.0856516 C15.9472886,12.9614281 15.4964504,12.5347475 15.1382746,11.9172308 C14.7400044,11.2304011 14.5377509,10.901839 14.1938308,10.0862849 C13.8258542,9.21492034 14.2054136,8.5397928 14.996608,8.63341048 M18.0339747,26.5008858 C18.6380622,26.4954848 18.8091313,26.4018671 18.7512173,25.9940901 C18.6897393,25.5710102 18.8385338,25.3621707 19.2100744,25.2370471 C19.3606508,25.1866376 19.4942985,25.0858185 19.637747,25.0120046 C20.7149474,24.4629008 21.1034167,23.0577354 20.4725996,22.071149 C20.1135328,21.5085427 19.6083445,21.1862818 19.0060389,20.9612393 C18.5854941,20.8046097 18.1560395,20.6443795 17.782717,20.4031339 C17.4067215,20.1564873 17.6383775,19.6694953 17.895872,19.5371703 C18.3565111,19.3004256 18.9668356,19.546172 19.4755878,19.7235055 C19.9112793,19.8774346 20.1064049,19.7010013 20.2614363,19.3508351 C20.6062473,18.572188 20.4129036,18.2247224 19.578942,18.1248035 C19.5352838,18.1203027 19.4907345,18.111301 19.4479673,18.1131013 C19.0488062,18.1185023 18.827842,17.9726748 18.8429887,17.5144882 C18.8554625,17.1454185 18.5739113,17.0319971 18.246029,17.015794 C17.9181466,16.9995909 17.5947192,16.8870697 17.4592896,17.3002477 C17.2543631,17.9258659 17.1661556,18.0617916 16.6484935,18.4092572 C16.6003804,18.4425635 16.5487033,18.4704688 16.4996991,18.5046753 C15.4358634,19.2788215 15.2799411,20.8136114 16.213693,21.6417679 C16.5005901,21.8947157 16.8846045,22.0414434 17.2320885,22.2205772 C17.6695619,22.4474201 18.1150543,22.65896 18.5471818,22.8876032 C18.8732822,23.0604359 18.9891102,23.2179656 18.9739634,23.3898981 C18.9516888,23.6383451 18.823387,23.849885 18.592622,23.9336008 C18.2567208,24.0551238 17.0752752,24.0173167 16.4881163,23.5870354 C16.3651604,23.495218 16.1290495,23.4583111 15.9945108,23.5051199 C15.4795217,23.6806531 15.5338717,24.188349 15.5686201,24.6258316 C15.5891128,24.8814799 15.7236515,25.0210063 15.8555172,25.0894192 C16.1299405,25.2307459 16.6324558,25.3468678 17.0316169,25.3864753 C17.3693001,25.4206818 17.4521617,25.5368037 17.4263231,25.8572642 C17.3799919,26.4135693 17.4851281,26.507187 18.0339747,26.5008858 M18.2210814,28.1950059 C16.3803072,28.1544982 16.1326134,28.1607994 15.1382746,27.9591613 C13.5915252,27.6459021 12.2176269,26.9869777 11.2633824,25.5773114 C10.3928904,24.2927687 10.4499134,22.997424 10.7323555,21.5724548 C10.8374917,21.0422546 10.9862861,20.6353778 11.2411077,19.9692519 C11.4487072,19.4264494 11.7249124,18.9205538 12.0421029,18.3165397 C12.4118616,17.6162074 12.851117,16.9563828 13.3536323,16.3469677 C13.9078248,15.6682394 14.5502247,15.0615248 15.1828238,14.4566105 C15.2933059,14.3521908 15.5837669,14.3395884 15.7450351,14.4053009 C16.8694577,14.8544857 17.9600229,14.9742083 19.2768982,14.7590677 C19.8016882,14.6726514 20.2507444,14.5205226 20.7799893,14.4404075 C20.9038362,14.4215039 21.089161,14.4755141 21.1693496,14.5655311 C21.9364874,15.4305945 22.7312457,16.2722535 23.4253227,17.195828 C24.0213914,17.9852771 24.3546197,18.4866719 24.9025753,19.5236678 C25.0638435,19.8288254 25.2803527,20.3653268 25.3917258,20.6965893 C25.9468093,22.3141949 25.8746395,23.8453842 24.9435606,25.3432671 C24.3323451,26.3262528 23.6133205,26.9716748 22.59938,27.4631676 C22.1725983,27.6693066 21.8518438,27.8007314 21.2183538,27.9285555 C19.9914679,28.1743019 19.4328205,28.1562985 18.2210814,28.1950059" id="Fill-33" fill="#000000" opacity="0.6"></path>
            </g>
            <g id="编组-7" transform="translate(45.000000, 70.027814)">
                <path d="M36.006802,18.003401 C36.006802,27.9457792 27.9466794,36.006802 18.003401,36.006802 C8.06012264,36.006802 -4.26325641e-14,27.9457792 -4.26325641e-14,18.003401 C-4.26325641e-14,8.06012264 8.06012264,8.52651283e-14 18.003401,8.52651283e-14 C27.9466794,8.52651283e-14 36.006802,8.06012264 36.006802,18.003401" id="Fill-35" fill="#FAFAFA"></path>
                <path d="M25.4360151,18.4187395 C24.0821594,19.1532782 21.7705227,19.7050825 19.9107713,19.9607308 L19.9107713,20.6178549 C19.9107713,21.1714595 19.4606863,21.6215445 18.9070817,21.6215445 L17.0995403,21.6215445 C16.5468359,21.6215445 16.0958507,21.1714595 16.0958507,20.6178549 L16.0958507,19.940927 C15.1857787,19.8122027 14.234299,19.6267677 13.3683354,19.4071262 C12.1315018,19.093867 11.1539171,18.7373997 10.4643868,18.3485262 C10.3194594,18.2666107 10.2681498,18.0829761 10.3500652,17.9380487 C10.4319807,17.7931213 10.6147152,17.7418116 10.7596426,17.8237271 C11.9928756,18.5195585 14.2351992,19.0623611 16.0958507,19.3324121 L16.0958507,18.8112136 C16.0958507,18.257609 16.5468359,17.8066238 17.0995403,17.8066238 L18.9070817,17.8066238 C19.4606863,17.8066238 19.9107713,18.257609 19.9107713,18.8112136 L19.9107713,19.353116 C21.6976089,19.1010684 23.8796211,18.5780696 25.1488609,17.8894395 C25.2946884,17.8102245 25.4774229,17.8642347 25.5566379,18.0100623 C25.636753,18.15679 25.5818427,18.3395245 25.4360151,18.4187395 L25.4360151,18.4187395 Z M15.393718,10.841108 C15.393718,10.1758823 15.9338201,9.63578029 16.5981456,9.63578029 L19.4084765,9.63578029 C20.0728019,9.63578029 20.6138041,10.1758823 20.6138041,10.841108 L20.6138041,12.4470114 L15.393718,12.4470114 L15.393718,10.841108 Z M25.6331524,12.4470114 L21.4167558,12.4470114 L21.4167558,10.841108 C21.4167558,9.73389883 20.5156856,8.83282861 19.4084765,8.83282861 L16.5981456,8.83282861 C15.4909364,8.83282861 14.5907663,9.73389883 14.5907663,10.841108 L14.5907663,12.4470114 L10.3743698,12.4470114 C9.71004432,12.4470114 9.16904212,12.9871134 9.16904212,13.6514389 L9.16904212,16.8740477 C9.16904212,17.3025286 9.40578685,17.7058048 9.87207493,18.0766749 L9.87207493,25.2960387 C9.87207493,25.9603642 10.4130771,26.5004662 11.0765025,26.5004662 L24.9301195,26.5004662 C25.594445,26.5004662 26.1345471,25.9603642 26.1345471,25.2960387 L26.1345471,18.0829761 C26.6008352,17.7085053 26.8375799,17.3007283 26.8375799,16.8686467 L26.8375799,13.6514389 C26.8375799,12.9871134 26.2974779,12.4470114 25.6331524,12.4470114 L25.6331524,12.4470114 Z" id="Fill-37" fill="#000000" opacity="0.6"></path>
            </g>
        </g>
    </g>
</svg>