<?xml version="1.0" encoding="UTF-8"?>
<svg width="22px" height="22px" viewBox="0 0 22 22" version="1.1" xmlns="http://www.w3.org/2000/svg" xmlns:xlink="http://www.w3.org/1999/xlink">
    <!-- Generator: Sketch 57.1 (83088) - https://sketch.com -->
    <title>V</title>
    <desc>Created with Sketch.</desc>
    <g id="页面-1" stroke="none" stroke-width="1" fill="none" fill-rule="evenodd">
        <g id="ONT-ID-Black" transform="translate(-1031.000000, -1472.000000)" fill-rule="nonzero">
            <g id="V" transform="translate(1031.000000, 1472.000000)">
                <circle id="椭圆形" fill="#000000" cx="11" cy="11" r="11"></circle>
                <g id="编组" transform="translate(6.462500, 7.562500)" fill="#FFFFFF" stroke="#FFFFFF" stroke-width="0.5">
                    <g id="Fill-1-Clipped">
                        <path d="M9.02713943,1.34655119 L3.65379807,6.75817167 C3.5187401,6.89324519 3.30085548,6.89324519 3.16578196,6.75817167 L3.05744627,6.64856052 L2.94024463,6.53008342 L2.43309672,6.02038462 C2.43054581,6.01655825 2.42927036,6.01271635 2.42544401,6.00888999 L0.101289593,3.65163602 C-0.0337839366,3.51528705 -0.0337839366,3.29485153 0.101289593,3.15977799 L0.83397483,2.42199094 C0.969048359,2.28691742 1.18820843,2.28691742 1.32199095,2.42199094 L3.42443439,4.58178308 L7.80516261,0.116968326 C7.94022058,-0.0193651018 8.15938065,-0.0193651018 8.29317873,0.116968326 L9.02586398,0.854708711 C9.16221295,0.991057693 9.16221295,1.21155543 9.02713943,1.34655119 Z" id="Fill-1"></path>
                    </g>
                </g>
            </g>
        </g>
    </g>
</svg>