<?xml version="1.0" encoding="UTF-8"?>
<svg width="130px" height="40px" viewBox="0 0 130 40" version="1.1" xmlns="http://www.w3.org/2000/svg" xmlns:xlink="http://www.w3.org/1999/xlink">
    <!-- Generator: Sketch 60.1 (88133) - https://sketch.com -->
    <title>编组 5</title>
    <desc>Created with Sketch.</desc>
    <g id="页面-1" stroke="none" stroke-width="1" fill="none" fill-rule="evenodd">
        <g id="画板备份" transform="translate(-1045.000000, -580.000000)">
            <g id="编组-4" transform="translate(745.000000, 580.000000)">
                <g id="编组-5" transform="translate(300.000000, 0.000000)">
                    <rect id="矩形备份-2" fill="#FFFFFF" x="0" y="0" width="130" height="40" rx="2"></rect>
                    <g id="编组-3" transform="translate(33.000000, 9.500000)" fill="#000000" fill-rule="nonzero">
                        <path d="M35.924,15.1166667 L35.924,14.1226667 L30.142,14.1226667 L30.142,5.12066667 L29.008,5.12066667 L29.008,15.1166667 L35.924,15.1166667 Z M38.024,6.81466667 C38.262,6.81466667 38.458,6.73066667 38.626,6.57666667 C38.794,6.40866667 38.878,6.21266667 38.878,5.97466667 C38.878,5.72266667 38.794,5.52666667 38.626,5.38666667 C38.458,5.21866667 38.262,5.14866667 38.024,5.14866667 C37.786,5.14866667 37.59,5.21866667 37.422,5.38666667 C37.254,5.52666667 37.184,5.72266667 37.184,5.97466667 C37.184,6.21266667 37.254,6.40866667 37.422,6.57666667 C37.59,6.73066667 37.786,6.81466667 38.024,6.81466667 Z M38.584,15.1166667 L38.584,7.87866667 L37.464,7.87866667 L37.464,15.1166667 L38.584,15.1166667 Z M41.804,15.1166667 L41.804,10.7486667 C41.846,10.0906667 42.056,9.57266667 42.448,9.18066667 C42.812,8.81666667 43.246,8.63466667 43.75,8.63466667 C45.01,8.63466667 45.654,9.33466667 45.654,10.7486667 L45.654,15.1166667 L46.774,15.1166667 L46.774,10.6646667 C46.774,8.67666667 45.864,7.68266667 44.072,7.68266667 C43.596,7.68266667 43.162,7.79466667 42.77,8.01866667 C42.378,8.22866667 42.056,8.53666667 41.804,8.94266667 L41.804,7.87866667 L40.684,7.87866667 L40.684,15.1166667 L41.804,15.1166667 Z M51.142,15.3126667 C52.122,15.3126667 52.906,14.8646667 53.494,13.9966667 L53.494,15.1166667 L54.614,15.1166667 L54.614,7.87866667 L53.494,7.87866667 L53.494,12.2886667 C53.41,12.9046667 53.172,13.4086667 52.78,13.8006667 C52.402,14.1646667 51.968,14.3606667 51.492,14.3606667 C50.834,14.3606667 50.358,14.1786667 50.064,13.8426667 C49.77,13.5066667 49.63,12.9886667 49.63,12.3026667 L49.63,7.87866667 L48.51,7.87866667 L48.51,12.3586667 C48.51,14.3186667 49.378,15.3126667 51.142,15.3126667 Z M56.882,15.1166667 L59.052,12.1066667 L61.208,15.1166667 L62.538,15.1166667 L59.668,11.2806667 L62.23,7.87866667 L60.914,7.87866667 L59.052,10.4546667 L57.176,7.87866667 L55.86,7.87866667 L58.422,11.2806667 L55.552,15.1166667 L56.882,15.1166667 Z" id="Linux"></path>
                        <g id="linux-2" transform="translate(0.000000, 0.116667)">
                            <path d="M7.84263052,4.66076899 C7.88027797,4.67959273 7.91039595,4.72476969 7.95557291,4.72476969 C7.99698513,4.72476969 8.06098582,4.70971071 8.06475056,4.66829849 C8.07228006,4.61559204 7.99322037,4.58170932 7.94427867,4.55912084 C7.88027797,4.53276762 7.79745354,4.52147338 7.7372176,4.5553561 C7.72215862,4.5628856 7.70709962,4.58170932 7.71462912,4.5967683 C7.72592336,4.64571002 7.8012183,4.63818052 7.84263052,4.66076899 Z M7.01815096,4.72476969 C7.06332792,4.72476969 7.0934459,4.67959273 7.13109337,4.66076899 C7.17250559,4.63818052 7.24780053,4.64571002 7.26285951,4.60053306 C7.27038901,4.58547408 7.25533001,4.56665034 7.24027103,4.55912084 C7.18003507,4.52523812 7.09721066,4.53653236 7.03320996,4.56288558 C6.98426824,4.58547406 6.90520857,4.61935678 6.91273806,4.67206323 C6.9165028,4.70971069 6.9805035,4.72853443 7.01815096,4.72476969 Z M15.3420061,15.2208837 C15.2064752,15.0702938 15.1424745,14.7841731 15.0709443,14.4792286 C15.0031789,14.1742841 14.9241192,13.8467511 14.6756459,13.6359253 C14.6267042,13.5945131 14.5777625,13.5568656 14.525056,13.5267477 C14.4761143,13.4966297 14.4234079,13.4702765 14.3707014,13.4514527 C14.7170581,12.4236769 14.5815273,11.3996657 14.2314058,10.473538 C13.8022247,9.34034925 13.0530401,8.35022084 12.4807986,7.67256643 C11.8370268,6.86314588 11.2120789,6.09513754 11.2233731,4.96194874 C11.2421969,3.23392997 11.4153752,0.0226009601 8.36969507,0.0188253332 C4.51459435,0.0113067206 5.47836954,3.91158439 5.43695732,5.10877387 C5.37295663,5.98972462 5.19601354,6.68243803 4.58988929,7.54456504 C3.87835215,8.39163308 2.8769295,9.75823614 2.4025714,11.1850752 C2.1766866,11.8589648 2.07127368,12.5441488 2.16915712,13.1916852 C1.92444857,13.4100405 1.73997598,13.745103 1.54420915,13.9521641 C1.38608978,14.1140482 1.15644023,14.1742841 0.904202203,14.264638 C0.651964175,14.354992 0.377137651,14.4905229 0.20772404,14.8105263 C0.128664364,14.9573514 0.102311126,15.1154708 0.102311126,15.2773549 C0.102311126,15.4241801 0.124899605,15.5747699 0.147488084,15.721595 C0.192665041,16.0265395 0.241606758,16.3126603 0.177606062,16.5046624 C-0.0181607681,17.0467859 -0.044514006,17.4232606 0.0947816453,17.6980871 C0.237842018,17.9729136 0.523962782,18.0933855 0.851495745,18.161151 C1.50279693,18.2966819 2.38751242,18.2627991 3.08399059,18.6317443 C3.82941045,19.023278 4.58612455,19.1625736 5.18848404,19.023278 C5.62519465,18.9253946 5.98284561,18.6618623 6.16355345,18.2627991 C6.6341468,18.2590344 7.15368185,18.0595028 7.98192615,18.0143258 C8.54287342,17.9691489 9.24688106,18.2138574 10.0563016,18.1686805 C10.0788901,18.2552696 10.1090081,18.3418588 10.1504203,18.4209185 L10.1504203,18.4246832 C10.4628943,19.0533959 11.04643,19.3395167 11.6676132,19.290575 C12.2925612,19.2416333 12.9513919,18.8764529 13.4859859,18.2402106 C13.9979915,17.6227922 14.8412948,17.3667894 15.4022421,17.0279622 C15.6808333,16.8585486 15.9067181,16.6477228 15.9255418,16.3390135 C15.9406008,16.0303043 15.759893,15.6877123 15.3420061,15.2208837 Z M7.95180817,3.30546017 C8.32075335,2.46968639 9.23935156,2.48474537 9.60829676,3.29040117 C9.85300531,3.82499522 9.74382765,4.45370793 9.44641265,4.81135887 C9.38617669,4.78124089 9.22429258,4.71347545 8.97205456,4.62688628 C9.01346677,4.58170932 9.08876171,4.52523812 9.11887967,4.45370793 C9.29958752,4.00946781 9.11135017,3.4372263 8.77628771,3.42593206 C8.5014612,3.40710832 8.2529879,3.83252472 8.33204759,4.29182381 C8.17769298,4.21652888 7.97816139,4.16005768 7.84263052,4.12617496 C7.80498306,3.86640744 7.83133628,3.57652193 7.95180817,3.30546017 Z M6.41955623,2.87251429 C6.79979565,2.87251429 7.20262357,3.40710834 7.13862287,4.13370444 C7.00685674,4.1713519 6.87132585,4.22782312 6.75461869,4.30688281 C6.79979565,3.97182035 6.63038204,3.55016871 6.39320299,3.56899243 C6.07696427,3.59534565 6.02425781,4.36711875 6.32543756,4.62688628 C6.36308502,4.65700425 6.39696775,4.61935678 6.10331751,4.83394735 C5.51601702,4.28429431 5.70801909,2.87251429 6.41955623,2.87251429 L6.41955623,2.87251429 Z M5.90755066,5.15771557 C6.14096497,4.98453722 6.41955621,4.78124089 6.43837997,4.76241717 C6.61532306,4.59676832 6.94662078,4.22782312 7.48874431,4.22782312 C7.75604134,4.22782312 8.0760448,4.31441229 8.46381372,4.56288558 C8.70099277,4.71724019 8.8892301,4.72853443 9.3146465,4.91300704 C9.63088522,5.04477317 9.83041681,5.27818748 9.70994492,5.59819095 C9.6120615,5.86548797 9.29582278,6.14031448 8.8553474,6.27961011 C8.4374605,6.415141 8.10992754,6.8819696 7.41721412,6.84055738 C7.27038899,6.83302788 7.15368185,6.80290992 7.05579844,6.7614977 C6.75461869,6.62973157 6.59649932,6.36996404 6.30284908,6.19678569 C5.97908085,6.01607784 5.8059025,5.80525203 5.74943131,5.62077942 C5.69672485,5.43630683 5.74943131,5.28195222 5.90755066,5.15771557 L5.90755066,5.15771557 Z M6.03178731,17.7319698 C5.93013916,19.053396 4.37906348,19.0270427 3.19693298,18.4096242 C2.0712737,17.8147943 0.614316698,18.1649157 0.316901694,17.5851447 C0.226547779,17.4082016 0.226547779,17.1070219 0.414785109,16.5912515 L0.414785109,16.5837221 C0.505139025,16.2976013 0.437373588,15.9813626 0.39219663,15.6839476 C0.347019672,15.3902973 0.324431194,15.1192356 0.426079349,14.9309982 C0.557845482,14.6787602 0.746082831,14.5884063 0.983261879,14.5055818 C1.3710308,14.3662862 1.427502,14.3775804 1.72115224,14.1328719 C1.92821331,13.9182813 2.07880318,13.6472196 2.25951103,13.4552175 C2.45151312,13.2481564 2.63598571,13.150273 2.92587122,13.19545 C3.2308157,13.2406269 3.49434799,13.4514527 3.75035075,13.7978094 L4.48824113,15.1380593 C4.84589207,15.8872439 6.11084699,16.9601967 6.03178731,17.7319698 Z M5.97908085,16.7569004 C5.82472624,16.5084271 5.61766515,16.2448949 5.43695732,16.01901 C5.70425435,16.01901 5.97155137,15.9361856 6.06567003,15.6839476 C6.15225921,15.4505333 6.06567003,15.1230003 5.78707877,14.7465256 C5.27883795,14.0613417 4.34518074,13.5229829 4.34518076,13.5229829 C3.83693995,13.2067442 3.55081918,12.8189753 3.41905305,12.3973236 C3.28728692,11.975672 3.30611066,11.5201377 3.40775881,11.0721328 C3.60352564,10.2100058 4.10800171,9.37046723 4.43176994,8.84340267 C4.51835911,8.77940198 4.46188791,8.96387457 4.10423695,9.62647001 C3.78423347,10.2325942 3.18563874,11.63308 4.00635354,12.7286213 C4.02894202,11.9493188 4.21341461,11.1549572 4.52588859,10.4133021 C4.97765821,9.38176146 5.93013914,7.59350676 6.00543407,6.17043245 C6.04684629,6.20055043 6.17861242,6.29090435 6.23884838,6.32478709 C6.41202673,6.42643524 6.54379287,6.57702511 6.71320648,6.71255601 C7.18003507,7.08903069 7.7861593,7.05891271 8.30945911,6.75773296 C8.54287342,6.62596683 8.73111075,6.47537696 8.90805386,6.41890574 C9.2807638,6.30219859 9.57817878,6.09513752 9.74759238,5.85419373 C10.0374779,6.99867675 10.7151323,8.65140058 11.1480782,9.4570564 C11.3777277,9.88623754 11.8370268,10.7935415 12.0365584,11.8890828 C12.1607951,11.8853181 12.3000907,11.9041418 12.4469158,11.9417893 C12.9664509,10.5977747 12.0064405,9.14834716 11.5697298,8.74551926 C11.3927867,8.57234091 11.3852572,8.49704597 11.4718464,8.50081071 C11.9462045,8.92246235 12.5711525,9.76953038 12.7970373,10.7220113 C12.9024502,11.1587219 12.9212739,11.6142563 12.8120963,12.0660259 C13.4295147,12.3220287 14.1636404,12.7399156 13.9678735,13.3761578 C13.8850491,13.3723931 13.8474016,13.3761578 13.8097542,13.3761578 C13.9302261,12.9959184 13.662929,12.7135624 12.9513919,12.3935589 C12.2135015,12.0697907 11.596083,12.0697907 11.5094939,12.8641522 C11.0539595,13.0222716 10.8205452,13.41757 10.7038381,13.8919281 C10.5984252,14.3135797 10.5683072,14.8218206 10.5381892,15.3940621 C10.5193655,15.6839476 10.4026583,16.0717165 10.2821864,16.4858386 C9.07370271,17.3479657 7.39462564,17.7244403 5.97908085,16.7569004 L5.97908085,16.7569004 Z M15.6695391,16.3239545 C15.6356563,16.956432 14.1184634,17.0731391 13.2902191,18.0745618 C12.7932725,18.665627 12.1833835,18.99316 11.6487895,19.0345722 C11.1141955,19.0759844 10.6511316,18.8538644 10.3800698,18.3079761 C10.2031268,17.8900892 10.2897159,17.4383196 10.4214821,16.941373 C10.5607777,16.406779 10.7678388,15.8571259 10.794192,15.4128858 C10.82431,14.8406443 10.8581927,14.339933 10.9523114,13.9559288 C11.0501948,13.5681599 11.2007846,13.3083924 11.4680817,13.1615672 C11.4793759,13.1540377 11.4944349,13.150273 11.5057291,13.1427435 C11.5358471,13.6396901 11.7805556,14.1441662 12.2135015,14.2533438 C12.6878596,14.3775805 13.3692788,13.9709878 13.6591643,13.6396901 C13.9979915,13.6283958 14.2502295,13.6058074 14.5099971,13.8316922 C14.882707,14.1516957 14.7772941,14.9724104 15.1537688,15.3978268 C15.5528319,15.8345374 15.6808333,16.1319524 15.6695391,16.3239545 L15.6695391,16.3239545 Z M6.05437579,5.61701468 C6.12967073,5.68854488 6.23131888,5.78642829 6.35555553,5.88431171 C6.60402882,6.08007854 6.95038552,6.28337487 7.3833314,6.28337487 C7.82004202,6.28337487 8.23039944,6.0612548 8.58052088,5.87678221 C8.76499347,5.7788988 8.99087828,5.61324994 9.13770341,5.48524855 C9.28452854,5.35724716 9.35982348,5.2480695 9.25441056,5.23677526 C9.14899765,5.22548102 9.15652715,5.33465868 9.02852575,5.42877735 C8.8628769,5.54924925 8.66334531,5.70736862 8.50522594,5.79772253 C8.22663468,5.95584191 7.77110032,6.18172671 7.37956666,6.18172669 C6.988033,6.18172668 6.67555902,6.00101884 6.44214471,5.81654625 C6.32543756,5.72242758 6.22755414,5.62830892 6.15225921,5.55677873 C6.09578801,5.50407227 6.08072901,5.38360038 5.99037509,5.37230614 C5.93766864,5.3685414 5.92260966,5.51160177 6.05437579,5.61701468 L6.05437579,5.61701468 Z" id="形状"></path>
                        </g>
                    </g>
                </g>
            </g>
        </g>
    </g>
</svg>