<?xml version="1.0" encoding="UTF-8"?>
<svg width="200px" height="200px" viewBox="0 0 200 200" version="1.1" xmlns="http://www.w3.org/2000/svg" xmlns:xlink="http://www.w3.org/1999/xlink">
    <!-- Generator: Sketch 59.1 (86144) - https://sketch.com -->
    <title>编组 7</title>
    <desc>Created with Sketch.</desc>
    <g id="页面-1" stroke="none" stroke-width="1" fill="none" fill-rule="evenodd">
        <g id="编组-7" transform="translate(100.000000, 100.000000) rotate(-360.000000) translate(-100.000000, -100.000000) " fill="#000000">
            <path d="M100,200 C155.228475,200 200,155.228475 200,100 C200,44.771525 155.228475,0 100,0 C44.771525,0 0,44.771525 0,100 C0,155.228475 44.771525,200 100,200 Z M100,184.210526 C53.4918105,184.210526 15.7894737,146.508189 15.7894737,100 C15.7894737,53.4918105 53.4918105,15.7894737 100,15.7894737 C146.508189,15.7894737 184.210526,53.4918105 184.210526,100 C184.210526,146.508189 146.508189,184.210526 100,184.210526 Z" id="形状结合" transform="translate(100.000000, 100.000000) rotate(-360.000000) translate(-100.000000, -100.000000) "></path>
            <path d="M100,109 C95.0294373,109 91,104.970563 91,100 C91,95.0294373 95.0294373,91 100,91 L100,91 L147,91 C151.970563,91 156,95.0294373 156,100 C156,104.970563 151.970563,109 147,109 L147,109 Z" id="形状结合"></path>
        </g>
    </g>
</svg>