<?xml version="1.0" encoding="UTF-8"?>
<svg width="778px" height="73px" viewBox="0 0 778 73" version="1.1" xmlns="http://www.w3.org/2000/svg" xmlns:xlink="http://www.w3.org/1999/xlink">
    <!-- Generator: Sketch 59.1 (86144) - https://sketch.com -->
    <title>形状结合</title>
    <desc>Created with Sketch.</desc>
    <g id="页面-1" stroke="none" stroke-width="1" fill="none" fill-rule="evenodd">
        <g id="Download" transform="translate(-571.000000, -435.000000)" fill="#000000" fill-rule="nonzero">
            <path d="M595.618,489.318 C609.346,489.318 620.302,478.296 620.302,464.568 C620.302,450.906 609.346,439.818 595.618,439.818 C581.89,439.818 571,450.906 571,464.568 C571,478.296 581.89,489.318 595.618,489.318 Z M595.618,480.474 C586.84,480.474 579.91,473.346 579.91,464.568 C579.91,455.79 586.84,448.662 595.618,448.662 C604.396,448.662 611.392,455.79 611.392,464.568 C611.392,473.346 604.396,480.474 595.618,480.474 Z M624.262,488.658 L633.172,488.658 L633.172,467.472 C633.172,460.674 637.132,456.978 642.214,456.978 C648.022,456.978 650.926,460.674 650.926,466.68 L650.926,488.658 L659.968,488.658 L659.968,465.756 C659.968,455.262 654.358,449.256 644.656,449.256 C639.64,449.256 635.68,451.434 633.106,454.8 L633.106,450.048 L624.262,450.048 L624.262,488.658 Z M663.73,458.034 L670.33,458.034 L670.33,472.554 C670.33,484.83 673.96,488.658 685.906,488.658 L687.16,488.658 L687.16,480.276 L686.569473,480.273142 C680.238621,480.208972 679.306,479.022 679.306,472.488 L679.306,458.034 L687.16,458.034 L687.16,450.048 L679.306,450.048 L679.306,438.036 L670.33,444.174 L670.33,450.048 L663.73,450.048 L663.73,458.034 Z M710.194,489.45 C721.282,489.45 730.192,480.474 730.192,469.386 C730.192,458.1 721.282,449.256 710.194,449.256 C699.04,449.256 690.196,458.1 690.196,469.386 C690.196,480.474 699.04,489.45 710.194,489.45 Z M710.194,481.068 C703.792,481.068 698.974,475.788 698.974,469.386 C698.974,462.852 703.792,457.638 710.194,457.638 C716.53,457.638 721.414,462.852 721.414,469.386 C721.414,475.788 716.53,481.068 710.194,481.068 Z M734.086,488.658 L743.062,488.658 L743.062,439.818 L734.086,439.818 L734.086,488.658 Z M766.954,489.45 C778.042,489.45 786.952,480.474 786.952,469.386 C786.952,458.1 778.042,449.256 766.954,449.256 C755.8,449.256 746.956,458.1 746.956,469.386 C746.956,480.474 755.8,489.45 766.954,489.45 Z M766.954,481.068 C760.552,481.068 755.734,475.788 755.734,469.386 C755.734,462.852 760.552,457.638 766.954,457.638 C773.29,457.638 778.174,462.852 778.174,469.386 C778.174,475.788 773.29,481.068 766.954,481.068 Z M821.206,487.998 C821.206,493.872 816.982,499.152 810.25,499.152 C804.112,499.152 801.076,496.644 798.238,491.43 L790.318,496.248 C793.816,502.65 800.086,507.336 810.118,507.336 C823.12,507.336 830.05,498.492 830.05,487.668 L830.05,450.048 L821.14,450.048 L821.14,454.998 C818.302,451.5 813.814,449.256 808.732,449.256 C798.964,449.256 789.592,456.582 789.592,469.386 C789.592,482.058 799.294,489.45 808.6,489.45 C813.814,489.45 818.368,487.206 821.206,483.51 L821.206,487.998 Z M810.052,481.266 C803.452,481.266 798.37,475.986 798.37,469.254 C798.37,462.588 803.452,457.374 810.052,457.374 C816.718,457.374 821.602,462.654 821.602,469.254 C821.602,475.92 816.718,481.266 810.052,481.266 Z M840.808,506.478 L849.85,506.478 L872.884,450.048 L863.512,450.048 L853.348,476.052 L842.59,450.048 L833.086,450.048 L848.926,486.744 L840.808,506.478 Z M890.638,488.658 L900.01,488.658 L902.98,480.078 L921.658,480.078 L924.628,488.658 L934,488.658 L916.84,440.478 L907.798,440.478 L890.638,488.658 Z M912.352,453.216 L918.688,471.498 L906.016,471.498 L912.352,453.216 Z M972.346,450.048 L963.436,450.048 L963.436,471.234 C963.436,478.032 959.806,481.728 954.856,481.728 C949.246,481.728 946.606,478.032 946.606,472.026 L946.606,450.048 L937.564,450.048 L937.564,472.95 C937.564,483.444 943.174,489.45 952.414,489.45 C957.364,489.45 961.06,487.47 963.502,484.236 L963.502,488.658 L972.346,488.658 L972.346,450.048 Z M976.108,458.034 L982.708,458.034 L982.708,472.554 C982.708,484.83 986.338,488.658 998.284,488.658 L999.538,488.658 L999.538,480.276 L998.947473,480.273142 C992.616621,480.208972 991.684,479.022 991.684,472.488 L991.684,458.034 L999.538,458.034 L999.538,450.048 L991.684,450.048 L991.684,438.036 L982.708,444.174 L982.708,450.048 L976.108,450.048 L976.108,458.034 Z M1003.828,488.658 L1012.804,488.658 L1012.804,467.472 C1012.804,460.74 1016.764,456.978 1021.78,456.978 C1027.588,456.978 1030.492,460.674 1030.492,466.746 L1030.492,488.658 L1039.6,488.658 L1039.6,465.756 C1039.6,455.262 1033.99,449.256 1024.288,449.256 C1019.338,449.256 1015.378,451.302 1012.738,454.668 L1012.738,439.818 L1003.828,439.818 L1003.828,488.658 Z M1063.822,489.45 C1072.534,489.45 1078.474,485.292 1081.84,479.022 L1074.514,474.798 C1072.666,478.956 1068.838,481.596 1063.822,481.596 C1057.486,481.596 1053.196,477.966 1051.942,472.488 L1083.358,472.488 L1083.358,469.122 C1083.358,457.704 1074.976,449.256 1063.492,449.256 C1052.206,449.256 1043.428,458.166 1043.428,469.452 C1043.428,480.606 1051.678,489.45 1063.822,489.45 Z M1063.492,457.11 C1069.036,457.11 1072.996,459.816 1074.316,465.03 L1052.404,465.03 C1053.988,460.278 1058.146,457.11 1063.492,457.11 Z M1087.318,488.658 L1096.228,488.658 L1096.228,467.472 C1096.228,460.674 1100.188,456.978 1105.27,456.978 C1111.078,456.978 1113.982,460.674 1113.982,466.68 L1113.982,488.658 L1123.024,488.658 L1123.024,465.756 C1123.024,455.262 1117.414,449.256 1107.712,449.256 C1102.696,449.256 1098.736,451.434 1096.162,454.8 L1096.162,450.048 L1087.318,450.048 L1087.318,488.658 Z M1126.786,458.034 L1133.386,458.034 L1133.386,472.554 C1133.386,484.83 1137.016,488.658 1148.962,488.658 L1150.216,488.658 L1150.216,480.276 L1149.62547,480.273142 C1143.29462,480.208972 1142.362,479.022 1142.362,472.488 L1142.362,458.034 L1150.216,458.034 L1150.216,450.048 L1142.362,450.048 L1142.362,438.036 L1133.386,444.174 L1133.386,450.048 L1126.786,450.048 L1126.786,458.034 Z M1154.506,488.658 L1163.482,488.658 L1163.482,450.048 L1154.506,450.048 L1154.506,488.658 Z M1153.384,440.61 C1153.384,443.976 1155.364,446.154 1158.994,446.154 C1162.492,446.154 1164.604,443.976 1164.604,440.61 C1164.604,437.244 1162.492,435 1158.994,435 C1155.562,435 1153.384,437.244 1153.384,440.61 Z M1187.44,489.45 C1196.416,489.45 1202.95,484.434 1205.986,477.306 L1198,473.874 C1196.218,478.098 1192.588,481.068 1187.572,481.068 C1180.972,481.068 1176.088,475.788 1176.088,469.386 C1176.088,462.852 1180.972,457.638 1187.506,457.638 C1192.258,457.638 1196.086,460.344 1197.868,464.568 L1205.854,461.202 C1202.884,454.206 1196.086,449.256 1187.44,449.256 C1176.154,449.256 1167.376,458.1 1167.376,469.386 C1167.376,480.474 1176.154,489.45 1187.44,489.45 Z M1227.106,489.45 C1232.188,489.45 1236.808,487.272 1239.646,483.642 L1239.646,488.658 L1248.556,488.658 L1248.556,450.048 L1239.646,450.048 L1239.646,454.668 C1236.808,451.302 1232.32,449.256 1227.238,449.256 C1217.47,449.256 1208.098,456.582 1208.098,469.386 C1208.098,482.058 1217.8,489.45 1227.106,489.45 Z M1228.558,481.266 C1221.958,481.266 1216.876,475.986 1216.876,469.254 C1216.876,462.588 1221.958,457.374 1228.558,457.374 C1235.224,457.374 1240.108,462.654 1240.108,469.254 C1240.108,475.92 1235.224,481.266 1228.558,481.266 Z M1252.252,458.034 L1258.852,458.034 L1258.852,472.554 C1258.852,484.83 1262.482,488.658 1274.428,488.658 L1275.682,488.658 L1275.682,480.276 L1275.09147,480.273142 C1268.76062,480.208972 1267.828,479.022 1267.828,472.488 L1267.828,458.034 L1275.682,458.034 L1275.682,450.048 L1267.828,450.048 L1267.828,438.036 L1258.852,444.174 L1258.852,450.048 L1252.252,450.048 L1252.252,458.034 Z M1298.716,489.45 C1309.804,489.45 1318.714,480.474 1318.714,469.386 C1318.714,458.1 1309.804,449.256 1298.716,449.256 C1287.562,449.256 1278.718,458.1 1278.718,469.386 C1278.718,480.474 1287.562,489.45 1298.716,489.45 Z M1298.716,481.068 C1292.314,481.068 1287.496,475.788 1287.496,469.386 C1287.496,462.852 1292.314,457.638 1298.716,457.638 C1305.052,457.638 1309.936,462.852 1309.936,469.386 C1309.936,475.788 1305.052,481.068 1298.716,481.068 Z M1322.608,488.658 L1322.608,450.048 L1331.452,450.048 L1331.452,455.79 C1333.234,451.962 1336.534,450.048 1341.352,450.048 C1344.19,450.048 1346.368,450.708 1348.15,451.698 L1344.784,460.146 C1343.464,459.288 1342.012,458.628 1339.438,458.628 C1334.224,458.628 1331.518,461.4 1331.518,468.066 L1331.518,488.658 L1322.608,488.658 Z" id="形状结合"></path>
        </g>
    </g>
</svg>