<?xml version="1.0" encoding="UTF-8"?>
<svg width="130px" height="40px" viewBox="0 0 130 40" version="1.1" xmlns="http://www.w3.org/2000/svg" xmlns:xlink="http://www.w3.org/1999/xlink">
    <!-- Generator: Sketch 60.1 (88133) - https://sketch.com -->
    <title>编组 6</title>
    <desc>Created with Sketch.</desc>
    <g id="页面-1" stroke="none" stroke-width="1" fill="none" fill-rule="evenodd">
        <g id="画板备份" transform="translate(-895.000000, -580.000000)">
            <g id="编组-4" transform="translate(745.000000, 580.000000)">
                <g id="编组-6" transform="translate(150.000000, 0.000000)">
                    <rect id="矩形备份" fill="#FFFFFF" x="0" y="0" width="130" height="40" rx="2"></rect>
                    <g id="编组-2" transform="translate(38.500000, 9.000000)" fill="#000000" fill-rule="nonzero">
                        <g id="形状-2" transform="translate(0.500000, 0.516667)">
                            <path d="M11.564385,-2.84217094e-14 C10.5999421,-2.84217094e-14 9.4747587,0.642961957 8.75142651,1.44666438 C8.10846455,2.16999657 7.62624311,3.29517997 7.78698362,4.33999314 C8.83179679,4.42036338 9.95698019,3.77740142 10.5999421,2.973699 C11.2429041,2.2503668 11.7251255,1.1251834 11.564385,-2.84217094e-14 Z M14.2166031,16.5562702 C15.1006758,15.189976 15.502527,13.9040521 15.502527,13.8236819 C15.502527,13.8236819 13.0110494,12.859239 12.9306792,10.0462804 C12.9306792,7.63517312 14.859565,6.50998971 14.9399353,6.42961948 C13.8147519,4.82221459 12.1269768,4.58110389 11.4840148,4.58110389 C10.0373504,4.42036342 8.59068604,5.46517659 7.86735385,5.46517655 C7.14402166,5.46517655 5.93846802,4.58110384 4.73291434,4.66147412 C3.12550945,4.66147412 1.67884507,5.62591706 0.794772413,7.07258144 C-0.893002713,9.9659102 0.392921201,14.2255331 2.00032605,16.5562702 C2.80402847,17.6814536 3.76847141,18.9673775 4.97402509,18.9673775 C6.17957872,18.8870073 6.66180022,18.1636751 8.02809432,18.163675 C9.4747587,18.163675 9.87660991,18.9673775 11.1625338,18.8870072 C12.6091982,18.8870072 13.4129006,17.6814536 14.2166031,16.5562702 Z" id="形状"></path>
                        </g>
                        <path d="M26.656,16.0166667 L26.656,8.06466667 L26.698,8.06466667 L30.156,16.0166667 L31.192,16.0166667 L34.65,8.06466667 L34.692,8.06466667 L34.692,16.0166667 L35.84,16.0166667 L35.84,6.02066667 L34.412,6.02066667 L30.702,14.5466667 L30.66,14.5466667 L26.936,6.02066667 L25.508,6.02066667 L25.508,16.0166667 L26.656,16.0166667 Z M39.844,16.2126667 C40.516,16.2126667 41.118,16.0586667 41.65,15.7646667 C42.098,15.5126667 42.476,15.1906667 42.756,14.7986667 L42.756,16.0166667 L43.806,16.0166667 L43.806,11.3686667 C43.806,10.5286667 43.582,9.87066667 43.162,9.39466667 C42.658,8.84866667 41.902,8.58266667 40.866,8.58266667 C39.998,8.58266667 39.312,8.75066667 38.78,9.08666667 C38.192,9.45066667 37.814,10.0246667 37.66,10.7806667 L38.766,10.8646667 C38.878,10.4026667 39.116,10.0526667 39.494,9.82866667 C39.83,9.60466667 40.264,9.50666667 40.796,9.50666667 C42.056,9.50666667 42.686,10.1086667 42.686,11.3266667 L42.686,11.7046667 L40.95,11.7326667 C39.858,11.7466667 39.018,11.9566667 38.43,12.3486667 C37.758,12.7686667 37.436,13.3846667 37.436,14.2106667 C37.436,14.7986667 37.66,15.2886667 38.108,15.6666667 C38.542,16.0306667 39.116,16.2126667 39.844,16.2126667 Z M40.082,15.3306667 C39.634,15.3306667 39.27,15.2186667 38.99,15.0086667 C38.71,14.7846667 38.584,14.5186667 38.584,14.1826667 C38.584,13.1326667 39.396,12.6006667 41.02,12.5726667 L42.686,12.5446667 L42.686,13.1606667 C42.686,13.7206667 42.42,14.2246667 41.902,14.6586667 C41.37,15.1066667 40.768,15.3306667 40.082,15.3306667 Z M48.65,16.2126667 C49.546,16.2126667 50.26,15.9746667 50.806,15.5126667 C51.366,15.0366667 51.716,14.3226667 51.884,13.3986667 L50.764,13.3986667 C50.596,14.6446667 49.882,15.2746667 48.65,15.2746667 C47.922,15.2746667 47.362,15.0086667 46.984,14.5046667 C46.592,14.0006667 46.41,13.3006667 46.41,12.4186667 C46.41,11.5366667 46.606,10.8366667 46.998,10.3186667 C47.404,9.78666667 47.964,9.52066667 48.664,9.52066667 C49.238,9.52066667 49.7,9.64666667 50.064,9.92666667 C50.414,10.2066667 50.638,10.6266667 50.736,11.1866667 L51.842,11.1866667 C51.716,10.3046667 51.38,9.64666667 50.82,9.21266667 C50.274,8.79266667 49.56,8.58266667 48.664,8.58266667 C47.586,8.58266667 46.732,8.96066667 46.116,9.73066667 C45.542,10.4306667 45.262,11.3266667 45.262,12.4326667 C45.262,13.5386667 45.542,14.4346667 46.116,15.1206667 C46.718,15.8486667 47.558,16.2126667 48.65,16.2126667 Z" id="Mac"></path>
                    </g>
                </g>
            </g>
        </g>
    </g>
</svg>