<?xml version="1.0" encoding="UTF-8"?>
<svg width="65px" height="60px" viewBox="0 0 65 60" version="1.1" xmlns="http://www.w3.org/2000/svg" xmlns:xlink="http://www.w3.org/1999/xlink">
    <!-- Generator: Sketch 57.1 (83088) - https://sketch.com -->
    <title>编组</title>
    <desc>Created with Sketch.</desc>
    <g id="页面-1" stroke="none" stroke-width="1" fill="none" fill-rule="evenodd">
        <g id="ONT-ID-2" transform="translate(-1338.000000, -2498.000000)" fill-rule="nonzero">
            <g id="编组" transform="translate(1328.000000, 2495.000000)">
                <rect id="Rectangle" fill="#F2F2F2" x="10.379902" y="3.9276056" width="20.3308824" height="58.504902" rx="10.1654412"></rect>
                <rect id="Rectangle" fill="#F2F2F2" x="54.5588235" y="3.9276056" width="20.3308824" height="58.504902" rx="10.1654412"></rect>
                <path d="M19.5142271,4.09078192 C25.2076821,0.803664162 31.1005234,4.06600962 33.4954516,8.21414695 C36.8239586,13.9792902 40.9348777,21.099611 42.2833034,23.4351529 C37.1071665,14.4698206 34.5792225,15.9308344 34.6994715,27.8181941 L34.6994715,57.1466067 C34.6994715,62.7608249 30.1482485,67.3120479 24.5340304,67.3120479 L24.5340304,67.3120479 C18.9198122,67.3120479 14.3685892,62.7608249 14.3685892,57.1466067 L14.3685892,16.2430599 C14.0033777,10.3329531 15.7185904,6.28219376 19.5142271,4.09078192 Z" id="Rectangle" fill="#FFFFFF" transform="translate(28.301904, 35.028573) scale(-1, 1) rotate(30.000000) translate(-28.301904, -35.028573) "></path>
                <path d="M48.1661878,4.09078192 C53.8596428,0.803664162 59.7524841,4.06600962 62.1474124,8.21414695 C65.4759193,13.9792902 69.5868385,21.099611 70.9352642,23.4351529 C65.7591272,14.4698206 63.2311832,15.9308344 63.3514323,27.8181941 L63.3514323,57.1466067 C63.3514323,62.7608249 58.8002092,67.3120479 53.1859911,67.3120479 L53.1859911,67.3120479 C47.5717729,67.3120479 43.0205499,62.7608249 43.0205499,57.1466067 L43.0205499,16.2430599 C42.6553385,10.3329531 44.3705511,6.28219376 48.1661878,4.09078192 Z" id="Rectangle" fill="#FFFFFF" transform="translate(56.953865, 35.028573) rotate(30.000000) translate(-56.953865, -35.028573) "></path>
            </g>
        </g>
    </g>
</svg>