<?xml version="1.0" encoding="UTF-8"?>
<svg width="89px" height="60px" viewBox="0 0 89 60" version="1.1" xmlns="http://www.w3.org/2000/svg" xmlns:xlink="http://www.w3.org/1999/xlink">
    <!-- Generator: Sketch 57.1 (83088) - https://sketch.com -->
    <title>MOVIE</title>
    <desc>Created with Sketch.</desc>
    <defs>
        <polygon id="path-1" points="0 58.3098592 88.1837429 58.3098592 88.1837429 0.0312676056 0 0.0312676056"></polygon>
    </defs>
    <g id="页面-1" stroke="none" stroke-width="1" fill="none" fill-rule="evenodd">
        <g id="ONT-ID-2" transform="translate(-507.000000, -2499.000000)">
            <g id="MOVIE" transform="translate(507.000000, 2499.000000)">
                <polygon id="Fill-1" fill="#F1F2F2" points="9.77754 46.5177465 6.66084476 55.6571831 3.39327333 46.5177465 0.000254285714 46.5177465 0.000254285714 58.9140845 2.93132095 58.9140845 2.93132095 52.716338 5.24786381 58.9140845 7.98736857 58.9140845 10.2623781 52.4230986 10.2623781 58.9140845 13.1078352 58.9140845 13.1078352 46.5177465"></polygon>
                <g id="编组" transform="translate(0.000000, 0.814225)">
                    <path d="M21.6792133,51.4184789 C21.6792133,50.8303099 21.2155657,50.6198873 20.8570229,50.6198873 L18.0759848,50.6198873 C17.928499,50.6198873 17.675061,50.7043944 17.675061,51.0196056 L17.675061,54.4649577 C17.675061,55.116507 18.2014324,55.2643944 18.4964038,55.2643944 L21.2587943,55.2643944 C21.4054324,55.2643944 21.6792133,55.1596056 21.6792133,54.8435493 L21.6792133,51.4184789 Z M24.6721562,54.528338 C24.6721562,56.1889014 23.7033276,58.0996056 21.1943752,58.0996056 L17.3385562,58.0996056 C15.6729848,58.0996056 14.6829657,56.9443944 14.6829657,55.3472113 L14.6829657,51.4387606 C14.6829657,50.1584789 15.3780133,47.9308732 18.1387086,47.9308732 L22.0165657,47.9308732 C23.93388,47.9308732 24.6721562,49.6750986 24.6721562,50.6824225 L24.6721562,54.528338 Z" id="Fill-2" fill="#FFFFFF"></path>
                    <polygon id="Fill-4" fill="#FFFFFF" points="32.4648267 58.0998592 28.7980267 58.0998592 25.1091886 47.9311268 28.5869695 47.9311268 30.6314267 55.241831 32.6538457 47.9311268 36.1316267 47.9311268"></polygon>
                    <mask id="mask-2" fill="white">
                        <use xlink:href="#path-1"></use>
                    </mask>
                    <g id="Clip-7"></g>
                    <path d="M36.8222667,58.0994366 L39.9618476,58.0994366 L39.9618476,47.9307042 L36.8222667,47.9307042 L36.8222667,58.0994366 Z M36.7375048,46.7121127 L40.0449143,46.7121127 L40.0449143,44.8630986 L36.7375048,44.8630986 L36.7375048,46.7121127 Z" id="Fill-6" fill="#FFFFFF" mask="url(#mask-2)"></path>
                    <path d="M47.8626743,51.1874366 C47.8626743,50.6415211 47.4414076,50.3668732 47.0625219,50.3668732 L45.4189886,50.3668732 C44.9756838,50.3668732 44.5959505,50.6820845 44.5959505,51.1874366 L44.5959505,52.1947606 L47.8626743,52.1947606 L47.8626743,51.1874366 Z M50.5182648,57.4908169 C49.0010267,57.9310986 46.8929981,58.3096901 44.5959505,58.3096901 C43.3948743,58.3096901 41.5411314,57.4705352 41.5411314,54.6336338 L41.5411314,51.3978592 C41.5411314,49.5699718 42.5735314,47.9305352 45.0180648,47.9305352 L47.0625219,47.9305352 C49.5485886,47.9305352 50.3292457,49.4026479 50.3292457,50.7877183 L50.3292457,53.0153239 C50.3292457,53.6677183 49.9910457,54.0226479 49.4222933,54.0226479 L44.5959505,54.0226479 L44.5959505,54.5710986 C44.5959505,54.9894085 44.7858171,55.6629296 45.6283505,55.6629296 C46.5564933,55.6629296 49.2120838,55.4313803 50.5182648,55.2420845 L50.5182648,57.4908169 Z" id="Fill-8" fill="#FFFFFF" mask="url(#mask-2)"></path>
                    <path d="M58.7956038,53.8348732 C58.7956038,53.2255775 58.3734895,52.8267042 57.7632038,52.8267042 L54.7499181,52.8267042 L54.7499181,55.4726197 L57.7632038,55.4726197 C58.3734895,55.4726197 58.7956038,55.0534648 58.7956038,54.444169 L58.7956038,53.8348732 Z M57.9734133,49.1700845 C57.9734133,48.5616338 57.7843943,48.1407887 56.9622038,48.1407887 L54.7499181,48.1407887 L54.7499181,50.5779718 L56.9622038,50.5779718 C57.7843943,50.5779718 57.9734133,50.1790986 57.9734133,49.5698028 L57.9734133,49.1700845 Z M58.0793657,58.0999437 L51.9680324,58.0999437 L51.9680324,45.7036056 L58.0793657,45.7036056 C59.5118419,45.7036056 60.9248229,46.5233239 60.9248229,48.1407887 L60.9248229,48.959662 C60.9248229,49.8216338 60.3128419,50.7883944 59.6389848,51.0613521 C61.3240514,51.3976901 61.7461657,52.8055775 61.7461657,53.6244507 L61.7461657,54.8430423 C61.7461657,57.2802254 59.7017086,58.0999437 58.0793657,58.0999437 L58.0793657,58.0999437 Z" id="Fill-9" fill="#FFFFFF" mask="url(#mask-2)"></path>
                    <polygon id="Fill-10" fill="#FFFFFF" mask="url(#mask-2)" points="63.428181 58.1002817 66.5677619 58.1002817 66.5677619 45.0938028 63.428181 45.0938028"></polygon>
                    <path d="M75.1421067,51.4184789 C75.1421067,50.8303099 74.6793067,50.6198873 74.3207638,50.6198873 L71.5397257,50.6198873 C71.39224,50.6198873 71.1388019,50.7043944 71.1388019,51.0196056 L71.1388019,54.4649577 C71.1388019,55.116507 71.6651733,55.2643944 71.9601448,55.2643944 L74.7225352,55.2643944 C74.8691733,55.2643944 75.1421067,55.1596056 75.1421067,54.8435493 L75.1421067,51.4184789 Z M78.1358971,54.528338 C78.1358971,56.1889014 77.166221,58.0996056 74.6581162,58.0996056 L70.8022971,58.0996056 C69.1367257,58.0996056 68.1467067,56.9443944 68.1467067,55.3472113 L68.1467067,51.4387606 C68.1467067,50.1584789 68.8417543,47.9308732 71.6024495,47.9308732 L75.4803067,47.9308732 C77.397621,47.9308732 78.1358971,49.6750986 78.1358971,50.6824225 L78.1358971,54.528338 Z" id="Fill-11" fill="#FFFFFF" mask="url(#mask-2)"></path>
                    <path d="M82.66142,58.3094366 C81.5230676,58.3094366 79.606601,57.5116901 79.606601,54.6333803 L79.606601,51.3976056 C79.606601,49.338169 80.870401,47.9311268 83.0835343,47.9311268 L87.7623914,47.9311268 L87.7623914,50.6192958 L83.0835343,50.6192958 C82.9775819,50.6192958 82.66142,50.6826761 82.66142,51.0198592 L82.66142,54.401831 C82.66142,54.7804225 82.9148581,55.41 83.69382,55.41 C84.8338676,55.41 87.12922,55.0322535 88.1845057,54.8015493 L88.1845057,57.2801408 C86.9817343,57.7635211 84.8965914,58.3094366 82.66142,58.3094366" id="Fill-12" fill="#FFFFFF" mask="url(#mask-2)"></path>
                    <polygon id="Fill-13" fill="#FFFFFF" mask="url(#mask-2)" points="35.8759848 9.75338028 35.8759848 29.1815493 67.0556514 35.0108451 67.0556514 3.92492958"></polygon>
                    <polygon id="Fill-14" fill="#FFFFFF" mask="url(#mask-2)" points="35.8006314 31.9778028 25.25286 33.9493521 25.25286 4.98625352 35.7133267 6.94174648 35.7997838 6.95780282 46.9908981 4.86540845 21.1274981 0.0307605634 21.1274981 38.904 46.9908981 34.0701972 35.8870886 31.9938592"></polygon>
                </g>
            </g>
        </g>
    </g>
</svg>