<?xml version="1.0" encoding="UTF-8"?>
<svg width="81px" height="60px" viewBox="0 0 81 60" version="1.1" xmlns="http://www.w3.org/2000/svg" xmlns:xlink="http://www.w3.org/1999/xlink">
    <!-- Generator: Sketch 57.1 (83088) - https://sketch.com -->
    <title>MUZIKA</title>
    <desc>Created with Sketch.</desc>
    <g id="页面-1" stroke="none" stroke-width="1" fill="none" fill-rule="evenodd">
        <g id="ONT-ID-2" transform="translate(-919.000000, -2500.000000)" fill="#FFFFFF">
            <g id="MUZIKA" transform="translate(919.000000, 2500.000000)">
                <path d="M8.92153189,32.7367988 L20.6637642,32.7367988 C20.6637642,32.7367988 16.6338759,28.8195232 15.3832654,22.9437957 C15.3832654,22.9437957 13.7156617,30.4283777 8.92153189,32.7367988" id="Fill-1"></path>
                <path d="M12.8124656,0.489640867 L19.2972629,0.489640867 C21.5881421,0.489640867 23.6450624,1.90270588 24.4803403,4.05026006 L31.56701,22.2711269 C31.9242219,23.1891455 31.8779098,24.2165759 31.440067,25.0983715 L27.2644155,33.5061734 L16.1474884,5.10648297 C16.1474884,5.10648297 15.1747503,2.16852632 12.8124656,0.489640867" id="Fill-3"></path>
                <path d="M67.5180574,32.7367988 L60.91462,32.7367988 C58.5816724,32.7367988 56.4872966,31.335808 55.6365198,29.2062724 L48.4203239,11.1399567 C48.0566542,10.2297399 48.1037043,9.21104025 48.5496656,8.33667492 L52.8017043,1.85758514e-05 L64.1219617,28.1591517 C64.1219617,28.1591517 65.1125973,31.0722167 67.5180574,32.7367988" id="Fill-5"></path>
                <path d="M46.7601007,22.9390217 C46.7206155,22.712582 46.6593581,22.488743 46.5748524,22.2710341 L46.1884879,21.277969 L39.4881827,4.05035294 C38.6529048,1.90279876 36.5959845,0.489547988 34.3051052,0.489547988 L27.8201235,0.489547988 C30.1824082,2.16843344 31.1551462,5.10639009 31.1551462,5.10639009 L39.3634538,26.0753684 L39.3634538,26.0755542 L40.39339,28.7070093 C40.4605517,28.8784644 40.5435813,29.0346873 40.6391576,29.1762353 L40.7500483,29.4452136 C41.5871713,31.4800124 43.5594014,32.8066997 45.7471394,32.8066997 L52.1382055,32.8066997 C50.1661599,31.8662043 47.8208501,25.8992693 46.7601007,22.9390217" id="Fill-7"></path>
                <path d="M71.1064497,0.419702786 L59.3642173,0.419702786 C59.3642173,0.419702786 63.3941057,4.33697833 64.6447162,10.2127059 C64.6447162,10.2127059 66.3123198,2.72812384 71.1064497,0.419702786" id="Fill-9"></path>
                <polygon id="Fill-11" points="9.23010683 55.3372012 9.30520251 55.3372012 14.5777674 41.2156533 18.4602321 41.2156533 18.4602321 59.5737957 15.41692 59.5737957 15.41692 46.3851269 15.3418244 46.3724954 10.3196399 59.5737957 8.22821617 59.5737957 3.11838929 46.1202353 3.04329362 46.1454985 3.04329362 59.5737957 -1.84510251e-05 59.5737957 -1.84510251e-05 41.2156533 3.99499749 41.2156533"></polygon>
                <path d="M30.4456305,57.5563282 C30.0280838,58.2876594 29.4917125,58.8508793 28.8363321,59.2459876 C28.1807672,59.6409102 27.4231681,59.8385573 26.5631658,59.8385573 C25.1103321,59.8385573 23.974856,59.3574427 23.1567376,58.3948421 C22.3384346,57.4324272 21.9293754,55.9383715 21.9293754,53.9124892 L21.9293754,45.9311889 L24.9601408,45.9311889 L24.9601408,53.9377523 C24.9601408,55.2406625 25.1479722,56.1337895 25.5238196,56.6169474 C25.8994825,57.1004768 26.4838264,57.3419628 27.277036,57.3419628 C28.0117558,57.3419628 28.6274665,57.2097028 29.1243526,56.9448111 C29.6210542,56.6799195 30.0112934,56.2955851 30.2954392,55.791065 L30.2954392,45.9311889 L33.3387513,45.9311889 L33.3387513,59.5736656 L30.7211043,59.5736656 L30.4456305,57.5563282 Z" id="Fill-13"></path>
                <polygon id="Fill-15" points="39.7508699 57.1276718 46.9895761 57.1276718 46.9895761 59.5737399 35.981141 59.5737399 35.981141 57.5690341 42.8192754 48.4024087 36.1189702 48.4024087 36.1189702 45.9312632 46.6641 45.9312632 46.6641 47.8729969"></polygon>
                <path d="M49.7199772,59.5736842 L52.7632893,59.5736842 L52.7632893,45.9312074 L49.7199772,45.9312074 L49.7199772,59.5736842 Z M49.7199772,42.589969 L52.7632893,42.589969 L52.7632893,39.9042724 L49.7199772,39.9042724 L49.7199772,42.589969 Z" id="Fill-17"></path>
                <polygon id="Fill-19" points="60.3403503 53.6098514 59.2133617 53.6098514 59.2133617 59.5736285 56.1824118 59.5736285 56.1824118 39.9042167 59.2133617 39.9042167 59.2133617 51.1511517 60.252708 51.1511517 63.9222478 45.9311517 67.4915986 45.9311517 62.845077 52.2103467 68.0050907 59.5736285 64.4606487 59.5736285"></polygon>
                <path d="M74.0414911,57.3798204 C74.8011198,57.3798204 75.4880515,57.1866316 76.1017326,56.7998824 C76.7154137,56.4133189 77.1224433,55.9719567 77.3228214,55.4759814 L77.3228214,53.458644 L74.9057371,53.458644 C74.0206415,53.458644 73.327621,53.6791393 72.8266756,54.1205015 C72.3257303,54.561678 72.0753499,55.0808731 72.0753499,55.6777152 C72.0753499,56.1989536 72.2443613,56.6128235 72.5825686,56.9195108 C72.9205913,57.2265697 73.4069604,57.3798204 74.0414911,57.3798204 L74.0414911,57.3798204 Z M77.7610333,59.5738142 C77.6525412,59.2292322 77.5626847,58.8930093 77.4918328,58.5651455 C77.4207964,58.237096 77.3730082,57.909418 77.3479148,57.5815542 C76.9386711,58.2203777 76.3915982,58.756291 75.7070651,59.1891084 C75.0223476,59.6219257 74.2586597,59.8385201 73.4152633,59.8385201 C72.0043134,59.8385201 70.9208692,59.4729474 70.1652998,58.7416161 C69.4095458,58.0102848 69.0320378,57.0058885 69.0320378,55.7280557 C69.0320378,54.408613 69.5495891,53.3809969 70.5850606,52.6453932 C71.6201631,51.9097895 73.077056,51.5419876 74.9557394,51.5419876 L77.3228214,51.5419876 L77.3228214,50.3442167 C77.3228214,49.6297895 77.1161699,49.0708421 76.702867,48.6673746 C76.2897485,48.2637214 75.6904592,48.0619876 74.9057371,48.0619876 C74.2125321,48.0619876 73.6614,48.2280557 73.2525253,48.560192 C72.8434661,48.8923282 72.6388442,49.3229164 72.6388442,49.8525139 L69.7082679,49.8651455 L69.6957212,49.7895418 C69.6372314,48.7136285 70.1152975,47.759387 71.1297349,46.9271889 C72.1441722,46.0949907 73.4654501,45.6790774 75.0935686,45.6790774 C76.6715002,45.6790774 77.944621,46.0825449 78.9132998,46.8892941 C79.8817941,47.6964149 80.3661335,48.856291 80.3661335,50.3694799 L80.3661335,56.4341238 C80.3661335,56.9973437 80.4035891,57.5375294 80.4788692,58.0544954 C80.5539649,58.5712755 80.6748191,59.077839 80.8419854,59.5738142 L77.7610333,59.5738142 Z" id="Fill-20"></path>
            </g>
        </g>
    </g>
</svg>