<?xml version="1.0" encoding="UTF-8"?>
<svg width="16px" height="16px" viewBox="0 0 16 16" version="1.1" xmlns="http://www.w3.org/2000/svg" xmlns:xlink="http://www.w3.org/1999/xlink">
    <!-- Generator: Sketch 57.1 (83088) - https://sketch.com -->
    <title>成功备份 5</title>
    <desc>Created with Sketch.</desc>
    <g id="页面-1" stroke="none" stroke-width="1" fill="none" fill-rule="evenodd">
        <g id="ONT-ID-Black" transform="translate(-599.000000, -2043.000000)">
            <g id="成功备份-5" transform="translate(599.000000, 2043.000000)">
                <circle id="椭圆形" fill="#F2F2F2" fill-rule="nonzero" cx="8" cy="8" r="8"></circle>
                <path d="M6.2261071,5.21411987 L7.99990909,6.98790909 L9.7738929,5.21411987 C9.89105019,5.09696258 10.0809997,5.09696258 10.198157,5.21411987 L10.7858801,5.80184303 C10.9030374,5.91900031 10.9030374,6.10894981 10.7858801,6.2261071 L9.01190909,7.99990909 L10.7858801,9.7738929 C10.9030374,9.89105019 10.9030374,10.0809997 10.7858801,10.198157 L10.198157,10.7858801 C10.0809997,10.9030374 9.89105019,10.9030374 9.7738929,10.7858801 L7.99990909,9.01190909 L6.2261071,10.7858801 C6.10894981,10.9030374 5.91900031,10.9030374 5.80184303,10.7858801 L5.21411987,10.198157 C5.09696258,10.0809997 5.09696258,9.89105019 5.21411987,9.7738929 L6.98790909,7.99990909 L5.21411987,6.2261071 C5.09696258,6.10894981 5.09696258,5.91900031 5.21411987,5.80184303 L5.80184303,5.21411987 C5.91900031,5.09696258 6.10894981,5.09696258 6.2261071,5.21411987 Z" id="形状结合" stroke="#000000" stroke-width="0.2" fill="#000000" opacity="0.3"></path>
            </g>
        </g>
    </g>
</svg>