<?xml version="1.0" encoding="utf-8"?>
<!-- Generator: Adobe Illustrator 23.0.4, SVG Export Plug-In . SVG Version: 6.00 Build 0)  -->
<svg version="1.1" id="图层_1" xmlns="http://www.w3.org/2000/svg" xmlns:xlink="http://www.w3.org/1999/xlink" x="0px" y="0px"
	 viewBox="0 0 86.4 30" style="enable-background:new 0 0 86.4 30;" xml:space="preserve">
<style type="text/css">
	.st0{fill:#FFFFFF;}
</style>
<title>ontfs备份</title>
<desc>Created with Sketch.</desc>
<g>
	<path class="st0" d="M23.2,16.9c0,2.2-0.1,3.7-0.2,4.6c-0.1,0.9-0.4,1.7-1,2.5c-0.5,0.8-1.3,1.3-2.2,1.7c-0.9,0.4-2,0.6-3.2,0.6
		c-1.2,0-2.2-0.2-3.1-0.6s-1.7-1-2.2-1.7c-0.6-0.8-0.9-1.6-1-2.5s-0.2-2.5-0.2-4.7v-3.7c0-2.2,0.1-3.7,0.2-4.6
		c0.1-0.9,0.4-1.7,1-2.5c0.5-0.8,1.3-1.3,2.2-1.7s2-0.6,3.2-0.6c1.2,0,2.2,0.2,3.1,0.6c0.9,0.4,1.7,1,2.2,1.7c0.6,0.8,0.9,1.6,1,2.5
		s0.2,2.5,0.2,4.7V16.9z M17.5,9.7c0-1-0.1-1.7-0.2-1.9c-0.1-0.3-0.3-0.4-0.7-0.4c-0.3,0-0.5,0.1-0.7,0.3c-0.2,0.2-0.2,0.9-0.2,2
		v10.2c0,1.3,0.1,2,0.2,2.3c0.1,0.3,0.3,0.4,0.7,0.4c0.4,0,0.6-0.2,0.7-0.5c0.1-0.3,0.2-1.2,0.2-2.4V9.7z"/>
	<path class="st0" d="M37.9,4.1v21.7h-5L30,16v9.9h-4.7V4.1H30l3.2,9.8V4.1H37.9z"/>
	<path class="st0" d="M51.6,4.1v4.4h-3.4v17.4h-5.7V8.5h-3.3V4.1H51.6z"/>
	<path class="st0" d="M52.9,4.1h9.6v4.4h-3.9v4.1H62v4.1h-3.5v9.1h-5.7V4.1z"/>
	<path class="st0" d="M75.8,10.7h-5.3V9.1c0-0.8-0.1-1.2-0.2-1.4c-0.1-0.2-0.4-0.3-0.7-0.3c-0.3,0-0.6,0.1-0.8,0.4S68.6,8.5,68.6,9
		c0,0.7,0.1,1.3,0.3,1.6c0.2,0.4,0.7,0.8,1.6,1.3c2.5,1.5,4.1,2.7,4.8,3.7c0.7,1,1,2.5,1,4.6c0,1.5-0.2,2.7-0.5,3.4
		c-0.4,0.7-1.1,1.3-2.1,1.8c-1,0.5-2.2,0.7-3.6,0.7c-1.5,0-2.8-0.3-3.9-0.9c-1.1-0.6-1.8-1.3-2.1-2.2c-0.3-0.9-0.5-2.1-0.5-3.8v-1.4
		h5.3v2.6c0,0.8,0.1,1.3,0.2,1.6c0.1,0.2,0.4,0.3,0.8,0.3s0.7-0.1,0.8-0.4c0.2-0.3,0.3-0.7,0.3-1.3c0-1.3-0.2-2.1-0.5-2.5
		c-0.4-0.4-1.2-1.1-2.6-2c-1.4-0.9-2.3-1.6-2.8-2s-0.8-1-1.1-1.7c-0.3-0.7-0.5-1.7-0.5-2.8c0-1.7,0.2-2.9,0.6-3.7
		c0.4-0.8,1.1-1.4,2.1-1.8c0.9-0.4,2.1-0.7,3.4-0.7c1.5,0,2.7,0.2,3.8,0.7s1.7,1.1,2.1,1.8c0.3,0.7,0.5,1.9,0.5,3.7V10.7z"/>
</g>
<title>ontfs备份</title>
<desc>Created with Sketch.</desc>
</svg>
