<?xml version="1.0" encoding="UTF-8"?>
<svg width="135px" height="30px" viewBox="0 0 135 30" version="1.1" xmlns="http://www.w3.org/2000/svg" xmlns:xlink="http://www.w3.org/1999/xlink">
    <!-- Generator: Sketch 60.1 (88133) - https://sketch.com -->
    <title>ontfs</title>
    <desc>Created with Sketch.</desc>
    <g id="页面-1" stroke="none" stroke-width="1" fill="none" fill-rule="evenodd">
        <g id="画板备份" transform="translate(-240.000000, -60.000000)" fill-rule="nonzero">
            <g id="ontfs" transform="translate(240.000000, 60.000000)">
                <g id="编组" fill="#FFFFFF">
                    <path d="M4.38976378,5.42463442 L4.38976378,5.42463442 L0.0618672666,1.09673791 L0.0618672666,15.4471316 L0.0618672666,15.4471316 C0.0618672666,19.091676 1.42857143,22.7362205 4.38976378,25.6974128 C10.0843645,31.3920135 19.1957255,31.3920135 24.8903262,25.6974128 L4.38976378,5.42463442 Z" id="路径"></path>
                    <path d="M26.2570304,24.5584927 L26.2570304,24.5584927 L30.5849269,28.8863892 L30.5849269,14.5359955 L30.5849269,14.5359955 C30.5849269,10.8914511 29.2182227,7.24690664 26.2570304,4.28571429 C20.5624297,-1.40888639 11.4510686,-1.40888639 5.75646794,4.28571429 L26.2570304,24.5584927 Z" id="路径"></path>
                </g>
                <polygon id="路径" fill="#FFFFFF" opacity="0.14" points="41.5 1.78008999 41.5 28.2030371 40 28.2030371 40 1.78008999"></polygon>
                <g id="编组" transform="translate(49.584164, 4.161980)" fill="#F2F2F2">
                    <path d="M0.123734533,10.8295838 C0.123734533,5.13498313 4.67941507,0.579302587 10.3740157,0.579302587 C16.0686164,0.579302587 20.624297,5.13498313 20.624297,10.8295838 C20.624297,16.5241845 16.0686164,21.079865 10.3740157,21.079865 C4.45163105,21.079865 0.123734533,16.5241845 0.123734533,10.8295838 Z M16.7519685,10.8295838 C16.7519685,7.18503937 13.7907762,4.22384702 10.1462317,4.22384702 C6.50168729,4.22384702 3.54049494,7.18503937 3.54049494,10.8295838 C3.54049494,14.4741282 6.50168729,17.4353206 10.1462317,17.4353206 C13.7907762,17.4353206 16.7519685,14.4741282 16.7519685,10.8295838 Z" id="形状"></path>
                    <polygon id="路径" points="22.5176764 0.807086614 26.6177888 0.807086614 35.2735819 14.4741282 35.2735819 0.807086614 38.9181263 0.807086614 38.9181263 20.624297 35.0457978 20.624297 26.1622208 6.72947132 26.1622208 20.624297 22.5176764 20.624297 22.5176764 0.807086614"></polygon>
                    <polygon id="路径" points="46.7338904 4.45163105 41.4948578 4.45163105 41.4948578 0.807086614 55.8452515 0.807086614 55.8452515 4.45163105 50.6062189 4.45163105 50.6062189 20.852081 46.9616744 20.852081 46.9616744 4.45163105"></polygon>
                    <polygon id="路径" points="58.1941989 0.807086614 69.3556163 0.807086614 69.3556163 4.45163105 61.8387434 4.45163105 61.8387434 9.00731159 69.3556163 9.00731159 69.3556163 12.651856 61.8387434 12.651856 61.8387434 20.852081 58.1941989 20.852081 58.1941989 0.807086614"></polygon>
                    <path d="M70.5656436,17.4353206 L73.982404,14.7019123 C74.8935401,16.5241845 76.4880283,17.4353206 78.3103005,17.4353206 C80.3603567,17.4353206 81.2714928,16.0686164 81.2714928,14.7019123 C81.2714928,13.1074241 79.2214366,12.424072 77.1713804,11.7407199 C74.437972,10.8295838 71.4767797,9.91844769 71.4767797,6.04611924 C71.4767797,2.85714286 74.210188,0.35151856 78.0825165,0.35151856 C81.2714928,0.35151856 83.0937651,1.4904387 84.6882533,3.31271091 L81.7270609,5.59055118 C80.8159248,4.22384702 79.6770047,3.76827897 78.0825165,3.76827897 C76.2602443,3.76827897 75.3491081,4.67941507 75.3491081,6.04611924 C75.3491081,7.64060742 77.1713804,8.09617548 79.4492206,8.77952756 C82.182629,9.69066367 85.1438213,10.8295838 85.1438213,14.7019123 C85.1438213,17.8908886 82.638197,20.852081 78.3103005,20.852081 C74.6657561,21.079865 72.3879158,19.4853768 70.5656436,17.4353206 Z" id="路径"></path>
                </g>
            </g>
        </g>
    </g>
</svg>