<?xml version="1.0" encoding="utf-8"?>
<!-- Generator: Adobe Illustrator 23.0.4, SVG Export Plug-In . SVG Version: 6.00 Build 0)  -->
<svg version="1.1" id="图层_1" xmlns="http://www.w3.org/2000/svg" xmlns:xlink="http://www.w3.org/1999/xlink" x="0px" y="0px"
	 viewBox="0 0 138.4 29" style="enable-background:new 0 0 138.4 29;" xml:space="preserve">
<style type="text/css">
	.st0{fill:#FFFFFF;}
	.st1{fill:#48A3FF;}
</style>
<title>ontfs备份</title>
<desc>Created with Sketch.</desc>
<g>
	<circle class="st0" cx="14.5" cy="14.5" r="14.5"/>
	<path class="st1" d="M31.9,10.2c-1.5,0-3,0.8-3.8,2c-0.5,0.7-1.3,1.2-2.2,1.2l0,0c-1.4,0-2.5-0.6-3.3-1.9l0,0
		c-2.3-3.4-4.6-5.3-8.1-5.3c-4.6,0-8.3,3.7-8.3,8.3s3.7,8.3,8.3,8.3c3.6,0,6.4-2.4,8.2-5.5l0,0c0.9-1.4,1.9-1.7,3.2-1.7
		c0.3,0,0.5,0,0.8,0.1c0.7,0.2,1.2,0.6,1.7,1.1c0.9,1,2.2,1.7,3.6,1.7c2.3,0,4.2-1.9,4.2-4.2C36,12.1,34.2,10.2,31.9,10.2z"/>
	<g>
		<path class="st0" d="M60.6,7.7c2,2,3,4.4,3,7.3s-1,5.3-3,7.3s-4.5,3-7.4,3s-5.4-1-7.4-3s-3-4.4-3-7.3s1-5.3,3-7.3s4.5-3,7.4-3
			C56.1,4.7,58.6,5.7,60.6,7.7z M57.2,19.2c1.1-1.1,1.6-2.5,1.6-4.2s-0.5-3.1-1.6-4.2s-2.4-1.7-4-1.7s-2.9,0.6-4,1.7
			s-1.6,2.5-1.6,4.2s0.5,3,1.6,4.2c1.1,1.1,2.4,1.7,4,1.7S56.1,20.3,57.2,19.2z"/>
		<path class="st0" d="M84.6,24.8h-4l-9.9-11.4v11.4h-4.8V5.1h4l9.9,11.7V5.1h4.8V24.8z"/>
		<path class="st0" d="M97.5,9.4v15.4h-4.8V9.4h-6.4V5.1h17.5v4.2h-6.3C97.5,9.3,97.5,9.4,97.5,9.4z"/>
		<path class="st0" d="M110.4,13.5h9.2v4.2h-9.2v7h-4.8V5.1h15.2v4.3h-10.4C110.4,9.4,110.4,13.5,110.4,13.5z"/>
		<path class="st0" d="M135.5,6.2c1.4,1,2.4,2.4,2.7,4.2l-4.8,1c-0.2-0.9-0.6-1.6-1.2-2c-0.6-0.5-1.4-0.7-2.2-0.7s-1.4,0.2-1.9,0.6
			c-0.5,0.4-0.7,0.9-0.7,1.4c0,0.9,0.5,1.4,1.6,1.6l4.1,0.9c3.6,0.8,5.4,2.7,5.4,5.7c0,2-0.8,3.6-2.3,4.7c-1.5,1.1-3.5,1.7-5.8,1.7
			s-4.2-0.5-5.8-1.6c-1.6-1-2.5-2.5-2.8-4.4l5-1c0.5,1.9,1.8,2.9,3.9,2.9c0.9,0,1.6-0.2,2.1-0.6s0.8-0.9,0.8-1.5
			c0-0.5-0.1-0.8-0.4-1.1c-0.3-0.3-0.7-0.5-1.4-0.6l-4.1-0.9c-3.5-0.8-5.3-2.7-5.3-5.7c0-1.9,0.7-3.4,2.1-4.5s3.3-1.7,5.6-1.7
			C132.2,4.7,134,5.2,135.5,6.2z"/>
	</g>
</g>
</svg>
