<?xml version="1.0" encoding="UTF-8"?>
<svg width="122px" height="122px" viewBox="0 0 122 122" version="1.1" xmlns="http://www.w3.org/2000/svg" xmlns:xlink="http://www.w3.org/1999/xlink">
    <!-- Generator: Sketch 57.1 (83088) - https://sketch.com -->
    <title>For 1</title>
    <desc>Created with Sketch.</desc>
    <g id="页面-1" stroke="none" stroke-width="1" fill="none" fill-rule="evenodd">
        <g id="ONT-ID-Black" transform="translate(-489.000000, -2755.000000)">
            <g id="For-1" transform="translate(490.000000, 2756.000000)">
                <circle id="椭圆形备份-5" stroke="#FFFFFF" stroke-width="2" opacity="0.1" cx="60" cy="60" r="60"></circle>
                <g id="yonghu-2备份" transform="translate(40.000000, 40.000000)" fill="#FFFFFF" fill-rule="nonzero">
                    <path d="M29.8916903,17.4405185 L29.243608,17.4405185 C30.4376776,15.6605114 31.1345881,13.5209517 31.1345881,11.217152 C31.1345881,5.02929688 26.118608,0.0133167614 19.9307528,0.0133167614 C13.7428977,0.0133167614 8.72691761,5.02929688 8.72691761,11.217152 C8.72691761,13.5209517 9.42826705,15.6605114 10.6178977,17.4405185 L9.96981534,17.4405185 C4.4699929,17.4405185 0.00887784091,21.8971946 0.00887784091,27.401456 L0.00887784091,34.8721591 C0.00887784091,37.6242898 2.23721591,39.8526278 4.98934659,39.8526278 L34.8677202,39.8526278 C37.6198509,39.8526278 39.8481889,37.6242898 39.8481889,34.8721591 L39.8481889,27.401456 C39.8481889,21.9016335 35.3915128,17.4405185 29.8916903,17.4405185 Z M13.7073864,11.217152 C13.7073864,7.78142756 16.4950284,4.99378551 19.9307528,4.99378551 C23.3664773,4.99378551 26.1541193,7.78142756 26.1541193,11.217152 C26.1541193,14.6528764 23.3664773,17.4405185 19.9307528,17.4405185 C16.4950284,17.4405185 13.7073864,14.6528764 13.7073864,11.217152 Z M34.8677202,32.3774858 C34.8677202,33.7535511 33.7535511,34.8677202 32.3774858,34.8677202 L7.48401989,34.8677202 C6.10795455,34.8677202 4.99378551,33.7535511 4.99378551,32.3774858 L4.99378551,27.401456 C4.99378551,24.6493253 7.22212358,22.4209872 9.97425426,22.4209872 L29.8916903,22.4209872 C32.643821,22.4209872 34.8721591,24.6493253 34.8721591,27.401456 L34.8721591,32.3774858 L34.8677202,32.3774858 Z" id="形状"></path>
                </g>
            </g>
        </g>
    </g>
</svg>