<?xml version="1.0" encoding="UTF-8"?>
<svg width="122px" height="122px" viewBox="0 0 122 122" version="1.1" xmlns="http://www.w3.org/2000/svg" xmlns:xlink="http://www.w3.org/1999/xlink">
    <!-- Generator: Sketch 57.1 (83088) - https://sketch.com -->
    <title>For 2</title>
    <desc>Created with Sketch.</desc>
    <g id="页面-1" stroke="none" stroke-width="1" fill="none" fill-rule="evenodd">
        <g id="ONT-ID-Black" transform="translate(-899.000000, -2755.000000)">
            <g id="For-2" transform="translate(900.000000, 2756.000000)">
                <g id="fuwushangzhibiaopeizhi备份-2" transform="translate(42.000000, 39.000000)" fill="#FFFFFF" fill-rule="nonzero">
                    <path d="M18.3095151,41.839868 L0,31.3563837 L0.0156782131,10.4416758 L18.2912238,2.84217094e-14 L36.603352,10.4416758 L36.603352,31.3720619 L18.3095151,41.839868 L18.3095151,41.839868 Z M31.3563837,13.0651599 L18.2912238,5.22606395 L5.23651607,12.4040628 L5.22606395,28.7433518 L18.304289,36.603352 L31.3563837,28.7433518 L31.3563837,13.0651599 Z M13.0651599,20.9042558 C13.0223189,19.0097875 14.0083396,17.2405541 15.6420694,16.2804642 C17.2757992,15.3203743 19.3012433,15.3198678 20.935453,16.2791405 C22.5696628,17.2384132 23.5565683,19.0071532 23.5146747,20.9016428 C23.4518717,23.7416946 21.131941,26.0114586 18.291195,26.0121691 C15.4504489,26.0128793 13.1293834,23.7442758 13.0651599,20.9042558 L13.0651599,20.9042558 Z" id="形状"></path>
                </g>
                <circle id="椭圆形备份-3" stroke="#FFFFFF" stroke-width="2" opacity="0.1" cx="60" cy="60" r="60"></circle>
            </g>
        </g>
    </g>
</svg>