<?xml version="1.0" encoding="UTF-8"?>
<svg width="42px" height="42px" viewBox="0 0 42 42" version="1.1" xmlns="http://www.w3.org/2000/svg" xmlns:xlink="http://www.w3.org/1999/xlink">
    <!-- Generator: Sketch 59.1 (86144) - https://sketch.com -->
    <title>编组 7</title>
    <desc>Created with Sketch.</desc>
    <g id="页面-1" stroke="none" stroke-width="1" fill="none" fill-rule="evenodd">
        <g id="Download" transform="translate(-1088.000000, -613.000000)">
            <g id="编组-2" transform="translate(792.000000, 613.000000)">
                <g id="编组-7" transform="translate(297.000000, 0.798750)">
                    <rect id="矩形" stroke="#F2F2F2" x="0" y="0" width="40" height="40" rx="2"></rect>
                    <path d="M10,19.4118089 L19.4118089,19.4118089 L19.4118089,10 L10,10 L10,19.4118089 Z M12.3529592,12.3529592 L17.0588497,12.3529592 L17.0588497,17.0588497 L12.3529592,17.0588497 L12.3529592,12.3529592 Z M20.5883023,19.4118089 L30,19.4118089 L30,10 L20.5883023,10 L20.5883023,19.4118089 Z M22.9412337,12.3529592 L27.6470408,12.3529592 L27.6470408,17.0588497 L22.9412337,17.0588497 L22.9412337,12.3529592 Z M13.5294248,15.882384 L15.882384,15.882384 L15.882384,13.5294248 L13.5294248,13.5294248 L13.5294248,15.882384 Z M10,30 L19.4118089,30 L19.4118089,20.5883023 L10,20.5883023 L10,30 Z M12.3529592,22.9411225 L17.0588497,22.9411225 L17.0588497,27.6470408 L12.3529592,27.6470408 L12.3529592,22.9411225 Z M26.4706864,13.5294248 L24.117616,13.5294248 L24.117616,15.882384 L26.4705752,15.882384 L26.4705752,13.5294248 L26.4706864,13.5294248 Z M20.5883023,30 L22.9412337,30 L22.9412337,27.6470408 L20.5883023,27.6470408 L20.5883023,30 Z M22.9412337,27.6470408 L25.2941929,27.6470408 L25.2941929,22.9411225 L22.9412337,22.9411225 L22.9412337,27.6470408 Z M27.6470408,27.6470408 L25.2941929,27.6470408 L25.2941929,30 L30,30 L30,25.2940817 L27.6470408,25.2940817 L27.6470408,27.6470408 Z M27.6470408,22.9411225 L30,22.9411225 L30,20.5883023 L27.6470408,20.5883023 L27.6470408,22.9411225 Z M20.5883023,22.9411225 L22.9412337,22.9411225 L22.9412337,20.5883023 L20.5883023,20.5883023 L20.5883023,22.9411225 Z M13.5294248,26.4705752 L15.882384,26.4705752 L15.882384,24.117616 L13.5294248,24.117616 L13.5294248,26.4705752 Z" id="Fill-1" fill="#000000"></path>
                </g>
            </g>
        </g>
    </g>
</svg>