<?xml version="1.0" encoding="UTF-8"?>
<svg width="60px" height="60px" viewBox="0 0 60 60" version="1.1" xmlns="http://www.w3.org/2000/svg" xmlns:xlink="http://www.w3.org/1999/xlink">
    <!-- Generator: Sketch 56.3 (81716) - https://sketch.com -->
    <title>编组 2</title>
    <desc>Created with Sketch.</desc>
    <g id="页面-1" stroke="none" stroke-width="1" fill="none" fill-rule="evenodd">
        <g id="ONT.IO-官网" transform="translate(-930.000000, -960.000000)" fill="#000000">
            <g id="编组-2" transform="translate(930.000000, 960.000000)">
                <path d="M30,0 C46.5685425,-3.04359188e-15 60,13.4314575 60,30 C60,46.5685425 46.5685425,60 30,60 C13.4314575,60 2.02906125e-15,46.5685425 0,30 C-2.02906125e-15,13.4314575 13.4314575,3.04359188e-15 30,0 Z M32.4696699,34.0983496 L32.4696699,18.75 L28.7196699,18.75 L28.7196699,34.7794373 L22.1516504,28.2114178 L19.5,30.8630682 L30.1066017,41.4696699 L30.2541261,41.3221456 L30.4016504,41.4696699 L41.0082521,30.8630682 L38.3566017,28.2114178 L32.4696699,34.0983496 Z" id="形状结合"></path>
            </g>
        </g>
    </g>
</svg>