<?xml version="1.0" standalone="no"?><!DOCTYPE svg PUBLIC "-//W3C//DTD SVG 1.1//EN" "http://www.w3.org/Graphics/SVG/1.1/DTD/svg11.dtd"><svg class="icon" width="200px" height="200.00px" viewBox="0 0 1024 1024" version="1.1" xmlns="http://www.w3.org/2000/svg"><path d="M517.333333 138.666667c117.546667 0 213.333333 95.786667 213.333334 213.333333v298.666667c0 117.546667-95.786667 213.333333-213.333334 213.333333s-213.333333-95.786667-213.333333-213.333333v-298.666667c0-117.546667 95.786667-213.333333 213.333333-213.333333m0-42.666667c-141.44 0-256 114.56-256 256v298.666667c0 141.44 114.56 256 256 256s256-114.56 256-256v-298.666667c0-141.44-114.56-256-256-256z" fill="#ffffff" /><path d="M517.333333 373.333333c-11.733333 0-21.333333-9.6-21.333333-21.333333v-85.333333c0-11.733333 9.6-21.333333 21.333333-21.333334s21.333333 9.6 21.333334 21.333334v85.333333c0 11.733333-9.6 21.333333-21.333334 21.333333z" fill="#ffffff" /></svg>