<?xml version="1.0" encoding="UTF-8"?>
<svg width="222px" height="239px" viewBox="0 0 222 239" version="1.1" xmlns="http://www.w3.org/2000/svg" xmlns:xlink="http://www.w3.org/1999/xlink">
    <!-- Generator: Sketch 57.1 (83088) - https://sketch.com -->
    <title>2</title>
    <desc>Created with Sketch.</desc>
    <g id="页面-1" stroke="none" stroke-width="1" fill="none" fill-rule="evenodd">
        <g id="ONT-ID-2" transform="translate(-1038.000000, -1829.000000)">
            <g id="2" transform="translate(1038.000000, 1829.000000)">
                <g id="编组-6备份-2" transform="translate(101.000000, 174.000000)">
                    <path d="M100.8087,8.3691 L100.8087,27.6341 C100.8087,30.0711 98.8327,32.0471 96.3957,32.0471 L32.8327,32.0471 L32.8327,3.9411 L96.3957,3.9411 C98.8327,3.9411 100.8087,5.9181 100.8087,8.3551 L100.8087,8.3691 Z" id="Fill-61" fill="#F2F2F2"></path>
                    <path d="M4.421,8.8817842e-15 L88.956,8.8817842e-15 C91.397,8.8817842e-15 93.376,1.979 93.376,4.42 L93.376,23.686 C93.376,26.127 91.397,28.105 88.956,28.105 L4.421,28.105 C1.98,28.105 1.0658141e-13,26.127 1.0658141e-13,23.686 L1.0658141e-13,4.42 C1.0658141e-13,1.979 1.98,8.8817842e-15 4.421,8.8817842e-15" id="Fill-63" fill="#FAFAFA"></path>
                    <polygon id="Fill-64" fill-opacity="0.3" fill="#000000" points="11.382 10.9173 32.984 10.9173 32.984 6.0393 11.382 6.0393"></polygon>
                    <polygon id="Fill-65" fill-opacity="0.3" fill="#000000" points="11.382 16.4913 77.581 16.4913 77.581 13.9363 11.382 13.9363"></polygon>
                    <polygon id="Fill-66" fill-opacity="0.3" fill="#000000" points="11.382 22.0663 37.861 22.0663 37.861 19.5113 11.382 19.5113"></polygon>
                </g>
                <g id="编组-3备份" transform="translate(50.000000, 0.000000)">
                    <path d="M120.240282,55.0833333 L120.240282,82.1319444 C120.238894,82.6527778 119.816671,83.0722222 119.297227,83.0736111 L118.626394,83.0736111 L118.626394,223.976389 C118.625005,232.094444 112.044449,238.676389 103.923616,238.676389 L15.883338,238.676389 C7.76528241,238.676389 1.18472685,232.094444 1.18472685,223.977778 L1.18472685,223.976389 L1.18472685,88.0166667 L0.700004632,88.0166667 C0.333337966,88.0166667 0.0347268545,87.7208333 0.0319490767,87.3527778 L0.0319490767,71.9597222 C0.0319490767,71.5916667 0.330560188,71.2930556 0.700004632,71.2930556 L1.18472685,71.2930556 L1.18472685,65.4944444 L0.695837966,65.4944444 C0.309726854,65.4930556 -0.00138425665,65.1805556 1.70530257e-13,64.7944444 L1.70530257e-13,49.6111111 C0.00139352113,49.2263889 0.311115743,48.9166667 0.695837966,48.9152778 L1.18472685,48.9152778 L1.18472685,41 L0.687504632,41 C0.347226854,41 0.0708379656,40.725 0.0708379656,40.3833333 L0.0708379656,40.3819444 L0.0708379656,32.0958333 C0.0694490767,31.7541667 0.345837966,31.4763889 0.687504632,31.475 L1.18472685,31.475 L1.18472685,14.6972222 C1.18611574,6.58055556 7.7666713,7.10542736e-14 15.883338,7.10542736e-14 L103.923616,7.10542736e-14 C112.04306,7.10542736e-14 118.623616,6.57916667 118.626394,14.6972222 L118.626394,54.1402778 L119.297227,54.1402778 C119.816671,54.1416667 120.238894,54.5638889 120.240282,55.0833333" id="Fill-7" fill="#F2F2F2"></path>
                    <path d="M49.839588,7.53972222 L64.1451435,7.53972222 C64.7243102,7.53972222 65.1923657,8.00777778 65.1923657,8.58555556 L65.1923657,9.82305556 C65.1923657,10.4008333 64.7243102,10.8688889 64.1451435,10.8688889 L49.839588,10.8688889 C49.2604213,10.8688889 48.7923657,10.4008333 48.7923657,9.82305556 L48.7923657,8.58555556 C48.7923657,8.00777778 49.2604213,7.53972222 49.839588,7.53972222" id="Fill-9" fill="#E5E7EB"></path>
                    <path d="M69.560838,7.31597222 C70.6038935,7.31597222 71.448338,8.16041667 71.448338,9.20347222 C71.448338,10.2465278 70.6038935,11.09375 69.560838,11.09375 C68.5177824,11.09375 67.6719491,10.2465278 67.6719491,9.20347222 C67.6719491,8.16041667 68.5177824,7.31597222 69.560838,7.31597222" id="Fill-11" fill="#E5E7EB"></path>
                    <path d="M111.58556,17.4303136 L111.58556,221.12848 C111.582782,226.181957 107.407782,230.277361 102.257782,230.277361 L17.9813935,230.277361 C12.838338,230.286884 8.66333797,226.202399 8.65500429,221.155737 L8.65500429,221.12848 L8.65500429,17.4303136 C8.65361574,12.3754743 12.8300046,8.27736076 17.9813935,8.27736076 L17.9813935,8.27736076 L30.5952824,8.27736076 L30.5952824,9.86509035 C30.5952824,14.0286207 34.0341713,17.4016936 38.275838,17.4016936 L81.1369491,17.4016936 C85.3786157,17.4016936 88.8161157,14.0286207 88.8161157,9.86509035 L88.8161157,8.27736076 L102.257782,8.27736076 C107.407782,8.27736076 111.584171,12.3713857 111.58556,17.4248621 L111.58556,17.4303136 Z" id="Fill-13" fill="#FFFFFF"></path>
                </g>
                <g id="编组-6" transform="translate(0.000000, 99.000000)">
                    <path d="M100.8087,8.3691 L100.8087,27.6341 C100.8087,30.0711 98.8327,32.0471 96.3957,32.0471 L32.8327,32.0471 L32.8327,3.9411 L96.3957,3.9411 C98.8327,3.9411 100.8087,5.9181 100.8087,8.3551 L100.8087,8.3691 Z" id="Fill-61" fill="#F2F2F2"></path>
                    <path d="M4.421,8.8817842e-15 L88.956,8.8817842e-15 C91.397,8.8817842e-15 93.376,1.979 93.376,4.42 L93.376,23.686 C93.376,26.127 91.397,28.105 88.956,28.105 L4.421,28.105 C1.98,28.105 1.0658141e-13,26.127 1.0658141e-13,23.686 L1.0658141e-13,4.42 C1.0658141e-13,1.979 1.98,8.8817842e-15 4.421,8.8817842e-15" id="Fill-63" fill="#FAFAFA"></path>
                    <polygon id="Fill-64" fill-opacity="0.3" fill="#000000" points="11.382 10.9173 32.984 10.9173 32.984 6.0393 11.382 6.0393"></polygon>
                    <polygon id="Fill-65" fill-opacity="0.3" fill="#000000" points="11.382 16.4913 77.581 16.4913 77.581 13.9363 11.382 13.9363"></polygon>
                    <polygon id="Fill-66" fill-opacity="0.3" fill="#000000" points="11.382 22.0663 37.861 22.0663 37.861 19.5113 11.382 19.5113"></polygon>
                </g>
                <g id="编组-6备份" transform="translate(121.000000, 44.000000)">
                    <path d="M100.8087,8.3691 L100.8087,27.6341 C100.8087,30.0711 98.8327,32.0471 96.3957,32.0471 L32.8327,32.0471 L32.8327,3.9411 L96.3957,3.9411 C98.8327,3.9411 100.8087,5.9181 100.8087,8.3551 L100.8087,8.3691 Z" id="Fill-61" fill="#F2F2F2"></path>
                    <path d="M4.421,8.8817842e-15 L88.956,8.8817842e-15 C91.397,8.8817842e-15 93.376,1.979 93.376,4.42 L93.376,23.686 C93.376,26.127 91.397,28.105 88.956,28.105 L4.421,28.105 C1.98,28.105 1.0658141e-13,26.127 1.0658141e-13,23.686 L1.0658141e-13,4.42 C1.0658141e-13,1.979 1.98,8.8817842e-15 4.421,8.8817842e-15" id="Fill-63" fill="#FAFAFA"></path>
                    <polygon id="Fill-64" fill-opacity="0.3" fill="#000000" points="11.382 10.9173 32.984 10.9173 32.984 6.0393 11.382 6.0393"></polygon>
                    <polygon id="Fill-65" fill-opacity="0.3" fill="#000000" points="11.382 16.4913 77.581 16.4913 77.581 13.9363 11.382 13.9363"></polygon>
                    <polygon id="Fill-66" fill-opacity="0.3" fill="#000000" points="11.382 22.0663 37.861 22.0663 37.861 19.5113 11.382 19.5113"></polygon>
                </g>
            </g>
        </g>
    </g>
</svg>