<?xml version="1.0" encoding="UTF-8"?>
<svg width="286px" height="266px" viewBox="0 0 286 266" version="1.1" xmlns="http://www.w3.org/2000/svg" xmlns:xlink="http://www.w3.org/1999/xlink">
    <!-- Generator: Sketch 57.1 (83088) - https://sketch.com -->
    <title>1</title>
    <desc>Created with Sketch.</desc>
    <defs>
        <polygon id="path-1" points="0.250833333 0.00277777778 95.7902778 0.00277777778 95.7902778 46.5375 0.250833333 46.5375"></polygon>
    </defs>
    <g id="页面-1" stroke="none" stroke-width="1" fill="none" fill-rule="evenodd">
        <g id="ONT-ID-2" transform="translate(-474.000000, -1407.000000)">
            <g id="1" transform="translate(474.000000, 1407.388889)">
                <g id="编组-10" transform="translate(183.186944, 0.000000)">
                    <g id="编组" transform="translate(6.979722, 6.476389)">
                        <mask id="mask-2" fill="white">
                            <use xlink:href="#path-1"></use>
                        </mask>
                        <g id="Clip-2"></g>
                        <path d="M5.85222222,0.00277777778 L90.1897222,0.00277777778 C93.2827778,0.00277777778 95.7911111,2.51111111 95.7911111,5.60416667 L95.7911111,40.9361111 C95.7911111,44.0291667 93.2827778,46.5375 90.1897222,46.5375 L5.85222222,46.5375 C2.75777778,46.5375 0.250833333,44.0291667 0.250833333,40.9361111 L0.250833333,5.60416667 C0.250833333,2.51111111 2.75777778,0.00277777778 5.85222222,0.00277777778" id="Fill-1" fill="#F2F2F2" mask="url(#mask-2)"></path>
                    </g>
                    <path d="M5.60138889,-3.55271368e-14 L89.9388889,-3.55271368e-14 C93.0319444,-3.55271368e-14 95.5402778,2.50972222 95.5402778,5.60138889 L95.5402778,40.9333333 C95.5402778,44.0263889 93.0319444,46.5347222 89.9388889,46.5347222 L5.60138889,46.5347222 C2.50694444,46.5347222 1.98951966e-13,44.0263889 1.98951966e-13,40.9333333 L1.98951966e-13,5.60138889 C1.98951966e-13,2.50972222 2.50694444,-3.55271368e-14 5.60138889,-3.55271368e-14" id="Fill-3" fill="#FAFAFA"></path>
                    <path d="M52.4641667,25.2820833 C51.6905556,26.4154167 50.6197222,27.7626389 49.6961111,28.57375 C49.0225,29.1598611 47.7766667,30.0570833 46.7905556,29.8834722 C44.26,29.4584722 44.7961111,23.26125 43.1002778,21.8654167 C42.3141667,21.6404167 41.9405556,22.8376389 41.5169444,22.1279167 C40.8433333,21.5654167 42.1655556,20.5931944 42.8377778,20.0195833 C43.6738889,19.3209722 44.6461111,18.32375 45.7433333,18.76125 C47.8752778,19.5959722 46.3419444,24.6959722 48.3863889,25.8056944 C49.4336111,24.9584722 50.6197222,23.56125 50.3697222,21.8654167 C50.1711111,21.2918056 49.21,21.4793056 48.6488889,21.6043056 C48.6238889,18.9973611 53.7725,17.0154167 54.1975,20.5556944 C54.4086111,22.7126389 52.4641667,25.2820833 52.4641667,25.2820833 M57.4266667,14.1348611 L56.4919444,14.1348611 C56.4919444,14.1348611 54.4711111,14.1348611 52.4391667,13.2001389 C50.2572222,12.5765278 48.8475,11.4793056 48.8475,11.4793056 L48.2252778,11.0056944 C47.9141667,10.8543056 47.4530556,10.8543056 47.1280556,11.0056944 L46.6530556,11.4793056 C46.6530556,11.4793056 45.2586111,12.4126389 43.0627778,13.34875 C41.0419444,14.1223611 39.1725,14.2834722 39.01,14.2834722 L38.1002778,14.2834722 C37.6266667,14.2834722 37.3280556,14.7584722 37.3280556,15.2195833 L37.3280556,24.7209722 C37.3280556,27.2154167 38.7238889,29.8570833 41.0683333,32.2015278 C43.2363889,34.3959722 45.8933333,35.6431944 47.7627778,35.6431944 C49.6336111,35.6431944 52.2766667,34.3959722 54.4711111,32.2140278 C56.9655556,29.8709722 58.2127778,27.2265278 58.2127778,24.7320833 L58.2127778,15.0695833 C58.2002778,14.5959722 57.9002778,14.1348611 57.4266667,14.1348611" id="Fill-5" fill="#000000" opacity="0.3"></path>
                </g>
                <g id="编组-3" transform="translate(80.954440, 26.132639)">
                    <path d="M120.240282,55.0833333 L120.240282,82.1319444 C120.238894,82.6527778 119.816671,83.0722222 119.297227,83.0736111 L118.626394,83.0736111 L118.626394,223.976389 C118.625005,232.094444 112.044449,238.676389 103.923616,238.676389 L15.883338,238.676389 C7.76528241,238.676389 1.18472685,232.094444 1.18472685,223.977778 L1.18472685,223.976389 L1.18472685,88.0166667 L0.700004632,88.0166667 C0.333337966,88.0166667 0.0347268545,87.7208333 0.0319490767,87.3527778 L0.0319490767,71.9597222 C0.0319490767,71.5916667 0.330560188,71.2930556 0.700004632,71.2930556 L1.18472685,71.2930556 L1.18472685,65.4944444 L0.695837966,65.4944444 C0.309726854,65.4930556 -0.00138425665,65.1805556 1.70530257e-13,64.7944444 L1.70530257e-13,49.6111111 C0.00139352113,49.2263889 0.311115743,48.9166667 0.695837966,48.9152778 L1.18472685,48.9152778 L1.18472685,41 L0.687504632,41 C0.347226854,41 0.0708379656,40.725 0.0708379656,40.3833333 L0.0708379656,40.3819444 L0.0708379656,32.0958333 C0.0694490767,31.7541667 0.345837966,31.4763889 0.687504632,31.475 L1.18472685,31.475 L1.18472685,14.6972222 C1.18611574,6.58055556 7.7666713,7.10542736e-14 15.883338,7.10542736e-14 L103.923616,7.10542736e-14 C112.04306,7.10542736e-14 118.623616,6.57916667 118.626394,14.6972222 L118.626394,54.1402778 L119.297227,54.1402778 C119.816671,54.1416667 120.238894,54.5638889 120.240282,55.0833333" id="Fill-7" fill="#F2F2F2"></path>
                    <path d="M49.839588,7.53972222 L64.1451435,7.53972222 C64.7243102,7.53972222 65.1923657,8.00777778 65.1923657,8.58555556 L65.1923657,9.82305556 C65.1923657,10.4008333 64.7243102,10.8688889 64.1451435,10.8688889 L49.839588,10.8688889 C49.2604213,10.8688889 48.7923657,10.4008333 48.7923657,9.82305556 L48.7923657,8.58555556 C48.7923657,8.00777778 49.2604213,7.53972222 49.839588,7.53972222" id="Fill-9" fill="#E5E7EB"></path>
                    <path d="M69.560838,7.31597222 C70.6038935,7.31597222 71.448338,8.16041667 71.448338,9.20347222 C71.448338,10.2465278 70.6038935,11.09375 69.560838,11.09375 C68.5177824,11.09375 67.6719491,10.2465278 67.6719491,9.20347222 C67.6719491,8.16041667 68.5177824,7.31597222 69.560838,7.31597222" id="Fill-11" fill="#E5E7EB"></path>
                    <path d="M111.58556,17.4303136 L111.58556,221.12848 C111.582782,226.181957 107.407782,230.277361 102.257782,230.277361 L17.9813935,230.277361 C12.838338,230.286884 8.66333797,226.202399 8.65500429,221.155737 L8.65500429,221.12848 L8.65500429,17.4303136 C8.65361574,12.3754743 12.8300046,8.27736076 17.9813935,8.27736076 L17.9813935,8.27736076 L30.5952824,8.27736076 L30.5952824,9.86509035 C30.5952824,14.0286207 34.0341713,17.4016936 38.275838,17.4016936 L81.1369491,17.4016936 C85.3786157,17.4016936 88.8161157,14.0286207 88.8161157,9.86509035 L88.8161157,8.27736076 L102.257782,8.27736076 C107.407782,8.27736076 111.584171,12.3713857 111.58556,17.4248621 L111.58556,17.4303136 Z" id="Fill-13" fill="#FFFFFF"></path>
                </g>
                <g id="编组-8" transform="translate(121.148056, 150.611111)">
                    <path d="M5.60138889,6.73694444 L89.9388889,6.73694444 C93.0319444,6.73694444 95.5402778,9.24527778 95.5402778,12.3383333 L95.5402778,47.6702778 C95.5402778,50.7633333 93.0319444,53.2716667 89.9388889,53.2716667 L5.60138889,53.2716667 C2.50694444,53.2716667 1.56319402e-13,50.7633333 1.56319402e-13,47.6702778 L1.56319402e-13,12.3383333 C1.56319402e-13,9.24527778 2.50694444,6.73694444 5.60138889,6.73694444" id="Fill-15" fill="#F2F2F2"></path>
                    <path d="M13.2945833,-4.26325641e-14 L97.6320833,-4.26325641e-14 C100.725139,-4.26325641e-14 103.233472,2.50833333 103.233472,5.60138889 L103.233472,40.9333333 C103.233472,44.0263889 100.725139,46.5347222 97.6320833,46.5347222 L13.2945833,46.5347222 C10.2001389,46.5347222 7.69319444,44.0263889 7.69319444,40.9333333 L7.69319444,5.60138889 C7.69319444,2.50833333 10.2001389,-4.26325641e-14 13.2945833,-4.26325641e-14" id="Fill-17" fill="#FAFAFA"></path>
                    <path d="M55.4630556,32.1995202 L55.195,32.1995202 C55.1533333,31.7022222 55.1533333,31.2008333 55.195,30.7036111 C55.5269444,29.5258333 56.1491667,28.4508333 57.0033333,27.5772222 C57.4005556,27.4077778 57.8241667,27.3119444 58.2547222,27.2980556 C58.8519444,27.2938889 59.4352778,27.1119444 59.9297222,26.7730556 C60.1894444,26.5175 60.2991667,26.1466667 60.22,25.7911111 C59.97,24.8216667 59.3422222,23.9938889 58.4769444,23.4897222 C57.9727778,23.3286111 57.445,23.2466667 56.9144444,23.2452778 C56.1352778,23.2369444 55.3658333,23.0925 54.6366667,22.8202778 C54.4227778,22.6702778 54.2283333,22.4938889 54.0561111,22.2952778 C53.6852778,21.8522222 53.2088889,21.5063889 52.6713889,21.2911111 C52.2158333,21.2133333 51.7477778,21.3355556 51.3880556,21.6258333 C50.6158333,22.1438889 49.6908333,22.3841667 48.7644444,22.3077778 C48.0408333,22.2119444 47.3241667,22.0661111 46.6213889,21.8716667 C47.3088889,17.5244444 51.0616667,14.3258333 55.4630556,14.3355335 L56.2102778,14.3355335 C56.1172222,15.1230556 56.17,15.9216667 56.3672222,16.6911111 C56.6658333,17.1813889 57.1422222,17.5355556 57.695,17.6855556 L58.0311111,17.8411111 C58.1533333,18.2938889 58.1533333,18.7716667 58.0311111,19.2258333 C57.9311111,19.5230556 57.9311111,19.8438889 58.0311111,20.1411111 C58.7630556,20.8855556 59.6922222,21.405 60.7102778,21.6383333 L60.9672222,21.6383333 C61.1644444,21.6452778 61.3588889,21.5730556 61.5033333,21.4355556 C61.7588889,21.1133333 61.9283333,20.7272222 61.9936111,20.3188889 C62.4269444,20.4688889 62.9033333,20.4022222 63.2783333,20.1411111 C63.4505556,19.9327778 63.5477778,19.6730556 63.5575,19.4036111 C65.6908333,23.8508333 63.8158333,29.1869444 59.3686111,31.3202778 C58.1491667,31.905 56.8144444,32.205 55.4630556,32.1995202 M66.1255556,19.9175 C66.0144444,19.5675 65.8866667,19.2258333 65.745,18.8911111 C65.4644444,18.2258333 65.1213889,17.5897222 64.7186111,16.9925 C64.5033333,16.7105556 64.2894444,16.4341667 64.0825,16.1661111 C61.9602778,13.5925 58.7977778,12.1008333 55.4630556,12.1022036 C54.7130556,12.1008333 53.9658333,12.1772222 53.2311111,12.3258333 C52.1575,12.5452778 51.1227778,12.9202778 50.1602778,13.4425 C47.9241667,14.6494444 46.1686111,16.5841667 45.1811111,18.9230556 C45.0394444,19.2591667 44.9116667,19.5911111 44.8005556,19.9175 C44.4644444,21.0022222 44.295,22.1313889 44.2990917,23.2661111 C44.295,24.4036111 44.4644444,25.5313889 44.8005556,26.6161111 C44.9116667,26.9661111 45.0394444,27.3091667 45.1811111,27.6438889 C45.6019444,28.6397222 46.1672222,29.5675 46.8561111,30.4008333 C47.0866667,30.6758333 47.3283333,30.9411111 47.5811111,31.1938889 C48.3394444,31.9536111 49.2047222,32.6008333 50.1491667,33.1147222 C51.1158333,33.6286111 52.1547222,33.9980556 53.2311111,34.2077778 C53.9658333,34.3577778 54.7130556,34.4313889 55.4630556,34.4313889 C59.9491667,34.43 63.9991667,31.7438889 65.745,27.6091667 C65.8866667,27.2758333 66.0144444,26.9327778 66.1255556,26.5827778 C66.4588889,25.5105556 66.6283333,24.3911111 66.6270195,23.2661111 C66.6311111,22.1313889 66.4616667,21.0022222 66.1255556,19.9175" id="Fill-19" fill-opacity="0.3" fill="#000000"></path>
                </g>
                <path d="M184.41,237.278889 C184.5975,237.413611 184.671111,237.596944 184.637778,237.819167 L182.471111,250.815 C182.443333,250.9775 182.353056,251.105278 182.200278,251.196944 C182.121111,251.241389 182.029444,251.263611 181.939167,251.263611 C181.876667,251.263611 181.807222,251.249722 181.735,251.220556 L177.903056,249.655278 L175.855833,252.1525 C175.753056,252.284444 175.614167,252.346944 175.440556,252.346944 C175.366944,252.346944 175.304444,252.334444 175.251667,252.312222 C175.146111,252.271944 175.06,252.208056 174.994722,252.113611 C174.930833,252.019167 174.896111,251.917778 174.896111,251.803889 L174.896111,248.8525 L182.205833,239.892778 L173.161389,247.720556 L169.821111,246.349722 C169.612778,246.271944 169.498889,246.116389 169.483611,245.883056 C169.4725,245.658056 169.561389,245.491389 169.754444,245.383056 L183.832222,237.259444 C183.918333,237.209444 184.005833,237.184444 184.103056,237.184444 C184.215556,237.184444 184.319722,237.216389 184.41,237.278889" id="Fill-21" fill="#FFFFFF"></path>
                <g id="编组-11" transform="translate(0.000000, 68.611111)">
                    <path d="M5.60138889,6.76402778 L89.9388889,6.76402778 C93.0319444,6.76402778 95.5402778,9.27236111 95.5402778,12.3654167 L95.5402778,47.6973611 C95.5402778,50.7904167 93.0319444,53.29875 89.9388889,53.29875 L5.60138889,53.29875 C2.50694444,53.29875 1.70530257e-13,50.7904167 1.70530257e-13,47.6973611 L1.70530257e-13,12.3654167 C1.70530257e-13,9.27236111 2.50694444,6.76402778 5.60138889,6.76402778" id="Fill-23" fill="#F2F2F2"></path>
                    <path d="M13.6688889,-3.90798505e-14 L98.0063889,-3.90798505e-14 C101.099444,-3.90798505e-14 103.607778,2.50833333 103.607778,5.60138889 L103.607778,40.9333333 C103.607778,44.0263889 101.099444,46.5347222 98.0063889,46.5347222 L13.6688889,46.5347222 C10.5744444,46.5347222 8.0675,44.0263889 8.0675,40.9333333 L8.0675,5.60138889 C8.0675,2.50833333 10.5744444,-3.90798505e-14 13.6688889,-3.90798505e-14" id="Fill-25" fill="#FAFAFA"></path>
                    <path d="M47.7481944,33.0891667 C47.7481944,32.4516667 48.2009722,31.9336111 48.7606944,31.9336111 L62.91625,31.9336111 C63.2759722,31.9336111 63.6106944,32.1530556 63.79125,32.5113889 C63.9718056,32.8669444 63.9718056,33.3127778 63.79125,33.6669444 C63.6106944,34.0266667 63.2773611,34.2447222 62.91625,34.2447222 L48.7606944,34.2447222 C48.2009722,34.2447222 47.7481944,33.7280556 47.7481944,33.0891667 L47.7481944,33.0891667 Z M51.15375,21.4030556 L49.3593056,20.1336111 L48.3773611,19.4377778 L49.99125,27.3127778 L61.6829167,27.3127778 L63.2981944,19.4377778 L60.5204167,21.4030556 L59.1634722,19.6738889 L55.8370833,15.4391667 L51.15375,21.4030556 Z M55.8370833,12.2891667 C56.1356944,12.2919444 56.41625,12.4322222 56.5981944,12.6683333 L60.9801389,18.2461111 L64.6968056,15.6183333 C65.02875,15.3808333 65.4759722,15.3822222 65.8051389,15.6238889 C66.1426389,15.8752778 66.3023611,16.3016667 66.2148611,16.7141667 L63.7384722,28.7961111 C63.6370833,29.2808333 63.2343056,29.6252778 62.7704167,29.6238931 L48.90375,29.6238931 C48.4398611,29.6252778 48.0370833,29.2808333 47.9356944,28.7961111 L45.4620833,16.7141667 C45.3731944,16.3016667 45.5329167,15.8752778 45.8704167,15.6238889 C46.2009722,15.3822222 46.6468056,15.3808333 46.9773611,15.6183333 L50.6954167,18.2461111 L55.0745833,12.6683333 C55.2579167,12.4308333 55.5384722,12.2905556 55.8370833,12.2891667 L55.8370833,12.2891667 Z" id="Fill-27" fill-opacity="0.3" fill="#000000"></path>
                </g>
            </g>
        </g>
    </g>
</svg>