<?xml version="1.0" encoding="UTF-8"?>
<svg width="130px" height="40px" viewBox="0 0 130 40" version="1.1" xmlns="http://www.w3.org/2000/svg" xmlns:xlink="http://www.w3.org/1999/xlink">
    <!-- Generator: Sketch 60.1 (88133) - https://sketch.com -->
    <title>编组 7</title>
    <desc>Created with Sketch.</desc>
    <g id="页面-1" stroke="none" stroke-width="1" fill="none" fill-rule="evenodd">
        <g id="画板备份" transform="translate(-745.000000, -580.000000)">
            <g id="编组-4" transform="translate(745.000000, 580.000000)">
                <g id="编组-7">
                    <rect id="矩形" fill="#FFFFFF" x="0" y="0" width="130" height="40" rx="2"></rect>
                    <g id="编组" transform="translate(22.500000, 11.500000)" fill="#000000" fill-rule="nonzero">
                        <g id="zu" transform="translate(0.000000, 0.500000)">
                            <polygon id="路径" points="7.32876191 1.28914286 15.9977143 0 15.9977143 7.73409523 7.32876191 7.73409523"></polygon>
                            <polygon id="路径" points="0 2.46019047 6.56228572 1.52304762 6.56228572 7.85066667 0 7.85066667"></polygon>
                            <polygon id="路径" points="7.32876191 14.7108571 15.9977143 16 15.9977143 8.50285714 7.32876191 8.50285714"></polygon>
                            <polygon id="路径" points="0 13.5390476 6.56228572 14.4761905 6.56228572 8.50285714 0 8.50285714"></polygon>
                        </g>
                        <path d="M30.214,13.5 L32.496,5.17 L32.538,5.17 L34.806,13.5 L36.08,13.5 L38.95,3.504 L37.662,3.504 L35.464,11.89 L35.408,11.89 L33.14,3.504 L31.894,3.504 L29.612,11.89 L29.556,11.89 L27.358,3.504 L26.07,3.504 L28.94,13.5 L30.214,13.5 Z M40.812,5.198 C41.05,5.198 41.246,5.114 41.414,4.96 C41.582,4.792 41.666,4.596 41.666,4.358 C41.666,4.106 41.582,3.91 41.414,3.77 C41.246,3.602 41.05,3.532 40.812,3.532 C40.574,3.532 40.378,3.602 40.21,3.77 C40.042,3.91 39.972,4.106 39.972,4.358 C39.972,4.596 40.042,4.792 40.21,4.96 C40.378,5.114 40.574,5.198 40.812,5.198 Z M41.372,13.5 L41.372,6.262 L40.252,6.262 L40.252,13.5 L41.372,13.5 Z M44.592,13.5 L44.592,9.132 C44.634,8.474 44.844,7.956 45.236,7.564 C45.6,7.2 46.034,7.018 46.538,7.018 C47.798,7.018 48.442,7.718 48.442,9.132 L48.442,13.5 L49.562,13.5 L49.562,9.048 C49.562,7.06 48.652,6.066 46.86,6.066 C46.384,6.066 45.95,6.178 45.558,6.402 C45.166,6.612 44.844,6.92 44.592,7.326 L44.592,6.262 L43.472,6.262 L43.472,13.5 L44.592,13.5 Z M54.308,13.696 C55.4,13.696 56.212,13.234 56.716,12.31 L56.716,13.5 L57.766,13.5 L57.766,3.308 L56.646,3.308 L56.646,7.592 C56.086,6.57 55.288,6.066 54.252,6.066 C53.216,6.066 52.418,6.444 51.83,7.228 C51.284,7.928 51.018,8.796 51.018,9.86 C51.018,10.952 51.284,11.848 51.83,12.548 C52.418,13.304 53.244,13.696 54.308,13.696 Z M54.448,12.772 C53.664,12.772 53.076,12.478 52.684,11.918 C52.334,11.414 52.166,10.728 52.166,9.86 C52.166,8.992 52.334,8.32 52.698,7.83 C53.09,7.27 53.692,6.99 54.49,6.99 C55.134,6.99 55.666,7.242 56.072,7.774 C56.464,8.292 56.674,8.978 56.674,9.818 L56.674,9.958 C56.674,10.77 56.492,11.428 56.142,11.932 C55.736,12.492 55.176,12.772 54.448,12.772 Z M62.736,13.696 C63.814,13.696 64.682,13.318 65.34,12.562 C65.942,11.862 66.25,10.966 66.25,9.888 C66.25,8.796 65.942,7.9 65.326,7.186 C64.682,6.43 63.814,6.066 62.736,6.066 C61.644,6.066 60.79,6.43 60.146,7.186 C59.53,7.9 59.222,8.796 59.222,9.888 C59.222,10.966 59.53,11.862 60.146,12.562 C60.79,13.318 61.644,13.696 62.736,13.696 Z M62.736,12.758 C61.966,12.758 61.364,12.464 60.944,11.876 C60.552,11.344 60.37,10.686 60.37,9.888 C60.37,9.076 60.552,8.418 60.944,7.886 C61.364,7.298 61.966,7.004 62.736,7.004 C63.492,7.004 64.094,7.298 64.542,7.886 C64.92,8.418 65.116,9.076 65.116,9.888 C65.116,10.672 64.92,11.344 64.542,11.876 C64.094,12.464 63.492,12.758 62.736,12.758 Z M70.422,13.5 L72.13,7.676 L73.81,13.5 L74.874,13.5 L77.338,6.262 L76.106,6.262 L74.328,12.128 L72.648,6.262 L71.598,6.262 L69.918,12.128 L68.14,6.262 L66.908,6.262 L69.372,13.5 L70.422,13.5 Z M80.964,13.696 C83.008,13.696 84.03,12.94 84.03,11.456 C84.03,10.826 83.736,10.336 83.162,9.972 C82.784,9.734 82.168,9.51 81.3,9.3 C80.572,9.104 80.068,8.95 79.802,8.824 C79.382,8.614 79.186,8.348 79.186,8.04 C79.186,7.718 79.34,7.466 79.648,7.284 C79.928,7.088 80.32,7.004 80.824,7.004 C81.398,7.004 81.846,7.116 82.154,7.34 C82.434,7.536 82.616,7.872 82.714,8.32 L83.806,8.32 C83.61,6.808 82.63,6.066 80.838,6.066 C80.026,6.066 79.354,6.248 78.85,6.612 C78.304,6.976 78.038,7.452 78.038,8.068 C78.038,8.684 78.304,9.146 78.864,9.482 C79.2,9.706 79.802,9.916 80.656,10.126 C81.44,10.322 81.958,10.476 82.196,10.588 C82.644,10.812 82.882,11.12 82.882,11.526 C82.882,12.338 82.224,12.758 80.936,12.758 C80.32,12.758 79.858,12.646 79.55,12.422 C79.242,12.17 79.032,11.764 78.948,11.19 L77.856,11.19 C78.024,12.856 79.06,13.696 80.964,13.696 Z" id="Windows"></path>
                    </g>
                </g>
            </g>
        </g>
    </g>
</svg>