<?xml version="1.0" encoding="UTF-8"?>
<svg width="16px" height="16px" viewBox="0 0 16 16" version="1.1" xmlns="http://www.w3.org/2000/svg" xmlns:xlink="http://www.w3.org/1999/xlink">
    <!-- Generator: Sketch 57.1 (83088) - https://sketch.com -->
    <title>成功备份 7</title>
    <desc>Created with Sketch.</desc>
    <g id="页面-1" stroke="none" stroke-width="1" fill="none" fill-rule="evenodd">
        <g id="ONT-ID-Black" transform="translate(-1037.000000, -2043.000000)" fill-rule="nonzero">
            <g id="成功备份-7" transform="translate(1037.000000, 2043.000000)">
                <circle id="椭圆形" fill="#F2F2F2" cx="8" cy="8" r="8"></circle>
                <g id="编组" opacity="0.3" transform="translate(4.700000, 5.500000)" fill="#000000" stroke="#000000" stroke-width="0.5">
                    <g id="Fill-1-Clipped">
                        <path d="M6.56519231,0.979309955 L2.65730769,4.91503394 C2.55908371,5.01326923 2.40062217,5.01326923 2.30238688,4.91503394 L2.22359729,4.83531674 L2.13835973,4.74915158 L1.76952489,4.37846154 C1.76766968,4.37567873 1.76674208,4.37288462 1.76395928,4.37010181 L0.0736651584,2.65573529 C-0.0245701357,2.5565724 -0.0245701357,2.39625566 0.0736651584,2.29802036 L0.606527149,1.76144796 C0.704762443,1.66321267 0.864151584,1.66321267 0.961447964,1.76144796 L2.49049774,3.33220588 L5.6764819,0.0850678733 C5.77470588,-0.0140837104 5.93409502,-0.0140837104 6.03140271,0.0850678733 L6.56426471,0.621606335 C6.6634276,0.720769231 6.6634276,0.881131222 6.56519231,0.979309955 Z" id="Fill-1"></path>
                    </g>
                </g>
            </g>
        </g>
    </g>
</svg>