<?xml version="1.0" encoding="UTF-8"?>
<svg width="163px" height="59px" viewBox="0 0 163 59" version="1.1" xmlns="http://www.w3.org/2000/svg" xmlns:xlink="http://www.w3.org/1999/xlink">
    <!-- Generator: Sketch 57.1 (83088) - https://sketch.com -->
    <title>编组 13备份</title>
    <desc>Created with Sketch.</desc>
    <g id="页面-1" stroke="none" stroke-width="1" fill="none" fill-rule="evenodd">
        <g id="Verifier" transform="translate(-1536.000000, -2028.000000)">
            <g id="编组-13备份" transform="translate(1536.000000, 2028.000000)">
                <rect id="矩形备份-6" fill="#000000" x="0" y="0" width="163" height="59"></rect>
                <g id="编组" transform="translate(41.000000, 18.000000)" fill="#FFFFFF">
                    <path d="M14.6647796,10.7997248 C14.5545631,10.5108076 14.5108433,10.2617885 14.3789197,10.0748331 C13.8373146,9.3033172 13.3323975,8.49129172 12.692958,7.80782675 C12.0104102,7.07804331 11.136321,6.72232357 10.0968306,7.25460382 C10.0422573,6.69312611 10.3290344,6.23926624 10.8607032,6.13990318 C11.6232,5.99727898 11.4984611,5.66861656 11.8972892,5.46438726 C12.070028,5.37572484 12.2945885,5.34041274 12.4910217,5.35248917 C14.9685248,5.50520255 17.147786,6.42209427 19.0821554,7.95442548 C19.2639134,8.09857834 19.4400153,8.24961019 19.6213146,8.39452739 C19.6528051,8.41944459 19.6968306,8.42876943 19.7355057,8.44497325 C20.5470726,7.26408153 20.5505885,5.00211975 19.9087032,3.03289682 C17.7954803,1.14729172 15.009493,3.05732484e-05 11.9544611,3.05732484e-05 C6.31369682,3.05732484e-05 1.58860127,3.90790318 0.330817834,9.16329172 C5.08847389,10.2734064 9.77825732,10.9347057 14.6647796,10.7997248" id="Fill-1"></path>
                    <path d="M22.7797605,6.88147261 C22.9771108,7.7613707 22.9381299,8.66083567 22.7927541,9.55311592 C22.2600153,12.8235363 20.5454675,15.4343389 18.0667414,17.5460331 C15.3498497,19.8602752 12.2896204,21.4668994 8.65033376,21.7475618 C7.22256306,21.8574726 5.82077962,21.7279949 4.46776051,21.2713834 C6.51693248,22.9200459 9.11978599,23.9089376 11.9543847,23.9089376 C18.5566777,23.9089376 23.9089834,18.556479 23.9089834,11.9543389 C23.9089834,10.1402752 23.5028178,8.42190573 22.7797605,6.88147261" id="Fill-3"></path>
                    <path d="M0.74649172,14.6258599 C1.00300127,13.5830064 1.46847898,12.5910573 1.91117962,11.6431338 C1.98180382,12.694242 1.91331975,13.7779108 2.15056815,14.7895796 C2.74139618,17.3104968 4.55179108,18.6488408 6.97747261,19.1294522 C10.3400713,19.7954904 13.4006064,18.8004841 16.2818293,17.1385223 C18.5902624,15.8073631 20.5471032,14.1180382 21.6199185,11.5867261 C22.1599949,10.3124331 22.4762752,8.99136306 22.4857529,7.60318471 C22.4886573,7.16766879 22.4875896,6.732 22.4866701,6.29633121 C22.3834854,6.10448408 22.2752561,5.91569427 22.1619822,5.73011465 C22.3195873,6.48343949 22.3594854,7.27559236 22.2954344,8.0986242 C22.1868994,9.48756688 21.8051924,10.814293 21.0819822,12.1237452 C19.3871541,9.78840764 17.2470268,8.17673885 14.389651,7.30677707 C14.9477656,7.79212739 15.437549,8.13256051 15.821549,8.56670064 C17.3693197,10.3170191 17.9488357,12.4556178 18.1579567,14.7172739 C18.1779822,14.9338854 17.9911796,15.2321274 17.8114089,15.3946242 C16.2249631,16.8304968 14.3016,17.589172 12.2704662,18.153707 C11.4697529,18.3761274 10.9023134,18.2532229 10.2371924,17.6974013 C6.93742166,14.9407643 3.58078471,12.2526115 0.244173248,9.53984713 C0.0839694268,10.3197707 4.58598726e-05,11.1272102 4.58598726e-05,11.9542166 C4.58598726e-05,13.2353885 0.203663694,14.4684076 0.576810191,15.6256051 C0.607689172,15.2993885 0.662873885,14.9659873 0.74649172,14.6258599" id="Fill-5"></path>
                    <path d="M34.9621758,10.3748637 L36.9125962,10.3748637 L35.5432204,13.2658701 C35.4048764,13.6072204 35.1787873,13.7778191 34.8654115,13.7778191 L33.0810038,13.7778191 L33.0810038,12.2146089 L33.9385834,12.2146089 C34.0582777,12.2146089 34.1551949,12.1316025 34.2290293,11.9655898 L34.9621758,10.3748637 Z M32.9703287,6.04538599 L34.8654115,6.04538599 L35.4048764,7.77445605 C35.4692331,7.99580637 35.5753223,8.10632866 35.7229911,8.10632866 L36.6913987,8.10632866 L36.6913987,9.72487643 L35.0175134,9.72487643 C34.4089529,9.72487643 34.007679,9.42969172 33.8141503,8.83947516 L32.9703287,6.04538599 Z M32.8596535,3.77669809 L38.8630166,3.77669809 L38.8630166,14.8014115 C38.8630166,15.7419975 38.286558,16.2125197 37.1339465,16.2125197 L33.3991185,16.2125197 L33.3991185,14.593972 L36.4838064,14.593972 C36.7695134,14.593972 36.9125962,14.4649529 36.9125962,14.2066089 L36.9125962,5.45058344 L32.8596535,5.45058344 L32.8596535,3.77669809 Z M26.5933605,6.04538599 L28.4884433,6.04538599 L29.0280611,7.85746242 C29.0924178,8.09730955 29.198507,8.21700382 29.3461758,8.21700382 L30.2730038,8.21700382 L30.2730038,9.78006115 L28.6406981,9.78006115 C28.0321376,9.78006115 27.6308637,9.47585732 27.4371822,8.86714395 L26.5933605,6.04538599 Z M28.5853605,10.4302013 L30.4804433,10.4302013 L29.0418191,13.3212076 C28.9034752,13.6627108 28.663628,13.8331567 28.3224306,13.8331567 L26.5381758,13.8331567 L26.5381758,12.3115261 L27.4095134,12.3115261 C27.5478573,12.3115261 27.6537936,12.2285197 27.7277809,12.062507 L28.5853605,10.4302013 Z M26.5381758,3.77669809 L32.4862013,3.77669809 L32.4862013,14.7462268 C32.4862013,15.6866599 31.9097427,16.1568764 30.7571312,16.1568764 L27.2989911,16.1568764 L27.2989911,14.5386344 L30.1069911,14.5386344 C30.3926981,14.5386344 30.5357809,14.4096153 30.5357809,14.1512713 L30.5357809,5.39524586 L26.5381758,5.39524586 L26.5381758,3.77669809 Z" id="Fill-7"></path>
                    <path d="M40.5367949,5.24302166 L42.6394701,5.24302166 L42.6394701,14.2066395 L45.336642,14.2066395 L45.336642,3.72139108 L47.453228,3.72139108 L47.453228,14.2066395 L49.7217631,14.2066395 C49.9707822,14.2066395 50.0952153,14.1007032 50.0952153,13.888372 L50.0952153,5.24302166 L52.1977376,5.24302166 L52.1977376,14.7462573 C52.1977376,15.5760153 51.7134573,15.9908943 50.7452025,15.9908943 L40.5367949,15.9908943 L40.5367949,5.24302166 Z" id="Fill-9"></path>
                    <path d="M64.6333758,7.08278217 L66.5283057,7.08278217 L64.7023185,11.9934573 L65.7951592,14.2482344 C65.9425223,14.580107 66.1134268,14.7461197 66.3071083,14.7461197 L66.5283057,14.7461197 L66.5283057,16.2675975 L65.2281783,16.2675975 C64.9513376,16.2675975 64.7208153,16.060158 64.5363057,15.6451261 L63.8863185,14.1927439 L63.6096306,14.9396484 C63.314293,15.8617376 62.8258854,16.322935 62.1433376,16.322935 L60.9538854,16.322935 L60.9538854,14.8014573 L61.2302675,14.8014573 C61.6452994,14.8014573 61.9635669,14.4604127 62.1847643,13.7777121 L62.8625732,11.9240561 L61.2302675,8.31381401 L62.904,8.31381401 L63.6372994,9.8077758 L64.6333758,7.08278217 Z M61.7145478,3.62448917 L63.4436178,3.62448917 L63.1945987,4.81424713 L66.5836433,4.81424713 L66.5836433,6.43264204 L62.8625732,6.43264204 L62.7795669,6.8200051 C62.6043822,7.56690955 62.1755924,7.94036178 61.4933503,7.94036178 L60.8016306,7.94036178 L60.8016306,6.43264204 L60.8985478,6.43264204 C61.0368917,6.43264204 61.1521529,6.27595414 61.2443312,5.96227261 L61.7145478,3.62448917 Z M58.4222675,7.56690955 L59.8196178,7.56690955 L60.1652484,8.64583949 C60.2020892,8.78418344 60.2669045,8.85343185 60.3590828,8.85343185 L60.6356178,8.85343185 L60.6356178,10.0428841 L59.8748025,10.0428841 C59.4412739,10.0428841 59.1555669,9.84018344 59.0173758,9.43432357 L58.4222675,7.56690955 Z M57.5232611,13.7777121 L58.6023439,13.0999032 C58.6575287,13.0445656 58.6853503,12.9111134 58.6853503,12.698935 L58.6853503,12.3669096 L56.2093758,12.3669096 L56.2093758,12.7541197 C56.2093758,12.9111134 56.2508025,13.0168968 56.3338089,13.0723873 L57.5232611,13.7777121 Z M55.2270573,7.56690955 L56.6380127,7.56690955 L56.1263694,9.40665478 C55.9970446,9.83101146 55.6787771,10.0428841 55.1717197,10.0428841 L54.3139873,10.0428841 L54.3139873,8.85343185 L54.7430828,8.85343185 C54.8260892,8.85343185 54.8950318,8.77959745 54.9505223,8.63208153 L55.2270573,7.56690955 Z M54.4248153,4.16410701 L55.8773503,4.16410701 L56.2923822,5.78250191 L56.6380127,5.78250191 L56.6380127,3.62448917 L58.2562548,3.62448917 L58.2562548,5.78250191 L58.6712866,5.78250191 L59.2248153,4.16410701 L60.6911083,4.16410701 L60.1238217,5.78250191 L60.5250955,5.78250191 L60.5250955,7.1795465 L58.2562548,7.1795465 L58.2562548,10.2088968 L56.6380127,10.2088968 L56.6380127,7.1795465 L54.3139873,7.1795465 L54.3139873,5.78250191 L54.8398471,5.78250191 L54.4248153,4.16410701 Z M60.6911083,10.9143745 L60.6911083,12.3669096 L60.2620127,12.3669096 L60.2620127,13.4595975 C60.2620127,13.6809478 60.2020892,13.8469605 60.0823949,13.9576357 L58.9895541,14.6354446 L59.2523312,14.7876994 C59.4738344,14.9075465 59.6624713,14.9674701 59.8196178,14.9674701 L60.6356178,14.9674701 L60.6356178,16.322935 L59.1141401,16.322935 C58.9294777,16.322935 58.7313631,16.2539924 58.5193376,16.1153427 L57.5648408,15.5346038 L56.582828,16.1569223 C56.4071847,16.2675975 56.2093758,16.322935 55.9877197,16.322935 L54.3139873,16.322935 L54.3139873,15.0226548 L55.3930701,15.0226548 C55.4945732,15.0226548 55.6142675,14.9722089 55.7527643,14.8705529 L56.0985478,14.6631134 L54.7982675,13.8746293 C54.6874395,13.8101197 54.6322548,13.6719287 54.6322548,13.4595975 L54.6322548,12.3669096 L54.203465,12.3669096 L54.203465,10.9143745 L54.6322548,10.9143745 L54.6322548,10.3749096 L56.2093758,10.3749096 L56.2093758,10.9143745 L58.6853503,10.9143745 L58.6853503,10.3749096 L60.2620127,10.3749096 L60.2620127,10.9143745 L60.6911083,10.9143745 Z" id="Fill-11"></path>
                    <path d="M76.7369885,14.6906446 L77.9264408,14.6906446 C78.1754599,14.6906446 78.3000459,14.5848611 78.3000459,14.3726828 L78.3000459,13.4596127 L76.4049631,13.4596127 L76.4049631,14.6906446 L76.7369885,14.6906446 Z M74.3025936,9.40667006 L76.1975236,9.40667006 L76.1975236,8.42450446 L74.3025936,8.42450446 L74.3025936,9.40667006 Z M74.3024408,6.86144713 L77.760428,6.86144713 C78.0094471,6.86144713 78.1340331,6.75551083 78.1340331,6.54333248 L78.1340331,5.39515414 L74.3024408,5.39515414 L74.3024408,6.86144713 Z M74.6760459,3.83209682 L79.9737783,3.83209682 L79.9737783,7.02745987 C79.9737783,7.95902675 79.4343134,8.42450446 78.3555363,8.42450446 L78.0924535,8.42450446 L78.0924535,9.40667006 L80.3058038,9.40667006 L80.3058038,10.9697274 L78.0924535,10.9697274 L78.0924535,11.9379822 L80.0844535,11.9379822 L80.0844535,14.8566573 C80.0844535,15.7604025 79.5634854,16.212428 78.521549,16.212428 L74.6760459,16.212428 L74.6760459,11.9379822 L76.1975236,11.9379822 L76.1975236,10.9697274 L74.3024408,10.9697274 L74.3024408,14.3726828 C74.3024408,15.5988229 73.6889885,16.212428 72.4626955,16.212428 L71.9232306,16.212428 L71.9232306,14.6354599 L72.0892433,14.6354599 C72.3382624,14.6354599 72.4626955,14.4925299 72.4626955,14.2066701 L72.4626955,3.83209682 L74.6760459,3.83209682 Z M72.1999185,4.75892484 L72.1999185,6.4879949 L71.2732433,6.4879949 L71.2732433,7.4009121 L72.0339057,7.4009121 L72.0339057,9.18531975 L71.2732433,9.18531975 L71.2732433,15.2856 C71.2732433,15.9033325 70.9133962,16.212428 70.1941605,16.212428 L68.520428,16.212428 L68.520428,14.6354599 L69.1704153,14.6354599 C69.3549248,14.6354599 69.4471032,14.5478675 69.4471032,14.3726828 L69.4471032,12.7957146 L69.3919185,12.9479694 C69.2259057,13.3903643 69.0273325,13.6117146 68.7969631,13.6117146 L67.8149503,13.6117146 L67.8149503,11.8826446 C68.0728357,11.8826446 68.2622369,11.6984408 68.3819312,11.3294217 L69.4471032,8.32774013 L69.4471032,6.4879949 L68.0361478,6.4879949 L68.0361478,4.75892484 L69.4471032,4.75892484 L69.4471032,3.72142166 L71.2732433,3.72142166 L71.2732433,4.75892484 L72.1999185,4.75892484 Z" id="Fill-13"></path>
                    <path d="M30.0833732,20.5567338 C30.0833732,20.7394089 30.0167236,20.8938038 29.8834242,21.019307 C29.7463032,21.1414471 29.563628,21.2024408 29.3349401,21.2024408 L27.2097936,21.2024408 C26.9812586,21.2024408 26.7946089,21.1356382 26.6499975,21.0023389 C26.5052331,20.8690395 26.4329274,20.7109758 26.4329274,20.5281478 L26.4329274,17.7001223 L27.4097427,17.7001223 L27.4097427,20.3853707 L29.1178701,20.3853707 L29.1178701,17.7001223 L30.0833732,17.7001223 L30.0833732,20.5567338 Z" id="Fill-15"></path>
                    <path d="M35.4250395,20.688107 C35.4250395,20.8405146 35.3622115,20.9643363 35.2364025,21.0594191 C35.1107465,21.1546548 34.9315873,21.202349 34.6993834,21.202349 L31.8600459,21.202349 L31.8600459,20.3854318 L34.5110522,20.3854318 L34.5110522,19.819521 L32.7228229,19.819521 C32.1628739,19.819521 31.8829758,19.6122344 31.8829758,19.1968968 L31.8829758,18.3286166 C31.8829758,17.9097631 32.231358,17.7001834 32.928428,17.7001834 L35.1278675,17.7001834 L35.1278675,18.5171006 L32.819893,18.5171006 L32.819893,19.0940178 L34.6308994,19.0940178 C35.1602752,19.0940178 35.4250395,19.2977885 35.4250395,19.7053299 L35.4250395,20.688107 Z" id="Fill-17"></path>
                    <polygon id="Fill-19" points="40.2981707 18.5228943 38.1328204 18.5228943 38.1328204 19.0770344 40.2867057 19.0770344 40.2867057 19.7797605 38.1328204 19.7797605 38.1328204 20.3681427 40.2808968 20.3681427 40.2808968 21.1908688 37.1445401 21.1908688 37.1445401 17.7001682 40.2981707 17.7001682"></polygon>
                    <path d="M45.8052994,21.2079134 L44.8170191,21.2079134 L43.4802038,19.219735 C43.4496306,19.1550726 43.3773248,19.008321 43.2629809,18.7799389 L42.9145987,18.9341809 C42.9869045,19.3834548 43.0231338,19.6294166 43.0231338,19.671149 L43.0231338,21.2079134 L42.1319236,21.2079134 L42.1319236,17.7002446 L43.5144459,17.7002446 L44.5256561,19.2599389 C44.5409427,19.2825631 44.5846624,19.3703083 44.6569682,19.5227159 L45.0397452,19.436958 C45.031949,19.4103592 45.0015287,19.3151236 44.9484841,19.1514038 C44.9102675,19.0485248 44.8913121,18.9474803 44.8913121,18.8485758 L44.8913121,17.7002446 L45.8052994,17.7002446 L45.8052994,21.2079134 Z" id="Fill-21"></path>
                    <path d="M51.1469656,20.688107 C51.1469656,20.8405146 51.0841376,20.9643363 50.9584815,21.0594191 C50.8326726,21.1546548 50.6535134,21.202349 50.4214624,21.202349 L47.5822777,21.202349 L47.5822777,20.3854318 L50.2329783,20.3854318 L50.2329783,19.819521 L48.444749,19.819521 C47.8849529,19.819521 47.6049019,19.6122344 47.6049019,19.1968968 L47.6049019,18.3286166 C47.6049019,17.9097631 47.9532841,17.7001834 48.650507,17.7001834 L50.8499465,17.7001834 L50.8499465,18.5171006 L48.541972,18.5171006 L48.541972,19.0940178 L50.3528255,19.0940178 C50.8823541,19.0940178 51.1469656,19.2977885 51.1469656,19.7053299 L51.1469656,20.688107 Z" id="Fill-23"></path>
                    <polygon id="Fill-25" points="56.0201732 18.5228943 53.8548229 18.5228943 53.8548229 19.0770344 56.0087083 19.0770344 56.0087083 19.7797605 53.8548229 19.7797605 53.8548229 20.3681427 56.0030522 20.3681427 56.0030522 21.1908688 52.8663898 21.1908688 52.8663898 17.7001682 56.0201732 17.7001682"></polygon>
                    <path d="M61.8700127,20.3909809 L63.6580892,20.3909809 L63.6580892,18.5286115 L61.8700127,18.5286115 L61.8700127,20.3909809 Z M64.6523312,20.225121 C64.6523312,20.533758 64.5798726,20.773758 64.4351083,20.9449682 C64.2904968,21.1164841 64.0829045,21.2023949 63.8124841,21.2023949 L60.9045096,21.2023949 L60.9045096,17.7002293 L63.7498089,17.7002293 C64.0086115,17.7002293 64.2236943,17.7821656 64.3952102,17.9457325 C64.5667261,18.1096051 64.6523312,18.3286624 64.6523312,18.6027516 L64.6523312,20.225121 Z" id="Fill-27"></path>
                    <path d="M67.3086879,19.1630064 L69.0113121,19.1630064 L69.0113121,18.5229554 L67.3086879,18.5229554 L67.3086879,19.1630064 Z M69.9651975,21.2023949 L69.0113121,21.2023949 L69.0113121,19.7166879 L67.3086879,19.7166879 L67.3086879,21.2023949 L66.3433376,21.2023949 L66.3433376,18.3000764 C66.3433376,18.1212229 66.419465,17.9763057 66.5718726,17.8659363 C66.7241274,17.755414 66.9202548,17.7002293 67.1601019,17.7002293 L69.2227261,17.7002293 C69.4547771,17.7002293 69.6357707,17.755414 69.7652484,17.8659363 C69.8985478,17.9724841 69.9651975,18.1172484 69.9651975,18.3000764 L69.9651975,21.2023949 Z" id="Fill-29"></path>
                    <polygon id="Fill-30" points="74.9927541 18.5170701 73.787251 18.5170701 73.787251 21.1965096 72.7474548 21.1965096 72.7474548 18.5170701 71.4850854 18.5170701 71.4850854 17.6944968 74.9927541 17.6944968"></polygon>
                    <path d="M77.4776561,19.1630064 L79.1801274,19.1630064 L79.1801274,18.5229554 L77.4776561,18.5229554 L77.4776561,19.1630064 Z M80.1341656,21.2023949 L79.1801274,21.2023949 L79.1801274,19.7166879 L77.4776561,19.7166879 L77.4776561,21.2023949 L76.5121529,21.2023949 L76.5121529,18.3000764 C76.5121529,18.1212229 76.5882803,17.9763057 76.7408408,17.8659363 C76.8930955,17.755414 77.0892229,17.7002293 77.3292229,17.7002293 L79.3915414,17.7002293 C79.6238981,17.7002293 79.8047389,17.755414 79.9343694,17.8659363 C80.0676688,17.9724841 80.1341656,18.1172484 80.1341656,18.3000764 L80.1341656,21.2023949 Z" id="Fill-31"></path>
                </g>
            </g>
        </g>
    </g>
</svg>