<?xml version="1.0" encoding="UTF-8"?>
<svg width="1668px" height="500px" viewBox="0 0 1668 500" version="1.1" xmlns="http://www.w3.org/2000/svg" xmlns:xlink="http://www.w3.org/1999/xlink">
    <!-- Generator: Sketch 57.1 (83088) - https://sketch.com -->
    <title>编组</title>
    <desc>Created with Sketch.</desc>
    <defs>
        <polygon id="path-1" points="0.279898231 0.228056426 311.70052 0.228056426 311.70052 249.37453 0.279898231 249.37453"></polygon>
    </defs>
    <g id="页面-1" stroke="none" stroke-width="1" fill="none" fill-rule="evenodd" opacity="0.04">
        <g id="Verifier" transform="translate(-90.000000, -2257.000000)">
            <g id="编组-11" transform="translate(0.000000, 2209.000000)">
                <g id="编组">
                    <g transform="translate(39.000000, 48.000000)">
                        <path d="M51,144.486389 C51.1210811,145.227509 51,147.449209 51,147.449209 C51,147.449209 52.1032717,148.339715 53.2105263,147.449209 C54.313798,147.299823 55.2983784,147.502324 55.6640114,147.848401 C56.0352205,148.189499 58.6121764,147.848401 58.6121764,147.848401 L60.9469701,147.996957 L62.9113514,147.156247 L65,146.857475 L63.2817639,144.486389 L61.9307539,143.746929 L60.7000284,143 L57.9988051,143.597543 L54.8060882,143.890506 L52.3502134,143 L51,144.486389 Z" id="Fill-1" fill="#FFFFFF"></path>
                        <path d="M87,204 L89.6936503,205.484958 L92,207.084276 C92,207.084276 91.1339761,208 90.7475066,208 L88.5375665,208 C88.5375665,208 87,205.484958 87,204" id="Fill-3" fill="#FFFFFF"></path>
                        <path d="M52.0070715,252 C52.0070715,252 53,252.587676 53,253.381534 C53,254.165469 52.5037833,254.562398 52.5037833,254.562398 C52.5037833,254.562398 51.9303114,255.547003 52.0070715,254.562398 C52.0838315,253.57228 52.0070715,252 52.0070715,252" id="Fill-5" fill="#FFFFFF"></path>
                        <polygon id="Fill-7" fill="#FFFFFF" points="60 255 61 252 61 254.074046"></polygon>
                        <path d="M64,254.77264 C64,254.77264 65.3892199,253.412211 65.9681867,254.301752 C66.5464025,255.188174 67.3574066,254.698576 67.9356225,254.38751 C68.5145892,254.078003 69.3248424,253.586845 68.8637715,254.803824 C68.399697,256.024701 68.6302324,257 68.1691616,257 L65.8510417,257 C65.8510417,257 65.8510417,255.949858 64.9258963,255.35891 L64,254.77264 Z" id="Fill-9" fill="#FFFFFF"></path>
                        <path d="M71.7009384,254.693828 C71.7009384,254.693828 72.1266906,252.511537 72.9775048,253.472966 C74.0422302,253.789851 73.8303892,252.499867 74.3610268,253.224305 C74.8930444,253.951436 75,255.236034 75,255.236034 L73.3528843,256.072684 L71.0619652,257 L70,255.911099 C70,255.911099 70.0531328,253.311381 71.7009384,254.693828" id="Fill-11" fill="#FFFFFF"></path>
                        <path d="M80,251.315252 C80.3729604,251.315252 81.3742779,250.112781 82.2507348,252.404755 C84.6247086,252.940787 88,251.87403 88,252.404755 L88,254.093977 L85.8749367,255 L83.9971623,253.835438 C83.9971623,253.835438 82.875038,253.329733 82.3739739,253.539748 C81.8729097,253.754313 80.7507854,253.835438 80.7507854,253.835438 L80,251.315252 Z" id="Fill-13" fill="#FFFFFF"></path>
                        <path d="M90,252.127307 L90,253 L92.4869551,252.127307 C92.4869551,252.127307 93.6413061,250.195789 92.4869551,250.060929 C91.3272351,249.923839 90,250.060929 90,250.060929 L90,252.127307 Z" id="Fill-15" fill="#FFFFFF"></path>
                        <path d="M481.499207,499.591746 C481.499207,499.591746 480.375992,497.137564 481.499207,497.137564 C482.622422,497.137564 482.870771,496.828045 483.495406,497.137564 C484.11722,497.446084 485.114379,496.85101 484.989264,498.297759 C484.866971,499.746505 484.242335,498.674174 483.991164,499.591746 C483.742815,500.510317 482.999649,499.591746 482.999649,499.591746 C482.999649,499.591746 481.499207,498.827934 481.499207,499.591746" id="Fill-65" fill="#FFFFFF"></path>
                        <path d="M82.9818812,400.953681 C83.4313387,400.17191 84,398.347454 84,398.347454 C84,398.347454 81.0599623,397.565683 81.5123509,398.347454 C81.9637625,399.128251 80.7189609,401.347 81.0599623,400.953681 C81.3990095,400.567177 82.9818812,400.953681 82.9818812,400.953681" id="Fill-389" fill="#FFFFFF"></path>
                        <path d="M68.3477494,389 C68.3477494,389 66.6014165,388.013363 66.3677664,387.689112 C66.1381448,387.359144 65.6698375,385.826917 66.3677664,385.826917 C67.0697238,385.826917 67.9992885,383.966354 67.8854848,385.826917 C67.7676527,387.689112 70.0940823,388.233886 68.3477494,389" id="Fill-391" fill="#FFFFFF"></path>
                        <path d="M62.2386334,388 C62.2386334,388 61.046223,387.088482 61.046223,386.447441 C61.046223,385.812357 60.7532601,385.31549 61.6424282,385.085526 C62.5324529,384.84722 64.6166012,385.039056 63.8233742,386.539188 C63.0310038,388.045278 61.8394501,386.996735 62.2386334,388" id="Fill-393" fill="#FFFFFF"></path>
                        <path d="M450.349202,36.1304685 L463.213891,50.1954766 L441.884148,53.7439095 L425.310177,36.1304685 L450.349202,36.1304685 Z M440.056511,56.4827787 C440.369597,56.8154443 440.812613,57 441.272066,57 C441.365209,57 441.459135,56.9922456 441.552278,56.9775121 L466.642962,52.8025202 C467.226084,52.7055897 467.709018,52.3163166 467.907045,51.782811 C468.102723,51.2500808 467.985316,50.6560905 467.593959,50.2303716 L452.321641,33.5350565 C452.010121,33.1946365 451.563191,33 451.091215,33 L421.636117,33 C420.989595,33 420.404907,33.3644588 420.141133,33.9289822 C419.878923,34.4942811 419.987721,35.1534087 420.420562,35.6132472 L440.056511,56.4827787 Z" id="Fill-395" fill="#FFFFFF"></path>
                        <path d="M414.060764,66.3063662 L419.770053,107.724143 L389.3192,93.9182173 L414.060764,66.3063662 Z M459.70433,85.615237 L423.09804,107.743094 L417.145971,64.5691758 L459.70433,72.4094317 L459.70433,85.615237 Z M385.947859,95.9104588 L421.10377,111.848391 C421.120323,111.856287 421.139241,111.853128 421.155795,111.859446 C421.356798,111.943936 421.571202,112 421.799794,112 L421.802159,112 L421.804524,111.998421 C421.876254,111.998421 421.947985,111.994473 422.020504,111.984997 C422.049669,111.981838 422.070164,111.964467 422.099329,111.959729 C422.263285,111.930512 422.421723,111.879976 422.572278,111.801802 C422.599079,111.787589 422.629032,111.782062 422.653468,111.766269 C422.66135,111.76311 422.669233,111.761531 422.675539,111.757583 L462.225939,87.8491059 C462.706771,87.5577317 463,87.0476294 463,86.4980455 L463,71.0907463 C463,70.3248033 462.437978,69.6678295 461.660765,69.5241165 L415.519813,61.0245178 C415.353493,60.9937222 415.187172,60.9945118 415.025581,61.0126733 C415.013757,61.013463 415.004298,61.0095148 414.993263,61.0103045 C414.968827,61.0126733 414.949909,61.028466 414.92705,61.0332038 C414.756788,61.0608409 414.597562,61.1145359 414.44543,61.1927094 C414.412323,61.2100813 414.376852,61.2235051 414.34611,61.2424563 C414.205802,61.324578 414.075741,61.423282 413.965386,61.5464646 L385.40239,93.4239076 C385.065019,93.7997725 384.928652,94.3090851 385.035854,94.7970777 C385.143056,95.2866495 385.481215,95.6980478 385.947859,95.9104588 L385.947859,95.9104588 Z" id="Fill-397" fill="#FFFFFF"></path>
                        <path d="M583.786494,839.931639 L578.162076,844.983499 L571.802604,832.884302 L587.934522,835.671535 L583.786494,839.931639 Z M540.474861,902.29127 L499.957375,855.758132 L551.087593,870.649269 L540.474861,902.29127 Z M552.283626,922.495571 L539.983255,942.273782 L542.442072,909.835318 L552.283626,922.495571 Z M569.681471,976.301252 L532.361783,967.728471 L538.579899,951.440578 L569.681471,976.301252 Z M489.568457,792.891588 L532.67905,824.937706 L496.463513,849.859587 L489.568457,792.891588 Z M446.333785,579.975076 L466.206153,559.843752 L477.460487,583.868728 L441.611692,604.571309 L446.333785,579.975076 Z M543.189691,573.466824 L529.81501,587.2743 L507.914961,557.160883 L525.160454,556.544114 L543.189691,573.466824 Z M672.54817,693.164045 L661.242006,616.805473 L692.335725,674.981901 L672.54817,693.164045 Z M621.091261,768.238073 L604.82741,703.429412 L627.594446,736.376358 C627.625073,736.42187 627.672977,736.451689 627.708316,736.491708 C627.735017,736.523881 627.743656,736.562331 627.773497,736.592149 C627.800983,736.619613 627.839464,736.630599 627.869306,736.658063 C627.909357,736.690236 627.934487,736.736533 627.976894,736.766351 L654.841698,756.144369 L621.091261,768.238073 Z M543.19833,769.0518 L618.242142,771.864928 L617.269924,803.750968 L543.19833,769.0518 Z M537.077593,823.663363 L537.077593,773.803907 L565.893117,828.643031 L537.077593,823.663363 Z M550.432642,867.151104 L498.830449,852.122644 L534.661182,827.466775 L550.432642,867.151104 Z M533.79341,769.690541 L533.79341,821.769112 L490.608998,789.664927 L533.79341,769.690541 Z M489.086274,786.858076 L488.103061,738.505233 L532.130901,766.948036 L489.086274,786.858076 Z M506.751911,682.638945 L485.608119,733.159113 L449.222954,711.339127 L506.751911,682.638945 Z M467.168948,654.500603 L441.521381,608.315084 L477.427504,587.577976 L467.168948,654.500603 Z M480.033961,581.669231 L469.200555,558.545084 L503.328727,557.324884 L480.033961,581.669231 Z M482.972605,583.267652 L505.652471,559.564401 L526.205707,587.82594 L482.972605,583.267652 Z M532.777999,640.528342 L531.326739,591.51871 L566.080807,594.519379 L567.265845,594.728108 L532.777999,640.528342 Z M591.399327,639.157481 L572.794455,595.69799 L611.935286,602.564062 L591.399327,639.157481 Z M603.992621,693.579148 L657.244758,612.217368 L669.476022,694.809548 L603.992621,693.579148 Z M539.113912,718.61481 L599.887,697.204434 L617.375156,766.886045 L539.113912,718.61481 Z M537.077593,721.116414 L613.948831,768.536256 L537.077593,765.652506 L537.077593,721.116414 Z M533.79341,720.490228 L533.79341,764.210239 L489.998024,735.916527 L533.79341,720.490228 Z M510.253626,682.730754 L532.960192,717.410305 L489.303806,732.790307 L510.253626,682.730754 Z M472.919802,660.002877 L527.853296,647.613344 L509.304181,677.208862 L472.919802,660.002877 Z M468.915486,661.637395 L506.282293,679.307919 L449.131858,707.817421 L468.915486,661.637395 Z M480.641008,588.266153 L528.330767,644.253284 L470.043982,657.399263 L480.641008,588.266153 Z M529.496958,640.63506 L483.383325,586.497453 L528.032347,591.204832 L529.496958,640.63506 Z M534.597572,643.500763 L569.732516,596.844428 L588.785803,641.353055 L534.597572,643.500763 Z M583.047514,644.749211 L514.120511,675.649675 L532.222782,646.76352 L583.047514,644.749211 Z M593.027283,643.68595 L653.489387,612.021194 L601.91154,690.825657 L593.027283,643.68595 Z M535.51796,715.385794 L512.31586,679.947444 L586.251595,646.80354 L535.51796,715.385794 Z M590.27947,646.810602 L599.188071,694.080568 L539.849751,714.984031 L590.27947,646.810602 Z M629.241249,733.047686 L604.158323,696.752451 L667.357245,697.939693 L629.241249,733.047686 Z M653.155629,608.592866 L595.272496,638.907949 L615.353758,603.126688 L653.155629,608.592866 Z M561.840897,590.972563 L533.127464,588.49293 L545.543277,575.676523 L561.840897,590.972563 Z M439.854945,612.021194 L465.458534,658.129813 L426.203048,661.893205 L439.854945,612.021194 Z M426.434715,665.056306 L465.502512,661.309393 L445.847675,707.192804 L426.434715,665.056306 Z M495.042095,895.615093 L496.628429,856.859842 L536.921316,903.134816 L495.042095,895.615093 Z M494.911733,898.81586 L536.45798,906.272022 L493.630101,930.146337 L494.911733,898.81586 Z M529.511879,966.021761 L498.435436,936.898629 L535.728424,949.746423 L529.511879,966.021761 Z M495.764584,932.615769 L539.261551,908.369509 L536.362172,946.603724 L495.764584,932.615769 Z M553.828339,866.841934 L538.009761,827.04304 L567.75274,832.182786 L575.660066,847.232432 L553.828339,866.841934 Z M590.617155,832.916474 L569.942195,829.344547 L539.104488,770.6565 L616.111586,806.729667 L590.617155,832.916474 Z M657.1623,753.861694 L631.497456,735.349978 L668.675788,701.104363 L657.1623,753.861694 Z M692.715817,668.783603 L661.345667,610.088493 L692.715817,617.425382 L692.715817,668.783603 Z M422.237998,582.544949 L421.389859,570.24644 L433.182918,570.24644 L441.54494,578.315449 L422.237998,582.544949 Z M412.888835,591.644261 L399.470177,579.239818 L403.640979,545.477575 L414.650295,540.922426 L409.329007,555.46359 C409.157809,555.935191 409.225346,556.454659 409.511986,556.870547 L418.025574,569.190242 L419.048052,584.005265 L412.888835,591.644261 Z M399.109717,554.758935 C399.147413,554.703222 399.17804,554.643585 399.208667,554.586302 L396.502475,576.497313 L388.927337,569.492349 L399.109717,554.758935 Z M378.075084,546.639706 L365.79513,507.226097 L378.730036,501.468013 C378.968771,501.359725 379.17688,501.202001 379.338654,501.001904 L384.063103,495.141025 L384.063103,532.762393 C384.063103,532.774948 384.070171,532.785934 384.070171,532.798489 C384.071741,532.866758 384.102368,532.930318 384.111792,532.999371 C384.138493,533.15631 384.170691,533.31011 384.242154,533.45057 C384.252363,533.470187 384.248437,533.495298 384.259431,533.516484 C384.290058,533.56592 384.342675,533.597308 384.377228,533.644389 C384.462042,533.762093 384.552353,533.870381 384.66858,533.96219 C384.737687,534.019473 384.808366,534.062631 384.887682,534.105005 C385.008621,534.175627 385.136627,534.224278 385.275627,534.262728 C385.329029,534.276853 385.369865,534.313733 385.424837,534.322365 L411.703011,538.693111 L401.657276,542.850419 L378.075084,546.639706 Z M345.797111,532.146409 L347.794165,501.33226 L362.459902,507.520357 L374.81132,547.163882 L363.282911,549.01576 L345.797111,532.146409 Z M303.888834,507.055818 L344.535897,500.84575 L342.644076,530.041075 L305.644796,508.230505 L303.888834,507.055818 Z M266.700294,472.791371 C266.634327,472.689361 266.555796,472.595197 266.467055,472.51045 L251.625408,458.191355 L251.625408,412.915296 L325.517165,412.915296 L298.639011,503.55059 L277.465377,489.40962 L266.700294,472.791371 Z M229.736353,376.043311 L229.736353,340.05646 L242.408964,323.752873 L318.011134,356.54445 L250.41681,408.964362 L229.736353,376.043311 Z M278.179227,276.06388 L317.623975,352.90347 L244.429576,321.155536 L245.843927,319.336615 L278.179227,276.06388 Z M251.602634,238.62613 L249.523122,188.466137 L354.406508,213.573206 L278.69832,270.798584 L251.602634,238.62613 Z M213.016234,156.344688 L176.897291,151.064483 C176.529764,151.013478 176.151243,151.080176 175.826908,151.261441 L146.924215,167.452032 L175.391059,116.483019 L224.071884,165.037528 L213.829819,156.69937 C213.597367,156.511044 213.31701,156.388631 213.016234,156.344688 L213.016234,156.344688 Z M128.957018,110.917969 L131.632582,105.432958 L172.552149,114.886951 L142.372535,168.925687 L120.438718,145.842344 L128.957018,110.917969 Z M146.076076,75.8201763 L185.35041,65.1342136 L173.793731,111.915315 L133.060283,102.50448 L146.076076,75.8201763 Z M173.527509,21.1685943 L235.684321,21.1685943 L188.325965,60.1929956 L173.527509,21.1685943 Z M283.534283,58.0837382 L334.259279,69.6956398 L266.218111,69.4767102 L191.556746,61.6964693 L240.120559,21.6786454 L282.832212,57.7345494 C283.034823,57.9032586 283.275129,58.0241014 283.534283,58.0837382 L283.534283,58.0837382 Z M541.988161,119.78815 L578.378037,154.382169 L578.414162,154.447298 L553.053234,186.391406 L533.86723,202.842515 L446.826176,210.887983 L484.108169,165.123845 L501.841343,144.418909 L523.550561,165.236841 C523.93615,165.608786 524.485084,165.769648 525.018313,165.669207 C525.552326,165.568766 525.99917,165.222716 526.215131,164.740914 L536.066109,142.69886 C536.304844,142.163699 536.220816,141.544575 535.846221,141.088668 L526.16173,129.280593 L541.988161,119.78815 Z M512.085763,117.169626 L529.116866,84.3089959 L540.763071,105.846492 C540.931128,106.154092 541.196565,106.40127 541.523255,106.547223 L576.261616,122.258366 L591.515554,137.947538 L580.441057,151.895474 L543.371099,116.656436 C543.344398,116.631326 543.309844,116.623479 543.282358,116.600723 C543.179482,116.515976 543.069538,116.449277 542.950171,116.390425 C542.887345,116.360606 542.828447,116.323726 542.762481,116.30097 C542.628192,116.255457 542.483694,116.23584 542.336055,116.22407 C542.28658,116.220931 542.238676,116.203668 542.189201,116.205237 C542.180563,116.205237 542.17271,116.201314 542.164857,116.201314 L512.085763,117.169626 Z M612.136327,171.108706 L591.361632,171.108706 L582.306178,154.756468 L593.700297,140.4052 L606.437304,155.528607 L612.136327,171.108706 Z M593.742704,201.795733 L556.855724,186.812002 L580.112796,157.517021 L588.803865,173.208547 L593.742704,201.795733 Z M583.42525,233.878732 L587.668301,256.393956 C587.689504,256.498321 587.719346,256.600331 587.760183,256.699987 L596.514862,277.816887 C596.613812,278.05151 596.766948,278.261808 596.964847,278.425809 L612.176378,291.144914 L603.336099,301.56722 C603.073804,301.877958 602.941086,302.275798 602.968572,302.675992 L604.0633,318.514256 C604.083718,318.813224 604.191306,319.100422 604.374284,319.341323 L612.304384,329.8625 L603.803361,338.063337 L592.20663,320.348086 L602.855487,293.635533 C603.055742,293.135683 602.977996,292.571488 602.651305,292.137552 C602.3254,291.702047 601.794528,291.458007 601.236955,291.485471 L559.865047,293.587667 L512.008017,283.69346 L535.539163,206.761277 L583.42525,233.878732 Z M533.492635,339.000262 L512.56559,287.048812 L558.090238,296.460431 L558.090238,339.000262 L533.492635,339.000262 Z M519.11982,363.641222 L494.546562,373.51895 L464.467468,338.746805 L509.396848,287.930023 L530.581476,340.519429 L519.11982,363.641222 Z M441.954874,427.157492 C441.678444,427.449398 441.524522,427.831544 441.524522,428.225461 L441.524522,451.817285 L424.559386,466.85673 L424.559386,430.337857 C424.559386,429.894505 424.366198,429.469985 424.026943,429.169447 C423.689258,428.871264 423.233776,428.722957 422.775152,428.759837 L400.999183,430.586605 L460.510271,344.223969 L458.507721,409.640768 L441.954874,427.157492 Z M325.854065,409.747487 L254.64651,409.747487 L319.836989,359.192792 L325.854065,409.747487 Z M365.165309,286.11738 L321.302385,352.931719 L281.28907,274.982572 L365.165309,286.11738 Z M366.009521,283.031963 L282.503951,271.945022 L356.816636,215.775842 L366.009521,283.031963 Z M347.117224,75.3493599 L356.282623,210.759293 L250.751353,185.49607 L347.117224,75.3493599 Z M267.536653,72.6492279 L344.966249,72.8971912 L250.302939,181.09943 L267.536653,72.6492279 Z M359.394822,208.135276 L350.40926,75.3674079 L412.031273,133.823971 L359.394822,208.135276 Z M480.760376,161.446769 L418.316925,133.725884 L473.049379,112.605846 L480.760376,161.446769 Z M483.912626,160.376446 L476.871502,115.77444 L499.589063,142.075813 L483.912626,160.376446 Z M417.00231,136.630037 L480.265628,164.71345 L443.72026,209.574405 L417.00231,136.630037 Z M509.191096,281.708184 L446.553672,214.096596 L532.295817,206.171187 L509.191096,281.708184 Z M461.967029,336.694831 L373.920774,286.468138 L506.374175,286.468138 L461.967029,336.694831 Z M463.83372,342.958258 L491.869427,375.367689 L461.899492,406.145741 L463.83372,342.958258 Z M328.428324,403.62295 L322.824323,356.533464 L362.759107,295.702417 L328.428324,403.62295 Z M361.177485,211.234033 L413.691426,137.094576 L440.84444,211.234033 L361.177485,211.234033 Z M439.182716,214.401058 L369.113082,281.508872 L359.93983,214.401058 L439.182716,214.401058 Z M506.26266,283.300328 L371.901731,283.300328 L443.09515,215.118268 L506.26266,283.300328 Z M368.875917,287.271665 L459.026028,338.698154 L330.465428,408.022729 L368.875917,287.271665 Z M396.643046,431.185326 L380.323438,438.07337 L331.052057,411.334923 L457.19232,343.317648 L396.643046,431.185326 Z M523.354232,130.964546 L532.662558,142.313575 L524.154467,161.351036 L504.351992,142.359088 L523.354232,130.964546 Z M264.031012,73.8066516 L246.674789,183.024284 L177.764278,114.294507 L264.031012,73.8066516 Z M260.278782,72.0450136 L177.410887,110.936017 L188.858408,64.6021911 L260.278782,72.0450136 Z M351.625711,469.428172 C351.447445,469.6267 351.324936,469.863678 351.266823,470.118703 L344.94269,497.57593 L301.875289,504.157943 L328.701613,413.693713 L377.678501,440.272867 L351.625711,469.428172 Z M387.345715,525.107704 L387.345715,492.433831 L400.893951,494.883645 L387.345715,525.107704 Z M694.744283,614.640503 L658.611204,606.197195 C658.600995,606.193272 658.592357,606.18464 658.582148,606.18464 C658.568797,606.179932 658.555447,606.182286 658.542882,606.179932 L658.483198,606.167377 L614.750637,599.838035 L567.086009,591.476336 L526.946258,553.801609 C526.625065,553.499501 526.208063,553.328438 525.740801,553.351979 L466.657709,555.46359 L466.655353,555.46359 L466.636505,555.46359 C466.208509,555.479284 465.804858,555.65584 465.508794,555.956378 L465.493874,555.971287 C465.492303,555.971287 465.492303,555.972857 465.492303,555.972857 L444.779648,576.955574 L435.022908,567.542385 C434.71585,567.246555 434.298063,567.077846 433.862214,567.077846 L420.512663,567.077846 L412.699575,555.773544 L418.988369,538.580115 C419.113234,538.251328 419.123443,537.878598 418.997007,537.525486 C418.996222,537.520778 418.994651,537.520778 418.993866,537.518424 C418.970306,537.450155 418.942035,537.384241 418.906696,537.320681 C418.906696,537.320681 418.905125,537.318327 418.903555,537.314403 C418.733927,536.996602 418.466135,536.755701 418.150439,536.611317 L418.148868,536.611317 C418.145727,536.608963 418.143371,536.608963 418.141015,536.606609 L418.137088,536.606609 C418.07976,536.579145 418.020862,536.557958 417.960393,536.535987 L417.958822,536.535987 C417.955681,536.535987 417.953325,536.534417 417.950184,536.534417 C417.947042,536.534417 417.944686,536.534417 417.941545,536.532063 C417.863014,536.508522 417.782126,536.48969 417.700454,536.47635 L388.040718,531.543764 L404.723141,494.32102 C404.92104,493.880022 404.899837,493.373894 404.665813,492.950159 C404.43179,492.52407 404.010076,492.225102 403.519255,492.135647 L386.00754,488.967837 C385.934506,488.955282 385.863828,488.96156 385.790793,488.958421 C385.760951,488.956067 385.735821,488.941158 385.704409,488.941158 C385.685561,488.941158 385.67064,488.950574 385.651008,488.951359 C385.45625,488.957636 385.266204,488.991378 385.087152,489.060431 C385.058096,489.072202 385.035321,489.091819 385.007835,489.104374 C384.864123,489.169504 384.733761,489.255035 384.614393,489.358615 C384.574342,489.393926 384.538218,489.426883 384.501308,489.465333 C384.472251,489.496721 384.435342,489.518693 384.407856,489.552434 L376.990566,498.751402 L363.795721,504.62876 L348.198601,498.042823 L354.382949,471.195303 L381.231261,441.147801 L398.154776,434.004732 L421.275988,432.065753 L421.275988,470.462399 C421.275988,471.090939 421.660007,471.659842 422.258416,471.911729 C422.851328,472.163616 423.547901,472.053758 424.029299,471.62767 L444.278618,453.678579 C444.616303,453.378042 444.808705,452.955876 444.808705,452.512524 L444.808705,428.839091 L461.238257,411.453411 C461.251608,411.440856 461.262602,411.426732 461.275952,411.414961 L461.327783,411.358463 L495.016965,376.761306 L520.961381,366.331938 C521.33519,366.182846 521.636751,365.905849 521.811091,365.554306 L533.403109,342.168856 L559.732329,342.168856 C560.639367,342.168856 561.373635,341.458708 561.373635,340.583774 L561.373635,296.681715 L598.881798,294.778047 L588.846272,319.953384 C588.659367,320.420277 588.713554,320.946022 588.99077,321.367403 L602.125145,341.429674 C602.390581,341.836146 602.835069,342.104511 603.330602,342.15787 C603.830061,342.212799 604.321668,342.04409 604.673489,341.703532 L615.619194,331.14469 C616.190117,330.595404 616.260795,329.724394 615.78568,329.0935 L607.309002,317.848835 L606.287309,303.089526 L615.728353,291.959427 C616.291423,291.295575 616.204253,290.320985 615.532809,289.759145 L599.416597,276.283595 L590.870811,255.671253 L586.520957,232.598111 C586.435358,232.142989 586.148719,231.747503 585.737214,231.514449 L537.337532,204.107442 L554.576743,189.323023 L595.214382,205.83063 C595.765673,206.051914 596.399421,205.973444 596.869824,205.614054 C597.337871,205.256234 597.570324,204.678699 597.471375,204.109796 L592.317359,174.276515 L614.456929,174.276515 C614.990943,174.276515 615.491188,174.026198 615.79746,173.608741 C616.106089,173.18736 616.183049,172.649845 616.005568,172.164904 L609.438773,154.215029 C609.376734,154.043966 609.284067,153.885457 609.164699,153.744213 L594.859421,136.764219 L578.441648,119.868973 C578.299506,119.72302 578.129093,119.603747 577.941403,119.519 L543.419788,103.906728 L530.54064,80.0951892 C530.257927,79.5717983 529.697213,79.2445809 529.084668,79.2445809 L529.071318,79.2445809 C528.454061,79.249289 527.891776,79.5874922 527.616916,80.1195147 L507.915746,118.132445 C507.655807,118.632295 507.689576,119.225524 508.002131,119.697125 C508.3139,120.165588 508.825925,120.44023 509.43847,120.424537 L536.142284,119.566081 L502.069084,140.000297 L475.621282,109.379969 C475.558457,109.306992 475.47914,109.259126 475.406891,109.199489 C475.366055,109.166532 475.333072,109.130436 475.289879,109.101402 C474.963189,108.881688 474.570532,108.78674 474.173948,108.830683 C474.152745,108.833822 474.133897,108.825975 474.113479,108.828329 C474.069502,108.833822 474.036518,108.860501 473.993326,108.869918 C473.913224,108.88875 473.829981,108.891889 473.750664,108.923277 L414.548204,131.769642 L349.642008,70.1954898 C349.631799,70.1868582 349.62002,70.1813654 349.609811,70.1727337 C349.579969,70.1452694 349.552483,70.1162358 349.519499,70.0911255 C349.485731,70.0652306 349.444109,70.0511061 349.40877,70.0291347 C349.337307,69.9804837 349.265058,69.9373255 349.186526,69.9020143 C349.126057,69.8737653 349.063232,69.8525786 348.998051,69.8321765 C348.953288,69.8172673 348.914808,69.7937265 348.868474,69.7835255 L284.690265,55.0917 L241.215286,18.392347 C241.153247,18.3413419 241.076286,18.315447 241.007964,18.2730735 C240.934929,18.2283459 240.865822,18.1804796 240.788076,18.1459531 C240.682058,18.1004408 240.570544,18.0800388 240.456673,18.0580674 C240.369503,18.0400194 240.288616,18.0149092 240.19909,18.0125551 C240.176316,18.0125551 240.155898,18 240.133909,18 L171.178635,18 C170.641481,18 170.13888,18.2542409 169.831822,18.6779756 C169.526335,19.1009257 169.45173,19.6431492 169.637849,20.1296595 L185.447004,61.8173122 L144.464612,72.9678137 C144.006774,73.09258 143.627467,73.4025342 143.424856,73.818422 L125.913141,109.720526 C125.863666,109.819397 125.825971,109.923762 125.800841,110.031265 L117.043806,145.933369 C116.918941,146.442635 117.065009,146.979366 117.430965,147.36622 L141.510261,172.707127 C141.627273,172.830324 141.763132,172.922918 141.906844,173.002957 C141.92098,173.010019 141.928833,173.023359 141.943754,173.031991 C141.94611,173.031991 141.946895,173.032775 141.949251,173.034345 C141.962602,173.039838 141.976737,173.042192 141.990088,173.048469 C142.129088,173.115953 142.272801,173.158326 142.418869,173.185006 C142.463632,173.193638 142.507609,173.196776 142.553943,173.201485 C142.6097,173.207762 142.664672,173.220317 142.719644,173.220317 C142.786396,173.220317 142.848436,173.204623 142.912046,173.195992 C142.966233,173.190499 143.019634,173.18736 143.07225,173.17559 C143.232454,173.141848 143.387946,173.090058 143.530874,173.011589 C143.536371,173.009235 143.541868,173.009235 143.545794,173.006881 L143.550506,173.004526 L143.551292,173.002957 L176.975823,154.280159 L212.06679,159.408918 L246.183968,187.180808 L248.343581,239.278996 C248.356931,239.621122 248.487293,239.949124 248.710322,240.214351 L276.374576,273.062426 L243.198989,317.459627 L226.779646,338.578881 C226.567611,338.852739 226.45217,339.184665 226.45217,339.527576 L226.45217,376.485878 C226.45217,376.77543 226.533843,377.058705 226.69012,377.306668 L248.34201,411.773566 L248.34201,458.848143 C248.34201,459.266385 248.515565,459.670503 248.822622,459.967902 L264.013735,474.622062 L274.860491,491.364293 C274.978288,491.548696 275.13378,491.704065 275.317543,491.827262 L298.655502,507.414424 C298.664926,507.417562 298.671994,507.42227 298.681418,507.428548 L303.85428,510.883556 L343.090134,534.01555 L361.559147,551.832811 C361.934527,552.19534 362.466185,552.363264 362.988418,552.273809 L399.382221,546.428624 L396.299864,553.113432 L385.43269,568.840269 C384.991344,569.479794 385.087152,570.332757 385.662787,570.86321 L411.930752,595.150273 C412.266867,595.458658 412.718422,595.618736 413.186469,595.584209 C413.65059,595.552821 414.077801,595.330753 414.36287,594.975287 L421.664718,585.920703 L442.740973,581.300425 L437.748733,607.32637 L422.424117,663.29153 C422.374642,663.47044 422.362863,663.655628 422.379354,663.839246 C422.380139,663.84317 422.377784,663.847878 422.377784,663.851017 C422.383281,663.898883 422.408411,663.934979 422.417049,663.981276 C422.440609,664.103688 422.459456,664.224531 422.512857,664.338311 L444.401912,711.854671 C444.412907,711.880566 444.434896,711.902537 444.448246,711.927648 C444.4828,711.991208 444.527563,712.050845 444.572325,712.110481 C444.622586,712.183458 444.674416,712.249372 444.736456,712.311363 C444.75766,712.33255 444.769439,712.360014 444.791428,712.377277 C444.829123,712.411019 444.876242,712.428282 444.916293,712.458101 C444.957915,712.487919 444.990112,712.528723 445.035661,712.556188 L484.774901,736.389698 L485.863346,789.534668 L493.509948,852.766094 L490.232047,932.892766 C490.231262,932.918661 490.244612,932.939063 490.244612,932.963388 C490.244612,933.009685 490.232047,933.052843 490.236759,933.09914 C490.250895,933.255294 490.29016,933.403602 490.348274,933.542492 L490.348274,933.544847 C490.424449,933.725326 490.545388,933.885404 490.682817,934.028218 C490.701665,934.047835 490.708733,934.0753 490.728366,934.092563 L529.035979,969.993882 C529.04069,969.996236 529.047758,970.00016 529.0509,970.002514 C529.06425,970.015069 529.080741,970.021346 529.094092,970.034686 C529.226025,970.146897 529.379946,970.234783 529.542506,970.300698 C529.568421,970.310899 529.586484,970.33287 529.613184,970.340717 C529.638314,970.351703 529.665015,970.346994 529.69093,970.355626 C529.728625,970.368966 529.762394,970.385444 529.800874,970.394861 L575.77158,980.956057 C575.897231,980.985876 576.024452,981 576.151672,981 C576.761861,981 577.336711,980.668074 577.618639,980.121927 C577.96025,979.461215 577.78434,978.667105 577.196925,978.195504 L539.974616,948.442262 L555.666759,923.211211 C556.011512,922.659572 555.973817,921.960409 555.571736,921.447219 L542.950171,905.207193 L554.597161,870.479776 L586.102385,842.175079 L620.032658,807.328388 C620.035799,807.326819 620.036585,807.324465 620.038155,807.322111 C620.146529,807.2099 620.239981,807.081994 620.313015,806.936826 C620.319298,806.924271 620.318512,806.909362 620.32401,806.893668 C620.385264,806.762624 620.414321,806.621379 620.435524,806.476211 C620.444163,806.421282 620.470863,806.365569 620.473219,806.309856 C620.473219,806.304363 620.477146,806.299655 620.477146,806.291023 L621.53889,771.457672 L658.809889,758.102181 C658.847584,758.089625 658.877426,758.066085 658.912765,758.051175 C658.946533,758.034697 658.97559,758.016649 659.008573,758.002524 C659.21197,757.89816 659.387095,757.759269 659.52688,757.585067 C659.533948,757.576436 659.546513,757.576436 659.552796,757.56545 C659.568502,757.546617 659.569287,757.523076 659.584208,757.505813 C659.682373,757.366922 659.757763,757.216261 659.807237,757.049906 C659.815091,757.024011 659.82687,756.998901 659.834723,756.974575 C659.837079,756.962805 659.843362,756.954173 659.844933,756.943188 L672.874076,697.235822 L695.489546,676.459479 C695.51232,676.435939 695.521744,676.405336 695.542947,676.384149 C695.626191,676.299402 695.685089,676.203669 695.745558,676.100874 C695.795818,676.02162 695.848434,675.949428 695.882203,675.864681 C695.92461,675.753255 695.938746,675.63869 695.955237,675.519416 C695.966232,675.448794 696,675.385233 696,675.312257 L696,616.179288 C696,615.447953 695.480908,614.810781 694.744283,614.640503 L694.744283,614.640503 Z" id="Fill-399" fill="#FFFFFF"></path>
                        <path d="M485.258451,44.9082621 L499.812345,56.5010475 L485.258451,68.0914974 L485.258451,44.9082621 Z M482.934661,72.8497477 C483.156828,72.9509539 483.393806,73 483.629225,73 C484.001063,73 484.369782,72.876217 484.666005,72.6411071 L503.408334,57.7108513 C503.784069,57.4126822 504,56.9689317 504,56.5010475 C504,56.0316062 503.784069,55.5870773 503.408334,55.2881296 L484.666005,40.3594309 C484.179576,39.9725116 483.506839,39.8899896 482.934661,40.1507903 C482.364042,40.4092555 482,40.9643328 482,41.5723487 L482,71.4281893 C482,72.0362052 482.364042,72.5912825 482.934661,72.8497477 L482.934661,72.8497477 Z" id="Fill-401" fill="#FFFFFF"></path>
                        <g transform="translate(536.000000, 0.000000)">
                            <mask id="mask-2" fill="white">
                                <use xlink:href="#path-1"></use>
                            </mask>
                            <g id="Clip-404"></g>
                            <path d="M227.607362,197.144906 L238.336565,193.252273 L269.863423,196.971708 L268.472325,210.434875 L251.42258,219.76011 L232.007423,203.227978 L227.607362,197.144906 Z M222.267392,173.659796 L240.99052,136.78127 L240.591723,144.095533 C240.580776,144.285188 240.605798,144.47406 240.664445,144.656661 L245.493798,159.450549 L245.493798,177.721708 L237.058851,190.336129 L227.360265,193.855721 L230.735964,180.137853 C230.897829,179.481113 230.611633,178.799295 230.024385,178.436442 L222.267392,173.659796 Z M154.378851,221.430956 C154.065287,223.247571 151.020355,238.051646 149.69025,244.499138 L117.999964,212.372179 L118.748295,181.914498 L178.347332,200.165282 C162.773919,212.396473 154.701017,219.554781 154.378851,221.430956 L154.378851,221.430956 Z M134.001889,140.336912 L177.389438,196.554781 L119.294099,178.764028 L134.001889,140.336912 Z M123.631603,100.999138 C123.50258,100.5971 123.212475,100.261677 122.826971,100.06732 L94.2199338,85.5665361 C93.9861293,85.4489812 93.7249564,85.3862853 93.4614376,85.3862853 L81.5499188,85.3862853 L164.196295,58.9568182 L133.71022,132.346317 L123.631603,100.999138 Z M116.887242,37.4019592 L153.033107,37.4019592 L164.549738,55.5108934 L73.122009,84.7491379 L73.8109113,68.2789185 L116.887242,37.4019592 Z M90.1928662,34.2381661 C89.8691368,34.2381661 89.554009,34.3314263 89.2850165,34.5046238 L60.1744,53.2875392 L63.104385,12.1644984 L95.3404752,13.6503918 L114.713408,27.5226489 L114.713408,34.2381661 L90.1928662,34.2381661 Z M4.93867068,52.6621473 L27.812415,48.1911442 L35.5811368,69.8314263 L19.8419489,69.8314263 L4.93867068,52.6621473 Z M38.6847158,68.8345611 L31.5462496,48.9481975 L54.9094977,56.9027429 L38.6847158,68.8345611 Z M47.3409564,3.9419279 L59.8850767,11.3596395 L56.8315429,54.2028997 L30.5234526,45.2460031 L30.5234526,27.6112069 L47.3409564,3.9419279 Z M275.107994,46.2013323 L259.30625,54.6237461 L202.645017,30.6801724 L252.331994,30.6801724 L275.107994,46.2013323 Z M307.013317,58.4630878 L277.790099,100.382367 L245.611874,125.150392 L260.702821,57.9811129 L307.013317,58.4630878 Z M219.380415,172.172335 L140.128505,138.168417 L240.314911,130.934091 L219.380415,172.172335 Z M167.625167,59.1833072 L239.339032,127.83221 L136.009167,135.293809 L167.625167,59.1833072 Z M198.126099,32.2232759 L257.506971,57.3157524 L242.473889,124.231113 L198.126099,32.2232759 Z M194.329708,31.8306426 L237.701618,121.814185 L169.335302,56.3721787 L194.329708,31.8306426 Z M182.114009,197.388636 L138.559904,140.956818 L216.80622,174.527351 L182.114009,197.388636 Z M252.019212,223.068103 L270.818971,212.785972 C271.281107,212.532837 271.587633,212.077508 271.641588,211.564969 L273.275874,195.747571 C273.365017,194.891771 272.730851,194.123746 271.848024,194.019514 L240.929528,190.370611 L248.500415,179.049295 C248.671663,178.793025 248.763152,178.494436 248.763152,178.189577 L248.763152,159.206818 C248.763152,159.045376 248.737347,158.885502 248.687302,158.730329 L243.872806,143.975627 L244.635212,129.94663 L280.02258,102.706818 C280.153949,102.606505 280.26655,102.485815 280.361167,102.35337 L311.421197,57.7969436 C311.75822,57.3149687 311.791844,56.6934953 311.513468,56.1770376 C311.233528,55.6621473 310.684595,55.3376959 310.084054,55.3314263 L265.625227,54.8682602 L278.977107,47.7522727 C279.472084,47.4897335 279.789558,46.9975705 279.820054,46.4544671 C279.852114,45.9090125 279.590941,45.3862853 279.128806,45.074373 L253.791122,27.8047806 C253.515874,27.6166928 253.187453,27.5163793 252.849648,27.5163793 L194.816866,27.5163793 C194.776986,27.5163793 194.743362,27.5351881 194.703483,27.5375392 C194.566641,27.5469436 194.432926,27.5735893 194.300776,27.6166928 C194.242911,27.6355016 194.184265,27.6503918 194.128746,27.6762539 C193.966099,27.7483542 193.813618,27.8439655 193.680686,27.96779 C193.672084,27.9764107 193.659573,27.9795455 193.650971,27.9873824 L167.324896,53.8369122 L155.339092,34.9920846 C155.041949,34.5242163 154.514911,34.2381661 153.947212,34.2381661 L117.982761,34.2381661 L117.982761,26.725627 C117.982761,26.2240596 117.736445,25.751489 117.319663,25.4536834 L96.885618,10.8220219 C96.6252271,10.6355016 96.314009,10.5281348 95.9902797,10.5132445 L62.0792421,8.94976489 L47.7233323,0.459952978 C46.9796932,0.0202978056 46.0155429,0.223275862 45.5236932,0.914498433 L27.5410767,26.2240596 C27.3541895,26.4881661 27.2540992,26.8016458 27.2540992,27.1206113 L27.2540992,45.0720219 L1.59190376,50.0892633 C1.02576842,50.1997649 0.562851128,50.5916144 0.372054135,51.1166928 C0.180475188,51.644906 0.292294737,52.2303292 0.663723308,52.6566614 L17.829197,72.4301724 C18.1396331,72.7891066 18.5970767,72.9952194 19.0795429,72.9952194 L37.8753925,72.9952194 L37.8785203,72.9952194 C37.9270015,72.9952194 37.9739188,72.9764107 38.0200541,72.9724922 C38.1522045,72.9615204 38.2843549,72.9505486 38.4071218,72.9090125 C38.4110316,72.9082288 38.4141594,72.9090125 38.4165053,72.9082288 C38.4352722,72.9011755 38.4470015,72.8862853 38.4649865,72.879232 C38.6080842,72.8259404 38.7449263,72.7624608 38.8692571,72.6723354 L59.221197,57.7013323 L90.6862797,37.4019592 L111.394791,37.4019592 L71.2367158,66.186442 C70.8387008,66.4717085 70.5970767,66.9152821 70.5767459,67.3941223 L69.7588211,86.9035266 C69.7556932,86.9920846 69.7908812,87.0728056 69.8018286,87.1590125 C69.8151218,87.2616771 69.8057383,87.363558 69.8401444,87.4646552 C69.8448361,87.4764107 69.8542195,87.4834639 69.8589113,87.4960031 C69.8917534,87.5884796 69.9550917,87.6621473 70.0051368,87.7467868 C70.0653474,87.8455329 70.1153925,87.952116 70.1943699,88.0336207 C70.2021895,88.0438088 70.2045353,88.056348 70.2131368,88.064185 C70.2670917,88.1182602 70.3390316,88.1433386 70.3984602,88.1880094 C70.4985504,88.2648119 70.5947308,88.3447492 70.7088962,88.3956897 C70.7925654,88.4333072 70.8824902,88.4434953 70.9708511,88.4670063 C71.0889263,88.4975705 71.2038737,88.532837 71.3289865,88.5383229 C71.3508812,88.5383229 71.371212,88.5500784 71.3931068,88.5500784 L93.0587308,88.5500784 L120.71022,102.565752 L131.785829,137.017163 L115.632986,179.222492 C115.627513,179.234248 115.629859,179.249138 115.625167,179.260893 C115.620475,179.273433 115.609528,179.28127 115.6064,179.293809 C115.590761,179.340831 115.601708,179.385502 115.590761,179.433307 C115.568866,179.533621 115.533678,179.630016 115.532114,179.733464 L114.714971,212.952116 C114.704024,213.372179 114.865107,213.778918 115.166941,214.08221 L149.495543,248.883934 C149.809107,249.201332 150.2384,249.37453 150.677859,249.37453 C150.828776,249.37453 150.983603,249.352586 151.133738,249.31105 C151.719423,249.147257 152.161227,248.680956 152.280084,248.101803 C152.477137,247.151176 157.020295,225.171552 157.575483,222.104937 C158.79455,220.106505 171.251874,209.760893 182.65825,200.852586 L220.185829,176.128448 L227.285979,180.500705 L223.469257,196.014812 C223.456746,196.059483 223.473167,196.106505 223.466129,196.151176 C223.447362,196.270298 223.447362,196.387853 223.456746,196.509326 C223.466129,196.607288 223.477859,196.698981 223.504445,196.795376 C223.517738,196.841614 223.509919,196.88942 223.527904,196.934875 C223.565438,197.032053 223.62643,197.111207 223.679603,197.195063 C223.696806,197.22406 223.699152,197.26011 223.720265,197.287539 L229.441047,205.197414 C229.515332,205.300862 229.602129,205.394122 229.701438,205.477194 L250.135483,222.877665 C250.658611,223.325157 251.417107,223.399608 252.019212,223.068103 L252.019212,223.068103 Z" id="Fill-403" fill="#FFFFFF" mask="url(#mask-2)"></path>
                        </g>
                        <path d="M444.615285,509.461447 L424.801564,490.559516 C433.569509,487.92964 442.502022,485.41996 444.139781,485.242872 C446.105092,485.932794 456.363635,493.067594 466.099994,500.228035 L444.615285,509.461447 Z M470.988744,500.787345 C471.056786,500.219221 470.813101,499.655905 470.345508,499.311345 C454.869081,487.823868 446.093224,482 444.25925,482 C441.979046,482 426.00417,486.801406 421.1621,488.272598 C420.606686,488.442474 420.181027,488.884793 420.045734,489.438494 C419.909649,489.993796 420.082128,490.577145 420.498293,490.975392 L443.105698,512.540854 C443.420591,512.840541 443.835964,513 444.25925,513 C444.484739,513 444.711018,512.953524 444.924639,512.862977 L470.012418,502.08225 C470.549635,501.849071 470.919911,501.359475 470.988744,500.787345 L470.988744,500.787345 Z" id="Fill-405" fill="#FFFFFF"></path>
                        <path d="M483.786324,500.062902 L502.50143,516.216768 L471.754905,519.469999 L483.786324,500.062902 Z M468.640559,523 C468.699394,523 468.757445,522.996046 468.817064,522.992092 L506.536744,519.001863 C507.182363,518.933066 507.725217,518.501305 507.922903,517.900319 C508.119021,517.29617 507.933886,516.63983 507.448299,516.220722 L484.488425,496.402424 C484.123647,496.087697 483.634137,495.94694 483.154041,496.018109 C482.670808,496.088488 482.247194,496.366048 481.996163,496.770923 L467.236357,520.577869 C466.913155,521.100569 466.922569,521.752954 467.257538,522.263792 C467.560343,522.725603 468.084369,523 468.640559,523 L468.640559,523 Z" id="Fill-407" fill="#FFFFFF"></path>
                        <path d="M943.788531,72.5680262 L954.862397,83.3494674 L942.122725,94.2821513 L926.578355,82.1707349 L943.788531,72.5680262 Z M957.345747,81.2160656 L947.428099,71.5597418 L974.669339,66.3486718 L957.345747,81.2160656 Z M941.148445,97.6495011 C941.448526,97.8847675 941.810829,98 942.173132,98 C942.561426,98 942.948145,97.8663623 943.257678,97.5998871 L981.43574,64.8306436 C981.998097,64.3505082 982.159558,63.5598852 981.83191,62.9045003 C981.504262,62.2483152 980.770993,61.8874134 980.037723,62.031454 L943.745999,68.972612 C943.684565,68.9846154 943.63022,69.0182248 943.570361,69.0350296 C943.497901,69.0582361 943.42859,69.0814427 943.358493,69.1134517 C943.32305,69.1302564 943.282094,69.1342576 943.246651,69.153463 L922.832458,80.5454764 C922.356739,80.8111514 922.047206,81.2896864 922.004675,81.8258376 C921.963719,82.3603884 922.193703,82.8805351 922.622165,83.2142292 L941.148445,97.6495011 Z" id="Fill-409" fill="#FFFFFF"></path>
                        <path d="M1098.96978,120.36353 L1110.10035,125.070047 L1107.29827,143.071418 L1091.90984,128.37277 L1098.96978,120.36353 Z M1135.31588,89.365485 C1136.01719,89.2336586 1136.5527,88.6828124 1136.63679,88.0056325 L1138.49638,73.5361119 L1151.87845,83.3869992 L1137.59277,97.8431802 L1124.35112,97.8431802 L1120.97229,92.1055916 L1135.31588,89.365485 Z M1099.94956,117.312689 L1098.31131,109.958657 L1112.59302,109.057843 L1110.6065,121.819113 L1099.94956,117.312689 Z M1117.93538,93.4120857 L1121.29835,99.1222105 L1113.83619,105.802201 L1101.29268,106.596299 L1117.93538,93.4120857 Z M1107.2824,147.535469 C1107.59894,147.837571 1108.021,148 1108.45575,148 C1108.62791,148 1108.80403,147.974106 1108.97539,147.920747 C1109.5696,147.732424 1110.00197,147.239644 1110.09321,146.649564 L1116.09245,108.125642 L1124.03617,101.010938 L1138.30836,101.010938 C1138.76374,101.010938 1139.20087,100.832031 1139.51583,100.51502 L1155.54924,84.2878132 C1155.87054,83.9621705 1156.0308,83.5219644 1155.9951,83.0754808 C1155.95781,82.6289972 1155.72536,82.2201783 1155.35487,81.9471093 L1138.21713,69.3294362 C1137.7443,68.9818225 1137.10804,68.9025697 1136.56381,69.1238498 C1136.01481,69.3427758 1135.62846,69.8277088 1135.55944,70.3918945 L1133.4912,86.4841358 L1118.07977,89.4282595 C1117.92189,89.4580774 1117.77433,89.5161438 1117.63153,89.5891191 C1117.61804,89.5946119 1117.60455,89.5946119 1117.59186,89.6008893 C1117.57123,89.6118749 1117.56013,89.6314919 1117.53791,89.6448315 C1117.47365,89.6824962 1117.40384,89.7146681 1117.34593,89.7625337 L1095.23235,107.280541 C1095.18713,107.318205 1095.15381,107.363717 1095.11414,107.403735 C1095.07844,107.439831 1095.04274,107.475141 1095.00863,107.514376 C1094.88804,107.656403 1094.7857,107.8102 1094.72541,107.980476 C1094.72541,107.980476 1094.72541,107.9844 1094.72303,107.985969 C1094.66035,108.161737 1094.6429,108.346138 1094.64766,108.532107 C1094.64766,108.558001 1094.63417,108.579188 1094.63655,108.603513 C1094.63893,108.630977 1094.65639,108.653733 1094.65877,108.680412 C1094.66511,108.731416 1094.65877,108.779282 1094.66987,108.829501 L1096.71193,118.007132 L1088.39058,127.444492 C1087.83445,128.073807 1087.87729,129.003654 1088.48658,129.585103 L1107.2824,147.535469 Z" id="Fill-411" fill="#FFFFFF"></path>
                        <path d="M1313.68624,569.436328 L1279.38758,535.367516 L1327.32566,527.732323 L1325.82281,555.849137 L1313.68624,569.436328 Z M1136.61553,450.793433 L1073.96995,437.712378 L1146.31693,446.026342 L1136.61553,450.793433 Z M1165.44822,480.146159 L1094.96821,484.341984 L1136.72382,454.51451 L1165.44822,480.146159 Z M1092.63115,487.65423 L1163.65422,483.428586 L1114.52171,516.537702 L1092.63115,487.65423 Z M1155.34736,551.458705 C1155.08446,551.627417 1154.87728,551.863614 1154.75171,552.142969 L1151.42269,559.508223 L1125.54782,559.508223 L1097.31705,528.799524 L1096.9176,508.397158 C1096.9176,508.29907 1096.88464,508.209613 1096.86267,508.117803 C1096.85168,508.058165 1096.84932,508.002451 1096.82892,507.945167 C1096.76064,507.742713 1096.66176,507.552814 1096.51815,507.393519 C1096.51422,507.391165 1096.51422,507.384887 1096.51187,507.382533 L1061.54222,468.935059 L1088.36824,487.392923 L1112.82188,519.65691 C1113.3469,520.349806 1114.35377,520.51224 1115.08439,520.021798 L1161.02757,489.061993 L1116.55663,542.817518 C1116.08498,543.386431 1116.07792,544.18997 1116.53231,544.767514 C1116.85014,545.170068 1117.33827,545.389786 1117.83739,545.389786 C1118.05556,545.389786 1118.27451,545.347412 1118.48405,545.261879 L1174.78314,521.944329 L1174.3264,539.241612 L1155.34736,551.458705 Z M977.466751,792.40672 L1023.66734,814.475802 L977.94311,822.522181 L977.466751,792.40672 Z M957.002916,767.532313 L1005.33495,756.646866 L975.795177,787.48975 L957.002916,767.532313 Z M952.202437,691.60177 L963.303887,669.702185 L992.649039,720.389508 L947.634253,716.238411 L952.202437,691.60177 Z M930.442936,599.258309 L952.407264,618.485185 L920.429971,621.670308 L930.442936,599.258309 Z M886.757561,595.016186 L839.375103,591.813015 L920.502955,543.901983 L927.957548,595.013832 L886.757561,595.016186 Z M786.989694,539.554709 L841.497139,553.907774 L833.104738,590.254588 L808.571051,571.752781 L786.989694,539.554709 Z M803.798825,460.705059 L836.456519,470.524875 L784.73974,532.65871 L783.29889,499.274162 L803.798825,460.705059 Z M932.410371,424.434361 L905.144877,408.641361 L929.054666,408.641361 L932.410371,424.434361 Z M995.452261,426.389849 L1005.51545,437.954852 L1015.07639,463.285958 L979.964695,443.607877 L995.452261,426.389849 Z M1046.84493,408.552689 L1095.00353,407.674602 L1061.46924,432.716152 L1059.99621,418.514536 C1059.9507,418.068038 1059.70977,417.660776 1059.33465,417.39476 L1046.84493,408.552689 Z M952.755705,395.436322 L932.892224,367.40818 L938.975027,357.762569 L970.826756,385.148821 L952.755705,395.436322 Z M866.87603,404.506743 L835.218926,368.214073 L876.958055,364.283479 C877.059291,364.274062 877.145617,364.230119 877.239005,364.203439 C877.30885,364.186175 877.378696,364.190883 877.446186,364.163419 L899.781714,354.921147 L883.077743,383.485244 L866.87603,404.506743 Z M859.351592,326.200894 L849.785165,317.170493 L876.48405,316.257879 L884.889793,319.808676 C885.474451,320.056643 886.152498,319.954631 886.630427,319.547368 L901.95476,306.544784 L901.95476,350.575443 L878.440498,360.305802 L878.440498,343.172523 C878.440498,342.717394 878.237241,342.284236 877.884092,341.984478 L859.351592,326.200894 Z M837.809474,288.52871 L850.581713,282.363272 L861.820499,297.368428 L828.207732,311.610848 L822.051159,302.268919 L837.809474,288.52871 Z M858.865815,258.699667 L874.802274,280.863698 L864.321582,295.300726 L852.882678,280.027986 L858.865815,258.699667 Z M845.969581,314.13054 L833.746685,312.722777 L863.788719,299.99484 L873.668272,313.184185 L845.969581,314.13054 Z M876.97532,312.19467 L866.355723,298.016595 L876.66141,283.819687 L887.341435,301.752582 L876.97532,312.19467 Z M923.208865,286.861209 L945.295618,292.677453 L951.077068,341.355928 L906.01127,302.991633 L923.208865,286.861209 Z M996.878201,257.936932 L1013.127,234.148559 L1082.10573,253.750524 L991.388688,267.716728 L996.878201,257.936932 Z M989.068104,242.63045 L1008.24647,235.540628 L995.59823,254.052636 L989.068104,242.63045 Z M983.536998,219.118293 L1008.49132,232.057316 L987.154818,239.946754 L977.261139,229.940178 L983.536998,219.118293 Z M961.48556,221.419837 L954.40609,177.42135 L978.519136,198.977234 L961.48556,221.419837 Z M967.371385,246.863941 L946.931878,274.780655 L936.732136,257.900836 C936.438629,257.413533 935.898703,257.11456 935.314829,257.11456 L914.938104,257.11456 L937.582049,210.964409 L959.113965,226.43568 L967.371385,246.863941 Z M901.857448,230.09712 L933.206919,212.478892 L911.307728,257.11456 L898.858816,257.11456 L901.857448,230.09712 Z M926.183169,193.51097 L950.854976,175.990046 L958.2358,221.854564 L938.093723,207.383009 L926.183169,193.51097 Z M984.42615,215.98496 L982.920948,203.461831 L1004.72361,226.509442 L984.42615,215.98496 Z M980.204052,196.164847 L955.321924,173.923129 L997.304334,162.458569 L980.204052,196.164847 Z M1009.93453,227.320044 L982.671389,198.501702 L999.593528,165.146973 L1009.93453,227.320044 Z M1051.5065,191.703006 L1086.14576,251.594935 L1013.88196,231.060739 L1002.35751,161.774305 L1032.28497,165.025344 L1051.5065,191.703006 Z M1152.59907,130.139653 L1157.28576,116.15697 L1189.91991,166.081559 L1175.60715,171.740076 L1171.5169,156.40456 C1171.51062,156.377095 1171.49492,156.354338 1171.4855,156.328443 C1171.46824,156.271944 1171.44391,156.219369 1171.41958,156.165224 C1171.38662,156.09617 1171.35288,156.0279 1171.31128,155.963555 C1171.29559,155.940798 1171.28931,155.913333 1171.27126,155.891362 L1152.59907,130.139653 Z M1202.86166,152.997364 L1282.42937,186.283824 L1194.90638,165.799849 L1202.86166,152.997364 Z M1183.40077,115.674375 L1197.05588,112.946736 C1197.48437,112.860418 1197.86185,112.611666 1198.10042,112.258548 C1198.33899,111.903861 1198.42218,111.472273 1198.32957,111.057948 L1195.82692,99.9449361 L1217.79674,85.1406656 L1201.61072,146.774643 L1183.40077,115.674375 Z M1275.99264,45.9257494 L1323.59326,45.9257494 L1327.66154,55.5274166 L1303.8012,76.3103648 L1226.05887,79.5739586 L1275.99264,45.9257494 Z M1480.02514,39.0085627 L1428.81768,83.3742916 L1430.72076,49.8453577 L1480.02514,39.0085627 Z M1706.91034,35.9152502 L1699.86618,11.5179444 L1715.19679,21.1172574 L1706.91034,35.9152502 Z M1686.32015,36.9565556 C1685.81005,36.9149661 1685.34389,37.0946639 1685.00408,37.43915 L1674.24087,48.2610356 L1668.91616,9.49732547 L1695.87795,9.49732547 L1704.21071,38.3572564 L1686.32015,36.9565556 Z M1680.04194,72.8529486 L1671.96737,92.3481937 L1632.2051,90.9435693 L1672.43039,54.4790489 L1680.04194,72.8529486 Z M1644.42564,126.786602 C1644.29772,126.943544 1644.20276,127.120887 1644.14234,127.311571 L1637.0354,150.543588 C1636.90277,150.970468 1636.96477,151.431091 1637.20256,151.811673 L1652.74741,176.650769 L1644.70345,222.755407 L1617.96062,190.721339 L1632.55197,128.640863 C1632.58728,128.487061 1632.59827,128.330904 1632.58728,128.173963 L1629.98653,94.0353124 L1669.79119,95.4422909 L1644.42564,126.786602 Z M1587.3402,121.132008 L1575.34725,38.1516634 L1625.81702,92.1849747 L1587.3402,121.132008 Z M1588.92938,144.337345 L1518.39444,134.200508 L1584.82107,125.825337 L1588.92938,144.337345 Z M1547.58028,167.556807 C1547.25538,167.728657 1547.0019,168.00095 1546.85829,168.331312 L1529.02895,209.449141 L1508.76288,136.017888 L1585.98489,147.116775 L1547.58028,167.556807 Z M1567.30093,240.446612 L1477.31217,276.922903 L1529.01796,216.447152 L1567.30093,240.446612 Z M1563.81809,297.538709 L1550.87163,311.173767 L1569.71412,249.8317 L1570.7822,267.019909 L1563.81809,297.538709 Z M1557.5132,360.531798 L1552.09039,383.220013 L1536.6711,357.170115 C1536.5322,356.932349 1536.33129,356.733819 1536.08644,356.59571 L1512.54628,343.056387 L1545.29972,320.598875 L1542.91164,344.603828 C1542.86534,345.056603 1543.02151,345.504671 1543.34249,345.835817 L1557.5132,360.531798 Z M1495.01359,356.444262 L1405.18099,303.38948 L1471.05828,282.772104 L1507.52293,342.975562 L1495.01359,356.444262 Z M1517.63713,364.893196 L1505.90864,390.990175 L1479.40281,430.254528 L1496.54704,360.368579 L1517.63713,364.893196 Z M1532.23633,418.006831 L1479.63432,435.710592 L1507.62652,394.246707 L1532.23633,418.006831 Z M1460.80988,497.07463 L1476.49992,441.686915 L1507.39266,469.617754 L1460.80988,497.07463 Z M1475.94587,515.254707 L1487.8062,541.494504 L1442.01527,538.167349 L1458.78124,502.943449 L1475.94587,515.254707 Z M1466.90211,559.695768 L1444.49438,541.526676 L1486.17073,544.552504 L1466.90211,559.695768 Z M1462.70826,590.391127 L1439.97171,595.554495 L1442.24992,583.686596 C1442.34645,583.173398 1442.17693,582.64686 1441.79553,582.278048 L1429.18653,570.104113 L1439.16182,565.28994 L1462.70826,590.391127 Z M1441.32937,598.501852 L1464.11379,593.325144 L1463.66804,617.90921 L1441.32937,598.501852 Z M1453.76965,501.332447 L1420.05487,522.257427 L1383.93238,488.778714 L1453.76965,501.332447 Z M1204.10867,426.702947 L1267.61122,474.977298 L1174.10587,463.391109 L1204.10867,426.702947 Z M1099.92408,408.006533 L1146.22433,442.82474 L1065.68977,433.569128 L1099.92408,408.006533 Z M1086.08768,378.354049 L1097.47401,404.46123 L1047.18474,405.376982 L1086.08768,378.354049 Z M1038.89436,378.740909 L1040.2426,405.619456 L1015.99457,407.786815 L1038.89436,378.740909 Z M981.620574,375.90655 L1015.33222,375.90655 L1013.05009,382.816674 C1013.01242,382.931241 1012.98731,383.052086 1012.97711,383.172146 L1011.00967,406.922854 L975.837555,384.92518 L981.620574,375.90655 Z M952.962886,347.371487 L978.658042,374.507418 L973.230527,382.97283 L941.223412,355.453963 L952.962886,347.371487 Z M994.107939,314.49229 L993.904682,315.297399 L954.505757,342.419205 L948.763546,294.064814 L994.107939,314.49229 Z M993.882708,310.895196 L950.450816,291.329327 L987.125782,272.22879 L993.882708,310.895196 Z M1022.86372,355.39354 L997.586854,313.06177 L990.256255,271.098028 L1086.25798,256.318083 L1022.86372,355.39354 Z M1109.29431,200.067192 L1089.25975,250.483791 L1055.93735,192.862802 L1109.29431,200.067192 Z M1111.47364,196.86402 L1062.35839,167.968777 L1164.26948,158.893648 L1111.47364,196.86402 Z M1122.95178,192.56069 L1168.94911,159.479039 L1172.54731,172.950093 L1122.95178,192.56069 Z M1216.62507,292.092847 L1114.54604,199.306811 L1173.51886,175.988476 L1216.62507,292.092847 Z M1214.10594,275.92868 L1176.55359,174.78866 L1191.14494,169.019499 L1214.10594,275.92868 Z M1221.33059,293.958094 L1194.4826,168.961431 L1297.8573,193.153928 L1221.33059,293.958094 Z M1295.97226,188.497481 L1204.12829,150.075118 L1221.18305,85.1398809 L1295.97226,188.497481 Z M1299.15296,187.362011 L1223.52954,82.8508924 L1302.76608,79.5237374 L1299.15296,187.362011 Z M1509.38599,83.5273093 L1505.12701,131.408523 L1432.2346,88.3658088 L1509.38599,83.5273093 Z M1508.53607,80.4065321 L1431.58559,85.2309069 L1485.36947,38.6358272 L1508.53607,80.4065321 Z M1511.32125,78.7170593 L1488.28962,37.1911828 L1548.07469,24.0504899 L1511.32125,78.7170593 Z M1581.13262,123.095343 L1508.34616,132.270915 L1512.59729,84.4587558 L1581.13262,123.095343 Z M1513.49586,81.2971738 L1551.02153,25.4880719 C1553.7345,33.1012931 1572.25209,88.0119063 1583.2162,120.602331 L1513.49586,81.2971738 Z M1463.08809,208.707593 L1505.96201,138.170338 L1526.51295,212.626417 L1463.08809,208.707593 Z M1462.29076,211.832294 L1525.37581,215.7315 L1473.70533,276.167231 L1462.29076,211.832294 Z M1402.55906,300.881558 L1391.08484,240.840535 L1467.64137,280.51215 L1402.55906,300.881558 Z M1413.5577,358.457034 L1403.56278,306.150077 L1489.67789,357.008466 L1413.5577,358.457034 Z M1359.74164,408.364359 L1412.84669,361.639803 L1486.22801,360.242241 L1359.74164,408.364359 Z M1409.55377,427.164354 L1492.62473,362.614408 L1474.38966,436.94415 L1409.55377,427.164354 Z M1351.28489,415.688024 L1376.44012,484.458906 L1277.35501,476.032729 L1351.28489,415.688024 Z M1312.2964,400.9583 L1272.74366,474.845468 L1207.50832,425.255949 L1312.2964,400.9583 Z M1326.205,320.390143 L1313.94679,397.318048 L1209.74415,421.479942 L1326.205,320.390143 Z M1140.51586,338.409356 L1100.19326,402.527713 L1088.80536,376.422886 L1140.51586,338.409356 Z M1018.77739,375.90655 L1037.00618,375.90655 L1014.50664,404.440827 L1016.23315,383.606088 L1018.77739,375.90655 Z M1020.20804,361.165056 L1016.38068,372.73869 L989.436949,372.73869 L1020.20804,361.165056 Z M979.839131,371.060203 L955.653885,345.518795 L992.717315,320.004852 L979.839131,371.060203 Z M1020.44033,357.677821 L983.046513,371.743682 L996.644337,317.824153 L1020.44033,357.677821 Z M1143.61338,331.001727 L1068.04488,345.350083 L1040.31559,345.350083 C1039.98676,345.350083 1039.66422,345.446602 1039.39033,345.6263 L1028.27868,352.960166 L1089.62624,257.082387 L1143.61338,331.001727 Z M1091.67529,253.246742 L1112.21917,201.544794 L1213.79281,293.869422 L1091.67529,253.246742 Z M1146.95496,330.077343 L1093.80282,257.304459 L1216.16362,298.009533 L1146.95496,330.077343 Z M1148.74503,332.760254 L1218.47008,300.453108 L1202.80202,419.741032 L1148.74503,332.760254 Z M1200.55912,422.28662 L1102.56407,404.859861 L1146.40483,335.15047 L1200.55912,422.28662 Z M1087.24523,373.590881 L1070.85281,348.046335 L1139.80329,334.954293 L1087.24523,373.590881 Z M1324.9266,317.238762 L1206.01803,420.4559 L1221.887,299.616611 L1324.9266,317.238762 Z M1326.40355,314.274142 L1223.35532,296.651991 L1299.80197,195.949052 L1326.40355,314.274142 Z M1368.08146,142.302601 C1368.08774,142.326143 1368.09245,142.352823 1368.09873,142.375579 L1302.38232,188.969089 L1305.97581,81.603994 L1368.08146,142.302601 Z M1369.73891,139.417236 L1307.76824,78.8465358 L1412.50061,58.6740891 L1371.10521,138.116978 L1369.73891,139.417236 Z M1457.50519,205.993294 L1372.69674,142.110348 L1373.79385,140.004196 L1426.09608,90.161217 L1457.50519,205.993294 Z M1460.90877,206.031745 L1429.58362,90.5104113 L1504.30613,134.63602 L1460.90877,206.031745 Z M1373.03654,146.38229 L1458.8142,210.997367 L1470.80009,278.553523 L1390.32282,236.851872 L1373.03654,146.38229 Z M1332.3498,313.934364 L1387.92376,241.751579 L1399.37522,301.681958 L1332.3498,313.934364 Z M1333.35667,316.975101 L1399.96694,304.797243 L1409.96185,357.094784 L1333.35667,316.975101 Z M1330.95682,319.321373 L1409.38583,360.397613 L1353.00041,410.009888 L1330.95682,319.321373 Z M1405.2736,426.423592 L1357.09302,412.776763 L1485.90312,363.770281 L1405.2736,426.423592 Z M1406.62184,429.927306 L1470.36768,439.543098 L1382.21922,482.814946 L1406.62184,429.927306 Z M1379.01419,481.976879 L1354.65551,415.387481 L1403.37287,429.185758 L1379.01419,481.976879 Z M1349.71769,410.373992 L1317.21774,397.612313 L1328.8599,324.558503 L1349.71769,410.373992 Z M1386.40286,238.415007 L1329.36373,312.502275 L1302.99131,195.19338 L1386.40286,238.415007 Z M1369.49642,145.317443 L1386.61867,234.931696 L1303.69996,191.965098 L1369.49642,145.317443 Z M1316.17006,400.621661 L1348.91016,413.476721 L1278.54002,470.916443 L1316.17006,400.621661 Z M1040.43487,372.742613 C1040.39014,372.740259 1040.36424,372.736336 1040.29754,372.73869 L1019.82664,372.73869 L1024.20569,359.484215 L1040.82569,348.517943 L1067.29464,348.517943 L1083.78829,374.218646 L1040.43487,372.742613 Z M1042.04366,375.966187 L1081.94877,377.326868 L1043.44998,404.068092 L1042.04366,375.966187 Z M1152.13762,443.256328 L1106.22819,408.733171 L1198.04705,425.061341 L1152.13762,443.256328 Z M1383.89079,485.548863 L1473.07594,441.768525 L1456.95349,498.682493 L1383.89079,485.548863 Z M1438.92953,537.067975 L1422.65248,524.409876 L1454.30252,504.769461 L1438.92953,537.067975 Z M1427.72527,567.268969 L1422.05212,528.009325 L1437.90147,540.333138 L1437.90147,562.357492 L1427.72527,567.268969 Z M1509.57041,467.244802 L1478.73575,439.368108 L1532.08408,421.414026 L1509.57041,467.244802 Z M1510.05462,340.879611 L1476.00944,284.671878 L1544.09901,317.539305 L1510.05462,340.879611 Z M1475.73634,280.997883 L1568.23717,243.501474 L1546.26264,315.041584 L1475.73634,280.997883 Z M1581.90484,106.461922 C1578.80576,97.2573167 1574.80418,85.3823552 1570.79554,73.5073937 C1566.56795,60.991327 1562.33879,48.4768298 1559.1471,39.0948804 C1557.55087,34.4023363 1556.21518,30.4929292 1555.27266,27.7590122 C1554.85987,26.5591961 1554.52477,25.6018543 1554.27286,24.8862021 L1571.46888,34.2501033 L1581.90484,106.461922 Z M1628.98673,89.5177578 L1601.17189,5.535343 L1670.45982,51.9193367 L1628.98673,89.5177578 Z M1670.94952,48.3912968 L1604.23095,3.72737951 L1665.58793,9.36235597 L1670.94952,48.3912968 Z M1597.53131,4.9444591 L1624.33379,85.8673037 L1575.11338,33.1734861 L1597.53131,4.9444591 Z M1425.06253,86.6943843 L1378.40285,131.16134 L1415.2332,60.4820526 L1425.06253,86.6943843 Z M1330.24424,57.5464661 L1399.38463,57.9709922 L1309.98681,75.1898041 L1330.24424,57.5464661 Z M1058.46904,169.39145 L1103.9437,196.145229 L1054.80727,189.512891 L1058.46904,169.39145 Z M929.83238,366.168343 L888.104238,381.335148 L904.492728,353.307791 L935.853186,356.619252 L929.83238,366.168343 Z M938.154151,353.675033 L905.236696,350.200353 L905.236696,306.55577 L950.55833,345.137428 L938.154151,353.675033 Z M1060.44746,438.129057 L1132.94905,453.269966 L1089.51794,484.294902 L1052.93322,459.119952 L1060.44746,438.129057 Z M1038.83,496.142399 L1051.56928,462.765698 L1090.86933,505.977908 L1038.83,496.142399 Z M1042.33482,620.074215 L1041.55632,539.441712 L1093.68981,511.107534 L1094.04767,529.442983 C1094.05709,529.818073 1094.19992,530.182961 1094.46046,530.463886 L1122.41107,560.869689 L1042.33482,620.074215 Z M1126.62453,562.675298 L1149.99047,562.675298 L1131.01144,604.668859 L1126.62453,562.675298 Z M1128.21685,609.500297 L1046.71465,620.826748 L1123.47287,564.075214 L1128.21685,609.500297 Z M1113.51092,628.748359 L1057.99268,672.797067 L1042.84963,624.56509 L1126.2141,612.978115 L1113.51092,628.748359 Z M1026.20138,812.153071 L978.479898,789.354997 L1009.41187,757.056483 L1026.20138,812.153071 Z M995.132073,725.118933 L1007.86429,752.823777 L958.660364,763.9054 L995.132073,725.118933 Z M1052.92852,676.704904 L996.103626,719.86297 L966.176955,668.172007 L1052.92852,676.704904 Z M1041.01482,723.863403 C1040.98892,723.857126 1040.96224,723.863403 1040.93556,723.861049 C1040.90495,723.857126 1040.87592,723.843786 1040.84531,723.839862 L999.952955,720.970976 L1056.34151,678.145625 L1075.03175,729.722021 L1041.01482,723.863403 Z M1040.67972,727.669229 L1066.97837,754.321781 L1014.08521,752.483214 L1040.67972,727.669229 Z M1010.71617,751.217483 L998.217814,724.025053 L1036.94889,726.744845 L1010.71617,751.217483 Z M1039.75683,625.625228 L1054.84886,673.71125 L968.437896,665.21288 L1039.75683,625.625228 Z M954.833793,621.427833 L960.889914,661.894356 L921.466661,624.75185 L954.833793,621.427833 Z M1035.01364,624.60354 L964.483407,663.752541 L958.140842,621.361918 L1035.01364,624.60354 Z M1024.49684,620.990752 L956.896971,618.13756 L935.784126,599.65694 L1024.49684,620.990752 Z M982.631366,565.129859 L1035.77722,620.436749 L933.888105,595.936647 L982.631366,565.129859 Z M979.270168,563.467851 L931.109996,593.905827 L923.786461,543.695605 L979.270168,563.467851 Z M935.890071,482.529313 L982.807941,512.407792 L924.035235,538.544792 L935.890071,482.529313 Z M844.79634,554.178497 L913.989309,544.038522 L836.584437,589.746098 L844.79634,554.178497 Z M841.689409,550.674783 L786.128794,536.045502 L837.814967,473.949333 L841.689409,550.674783 Z M900.098763,461.550972 L900.823112,409.83176 L932.193773,428.003206 L900.098763,461.550972 Z M933.127657,477.563691 L901.213931,465.054686 L933.127657,431.696034 L933.127657,477.563691 Z M936.408808,472.671831 L936.408808,429.268152 L956.844391,429.706018 L936.408808,472.671831 Z M984.113024,509.443172 L937.472965,479.740466 L976.175009,447.168874 L984.113024,509.443172 Z M987.269396,508.256696 L979.456944,446.984468 L1015.82663,467.368001 L987.269396,508.256696 Z M1018.5553,463.246723 L1009.25962,438.621852 L1035.23651,437.329441 L1018.5553,463.246723 Z M1038.14568,438.815675 L1048.5628,458.623233 L1021.63006,464.474004 L1038.14568,438.815675 Z M1050.69269,455.675876 L1040.89397,437.048516 L1057.65915,436.212804 L1050.69269,455.675876 Z M1035.36443,496.061574 L993.451866,508.784803 L1047.28833,464.810643 L1035.36443,496.061574 Z M1041.34364,535.921519 L1038.4282,499.292995 L1090.59309,509.155969 L1041.34364,535.921519 Z M1038.28929,540.950702 L1039.0466,619.182004 L985.655895,563.616946 L1038.28929,540.950702 Z M981.393773,560.848501 L926.063883,541.131969 L984.364153,515.201347 L981.393773,560.848501 Z M987.65786,515.135432 L1036.06367,538.440426 L984.700037,560.558945 L987.65786,515.135432 Z M1035.14783,499.448367 L1038.04837,535.855604 L990.545053,512.986906 L1035.14783,499.448367 Z M1019.16429,468.256288 L1044.81157,462.685658 L994.156595,504.060086 L1019.16429,468.256288 Z M894.006542,507.676798 L899.734627,467.894539 L931.472563,480.335274 L894.006542,507.676798 Z M894.301618,511.427694 L932.291085,483.708726 L920.797247,538.020608 L894.301618,511.427694 Z M891.745601,513.432619 L918.400539,540.185613 L848.667643,550.406414 L891.745601,513.432619 Z M889.310439,511.291155 L844.910917,549.392573 L841.061588,473.185814 L889.310439,511.291155 Z M890.614738,508.226877 L843.610542,471.107127 L896.496639,467.383695 L890.614738,508.226877 Z M974.958605,443.989244 L939.444324,473.879494 L959.932487,430.804607 L974.958605,443.989244 Z M897.536468,410.096206 L896.780728,464.187586 L842.776325,467.988704 L882.848589,419.846183 L897.536468,410.096206 Z M834.373722,435.065563 L877.012205,421.801671 L840.214029,466.010459 L834.373722,435.065563 Z M837.143198,467.413514 L806.263808,458.128868 L831.404127,437.005357 L837.143198,467.413514 Z M954.985255,763.102645 L947.664074,719.42275 L992.191515,723.530688 L954.985255,763.102645 Z M1029.43309,811.536292 L1012.38774,755.592221 L1067.89656,757.522598 L1029.43309,811.536292 Z M1070.09786,752.892046 L1045.37033,727.829309 L1075.46809,733.016218 L1070.09786,752.892046 Z M1078.05706,728.489247 L1060.05664,678.797716 L1101.25741,699.677968 L1078.05706,728.489247 Z M1102.4801,696.719625 L1060.08725,675.236719 L1112.42636,633.706919 L1102.4801,696.719625 Z M1174.64423,518.553613 L1123.19898,539.862314 L1168.4084,485.214578 L1174.64423,518.553613 Z M1204.99861,502.937171 L1177.708,535.484437 L1178.10823,520.373347 L1204.99861,502.937171 Z M1177.65934,516.848446 L1171.49021,483.85782 L1209.45771,496.229501 L1177.65934,516.848446 Z M1154.7164,445.659099 L1198.67174,428.238618 L1170.90948,462.186585 L1154.7164,445.659099 Z M1277.57789,532.4437 L1275.10976,480.995996 L1325.44298,524.822632 L1277.57789,532.4437 Z M1329.12044,523.76014 L1278.02599,479.269642 L1374.70106,487.490226 L1329.12044,523.76014 Z M1424.79178,569.890673 C1424.81532,570.060954 1424.86869,570.224958 1424.94795,570.376406 L1424.94795,570.37876 C1425.02721,570.527855 1425.12688,570.655762 1425.24145,570.770329 C1425.24616,570.777391 1425.25087,570.783669 1425.25558,570.792301 L1438.86596,583.927501 L1436.28719,597.366382 L1436.28719,597.378937 C1436.28326,597.391493 1436.28719,597.407187 1436.28326,597.421311 C1436.25658,597.598655 1436.26757,597.77286 1436.30053,597.945495 C1436.30523,597.969036 1436.29817,597.992578 1436.30288,598.016119 C1436.30759,598.034952 1436.32328,598.050646 1436.32721,598.071048 C1436.36959,598.218573 1436.42688,598.359036 1436.5132,598.489297 C1436.51712,598.497929 1436.51948,598.508914 1436.52576,598.5199 C1436.60345,598.632113 1436.69605,598.738833 1436.80435,598.829859 L1464.14754,622.586845 C1464.62625,623.005093 1465.31058,623.108674 1465.89995,622.863846 C1466.48931,622.616664 1466.87542,622.058737 1466.88641,621.440389 L1467.43183,591.346115 C1467.43418,591.273137 1467.40358,591.207222 1467.39416,591.136598 C1467.38788,591.07696 1467.40358,591.018107 1467.38945,590.956116 C1467.38082,590.921589 1467.35649,590.898832 1467.3455,590.866659 C1467.31019,590.755231 1467.25682,590.659497 1467.19954,590.562193 C1467.15402,590.478229 1467.114,590.397405 1467.052,590.327566 C1467.03473,590.306379 1467.02845,590.27656 1467.00805,590.254588 L1441.18341,562.723165 L1441.18341,542.975244 L1465.82932,562.964855 C1466.43438,563.452942 1467.31019,563.456865 1467.92232,562.978979 L1491.43736,544.501498 C1491.4507,544.488943 1491.45698,544.473249 1491.47268,544.463048 C1491.52761,544.415965 1491.5692,544.356328 1491.62021,544.300614 C1491.69555,544.215865 1491.77011,544.130332 1491.82818,544.032244 C1491.86114,543.970252 1491.88547,543.904337 1491.91215,543.836067 C1491.9561,543.725424 1491.98906,543.61478 1492.00711,543.497074 C1492.01103,543.460978 1492.03301,543.428805 1492.03772,543.391139 C1492.04007,543.356612 1492.02437,543.327578 1492.02437,543.290696 C1492.02673,543.16122 1492.00711,543.033313 1491.97336,542.903051 C1491.95845,542.838706 1491.94904,542.775144 1491.92549,542.713153 C1491.91372,542.690396 1491.91608,542.664501 1491.90509,542.638605 L1478.78048,513.601331 C1478.66512,513.347086 1478.48462,513.128153 1478.25468,512.961795 L1461.06808,500.633273 L1510.94612,471.236603 C1511.05835,471.169903 1511.15566,471.082016 1511.24826,470.99256 C1511.25925,470.982358 1511.27495,470.97765 1511.28593,470.967449 C1511.28829,470.96431 1511.28829,470.961171 1511.29299,470.958817 C1511.40286,470.841111 1511.50018,470.709281 1511.57081,470.563325 L1536.72211,419.361234 L1536.72447,419.361234 L1536.72839,419.351033 C1536.81236,419.180752 1536.85474,419.000269 1536.872,418.820572 C1536.87671,418.767996 1536.86965,418.716206 1536.86965,418.66363 C1536.86808,418.522383 1536.85003,418.38349 1536.81001,418.246951 C1536.80137,418.215563 1536.80608,418.18339 1536.7951,418.151217 C1536.78646,418.122183 1536.7637,418.104135 1536.75115,418.07667 C1536.69386,417.942485 1536.61617,417.820856 1536.52121,417.704719 C1536.48982,417.665484 1536.46784,417.623894 1536.43488,417.588583 C1536.42154,417.578381 1536.41762,417.562687 1536.40663,417.552486 L1509.30673,391.388806 L1521.4378,364.393338 C1521.63478,363.960964 1521.61673,363.46503 1521.39385,363.042858 C1521.17333,362.622255 1520.76682,362.320143 1520.2881,362.216562 L1498.41717,357.524803 L1509.8647,345.200204 L1534.03582,359.102847 L1551.3221,388.308049 C1551.6572,388.872253 1552.30621,389.182997 1552.98582,389.088047 C1553.65288,388.993882 1554.19359,388.512857 1554.34349,387.877245 L1560.90814,360.424293 C1561.02978,359.91188 1560.87989,359.373571 1560.50869,358.98828 L1546.24695,344.198134 L1548.8579,317.981095 L1566.53499,299.36629 C1566.72962,299.159912 1566.86617,298.908806 1566.92581,298.635728 L1574.03589,267.486024 C1574.06649,267.343208 1574.07983,267.195683 1574.0712,267.049727 L1572.43102,240.65142 C1572.42866,240.627879 1572.41375,240.609046 1572.4114,240.587074 C1572.38707,240.379127 1572.32978,240.179812 1572.22541,239.996191 C1572.21442,239.977358 1572.2105,239.956171 1572.19715,239.937338 C1572.11554,239.801583 1572.01352,239.67603 1571.88795,239.566956 C1571.844,239.528506 1571.78907,239.506534 1571.74041,239.473576 C1571.72001,239.458667 1571.71138,239.432771 1571.68705,239.417862 L1530.72642,213.739915 L1549.66386,170.063943 L1591.82128,147.626834 C1591.85816,147.607216 1591.88484,147.575043 1591.92016,147.552287 C1591.98216,147.513052 1592.03709,147.469108 1592.09281,147.422026 C1592.18698,147.341986 1592.2686,147.255668 1592.34394,147.15601 C1592.38553,147.101081 1592.42556,147.048505 1592.46087,146.987298 C1592.5315,146.857822 1592.58016,146.719714 1592.61312,146.574543 C1592.62253,146.539231 1592.64608,146.510982 1592.65079,146.4741 C1592.65314,146.465469 1592.64843,146.457622 1592.65079,146.44899 C1592.67511,146.271646 1592.67276,146.090379 1592.63352,145.908327 L1587.92722,124.703992 L1626.80348,95.4572003 L1629.29829,128.17004 L1614.58529,190.766852 C1614.47307,191.239245 1614.59236,191.734395 1614.90862,192.111838 L1644.44055,227.484832 C1644.84314,227.969781 1645.50706,228.178513 1646.13174,228.023925 C1646.75643,227.866199 1647.22651,227.36948 1647.33481,226.754271 L1656.08507,176.597409 C1656.14863,176.224673 1656.07172,175.839382 1655.87082,175.516083 L1640.38561,150.771153 L1647.20218,128.498832 L1674.35545,94.9463565 C1674.41509,94.8725941 1674.45512,94.7870611 1674.49906,94.7038822 C1674.52104,94.6677857 1674.54537,94.6379669 1674.56106,94.600301 C1674.56734,94.5853915 1674.58068,94.5744057 1674.58539,94.5602809 L1683.33251,73.4406936 C1683.48947,73.0640346 1683.48947,72.6426473 1683.33251,72.2644188 L1674.97778,52.0943262 L1686.83183,40.1754211 L1706.28801,41.6977515 C1706.30998,41.6993209 1706.33196,41.6922585 1706.35393,41.6922585 C1706.37591,41.6938279 1706.39866,41.7048138 1706.4175,41.7048138 C1706.48891,41.7048138 1706.55719,41.6844114 1706.62782,41.6765644 C1706.68982,41.669502 1706.75574,41.6647938 1706.81773,41.6514538 C1706.83108,41.648315 1706.84834,41.6490997 1706.86168,41.6443914 C1706.88836,41.6373291 1706.90798,41.6169267 1706.93702,41.6082949 C1707.09084,41.5580737 1707.23524,41.4882349 1707.36708,41.3956395 C1707.40946,41.3673901 1707.44713,41.3422795 1707.48401,41.3116759 C1707.61193,41.2033864 1707.72494,41.0809722 1707.81519,40.937371 C1707.82617,40.918538 1707.84422,40.905198 1707.85286,40.8863651 C1707.85678,40.8816568 1707.86149,40.8777333 1707.86384,40.8722404 L1718.80127,21.3377599 C1719.21014,20.6111218 1718.96922,19.7040013 1718.25193,19.2559339 L1698.01411,6.58371071 C1697.99685,6.57272482 1697.97723,6.56958599 1697.95918,6.55938481 C1697.91915,6.53662833 1697.87756,6.52328832 1697.83518,6.50367066 C1697.70334,6.44246356 1697.56443,6.39695059 1697.42082,6.37027058 C1697.36275,6.3608541 1697.31252,6.35222233 1697.25523,6.34672938 C1697.21128,6.34437527 1697.16891,6.32868114 1697.1226,6.32868114 L1667.19907,6.3365282 L1598.29569,0 C1598.25802,0 1598.2227,0 1598.1866,0 C1598.13167,0 1598.07673,0 1598.01944,0.0102254279 C1597.91978,0.0165030789 1597.8209,0.0337666191 1597.72358,0.0580925166 C1597.66865,0.0706478186 1597.61528,0.0847725333 1597.56035,0.104390193 C1597.44813,0.14597963 1597.34611,0.198554957 1597.24487,0.26290088 C1597.21819,0.279379714 1597.18915,0.286442071 1597.16247,0.304490318 C1597.15619,0.307629143 1597.15384,0.313906794 1597.14991,0.318615032 C1597.03298,0.402578614 1596.92468,0.499097498 1596.83365,0.613664628 L1572.54638,31.1991649 L1552.45845,20.2595734 C1552.35015,20.2015051 1552.23087,20.1795333 1552.11158,20.1457909 C1552.04566,20.1261733 1551.98131,20.0916462 1551.91539,20.0790909 C1551.77413,20.0594732 1551.63287,20.0743827 1551.49161,20.086938 C1551.42726,20.0932156 1551.36369,20.081445 1551.29934,20.0955697 C1551.29698,20.0955697 1551.29306,20.0940003 1551.2907,20.0955697 L1428.78707,47.0211995 C1428.07136,47.1781408 1427.55498,47.7737329 1427.5126,48.4799686 L1425.76725,79.2608608 L1417.02327,55.9456651 C1417.02092,55.9425262 1417.01464,55.937818 1417.01464,55.9331098 C1416.95971,55.7895085 1416.88437,55.6506155 1416.78549,55.5266319 C1416.78313,55.5250624 1416.78313,55.5242777 1416.78313,55.5242777 C1416.76979,55.5070142 1416.7541,55.4991671 1416.74075,55.4842577 C1416.6505,55.3783224 1416.54927,55.2825882 1416.43861,55.2033328 C1416.39859,55.1766528 1416.35464,55.1617434 1416.31462,55.1374175 C1416.21731,55.0809186 1416.12078,55.0283433 1416.01719,54.9922468 C1415.96618,54.9765527 1415.91752,54.9726292 1415.8673,54.9608586 C1415.75821,54.9349633 1415.65305,54.9137762 1415.5424,54.9098526 C1415.52749,54.9082832 1415.50944,54.9020056 1415.49139,54.9004362 L1330.72139,54.3809606 L1326.21599,43.7426963 C1325.96172,43.1478888 1325.36136,42.7594592 1324.6943,42.7594592 L1275.47625,42.7594592 C1275.14115,42.7594592 1274.81155,42.8583322 1274.53609,43.0435229 L1219.6598,80.022026 C1219.64411,80.0314425 1219.6292,80.0408589 1219.61115,80.0502754 C1219.57426,80.0730319 1219.54052,80.102066 1219.50363,80.1279613 L1193.05195,97.9525666 C1192.50889,98.3182398 1192.24834,98.9624837 1192.38803,99.5878947 L1194.76904,110.168875 L1180.53398,113.011867 C1180.01917,113.113878 1179.58911,113.447379 1179.37329,113.908001 C1179.1567,114.369409 1179.18024,114.90144 1179.43922,115.343229 L1200.29701,150.968899 L1192.31505,163.809834 L1158.1906,111.604888 C1157.8508,111.086197 1157.2371,110.79821 1156.59672,110.87825 C1155.96498,110.955151 1155.43839,111.378108 1155.24141,111.963499 L1149.22689,129.913657 C1149.06758,130.38605 1149.14919,130.902387 1149.4427,131.310434 L1166.96284,155.473898 L1057.12001,165.255263 C1057.07135,165.258402 1057.03368,165.279589 1056.98974,165.287436 C1056.91283,165.299991 1056.83984,165.320393 1056.76293,165.343935 C1056.64757,165.3816 1056.54006,165.429468 1056.43411,165.490675 C1056.37212,165.526771 1056.31012,165.561298 1056.25283,165.606026 C1056.13354,165.698622 1056.03231,165.806911 1055.94363,165.928541 C1055.92401,165.957575 1055.89105,165.974054 1055.86907,166.007796 C1055.86437,166.014858 1055.86437,166.024275 1055.85966,166.032907 C1055.76234,166.192987 1055.68779,166.366407 1055.65248,166.557091 L1051.96795,186.794668 L1034.55376,162.626496 C1034.28458,162.252976 1033.86315,162.008932 1033.39072,161.957142 L1000.57607,158.394575 C1000.53604,158.389867 1000.49838,158.404776 1000.45835,158.402422 C1000.30846,158.398498 1000.16328,158.406346 1000.02123,158.437734 C999.996903,158.442442 999.971005,158.436949 999.946677,158.443227 L951.61464,171.642773 C951.566768,171.655328 951.528314,171.688286 951.482012,171.704764 C951.417661,171.728306 951.351739,171.737722 951.291312,171.76911 C951.250503,171.788728 951.222251,171.823255 951.184582,171.846012 C951.153976,171.86406 951.117876,171.871122 951.088839,171.891525 L922.837666,191.953328 C922.475099,192.212281 922.237312,192.603849 922.182377,193.035438 C922.126658,193.46938 922.259285,193.904892 922.546514,194.240747 L934.457853,208.112001 L899.489777,227.761834 C899.037745,228.016078 898.737961,228.461007 898.683811,228.963219 L895.401875,258.529386 C895.35165,258.975884 895.501542,259.423166 895.812313,259.756666 C896.12387,260.090951 896.567269,260.281635 897.033426,260.281635 L934.372313,260.281635 L945.382729,278.502517 C945.662894,278.967848 946.170644,279.264467 946.72862,279.286439 C947.263838,279.299779 947.815536,279.058874 948.138864,278.618654 L970.561501,247.996272 C970.879336,247.561545 970.95232,247.002834 970.751417,246.50533 L962.32841,225.670591 L979.558965,202.965897 L981.203072,216.661377 L973.806553,229.41364 C973.453403,230.019434 973.55464,230.778245 974.049049,231.281242 L985.388286,242.748156 L993.602543,257.121622 L987.152464,268.616786 L946.598347,289.737943 L923.168842,283.567797 C922.607726,283.423411 922.009727,283.570151 921.593795,283.95858 L902.511951,301.857733 L885.248435,316.501923 L879.609031,314.119554 L890.562158,303.086583 C891.0652,302.578878 891.162512,301.81065 890.799945,301.200933 L878.200357,280.060159 C878.191724,280.04525 878.184661,280.031125 878.174459,280.016216 L878.146992,279.970703 L859.552495,254.098933 C859.189143,253.592798 858.558183,253.332275 857.924868,253.44135 C857.297047,253.545716 856.787727,253.992998 856.621354,254.587806 L849.703548,279.244849 L836.141823,285.791654 C836.008411,285.856 835.887556,285.93761 835.775333,286.032559 L818.822588,300.815643 C818.229297,301.333549 818.108441,302.190448 818.538499,302.84097 L826.195565,314.456194 C826.209691,314.479735 826.237942,314.491505 826.254423,314.512692 C826.378417,314.684543 826.524386,314.834422 826.701745,314.943496 C826.710378,314.948989 826.719795,314.949774 826.727643,314.953697 C826.904218,315.058848 827.101982,315.11927 827.306808,315.153013 C827.334275,315.157721 827.356249,315.175769 827.384501,315.179693 L845.150274,317.227776 L857.118902,328.521271 L875.157778,343.887391 L875.157778,361.270206 L831.794946,365.354603 C831.187529,365.411887 830.664867,365.788546 830.434928,366.332347 C830.204203,366.878503 830.307009,367.500775 830.698613,367.951196 L865.698865,408.077157 C866.022193,408.447538 866.511109,408.657055 867.004733,408.640576 C867.506206,408.625666 867.971578,408.391039 868.270578,408.003394 L885.483868,385.67222 L930.312663,369.379362 L950.914619,398.448025 C951.40118,399.134643 952.359393,399.341021 953.101007,398.917279 L973.55464,387.272237 L1011.53312,411.026083 C1011.57942,411.055902 1011.63906,411.065319 1011.68772,411.091214 C1011.74108,411.116324 1011.78268,411.154775 1011.83761,411.175962 C1011.869,411.186163 1011.89961,411.183025 1011.93022,411.192441 C1012.03852,411.226183 1012.15152,411.241093 1012.2661,411.252079 C1012.31868,411.257572 1012.37205,411.281113 1012.42541,411.281113 C1012.44503,411.281113 1012.46465,411.268558 1012.48662,411.266988 C1012.51566,411.266203 1012.54391,411.276405 1012.57766,411.273266 L1041.48961,408.689228 L1056.80296,419.5323 L1058.20222,433.015125 L1007.68771,435.527755 L996.728308,422.933218 C996.419106,422.577746 995.96629,422.370583 995.485222,422.36666 L995.472666,422.36666 C994.997876,422.36666 994.54506,422.56676 994.233503,422.912031 L977.287822,441.752831 L960.481831,427.00349 C960.400999,426.932866 960.298978,426.892846 960.207159,426.838701 C960.154579,426.808883 960.119264,426.7618 960.06276,426.735905 C960.050203,426.731981 960.036862,426.733551 960.025091,426.727273 C959.857933,426.657434 959.679004,426.619768 959.494582,426.607213 C959.470254,426.606428 959.447495,426.594658 959.423167,426.593088 C959.420813,426.593088 959.417674,426.592304 959.412965,426.592304 L936.112162,426.091661 L932.000718,406.738448 C931.843762,406.000824 931.172778,405.472716 930.39271,405.472716 L899.249635,405.472716 L899.243357,405.472716 L899.220598,405.472716 C899.197055,405.472716 899.174297,405.482133 899.151538,405.482917 C899.024404,405.48841 898.89884,405.504889 898.773276,405.538632 C898.720696,405.551972 898.674394,405.576297 898.622599,405.595915 C898.555108,405.62181 898.486047,405.639074 898.421696,405.672816 C898.395798,405.686941 898.378533,405.707343 898.354205,405.722253 C898.334586,405.733239 898.310257,405.738732 898.291423,405.751287 L880.989453,417.236249 L831.997418,432.476032 C831.930712,432.497219 831.877347,432.54744 831.81378,432.576474 C831.70862,432.624341 831.608169,432.669854 831.51792,432.737339 C831.488883,432.758526 831.451214,432.764804 831.423746,432.788345 L801.891817,457.60233 C801.860426,457.62901 801.844731,457.668245 801.814909,457.697279 C801.744279,457.766334 801.687776,457.843235 801.630487,457.926414 C801.592818,457.978204 801.539453,458.018224 801.510416,458.073939 L780.182542,498.200684 C780.052269,498.443943 779.990272,498.716236 780.001238,498.990883 L781.642226,537.00206 C781.642226,537.008337 781.644581,537.013045 781.644581,537.018538 C781.651644,537.129967 781.675187,537.238256 781.705793,537.344976 C781.712072,537.370872 781.712072,537.395982 781.719919,537.419523 C781.720704,537.421877 781.720704,537.424232 781.720704,537.426586 C781.765436,537.556062 781.826649,537.677692 781.901203,537.790689 C781.901987,537.792259 781.903557,537.794613 781.905127,537.796967 L805.967162,573.698853 C806.06526,573.847947 806.190824,573.978209 806.334438,574.086498 L833.132205,594.295826 C833.141622,594.301319 833.153394,594.303673 833.162027,594.309951 C833.172229,594.318582 833.177722,594.327214 833.187924,594.334277 C833.245998,594.373512 833.311919,594.39313 833.373916,594.425302 C833.444546,594.463753 833.512037,594.503773 833.586591,594.531238 C833.669777,594.559487 833.756102,594.569688 833.843213,594.585383 C833.90521,594.597938 833.963283,594.621479 834.027635,594.626187 L886.642983,598.180122 L927.350916,598.180122 L916.308324,622.896019 C916.294983,622.928192 916.294983,622.961934 916.282427,622.994107 C916.260453,623.051391 916.249466,623.108674 916.233771,623.169097 C916.20081,623.307205 916.187469,623.443744 916.193747,623.582637 C916.196101,623.61638 916.180406,623.650907 916.183545,623.687003 C916.185899,623.70819 916.198456,623.725454 916.20081,623.744287 C916.224353,623.897304 916.269086,624.044829 916.336576,624.186076 C916.349918,624.208833 916.352272,624.238652 916.365613,624.262193 C916.444091,624.405009 916.544542,624.539194 916.670106,624.65847 L961.210103,666.623782 L949.154365,690.407447 C949.086874,690.540062 949.040572,690.680525 949.013105,690.825696 L944.090201,717.371527 C944.086278,717.395853 944.093341,717.41861 944.090201,717.444505 C944.087062,717.461769 944.073721,717.478248 944.072936,717.500219 C944.067443,717.551225 944.088632,717.595953 944.088632,717.646959 C944.088632,717.731708 944.072152,717.819595 944.086278,717.902774 L952.290332,766.857465 C952.291902,766.87159 952.29975,766.880222 952.302889,766.897485 C952.313876,766.955554 952.340558,767.012837 952.360962,767.07169 C952.389999,767.165855 952.422175,767.26002 952.470831,767.347122 C952.481033,767.365955 952.482603,767.387927 952.493589,767.404406 C952.530474,767.464043 952.57913,767.509556 952.622293,767.562132 C952.648975,767.595874 952.665456,767.636679 952.696062,767.668852 L974.153424,790.45594 L974.691781,824.440788 C974.698059,824.905335 974.917012,825.343985 975.289781,825.637466 C975.585641,825.874447 975.954486,826 976.32961,826 C976.428491,826 976.528158,825.991368 976.627825,825.972535 L1029.12624,816.734187 C1029.16783,816.72791 1029.19923,816.702014 1029.23689,816.691813 C1029.3554,816.661994 1029.4637,816.617266 1029.57435,816.563906 C1029.6489,816.527809 1029.72189,816.491713 1029.79095,816.442276 C1029.82155,816.421089 1029.85922,816.412458 1029.88747,816.388916 C1029.98479,816.309661 1030.05934,816.213927 1030.13546,816.120547 C1030.14802,816.103283 1030.16999,816.093082 1030.18334,816.074249 L1072.29366,756.938777 C1072.31642,756.908958 1072.3227,756.870507 1072.34232,756.836765 C1072.37371,756.788113 1072.4153,756.747309 1072.43963,756.693948 C1072.46161,756.645297 1072.46396,756.594291 1072.48201,756.547208 C1072.49535,756.510327 1072.52125,756.480508 1072.53067,756.442058 L1079.00664,732.473202 L1105.04946,700.127605 C1105.0832,700.0868 1105.10282,700.040503 1105.1295,699.997344 C1105.1554,699.958893 1105.18915,699.931428 1105.20876,699.890624 C1105.21504,699.878068 1105.21347,699.860805 1105.22211,699.845895 C1105.29509,699.701509 1105.35238,699.55163 1105.37828,699.393904 L1116.24979,630.506101 L1131.29552,611.829305 C1131.29552,611.826951 1131.29788,611.826951 1131.30023,611.825382 L1131.30023,611.823812 C1131.38656,611.721016 1131.45483,611.605664 1131.51212,611.486388 L1154.00774,561.711679 C1154.0101,561.70697 1154.0101,561.70697 1154.01245,561.704616 L1157.56828,553.835581 L1176.85416,541.421526 C1176.90674,541.387783 1176.94676,541.338347 1176.99307,541.300681 C1177.04408,541.259876 1177.09038,541.221426 1177.13511,541.176697 C1177.16101,541.149233 1177.19397,541.131969 1177.2183,541.100581 L1214.40651,496.7529 C1214.43084,496.723081 1214.44575,496.688554 1214.46615,496.658736 C1214.49048,496.628132 1214.50774,496.595959 1214.52972,496.564571 C1214.62703,496.406845 1214.70472,496.238918 1214.73925,496.061574 L1214.73925,496.056081 C1214.77692,495.881092 1214.77064,495.701394 1214.74161,495.522481 C1214.73768,495.48403 1214.73062,495.446364 1214.72199,495.407129 C1214.71571,495.376525 1214.71571,495.344352 1214.70629,495.313749 C1214.68903,495.260389 1214.64272,495.222723 1214.62075,495.171717 C1214.58073,495.071275 1214.55875,494.966124 1214.4944,494.872744 C1214.46144,494.826446 1214.41279,494.80212 1214.3759,494.760531 C1214.31783,494.693046 1214.25661,494.638901 1214.18991,494.581618 C1214.06434,494.478037 1213.93172,494.397212 1213.78418,494.332866 C1213.73788,494.313248 1213.70492,494.270874 1213.65626,494.25518 L1170.23849,480.107709 L1139.68165,452.841516 L1151.53099,447.01978 L1169.83041,465.693437 C1169.86102,465.724826 1169.90339,465.742089 1169.93636,465.770339 C1169.96225,465.79388 1169.97559,465.826837 1170.00463,465.848809 C1170.04387,465.877059 1170.0886,465.883336 1170.12784,465.909232 C1170.23457,465.975932 1170.34208,466.028507 1170.46137,466.070881 C1170.53906,466.099915 1170.61597,466.125026 1170.69759,466.141505 C1170.73761,466.150136 1170.77293,466.171324 1170.81452,466.175247 L1271.71482,478.677189 L1274.38384,534.370154 C1274.3862,534.403897 1274.40582,534.43607 1274.40817,534.470597 C1274.41288,534.498062 1274.40111,534.525526 1274.40582,534.553776 C1274.41681,534.62126 1274.45447,534.67462 1274.47409,534.736612 C1274.50078,534.828423 1274.5251,534.915525 1274.57141,535.001058 C1274.62006,535.094438 1274.68128,535.175263 1274.74798,535.256873 C1274.7833,535.301601 1274.80527,535.358884 1274.84922,535.401259 L1312.58285,572.886682 C1312.90225,573.206842 1313.31347,573.395956 1313.80788,573.366138 C1314.26933,573.351228 1314.70174,573.152697 1315.00388,572.816843 L1328.67469,557.504868 C1328.91091,557.240422 1329.04981,556.906137 1329.07022,556.554588 L1330.67273,526.628241 L1378.75364,488.370667 L1418.30795,525.02744 L1424.79178,569.890673 Z" id="Fill-413" fill="#FFFFFF"></path>
                        <path d="M1537.09081,507.947684 L1552.48758,494.178035 L1565.54685,494.178035 L1562.62121,530.972111 L1537.09081,507.947684 Z M1564.01608,536 C1564.21716,536 1564.42301,535.963805 1564.61694,535.89299 C1565.21384,535.672676 1565.62554,535.143134 1565.67243,534.532549 L1568.99468,492.70901 C1569.03203,492.268381 1568.87148,491.834047 1568.55595,491.50987 C1568.24359,491.184907 1567.80089,491 1567.33991,491 L1551.82949,491 C1551.40984,491 1551.00449,491.153433 1550.69611,491.428826 L1533.52695,506.780805 C1533.19155,507.079803 1533.00159,507.499187 1533,507.939029 C1533,508.374937 1533.18916,508.795894 1533.52059,509.097253 L1562.87316,535.568813 C1563.1887,535.850501 1563.59802,536 1564.01608,536 L1564.01608,536 Z" id="Fill-417" fill="#FFFFFF"></path>
                        <path d="M1598.92506,315.314841 L1590.06165,309.122323 L1601.3755,301.355731 C1601.85138,301.02935 1602.11261,300.485911 1602.06841,299.924251 L1600.29904,278.386297 C1604.03508,278.760209 1610.29968,279.38049 1612.0864,279.50724 C1612.85666,280.004733 1615.09007,281.766555 1617.07883,283.336667 C1621.97102,287.19699 1624.79081,289.335892 1626.56649,290.453667 C1622.11308,294.67285 1608.38825,306.934305 1598.92506,315.314841 L1598.92506,315.314841 Z M1624.31334,337.347912 L1623.39394,360.943173 L1608.78127,345.947883 L1601.88216,321.374272 L1624.31334,337.347912 Z M1597.05389,376.776595 L1576.67381,375.45919 L1607.20052,348.982748 L1622.1849,364.356702 L1597.05389,376.776595 Z M1630.87705,289.343814 C1630.62609,288.72274 1630.05392,288.31318 1629.30103,288.317141 C1627.80078,287.670717 1622.21094,283.262994 1619.1615,280.856333 C1613.59139,276.460493 1613.35148,276.331366 1612.53467,276.331366 L1612.53309,276.331366 C1611.81098,276.313938 1603.64443,275.510662 1598.66779,275.006831 C1598.18796,274.964053 1597.6955,275.123283 1597.34431,275.453624 C1596.99391,275.784758 1596.81161,276.251356 1596.85186,276.725083 L1598.7033,299.27149 L1586.26959,307.806502 C1585.83475,308.105948 1585.5751,308.587597 1585.57274,309.104103 C1585.57037,309.6214 1585.82843,310.106218 1586.25933,310.408833 L1597.60869,318.338615 L1605.43826,346.221187 L1571.55038,375.611289 C1571.05556,376.03907 1570.87326,376.715597 1571.09029,377.323203 C1571.30652,377.931602 1571.87711,378.355422 1572.54003,378.3982 L1597.28907,379.996831 C1597.32695,380 1597.36246,380 1597.39798,380 C1597.65762,380 1597.9149,379.940586 1598.1485,379.826511 L1625.64471,366.234183 C1625.78282,366.165263 1625.90672,366.079707 1626.01563,365.978307 C1626.02037,365.976723 1626.02431,365.975138 1626.02668,365.972762 C1626.03773,365.962463 1626.0401,365.948996 1626.05114,365.93949 C1626.17978,365.815909 1626.28001,365.674108 1626.35735,365.518047 C1626.38181,365.475269 1626.40154,365.43566 1626.4197,365.391297 C1626.48599,365.22573 1626.53492,365.053826 1626.54202,364.870831 L1626.54202,364.856572 L1626.54439,364.85578 L1627.64531,336.621477 C1627.66504,336.092297 1627.41487,335.58609 1626.97292,335.271592 L1601.64698,317.238269 C1631.45237,290.85689 1631.4208,290.705582 1630.87705,289.343814 L1630.87705,289.343814 Z" id="Fill-423" fill="#FFFFFF"></path>
                    </g>
                </g>
            </g>
        </g>
    </g>
</svg>