<?xml version="1.0" encoding="UTF-8"?>
<svg width="46px" height="40px" viewBox="0 0 46 40" version="1.1" xmlns="http://www.w3.org/2000/svg" xmlns:xlink="http://www.w3.org/1999/xlink">
    <!-- Generator: Sketch 54.1 (76490) - https://sketchapp.com -->
    <title>App Store</title>
    <desc>Created with Sketch.</desc>
    <g id="页面1" stroke="none" stroke-width="1" fill="none" fill-rule="evenodd">
        <g id="ONT-H5-Download-iOS" transform="translate(-270.000000, -828.000000)" fill="#FFFFFF">
            <g id="编组-2" transform="translate(270.000000, 828.000000)">
                <path d="M22.5580227,3.59866905 L23.8210984,1.41913025 C24.5985693,0.0587079583 26.3338019,-0.399480187 27.6942241,0.377990741 C29.0546464,1.15537491 29.5128346,2.89060742 28.7353637,4.25102971 L16.5887361,25.281961 L25.3760403,25.281961 C28.2219084,25.281961 29.8181487,28.6276628 28.5824897,30.9458467 L2.83189946,30.9458467 C1.26307575,30.9458467 -5.57776048e-13,29.6826842 -5.57776048e-13,28.1138605 C-5.57776048e-13,26.5453838 1.26307575,25.281961 2.83189946,25.281961 L10.05038,25.281961 L19.295612,9.26255473 L16.4084454,4.25102971 C15.6309745,2.89060742 16.0888156,1.16934353 17.4495849,0.377990741 C18.8099204,-0.399480187 20.5312711,0.0587079583 21.3222768,1.41913025 L22.5580227,3.59866905 Z M11.6328252,33.8611241 L8.91198066,38.5808698 C8.13450974,39.941292 6.39927722,40.3994802 5.0389417,39.6220093 C3.6785194,38.8445383 3.22067831,37.1093058 3.99780219,35.7488835 L6.024467,32.2506548 C8.30126558,31.5426799 10.1616084,32.084246 11.6328252,33.8611241 Z M35.0794605,25.2958429 L42.450815,25.2958429 C44.0192916,25.2958429 45.2824541,26.5592657 45.2824541,28.1277423 C45.2824541,29.696566 44.0192916,30.9597286 42.450815,30.9597286 L38.3554059,30.9597286 L41.1178961,35.7488835 C41.895367,37.1093058 41.4370921,38.8306565 40.0767566,39.6220093 C38.7163343,40.3994802 36.9949837,39.941292 36.2039779,38.5808698 C31.5533813,30.5154223 28.0551525,24.4769866 25.7369686,20.4510737 C23.3632573,16.3560117 25.0567575,12.2469811 26.7364626,10.8587951 C28.5963715,14.0517097 31.3727436,18.8687152 35.0794605,25.2958429 Z" id="App-Store"></path>
            </g>
        </g>
    </g>
</svg>