<?xml version="1.0" encoding="UTF-8"?>
<svg width="37px" height="40px" viewBox="0 0 37 40" version="1.1" xmlns="http://www.w3.org/2000/svg" xmlns:xlink="http://www.w3.org/1999/xlink">
    <!-- Generator: Sketch 54.1 (76490) - https://sketchapp.com -->
    <title>Google Play</title>
    <desc>Created with Sketch.</desc>
    <g id="页面1" stroke="none" stroke-width="1" fill="none" fill-rule="evenodd">
        <g id="ONT-H5-Download-Android" transform="translate(-266.000000, -828.000000)" fill="#FFFFFF">
            <g id="编组-3复制" transform="translate(70.000000, 803.000000)">
                <g id="编组-2" transform="translate(196.000000, 25.000000)">
                    <path d="M4.04900324e-06,37.2614146 L4.04900324e-06,2.77760976 C-0.00189839002,1.60990244 0.666735756,0.544926829 1.71893088,0.0390243902 L21.8810772,20.0196098 L1.71893088,39.9999512 C0.670345512,39.4898537 0.0036138051,38.427561 4.04900324e-06,37.2614146 Z M28.2644919,26.3484878 L6.24239429,38.9658537 L23.6192723,21.7438537 L28.2656138,26.3454146 L28.2644919,26.3484878 Z M35.1213699,17.6024878 C35.8750284,18.178878 36.3202967,19.0708293 36.3281504,20.0196098 C36.3384431,20.9566829 35.9060528,21.8437073 35.1614187,22.412878 L30.4744919,25.0908293 L25.3576626,20.0196098 L30.4744919,14.9481463 L35.120248,17.6055122 L35.1213699,17.6024878 Z M6.24239429,1.07312195 L28.2644919,13.6904878 L23.6181504,18.2920488 L6.24239429,1.07312195 Z" id="Google-Play"></path>
                </g>
            </g>
        </g>
    </g>
</svg>