<?xml version="1.0" encoding="UTF-8"?>
<svg width="70px" height="71px" viewBox="0 0 70 71" version="1.1" xmlns="http://www.w3.org/2000/svg" xmlns:xlink="http://www.w3.org/1999/xlink">
    <!-- Generator: Sketch 55 (78076) - https://sketchapp.com -->
    <title>browser</title>
    <desc>Created with Sketch.</desc>
    <g id="页面1" stroke="none" stroke-width="1" fill="none" fill-rule="evenodd">
        <g id="ONT-H5-Download-选择从浏览器打开" transform="translate(-280.000000, -111.000000)" fill="#000000">
            <g id="编组-5" transform="translate(241.000000, 50.000000)">
                <path d="M73.9997559,92.5644593 C71.9459501,92.4759829 70.1851127,94.016801 70.0000544,96.0644544 C70.0000544,98.2735334 71.7906769,100.064156 73.9997559,100.064156 C76.2092254,100.064156 77.9998479,98.2735334 77.9998479,96.0644544 C77.8148873,94.016801 76.0540499,92.4759829 73.9997559,92.5644593 Z M73.9997559,61.5644049 C54.6699977,61.5644049 39,77.2344026 39,96.5641607 C39,115.894407 54.6699977,131.564405 73.9997559,131.564405 C93.3300023,131.564405 109,115.894407 109,96.5641607 C109,77.2344026 93.3300023,61.5644049 73.9997559,61.5644049 Z M81.4998431,104.064248 L52.9998828,117.064327 L65.9999623,88.5643672 L94.4999226,75.5642877 L81.4998431,104.064248 Z" id="browser"></path>
            </g>
        </g>
    </g>
</svg>