<?xml version="1.0" encoding="UTF-8"?>
<svg width="459px" height="418px" viewBox="0 0 459 418" version="1.1" xmlns="http://www.w3.org/2000/svg" xmlns:xlink="http://www.w3.org/1999/xlink">
    <!-- Generator: Sketch 57.1 (83088) - https://sketch.com -->
    <title>people</title>
    <desc>Created with Sketch.</desc>
    <defs>
        <polygon id="path-1" points="0.75 0 458.75 0 458.75 85 0.75 85"></polygon>
        <polygon id="path-3" points="0.14751174 0.37294169 41.2762814 0.37294169 41.2762814 23.5714286 0.14751174 23.5714286"></polygon>
        <polygon id="path-5" points="0 0.39995176 40.084433 0.39995176 40.084433 24.5714286 0 24.5714286"></polygon>
    </defs>
    <g id="页面1" stroke="none" stroke-width="1" fill="none" fill-rule="evenodd">
        <g id="people">
            <g id="编组" transform="translate(0.000000, 333.000000)">
                <g id="Fill-31-Clipped">
                    <mask id="mask-2" fill="white">
                        <use xlink:href="#path-1"></use>
                    </mask>
                    <g id="path-1"></g>
                    <path d="M155.588075,4.68948282 C33.0100757,4.68948282 -58.7296942,39.6626036 47.3460659,57.8577969 C153.404214,76.0529902 134.841397,88.454067 203.914804,84.1397428 C259.867434,80.6382623 270.557785,49.7918864 326.439968,51.6259953 C428.693971,54.9815808 569.658671,9.10801774 315.309322,0 L155.588075,4.68948282 Z" id="Fill-31" fill-opacity="0.05" fill="#0069E0" fill-rule="nonzero" mask="url(#mask-2)"></path>
                </g>
            </g>
            <path d="M181.478571,345.64 C181.478571,345.64 182.85,358.297142 180.164286,361.068571 C177.25,364.068571 165.192857,362.925714 163.564286,359.097142 C161.278571,354.868571 172.164286,342.697142 170.478571,341.182857 L181.478571,345.64 Z" id="Fill-9" fill="#E8B685" fill-rule="nonzero"></path>
            <path d="M183.655714,349.377142 C177.741429,351.377142 166.884286,349.12 165.37,344.434285 C165.37,344.434285 180.312857,284.605714 178.37,264.434285 C175.97,239.291428 150.827143,214.32 155.112857,174.577142 L192.055714,164.405714 C207.112857,205.177142 215.77,242.434285 210.512857,267.948571 C206.255714,288.662857 183.655714,349.377142 183.655714,349.377142" id="Fill-11" fill="#1B1B1B" fill-rule="nonzero"></path>
            <g id="编组" transform="translate(158.321429, 347.285714)">
                <g id="Fill-13-Clipped">
                    <mask id="mask-4" fill="white">
                        <use xlink:href="#path-3"></use>
                    </mask>
                    <g id="path-3"></g>
                    <path d="M5.07714286,7.1428571 C3.10571429,5.85714286 -1.55142857,15 0.791428571,18.1142857 C4.07714286,22.5142857 39.3342857,23.2285714 40.9628571,21.2571429 C44.02,17.4285714 23.7057143,8.4285714 23.7057143,8.4285714 C18.1914286,12 12.7342857,10.9142857 5.07714286,7.1428571" id="Fill-13" fill="#000000" fill-rule="nonzero" mask="url(#mask-4)"></path>
                </g>
            </g>
            <path d="M166.761429,338.54 C170.532857,322.968571 179.99,280.711428 178.418571,264.397142 C176.818571,248.34 166.047143,232.454285 159.618571,212.625714 C160.161429,213.082857 160.59,213.568571 161.132857,214.025714 C165.361429,218.082857 167.218571,208.654285 171.475714,212.597142 C174.247143,215.34 179.39,231.482857 181.79,234.482857 C186.332857,240.311428 189.39,247.282857 190.018571,254.682857 C190.418571,258.797142 189.961429,262.968571 189.447143,267.111428 C186.332857,292.054285 179.504286,316.854285 166.761429,338.54" id="Fill-15" fill-opacity="0.1" fill="#000000" fill-rule="nonzero"></path>
            <path d="M128.172857,345.277142 C128.172857,345.277142 127.63,357.991428 124.572857,360.305714 C121.23,362.848571 109.515714,359.962857 108.458571,355.934285 C106.801429,351.391428 119.372857,340.991428 117.972857,339.22 L128.172857,345.277142 Z" id="Fill-17" fill="#E8B685" fill-rule="nonzero"></path>
            <path d="M129.764286,349.294285 C123.65,350.408571 113.221429,346.551428 112.45,341.694285 C112.45,341.694285 136.078571,284.751428 137.164286,264.522857 C138.507143,239.265714 117.335714,210.865714 127.478571,172.18 L165.507143,167.608571 C174.364286,210.151428 177.392857,248.294285 168.421429,272.751428 C161.135714,292.608571 129.764286,349.294285 129.764286,349.294285" id="Fill-19" fill="#1B1B1B" fill-rule="nonzero"></path>
            <g id="编组" transform="translate(102.750000, 346.285714)">
                <g id="Fill-21-Clipped">
                    <mask id="mask-6" fill="white">
                        <use xlink:href="#path-5"></use>
                    </mask>
                    <g id="path-5"></g>
                    <path d="M6.22571429,5.00285714 C4.45428571,3.40285714 -1.51714286,11.7742857 0.34,15.2028571 C2.96857143,20.0314286 37.74,26.0028571 39.6257143,24.26 C43.2257143,20.9457143 24.4542857,9.0314286 24.4542857,9.0314286 C18.5114286,11.7457143 13.2257143,9.8314286 6.22571429,5.00285714" id="Fill-21" fill="#000000" fill-rule="nonzero" mask="url(#mask-6)"></path>
                </g>
            </g>
            <path d="M199.127143,184.842857 C198.955714,184.9 198.784286,185.042857 198.584286,185.128571 C193.27,188.3 186.87,188.928571 180.812857,189.614285 C177.098571,190.042857 173.498571,190.5 169.841429,191.014285 C166.384286,191.471428 162.984286,192.014285 159.527143,192.642857 C158.07,192.9 156.641429,193.185714 155.27,193.528571 C151.07,194.471428 147.155714,196.157142 144.47,199.357142 C140.27,204.471428 140.955714,212.042857 142.67,218.442857 C144.841429,227.014285 148.184286,235.185714 150.355714,243.757142 C152.412857,252.271428 153.27,261.442857 150.298571,269.7 C148.298571,275.214285 144.784286,280.014285 141.984286,285.185714 C136.27,295.728571 133.727143,307.671428 128.727143,318.557142 C124.727143,327.014285 119.07,334.814285 112.527143,341.5 C113.87,338.242857 136.184286,284.157142 137.127143,264.528571 C138.498571,239.3 117.384286,210.814285 127.441429,172.214285 L165.555714,167.585714 C165.812857,168.842857 166.098571,170.214285 166.298571,171.5 L192.012857,164.442857 C194.584286,171.385714 196.927143,178.128571 199.127143,184.842857" id="Fill-23" fill-opacity="0.1" fill="#000000" fill-rule="nonzero"></path>
            <path d="M235.287143,80.5999996 L242.601429,86.4857139 C242.601429,86.4857139 208.944286,125.914285 193.258571,120.914285 C192.287143,120.6 190.772857,118.542857 189.172857,115.542857 C187.087143,111.857142 184.544286,106.485714 182.258571,100.742857 C179.287143,93.428571 176.744286,85.4571425 175.372857,78.9714282 L175.258571,78.5142853 C175.258571,78.5142853 175.315714,78.3999996 175.401429,78.4571425 C183.087143,74.1999996 190.772857,71.0857139 198.058571,78.228571 C200.03,83.8857139 201.572857,89.1999996 202.544286,94.1714282 L202.572857,94.3142853 C202.801429,95.4857139 203.001429,96.6571425 203.172857,97.6571425 C203.23,97.828571 203.258571,97.9714282 203.201429,98.0571425 C203.487143,100.028571 203.601429,101.8 203.658571,103.485714 L235.287143,80.5999996 Z" id="Fill-25" fill="#D89C6A" fill-rule="nonzero"></path>
            <path d="M202.587264,94.3142853 C202.587264,94.3142853 185.53,101.714285 182.044286,100.685714 C177.872857,99.4857139 173.672857,77.1142853 174.987143,72.3999996 L188.758571,61.3999996 C197.587143,71.828571 202.615714,82.7428567 202.587264,94.3142853" id="Fill-27" fill="#E6E6E6" fill-rule="nonzero"></path>
            <path d="M197.621429,173.625714 C198.45,184.025714 139.135714,196.311428 122.107143,183.54 C118.592857,138.311428 120.707143,97.4828567 132.764286,68.368571 C148.992857,58.3399996 167.735714,56.168571 188.764286,61.3971425 C202.078571,111.94 174.935714,124.768571 197.621429,173.625714" id="Fill-29" fill="#F2F2F2" fill-rule="nonzero"></path>
            <path d="M170.961429,59.6457139 C168.904286,55.5599996 169.504286,50.2171425 170.961429,44.4742853 L155.932857,44.6742853 L152.018571,60.9314282 C156.99,63.788571 165.79,66.6457139 170.961429,59.6457139" id="Fill-31" fill="#E8B685" fill-rule="nonzero"></path>
            <path d="M152.03,60.9428567 C153.03,61.5428567 152.515714,62.1999996 153.944286,62.5142853 C154.372857,61.7714282 154.801429,60.628571 155.372857,59.3142853 C156.687143,56.2857139 158.401429,52.9142853 163.315714,55.8857139 C165.458571,57.1714282 167.315714,56.1428567 169.772857,55.5428567 L168.801429,42.8857139 L155.972857,44.628571 L152.03,60.9428567 Z" id="Fill-33" fill-opacity="0.1" fill="#000000" fill-rule="nonzero"></path>
            <path d="M142.612857,20.6257139 L154.87,51.0542853 L154.555714,50.3399996 C163.07,50.768571 169.07,56.768571 179.184286,50.768571 C182.727143,43.4828567 182.384286,35.7114282 181.498571,28.1971425 C180.812857,23.6257139 179.984286,18.968571 179.67,14.6542853 L157.298571,9.31142817 L142.612857,20.6257139 Z" id="Fill-35" fill="#E8B685" fill-rule="nonzero"></path>
            <path d="M142.807143,21.7142853 L154.864286,51.0571425 C156.207143,49.3142853 157.692857,50.228571 157.578571,47.8571425 C157.55,46.7999996 157.207143,45.7999996 157.464286,44.7142853 C157.635714,43.9142853 157.95,43.2571425 158.292857,42.5999996 C160.207143,38.9428567 162.092857,35.1428567 165.235714,32.5999996 C169.721429,28.9428567 175.864286,27.9999996 181.492857,28.1999996 C180.835714,23.628571 179.978571,18.9714282 179.664286,14.6571425 L157.292857,9.31428532 L142.807143,21.7142853 Z" id="Fill-37" fill-opacity="0.1" fill="#000000" fill-rule="nonzero"></path>
            <path d="M169.147143,25.3828567 C169.147143,25.3828567 181.404286,24.0114282 185.032857,18.2114282 C188.661429,12.4399996 185.518571,4.81142817 180.661429,6.89714246 C175.832857,8.95428532 171.547143,6.8399996 167.261429,4.2399996 C162.975714,1.6399996 156.004286,-1.44571468 153.718571,2.81142817 C151.432857,7.06857103 151.147143,9.0399996 147.375714,10.3542853 C143.604286,11.6971425 135.49,29.9257139 136.461429,33.6971425 C137.49,37.468571 154.632857,56.2971425 159.461429,53.7257139 C164.29,51.1257139 166.947143,45.3542853 162.632857,41.9542853 C158.347143,38.5542853 154.947143,34.8399996 157.175714,31.868571 C159.347143,28.9257139 164.175714,33.1828567 166.004286,36.868571 L168.547143,34.6399996 C168.547143,34.6399996 162.147143,26.6399996 169.147143,25.3828567" id="Fill-39" fill="#000000" fill-rule="nonzero"></path>
            <path d="M165.435714,187.52 C148.892857,190.005714 130.435714,189.777142 122.064286,183.548571 C116.178571,109.234285 131.921429,68.1199996 132.75,68.3759436 C136.321429,69.5199996 144.035714,97.8914282 147.578571,95.8914282 C153.55,92.4057139 146.55,99.2628567 148.721429,92.9771425 C147.721429,96.7771425 173.607143,107.977142 173.435714,109.634285 C158.292857,107.548571 138.635714,108.948571 141.264286,121.434285 C142.235714,126.034285 138.778571,130.434285 138.378571,135.148571 C137.635714,144.748571 136.892857,154.52 139.521429,163.777142 C140.435714,166.834285 141.692857,169.891428 143.578571,172.462857 C147.721429,177.862857 154.264286,180.662857 160.864286,182.148571 C162.521429,182.577142 164.521429,183.062857 165.35,184.548571 C165.921429,185.462857 165.835714,186.52 165.435714,187.52" id="Fill-41" fill-opacity="0.05" fill="#000000" fill-rule="nonzero"></path>
            <path d="M235.287143,80.5999996 L237.658571,76.2857139 C241.658571,75.2571425 243.63,73.5714282 246.258571,73.5714282 C247.772857,74.4857139 247.83,75.3999996 246.601429,76.2857139 L241.715714,78.3999996 L238.801429,83.428571 L235.287143,80.5999996 Z" id="Fill-45" fill="#D89C6A" fill-rule="nonzero"></path>
            <path d="M212.435714,45.1228567 L218.807143,49.9799996 L219.292857,50.3799996 C218.007143,52.408571 216.607143,54.4657139 215.321429,56.5799996 C206.435714,70.408571 196.692857,85.5228567 188.321429,96.0657139 C185.721429,99.2942853 183.292857,102.094285 180.978571,104.265714 C178.207143,107.094285 175.635714,108.98 173.435714,109.637142 C172.464286,109.922857 169.978571,109.38 166.778571,108.037142 C162.778571,106.437142 157.321429,103.837142 151.835714,100.78 C144.835714,96.9228567 137.721429,92.2657139 132.492857,88.008571 C132.378571,87.9228567 132.235714,87.8371425 132.092857,87.7514282 C132.092857,87.7514282 132.092857,87.6371425 132.207143,87.608571 C135.521429,79.3228567 139.578571,71.9514282 149.892857,72.9228567 C155.092857,76.1228567 159.692857,79.3228567 163.635714,82.608571 L163.75,82.7228567 C164.664286,83.4942853 165.578571,84.2657139 166.378571,84.9514282 C166.521429,85.0371425 166.635714,85.1514282 166.635714,85.2657139 C168.121429,86.6371425 169.35,87.9514282 170.464286,89.2657139 L184.378571,74.5514282 L205.921429,51.9514282 L212.435714,45.1228567 Z" id="Fill-47" fill="#E8B685" fill-rule="nonzero"></path>
            <path d="M225.578571,27.028571 C227.95,27.1714282 225.921429,29.428571 223.55,33.5714282 C221.292857,37.5714282 228.692857,38.828571 225.207143,46.5142853 C223.692857,49.1999996 221.092857,49.228571 219.292857,50.3714282 L218.807143,49.9999996 L212.435714,45.1142853 C212.435714,45.1142853 213.092857,41.0571425 213.578571,39.7999996 C214.15,38.3428567 215.721429,35.628571 216.778571,34.5142853 C217.778571,33.4857139 223.95,26.9428567 225.578571,27.028571" id="Fill-49" fill="#E8B685" fill-rule="nonzero"></path>
            <path d="M164.11,82.3457139 C164.11,82.3457139 154.795714,100.46 151.424286,101.917142 C147.367143,103.602857 129.852857,92.1457139 127.395714,86.5742853 C125.91,76.4599996 132.767143,68.3742853 132.767143,68.3742853 C147.167143,69.4314282 158.395714,73.4028567 164.11,82.3457139" id="Fill-51" fill="#E6E6E6" fill-rule="nonzero"></path>
        </g>
    </g>
</svg>